ISO-10303-21;
HEADER;
/* Generated by software containing ST-Developer
 * from STEP Tools, Inc. (www.steptools.com) 
 */

FILE_DESCRIPTION(
/* description */ (''),
/* implementation_level */ '2;1');

FILE_NAME(
/* name */ 'SmartMeter_RearHousing.step',
/* time_stamp */ '2026-10-03T13:53:31-03:00',
/* author */ (''),
/* organization */ (''),
/* preprocessor_version */ 'ST-DEVELOPER v20.1',
/* originating_system */ 'Autodesk Translation Framework v15.8.0.0',
/* authorisation */ '');

FILE_SCHEMA (('AUTOMOTIVE_DESIGN { 1 0 10303 214 3 1 1 }'));
ENDSEC;

DATA;
#10=MECHANICAL_DESIGN_GEOMETRIC_PRESENTATION_REPRESENTATION('',(#13),#1709);
#11=SHAPE_REPRESENTATION_RELATIONSHIP('SRR','None',#1716,#12);
#12=ADVANCED_BREP_SHAPE_REPRESENTATION('',(#14),#1708);
#13=STYLED_ITEM('',(#1725),#14);
#14=MANIFOLD_SOLID_BREP('Corpo1',#1013);
#15=FACE_BOUND('',#329,.T.);
#16=FACE_BOUND('',#332,.T.);
#17=FACE_BOUND('',#335,.T.);
#18=FACE_BOUND('',#338,.T.);
#19=FACE_BOUND('',#344,.T.);
#20=FACE_BOUND('',#345,.T.);
#21=FACE_BOUND('',#346,.T.);
#22=FACE_BOUND('',#347,.T.);
#23=FACE_BOUND('',#348,.T.);
#24=FACE_BOUND('',#349,.T.);
#25=FACE_BOUND('',#350,.T.);
#26=FACE_BOUND('',#351,.T.);
#27=FACE_BOUND('',#352,.T.);
#28=FACE_BOUND('',#353,.T.);
#29=FACE_BOUND('',#354,.T.);
#30=FACE_BOUND('',#355,.T.);
#31=FACE_BOUND('',#361,.T.);
#32=FACE_BOUND('',#362,.T.);
#33=FACE_BOUND('',#363,.T.);
#34=FACE_BOUND('',#364,.T.);
#35=FACE_BOUND('',#365,.T.);
#36=FACE_BOUND('',#366,.T.);
#37=FACE_BOUND('',#367,.T.);
#38=FACE_BOUND('',#368,.T.);
#39=FACE_BOUND('',#369,.T.);
#40=FACE_BOUND('',#370,.T.);
#41=FACE_BOUND('',#371,.T.);
#42=FACE_BOUND('',#372,.T.);
#43=FACE_BOUND('',#374,.T.);
#44=LINE('',#1437,#132);
#45=LINE('',#1449,#133);
#46=LINE('',#1459,#134);
#47=LINE('',#1473,#135);
#48=LINE('',#1482,#136);
#49=LINE('',#1484,#137);
#50=LINE('',#1486,#138);
#51=LINE('',#1487,#139);
#52=LINE('',#1490,#140);
#53=LINE('',#1492,#141);
#54=LINE('',#1493,#142);
#55=LINE('',#1496,#143);
#56=LINE('',#1498,#144);
#57=LINE('',#1499,#145);
#58=LINE('',#1501,#146);
#59=LINE('',#1502,#147);
#60=LINE('',#1506,#148);
#61=LINE('',#1508,#149);
#62=LINE('',#1510,#150);
#63=LINE('',#1511,#151);
#64=LINE('',#1514,#152);
#65=LINE('',#1516,#153);
#66=LINE('',#1517,#154);
#67=LINE('',#1520,#155);
#68=LINE('',#1522,#156);
#69=LINE('',#1523,#157);
#70=LINE('',#1525,#158);
#71=LINE('',#1526,#159);
#72=LINE('',#1530,#160);
#73=LINE('',#1532,#161);
#74=LINE('',#1534,#162);
#75=LINE('',#1535,#163);
#76=LINE('',#1538,#164);
#77=LINE('',#1540,#165);
#78=LINE('',#1541,#166);
#79=LINE('',#1544,#167);
#80=LINE('',#1546,#168);
#81=LINE('',#1547,#169);
#82=LINE('',#1549,#170);
#83=LINE('',#1550,#171);
#84=LINE('',#1555,#172);
#85=LINE('',#1561,#173);
#86=LINE('',#1567,#174);
#87=LINE('',#1573,#175);
#88=LINE('',#1578,#176);
#89=LINE('',#1580,#177);
#90=LINE('',#1582,#178);
#91=LINE('',#1583,#179);
#92=LINE('',#1586,#180);
#93=LINE('',#1588,#181);
#94=LINE('',#1589,#182);
#95=LINE('',#1592,#183);
#96=LINE('',#1594,#184);
#97=LINE('',#1595,#185);
#98=LINE('',#1597,#186);
#99=LINE('',#1598,#187);
#100=LINE('',#1603,#188);
#101=LINE('',#1610,#189);
#102=LINE('',#1617,#190);
#103=LINE('',#1624,#191);
#104=LINE('',#1632,#192);
#105=LINE('',#1640,#193);
#106=LINE('',#1646,#194);
#107=LINE('',#1652,#195);
#108=LINE('',#1658,#196);
#109=LINE('',#1660,#197);
#110=LINE('',#1662,#198);
#111=LINE('',#1663,#199);
#112=LINE('',#1666,#200);
#113=LINE('',#1668,#201);
#114=LINE('',#1669,#202);
#115=LINE('',#1672,#203);
#116=LINE('',#1674,#204);
#117=LINE('',#1675,#205);
#118=LINE('',#1677,#206);
#119=LINE('',#1678,#207);
#120=LINE('',#1683,#208);
#121=LINE('',#1685,#209);
#122=LINE('',#1687,#210);
#123=LINE('',#1688,#211);
#124=LINE('',#1691,#212);
#125=LINE('',#1693,#213);
#126=LINE('',#1694,#214);
#127=LINE('',#1697,#215);
#128=LINE('',#1699,#216);
#129=LINE('',#1700,#217);
#130=LINE('',#1702,#218);
#131=LINE('',#1703,#219);
#132=VECTOR('',#1144,1.6);
#133=VECTOR('',#1159,1.6);
#134=VECTOR('',#1170,1.6);
#135=VECTOR('',#1187,1.6);
#136=VECTOR('',#1198,10.);
#137=VECTOR('',#1199,10.);
#138=VECTOR('',#1200,10.);
#139=VECTOR('',#1201,10.);
#140=VECTOR('',#1204,10.);
#141=VECTOR('',#1205,10.);
#142=VECTOR('',#1206,10.);
#143=VECTOR('',#1209,10.);
#144=VECTOR('',#1210,10.);
#145=VECTOR('',#1211,10.);
#146=VECTOR('',#1214,10.);
#147=VECTOR('',#1215,10.);
#148=VECTOR('',#1218,10.);
#149=VECTOR('',#1219,10.);
#150=VECTOR('',#1220,10.);
#151=VECTOR('',#1221,10.);
#152=VECTOR('',#1224,10.);
#153=VECTOR('',#1225,10.);
#154=VECTOR('',#1226,10.);
#155=VECTOR('',#1229,10.);
#156=VECTOR('',#1230,10.);
#157=VECTOR('',#1231,10.);
#158=VECTOR('',#1234,10.);
#159=VECTOR('',#1235,10.);
#160=VECTOR('',#1238,10.);
#161=VECTOR('',#1239,10.);
#162=VECTOR('',#1240,10.);
#163=VECTOR('',#1241,10.);
#164=VECTOR('',#1244,10.);
#165=VECTOR('',#1245,10.);
#166=VECTOR('',#1246,10.);
#167=VECTOR('',#1249,10.);
#168=VECTOR('',#1250,10.);
#169=VECTOR('',#1251,10.);
#170=VECTOR('',#1254,10.);
#171=VECTOR('',#1255,10.);
#172=VECTOR('',#1260,6.);
#173=VECTOR('',#1267,6.);
#174=VECTOR('',#1274,6.);
#175=VECTOR('',#1281,6.);
#176=VECTOR('',#1286,10.);
#177=VECTOR('',#1287,10.);
#178=VECTOR('',#1288,10.);
#179=VECTOR('',#1289,10.);
#180=VECTOR('',#1292,10.);
#181=VECTOR('',#1293,10.);
#182=VECTOR('',#1294,10.);
#183=VECTOR('',#1297,10.);
#184=VECTOR('',#1298,10.);
#185=VECTOR('',#1299,10.);
#186=VECTOR('',#1302,10.);
#187=VECTOR('',#1303,10.);
#188=VECTOR('',#1308,2.3);
#189=VECTOR('',#1317,2.3);
#190=VECTOR('',#1326,2.3);
#191=VECTOR('',#1335,2.3);
#192=VECTOR('',#1346,5.);
#193=VECTOR('',#1357,5.);
#194=VECTOR('',#1366,5.);
#195=VECTOR('',#1375,5.);
#196=VECTOR('',#1382,10.);
#197=VECTOR('',#1383,10.);
#198=VECTOR('',#1384,10.);
#199=VECTOR('',#1385,10.);
#200=VECTOR('',#1388,10.);
#201=VECTOR('',#1389,10.);
#202=VECTOR('',#1390,10.);
#203=VECTOR('',#1393,10.);
#204=VECTOR('',#1394,10.);
#205=VECTOR('',#1395,10.);
#206=VECTOR('',#1398,10.);
#207=VECTOR('',#1399,10.);
#208=VECTOR('',#1404,10.);
#209=VECTOR('',#1405,10.);
#210=VECTOR('',#1406,10.);
#211=VECTOR('',#1407,10.);
#212=VECTOR('',#1410,10.);
#213=VECTOR('',#1411,10.);
#214=VECTOR('',#1412,10.);
#215=VECTOR('',#1415,10.);
#216=VECTOR('',#1416,10.);
#217=VECTOR('',#1417,10.);
#218=VECTOR('',#1420,10.);
#219=VECTOR('',#1421,10.);
#220=CYLINDRICAL_SURFACE('',#1031,1.6);
#221=CYLINDRICAL_SURFACE('',#1038,1.6);
#222=CYLINDRICAL_SURFACE('',#1041,1.6);
#223=CYLINDRICAL_SURFACE('',#1049,1.6);
#224=CYLINDRICAL_SURFACE('',#1069,6.);
#225=CYLINDRICAL_SURFACE('',#1072,6.);
#226=CYLINDRICAL_SURFACE('',#1075,6.);
#227=CYLINDRICAL_SURFACE('',#1078,6.);
#228=CYLINDRICAL_SURFACE('',#1085,2.3);
#229=CYLINDRICAL_SURFACE('',#1089,2.3);
#230=CYLINDRICAL_SURFACE('',#1093,2.3);
#231=CYLINDRICAL_SURFACE('',#1097,2.3);
#232=CYLINDRICAL_SURFACE('',#1101,5.);
#233=CYLINDRICAL_SURFACE('',#1106,5.);
#234=CYLINDRICAL_SURFACE('',#1111,5.);
#235=CYLINDRICAL_SURFACE('',#1115,5.);
#236=FACE_OUTER_BOUND('',#291,.T.);
#237=FACE_OUTER_BOUND('',#292,.T.);
#238=FACE_OUTER_BOUND('',#293,.T.);
#239=FACE_OUTER_BOUND('',#294,.T.);
#240=FACE_OUTER_BOUND('',#295,.T.);
#241=FACE_OUTER_BOUND('',#296,.T.);
#242=FACE_OUTER_BOUND('',#297,.T.);
#243=FACE_OUTER_BOUND('',#298,.T.);
#244=FACE_OUTER_BOUND('',#299,.T.);
#245=FACE_OUTER_BOUND('',#300,.T.);
#246=FACE_OUTER_BOUND('',#301,.T.);
#247=FACE_OUTER_BOUND('',#302,.T.);
#248=FACE_OUTER_BOUND('',#303,.T.);
#249=FACE_OUTER_BOUND('',#304,.T.);
#250=FACE_OUTER_BOUND('',#305,.T.);
#251=FACE_OUTER_BOUND('',#306,.T.);
#252=FACE_OUTER_BOUND('',#307,.T.);
#253=FACE_OUTER_BOUND('',#308,.T.);
#254=FACE_OUTER_BOUND('',#309,.T.);
#255=FACE_OUTER_BOUND('',#310,.T.);
#256=FACE_OUTER_BOUND('',#311,.T.);
#257=FACE_OUTER_BOUND('',#312,.T.);
#258=FACE_OUTER_BOUND('',#313,.T.);
#259=FACE_OUTER_BOUND('',#314,.T.);
#260=FACE_OUTER_BOUND('',#315,.T.);
#261=FACE_OUTER_BOUND('',#316,.T.);
#262=FACE_OUTER_BOUND('',#317,.T.);
#263=FACE_OUTER_BOUND('',#318,.T.);
#264=FACE_OUTER_BOUND('',#319,.T.);
#265=FACE_OUTER_BOUND('',#320,.T.);
#266=FACE_OUTER_BOUND('',#321,.T.);
#267=FACE_OUTER_BOUND('',#322,.T.);
#268=FACE_OUTER_BOUND('',#323,.T.);
#269=FACE_OUTER_BOUND('',#324,.T.);
#270=FACE_OUTER_BOUND('',#325,.T.);
#271=FACE_OUTER_BOUND('',#326,.T.);
#272=FACE_OUTER_BOUND('',#327,.T.);
#273=FACE_OUTER_BOUND('',#328,.T.);
#274=FACE_OUTER_BOUND('',#330,.T.);
#275=FACE_OUTER_BOUND('',#331,.T.);
#276=FACE_OUTER_BOUND('',#333,.T.);
#277=FACE_OUTER_BOUND('',#334,.T.);
#278=FACE_OUTER_BOUND('',#336,.T.);
#279=FACE_OUTER_BOUND('',#337,.T.);
#280=FACE_OUTER_BOUND('',#339,.T.);
#281=FACE_OUTER_BOUND('',#340,.T.);
#282=FACE_OUTER_BOUND('',#341,.T.);
#283=FACE_OUTER_BOUND('',#342,.T.);
#284=FACE_OUTER_BOUND('',#343,.T.);
#285=FACE_OUTER_BOUND('',#356,.T.);
#286=FACE_OUTER_BOUND('',#357,.T.);
#287=FACE_OUTER_BOUND('',#358,.T.);
#288=FACE_OUTER_BOUND('',#359,.T.);
#289=FACE_OUTER_BOUND('',#360,.T.);
#290=FACE_OUTER_BOUND('',#373,.T.);
#291=EDGE_LOOP('',(#647,#648,#649));
#292=EDGE_LOOP('',(#650,#651,#652,#653,#654,#655));
#293=EDGE_LOOP('',(#656,#657,#658));
#294=EDGE_LOOP('',(#659,#660,#661,#662,#663,#664));
#295=EDGE_LOOP('',(#665,#666,#667,#668,#669,#670));
#296=EDGE_LOOP('',(#671,#672,#673));
#297=EDGE_LOOP('',(#674,#675,#676,#677,#678,#679));
#298=EDGE_LOOP('',(#680,#681,#682));
#299=EDGE_LOOP('',(#683,#684,#685,#686));
#300=EDGE_LOOP('',(#687,#688,#689,#690));
#301=EDGE_LOOP('',(#691,#692,#693,#694));
#302=EDGE_LOOP('',(#695,#696,#697,#698));
#303=EDGE_LOOP('',(#699,#700,#701,#702));
#304=EDGE_LOOP('',(#703,#704,#705,#706));
#305=EDGE_LOOP('',(#707,#708,#709,#710));
#306=EDGE_LOOP('',(#711,#712,#713,#714));
#307=EDGE_LOOP('',(#715,#716,#717,#718));
#308=EDGE_LOOP('',(#719,#720,#721,#722));
#309=EDGE_LOOP('',(#723,#724,#725,#726));
#310=EDGE_LOOP('',(#727,#728,#729,#730));
#311=EDGE_LOOP('',(#731,#732,#733,#734));
#312=EDGE_LOOP('',(#735,#736,#737,#738));
#313=EDGE_LOOP('',(#739,#740,#741,#742));
#314=EDGE_LOOP('',(#743,#744,#745,#746));
#315=EDGE_LOOP('',(#747,#748,#749,#750));
#316=EDGE_LOOP('',(#751,#752,#753,#754));
#317=EDGE_LOOP('',(#755,#756,#757,#758));
#318=EDGE_LOOP('',(#759,#760,#761,#762));
#319=EDGE_LOOP('',(#763,#764,#765,#766));
#320=EDGE_LOOP('',(#767));
#321=EDGE_LOOP('',(#768,#769,#770,#771));
#322=EDGE_LOOP('',(#772));
#323=EDGE_LOOP('',(#773,#774,#775,#776));
#324=EDGE_LOOP('',(#777));
#325=EDGE_LOOP('',(#778,#779,#780,#781));
#326=EDGE_LOOP('',(#782));
#327=EDGE_LOOP('',(#783,#784,#785,#786,#787,#788));
#328=EDGE_LOOP('',(#789));
#329=EDGE_LOOP('',(#790));
#330=EDGE_LOOP('',(#791,#792,#793,#794,#795,#796));
#331=EDGE_LOOP('',(#797));
#332=EDGE_LOOP('',(#798));
#333=EDGE_LOOP('',(#799,#800,#801,#802,#803,#804));
#334=EDGE_LOOP('',(#805));
#335=EDGE_LOOP('',(#806));
#336=EDGE_LOOP('',(#807,#808,#809,#810,#811,#812));
#337=EDGE_LOOP('',(#813));
#338=EDGE_LOOP('',(#814));
#339=EDGE_LOOP('',(#815,#816,#817,#818));
#340=EDGE_LOOP('',(#819,#820,#821,#822));
#341=EDGE_LOOP('',(#823,#824,#825,#826));
#342=EDGE_LOOP('',(#827,#828,#829,#830));
#343=EDGE_LOOP('',(#831,#832,#833,#834));
#344=EDGE_LOOP('',(#835,#836,#837));
#345=EDGE_LOOP('',(#838,#839,#840,#841));
#346=EDGE_LOOP('',(#842));
#347=EDGE_LOOP('',(#843,#844,#845));
#348=EDGE_LOOP('',(#846,#847,#848));
#349=EDGE_LOOP('',(#849,#850,#851,#852));
#350=EDGE_LOOP('',(#853));
#351=EDGE_LOOP('',(#854));
#352=EDGE_LOOP('',(#855));
#353=EDGE_LOOP('',(#856,#857,#858,#859));
#354=EDGE_LOOP('',(#860,#861,#862,#863));
#355=EDGE_LOOP('',(#864,#865,#866));
#356=EDGE_LOOP('',(#867,#868,#869,#870));
#357=EDGE_LOOP('',(#871,#872,#873,#874));
#358=EDGE_LOOP('',(#875,#876,#877,#878));
#359=EDGE_LOOP('',(#879,#880,#881,#882));
#360=EDGE_LOOP('',(#883,#884,#885,#886));
#361=EDGE_LOOP('',(#887));
#362=EDGE_LOOP('',(#888));
#363=EDGE_LOOP('',(#889,#890,#891,#892));
#364=EDGE_LOOP('',(#893));
#365=EDGE_LOOP('',(#894));
#366=EDGE_LOOP('',(#895));
#367=EDGE_LOOP('',(#896));
#368=EDGE_LOOP('',(#897,#898,#899,#900));
#369=EDGE_LOOP('',(#901,#902,#903,#904));
#370=EDGE_LOOP('',(#905,#906,#907,#908));
#371=EDGE_LOOP('',(#909));
#372=EDGE_LOOP('',(#910));
#373=EDGE_LOOP('',(#911,#912,#913,#914));
#374=EDGE_LOOP('',(#915,#916,#917,#918));
#375=CIRCLE('',#1028,5.);
#376=CIRCLE('',#1029,1.6);
#377=CIRCLE('',#1030,1.6);
#378=CIRCLE('',#1032,1.6);
#379=CIRCLE('',#1033,1.6);
#380=CIRCLE('',#1035,5.);
#381=CIRCLE('',#1036,1.6);
#382=CIRCLE('',#1037,1.6);
#383=CIRCLE('',#1039,1.6);
#384=CIRCLE('',#1040,1.6);
#385=CIRCLE('',#1042,1.6);
#386=CIRCLE('',#1043,1.6);
#387=CIRCLE('',#1044,1.6);
#388=CIRCLE('',#1045,1.6);
#389=CIRCLE('',#1047,5.);
#390=CIRCLE('',#1048,5.);
#391=CIRCLE('',#1050,1.6);
#392=CIRCLE('',#1051,1.6);
#393=CIRCLE('',#1052,1.6);
#394=CIRCLE('',#1053,1.6);
#395=CIRCLE('',#1055,5.);
#396=CIRCLE('',#1056,5.);
#397=CIRCLE('',#1070,6.);
#398=CIRCLE('',#1071,6.);
#399=CIRCLE('',#1073,6.);
#400=CIRCLE('',#1074,6.);
#401=CIRCLE('',#1076,6.);
#402=CIRCLE('',#1077,6.);
#403=CIRCLE('',#1079,6.);
#404=CIRCLE('',#1080,6.);
#405=CIRCLE('',#1086,2.3);
#406=CIRCLE('',#1087,2.3);
#407=CIRCLE('',#1090,2.3);
#408=CIRCLE('',#1091,2.3);
#409=CIRCLE('',#1094,2.3);
#410=CIRCLE('',#1095,2.3);
#411=CIRCLE('',#1098,2.3);
#412=CIRCLE('',#1099,2.3);
#413=CIRCLE('',#1102,5.);
#414=CIRCLE('',#1103,5.);
#415=CIRCLE('',#1104,5.);
#416=CIRCLE('',#1107,5.);
#417=CIRCLE('',#1108,5.);
#418=CIRCLE('',#1109,5.);
#419=CIRCLE('',#1112,5.);
#420=CIRCLE('',#1113,5.);
#421=CIRCLE('',#1116,5.);
#422=CIRCLE('',#1117,5.);
#423=VERTEX_POINT('',#1428);
#424=VERTEX_POINT('',#1429);
#425=VERTEX_POINT('',#1431);
#426=VERTEX_POINT('',#1436);
#427=VERTEX_POINT('',#1440);
#428=VERTEX_POINT('',#1441);
#429=VERTEX_POINT('',#1443);
#430=VERTEX_POINT('',#1448);
#431=VERTEX_POINT('',#1452);
#432=VERTEX_POINT('',#1453);
#433=VERTEX_POINT('',#1455);
#434=VERTEX_POINT('',#1458);
#435=VERTEX_POINT('',#1462);
#436=VERTEX_POINT('',#1466);
#437=VERTEX_POINT('',#1467);
#438=VERTEX_POINT('',#1469);
#439=VERTEX_POINT('',#1472);
#440=VERTEX_POINT('',#1476);
#441=VERTEX_POINT('',#1480);
#442=VERTEX_POINT('',#1481);
#443=VERTEX_POINT('',#1483);
#444=VERTEX_POINT('',#1485);
#445=VERTEX_POINT('',#1489);
#446=VERTEX_POINT('',#1491);
#447=VERTEX_POINT('',#1495);
#448=VERTEX_POINT('',#1497);
#449=VERTEX_POINT('',#1504);
#450=VERTEX_POINT('',#1505);
#451=VERTEX_POINT('',#1507);
#452=VERTEX_POINT('',#1509);
#453=VERTEX_POINT('',#1513);
#454=VERTEX_POINT('',#1515);
#455=VERTEX_POINT('',#1519);
#456=VERTEX_POINT('',#1521);
#457=VERTEX_POINT('',#1528);
#458=VERTEX_POINT('',#1529);
#459=VERTEX_POINT('',#1531);
#460=VERTEX_POINT('',#1533);
#461=VERTEX_POINT('',#1537);
#462=VERTEX_POINT('',#1539);
#463=VERTEX_POINT('',#1543);
#464=VERTEX_POINT('',#1545);
#465=VERTEX_POINT('',#1552);
#466=VERTEX_POINT('',#1554);
#467=VERTEX_POINT('',#1558);
#468=VERTEX_POINT('',#1560);
#469=VERTEX_POINT('',#1564);
#470=VERTEX_POINT('',#1566);
#471=VERTEX_POINT('',#1570);
#472=VERTEX_POINT('',#1572);
#473=VERTEX_POINT('',#1576);
#474=VERTEX_POINT('',#1577);
#475=VERTEX_POINT('',#1579);
#476=VERTEX_POINT('',#1581);
#477=VERTEX_POINT('',#1585);
#478=VERTEX_POINT('',#1587);
#479=VERTEX_POINT('',#1591);
#480=VERTEX_POINT('',#1593);
#481=VERTEX_POINT('',#1600);
#482=VERTEX_POINT('',#1602);
#483=VERTEX_POINT('',#1607);
#484=VERTEX_POINT('',#1609);
#485=VERTEX_POINT('',#1614);
#486=VERTEX_POINT('',#1616);
#487=VERTEX_POINT('',#1621);
#488=VERTEX_POINT('',#1623);
#489=VERTEX_POINT('',#1628);
#490=VERTEX_POINT('',#1631);
#491=VERTEX_POINT('',#1636);
#492=VERTEX_POINT('',#1639);
#493=VERTEX_POINT('',#1645);
#494=VERTEX_POINT('',#1651);
#495=VERTEX_POINT('',#1656);
#496=VERTEX_POINT('',#1657);
#497=VERTEX_POINT('',#1659);
#498=VERTEX_POINT('',#1661);
#499=VERTEX_POINT('',#1665);
#500=VERTEX_POINT('',#1667);
#501=VERTEX_POINT('',#1671);
#502=VERTEX_POINT('',#1673);
#503=VERTEX_POINT('',#1681);
#504=VERTEX_POINT('',#1682);
#505=VERTEX_POINT('',#1684);
#506=VERTEX_POINT('',#1686);
#507=VERTEX_POINT('',#1690);
#508=VERTEX_POINT('',#1692);
#509=VERTEX_POINT('',#1696);
#510=VERTEX_POINT('',#1698);
#511=EDGE_CURVE('',#423,#424,#375,.T.);
#512=EDGE_CURVE('',#424,#425,#376,.T.);
#513=EDGE_CURVE('',#425,#423,#377,.T.);
#514=EDGE_CURVE('',#423,#424,#378,.T.);
#515=EDGE_CURVE('',#425,#426,#44,.T.);
#516=EDGE_CURVE('',#426,#426,#379,.T.);
#517=EDGE_CURVE('',#427,#428,#380,.T.);
#518=EDGE_CURVE('',#428,#429,#381,.T.);
#519=EDGE_CURVE('',#429,#427,#382,.T.);
#520=EDGE_CURVE('',#427,#428,#383,.T.);
#521=EDGE_CURVE('',#429,#430,#45,.T.);
#522=EDGE_CURVE('',#430,#430,#384,.T.);
#523=EDGE_CURVE('',#431,#432,#385,.T.);
#524=EDGE_CURVE('',#433,#431,#386,.T.);
#525=EDGE_CURVE('',#432,#433,#387,.T.);
#526=EDGE_CURVE('',#432,#434,#46,.T.);
#527=EDGE_CURVE('',#434,#434,#388,.T.);
#528=EDGE_CURVE('',#431,#435,#389,.T.);
#529=EDGE_CURVE('',#435,#433,#390,.T.);
#530=EDGE_CURVE('',#436,#437,#391,.T.);
#531=EDGE_CURVE('',#438,#436,#392,.T.);
#532=EDGE_CURVE('',#437,#438,#393,.T.);
#533=EDGE_CURVE('',#437,#439,#47,.T.);
#534=EDGE_CURVE('',#439,#439,#394,.T.);
#535=EDGE_CURVE('',#436,#440,#395,.T.);
#536=EDGE_CURVE('',#440,#438,#396,.T.);
#537=EDGE_CURVE('',#441,#442,#48,.T.);
#538=EDGE_CURVE('',#443,#441,#49,.T.);
#539=EDGE_CURVE('',#444,#443,#50,.T.);
#540=EDGE_CURVE('',#444,#442,#51,.T.);
#541=EDGE_CURVE('',#442,#445,#52,.T.);
#542=EDGE_CURVE('',#446,#444,#53,.T.);
#543=EDGE_CURVE('',#446,#445,#54,.T.);
#544=EDGE_CURVE('',#445,#447,#55,.T.);
#545=EDGE_CURVE('',#448,#446,#56,.T.);
#546=EDGE_CURVE('',#448,#447,#57,.T.);
#547=EDGE_CURVE('',#447,#441,#58,.T.);
#548=EDGE_CURVE('',#443,#448,#59,.T.);
#549=EDGE_CURVE('',#449,#450,#60,.T.);
#550=EDGE_CURVE('',#451,#449,#61,.T.);
#551=EDGE_CURVE('',#452,#451,#62,.T.);
#552=EDGE_CURVE('',#452,#450,#63,.T.);
#553=EDGE_CURVE('',#450,#453,#64,.T.);
#554=EDGE_CURVE('',#454,#452,#65,.T.);
#555=EDGE_CURVE('',#454,#453,#66,.T.);
#556=EDGE_CURVE('',#453,#455,#67,.T.);
#557=EDGE_CURVE('',#456,#454,#68,.T.);
#558=EDGE_CURVE('',#456,#455,#69,.T.);
#559=EDGE_CURVE('',#455,#449,#70,.T.);
#560=EDGE_CURVE('',#451,#456,#71,.T.);
#561=EDGE_CURVE('',#457,#458,#72,.T.);
#562=EDGE_CURVE('',#459,#457,#73,.T.);
#563=EDGE_CURVE('',#460,#459,#74,.T.);
#564=EDGE_CURVE('',#460,#458,#75,.T.);
#565=EDGE_CURVE('',#458,#461,#76,.T.);
#566=EDGE_CURVE('',#462,#460,#77,.T.);
#567=EDGE_CURVE('',#462,#461,#78,.T.);
#568=EDGE_CURVE('',#461,#463,#79,.T.);
#569=EDGE_CURVE('',#464,#462,#80,.T.);
#570=EDGE_CURVE('',#464,#463,#81,.T.);
#571=EDGE_CURVE('',#463,#457,#82,.T.);
#572=EDGE_CURVE('',#459,#464,#83,.T.);
#573=EDGE_CURVE('',#465,#465,#397,.T.);
#574=EDGE_CURVE('',#465,#466,#84,.T.);
#575=EDGE_CURVE('',#466,#466,#398,.T.);
#576=EDGE_CURVE('',#467,#467,#399,.T.);
#577=EDGE_CURVE('',#467,#468,#85,.T.);
#578=EDGE_CURVE('',#468,#468,#400,.T.);
#579=EDGE_CURVE('',#469,#469,#401,.T.);
#580=EDGE_CURVE('',#469,#470,#86,.T.);
#581=EDGE_CURVE('',#470,#470,#402,.T.);
#582=EDGE_CURVE('',#471,#471,#403,.T.);
#583=EDGE_CURVE('',#471,#472,#87,.T.);
#584=EDGE_CURVE('',#472,#472,#404,.T.);
#585=EDGE_CURVE('',#473,#474,#88,.T.);
#586=EDGE_CURVE('',#475,#473,#89,.T.);
#587=EDGE_CURVE('',#476,#475,#90,.T.);
#588=EDGE_CURVE('',#476,#474,#91,.T.);
#589=EDGE_CURVE('',#474,#477,#92,.T.);
#590=EDGE_CURVE('',#478,#476,#93,.T.);
#591=EDGE_CURVE('',#478,#477,#94,.T.);
#592=EDGE_CURVE('',#477,#479,#95,.T.);
#593=EDGE_CURVE('',#480,#478,#96,.T.);
#594=EDGE_CURVE('',#480,#479,#97,.T.);
#595=EDGE_CURVE('',#479,#473,#98,.T.);
#596=EDGE_CURVE('',#475,#480,#99,.T.);
#597=EDGE_CURVE('',#481,#481,#405,.T.);
#598=EDGE_CURVE('',#481,#482,#100,.T.);
#599=EDGE_CURVE('',#482,#482,#406,.T.);
#600=EDGE_CURVE('',#483,#483,#407,.T.);
#601=EDGE_CURVE('',#483,#484,#101,.T.);
#602=EDGE_CURVE('',#484,#484,#408,.T.);
#603=EDGE_CURVE('',#485,#485,#409,.T.);
#604=EDGE_CURVE('',#485,#486,#102,.T.);
#605=EDGE_CURVE('',#486,#486,#410,.T.);
#606=EDGE_CURVE('',#487,#487,#411,.T.);
#607=EDGE_CURVE('',#487,#488,#103,.T.);
#608=EDGE_CURVE('',#488,#488,#412,.T.);
#609=EDGE_CURVE('',#424,#489,#413,.T.);
#610=EDGE_CURVE('',#489,#423,#414,.T.);
#611=EDGE_CURVE('',#489,#490,#104,.T.);
#612=EDGE_CURVE('',#490,#490,#415,.T.);
#613=EDGE_CURVE('',#428,#491,#416,.T.);
#614=EDGE_CURVE('',#491,#427,#417,.T.);
#615=EDGE_CURVE('',#491,#492,#105,.T.);
#616=EDGE_CURVE('',#492,#492,#418,.T.);
#617=EDGE_CURVE('',#433,#431,#419,.T.);
#618=EDGE_CURVE('',#435,#493,#106,.T.);
#619=EDGE_CURVE('',#493,#493,#420,.T.);
#620=EDGE_CURVE('',#438,#436,#421,.T.);
#621=EDGE_CURVE('',#440,#494,#107,.T.);
#622=EDGE_CURVE('',#494,#494,#422,.T.);
#623=EDGE_CURVE('',#495,#496,#108,.T.);
#624=EDGE_CURVE('',#495,#497,#109,.T.);
#625=EDGE_CURVE('',#497,#498,#110,.T.);
#626=EDGE_CURVE('',#496,#498,#111,.T.);
#627=EDGE_CURVE('',#499,#495,#112,.T.);
#628=EDGE_CURVE('',#499,#500,#113,.T.);
#629=EDGE_CURVE('',#500,#497,#114,.T.);
#630=EDGE_CURVE('',#501,#499,#115,.T.);
#631=EDGE_CURVE('',#501,#502,#116,.T.);
#632=EDGE_CURVE('',#502,#500,#117,.T.);
#633=EDGE_CURVE('',#496,#501,#118,.T.);
#634=EDGE_CURVE('',#498,#502,#119,.T.);
#635=EDGE_CURVE('',#503,#504,#120,.T.);
#636=EDGE_CURVE('',#504,#505,#121,.T.);
#637=EDGE_CURVE('',#506,#505,#122,.T.);
#638=EDGE_CURVE('',#503,#506,#123,.T.);
#639=EDGE_CURVE('',#507,#503,#124,.T.);
#640=EDGE_CURVE('',#508,#506,#125,.T.);
#641=EDGE_CURVE('',#507,#508,#126,.T.);
#642=EDGE_CURVE('',#509,#507,#127,.T.);
#643=EDGE_CURVE('',#510,#508,#128,.T.);
#644=EDGE_CURVE('',#509,#510,#129,.T.);
#645=EDGE_CURVE('',#504,#509,#130,.T.);
#646=EDGE_CURVE('',#505,#510,#131,.T.);
#647=ORIENTED_EDGE('',*,*,#511,.T.);
#648=ORIENTED_EDGE('',*,*,#512,.T.);
#649=ORIENTED_EDGE('',*,*,#513,.T.);
#650=ORIENTED_EDGE('',*,*,#512,.F.);
#651=ORIENTED_EDGE('',*,*,#514,.F.);
#652=ORIENTED_EDGE('',*,*,#513,.F.);
#653=ORIENTED_EDGE('',*,*,#515,.T.);
#654=ORIENTED_EDGE('',*,*,#516,.F.);
#655=ORIENTED_EDGE('',*,*,#515,.F.);
#656=ORIENTED_EDGE('',*,*,#517,.T.);
#657=ORIENTED_EDGE('',*,*,#518,.T.);
#658=ORIENTED_EDGE('',*,*,#519,.T.);
#659=ORIENTED_EDGE('',*,*,#518,.F.);
#660=ORIENTED_EDGE('',*,*,#520,.F.);
#661=ORIENTED_EDGE('',*,*,#519,.F.);
#662=ORIENTED_EDGE('',*,*,#521,.T.);
#663=ORIENTED_EDGE('',*,*,#522,.F.);
#664=ORIENTED_EDGE('',*,*,#521,.F.);
#665=ORIENTED_EDGE('',*,*,#523,.F.);
#666=ORIENTED_EDGE('',*,*,#524,.F.);
#667=ORIENTED_EDGE('',*,*,#525,.F.);
#668=ORIENTED_EDGE('',*,*,#526,.T.);
#669=ORIENTED_EDGE('',*,*,#527,.F.);
#670=ORIENTED_EDGE('',*,*,#526,.F.);
#671=ORIENTED_EDGE('',*,*,#528,.T.);
#672=ORIENTED_EDGE('',*,*,#529,.T.);
#673=ORIENTED_EDGE('',*,*,#524,.T.);
#674=ORIENTED_EDGE('',*,*,#530,.F.);
#675=ORIENTED_EDGE('',*,*,#531,.F.);
#676=ORIENTED_EDGE('',*,*,#532,.F.);
#677=ORIENTED_EDGE('',*,*,#533,.T.);
#678=ORIENTED_EDGE('',*,*,#534,.F.);
#679=ORIENTED_EDGE('',*,*,#533,.F.);
#680=ORIENTED_EDGE('',*,*,#535,.T.);
#681=ORIENTED_EDGE('',*,*,#536,.T.);
#682=ORIENTED_EDGE('',*,*,#531,.T.);
#683=ORIENTED_EDGE('',*,*,#537,.F.);
#684=ORIENTED_EDGE('',*,*,#538,.F.);
#685=ORIENTED_EDGE('',*,*,#539,.F.);
#686=ORIENTED_EDGE('',*,*,#540,.T.);
#687=ORIENTED_EDGE('',*,*,#541,.F.);
#688=ORIENTED_EDGE('',*,*,#540,.F.);
#689=ORIENTED_EDGE('',*,*,#542,.F.);
#690=ORIENTED_EDGE('',*,*,#543,.T.);
#691=ORIENTED_EDGE('',*,*,#544,.F.);
#692=ORIENTED_EDGE('',*,*,#543,.F.);
#693=ORIENTED_EDGE('',*,*,#545,.F.);
#694=ORIENTED_EDGE('',*,*,#546,.T.);
#695=ORIENTED_EDGE('',*,*,#547,.F.);
#696=ORIENTED_EDGE('',*,*,#546,.F.);
#697=ORIENTED_EDGE('',*,*,#548,.F.);
#698=ORIENTED_EDGE('',*,*,#538,.T.);
#699=ORIENTED_EDGE('',*,*,#549,.F.);
#700=ORIENTED_EDGE('',*,*,#550,.F.);
#701=ORIENTED_EDGE('',*,*,#551,.F.);
#702=ORIENTED_EDGE('',*,*,#552,.T.);
#703=ORIENTED_EDGE('',*,*,#553,.F.);
#704=ORIENTED_EDGE('',*,*,#552,.F.);
#705=ORIENTED_EDGE('',*,*,#554,.F.);
#706=ORIENTED_EDGE('',*,*,#555,.T.);
#707=ORIENTED_EDGE('',*,*,#556,.F.);
#708=ORIENTED_EDGE('',*,*,#555,.F.);
#709=ORIENTED_EDGE('',*,*,#557,.F.);
#710=ORIENTED_EDGE('',*,*,#558,.T.);
#711=ORIENTED_EDGE('',*,*,#559,.F.);
#712=ORIENTED_EDGE('',*,*,#558,.F.);
#713=ORIENTED_EDGE('',*,*,#560,.F.);
#714=ORIENTED_EDGE('',*,*,#550,.T.);
#715=ORIENTED_EDGE('',*,*,#561,.F.);
#716=ORIENTED_EDGE('',*,*,#562,.F.);
#717=ORIENTED_EDGE('',*,*,#563,.F.);
#718=ORIENTED_EDGE('',*,*,#564,.T.);
#719=ORIENTED_EDGE('',*,*,#565,.F.);
#720=ORIENTED_EDGE('',*,*,#564,.F.);
#721=ORIENTED_EDGE('',*,*,#566,.F.);
#722=ORIENTED_EDGE('',*,*,#567,.T.);
#723=ORIENTED_EDGE('',*,*,#568,.F.);
#724=ORIENTED_EDGE('',*,*,#567,.F.);
#725=ORIENTED_EDGE('',*,*,#569,.F.);
#726=ORIENTED_EDGE('',*,*,#570,.T.);
#727=ORIENTED_EDGE('',*,*,#571,.F.);
#728=ORIENTED_EDGE('',*,*,#570,.F.);
#729=ORIENTED_EDGE('',*,*,#572,.F.);
#730=ORIENTED_EDGE('',*,*,#562,.T.);
#731=ORIENTED_EDGE('',*,*,#573,.F.);
#732=ORIENTED_EDGE('',*,*,#574,.T.);
#733=ORIENTED_EDGE('',*,*,#575,.F.);
#734=ORIENTED_EDGE('',*,*,#574,.F.);
#735=ORIENTED_EDGE('',*,*,#576,.F.);
#736=ORIENTED_EDGE('',*,*,#577,.T.);
#737=ORIENTED_EDGE('',*,*,#578,.F.);
#738=ORIENTED_EDGE('',*,*,#577,.F.);
#739=ORIENTED_EDGE('',*,*,#579,.F.);
#740=ORIENTED_EDGE('',*,*,#580,.T.);
#741=ORIENTED_EDGE('',*,*,#581,.F.);
#742=ORIENTED_EDGE('',*,*,#580,.F.);
#743=ORIENTED_EDGE('',*,*,#582,.F.);
#744=ORIENTED_EDGE('',*,*,#583,.T.);
#745=ORIENTED_EDGE('',*,*,#584,.F.);
#746=ORIENTED_EDGE('',*,*,#583,.F.);
#747=ORIENTED_EDGE('',*,*,#585,.F.);
#748=ORIENTED_EDGE('',*,*,#586,.F.);
#749=ORIENTED_EDGE('',*,*,#587,.F.);
#750=ORIENTED_EDGE('',*,*,#588,.T.);
#751=ORIENTED_EDGE('',*,*,#589,.F.);
#752=ORIENTED_EDGE('',*,*,#588,.F.);
#753=ORIENTED_EDGE('',*,*,#590,.F.);
#754=ORIENTED_EDGE('',*,*,#591,.T.);
#755=ORIENTED_EDGE('',*,*,#592,.F.);
#756=ORIENTED_EDGE('',*,*,#591,.F.);
#757=ORIENTED_EDGE('',*,*,#593,.F.);
#758=ORIENTED_EDGE('',*,*,#594,.T.);
#759=ORIENTED_EDGE('',*,*,#595,.F.);
#760=ORIENTED_EDGE('',*,*,#594,.F.);
#761=ORIENTED_EDGE('',*,*,#596,.F.);
#762=ORIENTED_EDGE('',*,*,#586,.T.);
#763=ORIENTED_EDGE('',*,*,#597,.F.);
#764=ORIENTED_EDGE('',*,*,#598,.T.);
#765=ORIENTED_EDGE('',*,*,#599,.T.);
#766=ORIENTED_EDGE('',*,*,#598,.F.);
#767=ORIENTED_EDGE('',*,*,#599,.F.);
#768=ORIENTED_EDGE('',*,*,#600,.F.);
#769=ORIENTED_EDGE('',*,*,#601,.T.);
#770=ORIENTED_EDGE('',*,*,#602,.T.);
#771=ORIENTED_EDGE('',*,*,#601,.F.);
#772=ORIENTED_EDGE('',*,*,#602,.F.);
#773=ORIENTED_EDGE('',*,*,#603,.F.);
#774=ORIENTED_EDGE('',*,*,#604,.T.);
#775=ORIENTED_EDGE('',*,*,#605,.T.);
#776=ORIENTED_EDGE('',*,*,#604,.F.);
#777=ORIENTED_EDGE('',*,*,#605,.F.);
#778=ORIENTED_EDGE('',*,*,#606,.F.);
#779=ORIENTED_EDGE('',*,*,#607,.T.);
#780=ORIENTED_EDGE('',*,*,#608,.T.);
#781=ORIENTED_EDGE('',*,*,#607,.F.);
#782=ORIENTED_EDGE('',*,*,#608,.F.);
#783=ORIENTED_EDGE('',*,*,#609,.F.);
#784=ORIENTED_EDGE('',*,*,#511,.F.);
#785=ORIENTED_EDGE('',*,*,#610,.F.);
#786=ORIENTED_EDGE('',*,*,#611,.T.);
#787=ORIENTED_EDGE('',*,*,#612,.T.);
#788=ORIENTED_EDGE('',*,*,#611,.F.);
#789=ORIENTED_EDGE('',*,*,#612,.F.);
#790=ORIENTED_EDGE('',*,*,#597,.T.);
#791=ORIENTED_EDGE('',*,*,#613,.F.);
#792=ORIENTED_EDGE('',*,*,#517,.F.);
#793=ORIENTED_EDGE('',*,*,#614,.F.);
#794=ORIENTED_EDGE('',*,*,#615,.T.);
#795=ORIENTED_EDGE('',*,*,#616,.T.);
#796=ORIENTED_EDGE('',*,*,#615,.F.);
#797=ORIENTED_EDGE('',*,*,#616,.F.);
#798=ORIENTED_EDGE('',*,*,#600,.T.);
#799=ORIENTED_EDGE('',*,*,#528,.F.);
#800=ORIENTED_EDGE('',*,*,#617,.F.);
#801=ORIENTED_EDGE('',*,*,#529,.F.);
#802=ORIENTED_EDGE('',*,*,#618,.T.);
#803=ORIENTED_EDGE('',*,*,#619,.T.);
#804=ORIENTED_EDGE('',*,*,#618,.F.);
#805=ORIENTED_EDGE('',*,*,#619,.F.);
#806=ORIENTED_EDGE('',*,*,#603,.T.);
#807=ORIENTED_EDGE('',*,*,#535,.F.);
#808=ORIENTED_EDGE('',*,*,#620,.F.);
#809=ORIENTED_EDGE('',*,*,#536,.F.);
#810=ORIENTED_EDGE('',*,*,#621,.T.);
#811=ORIENTED_EDGE('',*,*,#622,.T.);
#812=ORIENTED_EDGE('',*,*,#621,.F.);
#813=ORIENTED_EDGE('',*,*,#622,.F.);
#814=ORIENTED_EDGE('',*,*,#606,.T.);
#815=ORIENTED_EDGE('',*,*,#623,.F.);
#816=ORIENTED_EDGE('',*,*,#624,.T.);
#817=ORIENTED_EDGE('',*,*,#625,.T.);
#818=ORIENTED_EDGE('',*,*,#626,.F.);
#819=ORIENTED_EDGE('',*,*,#627,.F.);
#820=ORIENTED_EDGE('',*,*,#628,.T.);
#821=ORIENTED_EDGE('',*,*,#629,.T.);
#822=ORIENTED_EDGE('',*,*,#624,.F.);
#823=ORIENTED_EDGE('',*,*,#630,.F.);
#824=ORIENTED_EDGE('',*,*,#631,.T.);
#825=ORIENTED_EDGE('',*,*,#632,.T.);
#826=ORIENTED_EDGE('',*,*,#628,.F.);
#827=ORIENTED_EDGE('',*,*,#633,.F.);
#828=ORIENTED_EDGE('',*,*,#626,.T.);
#829=ORIENTED_EDGE('',*,*,#634,.T.);
#830=ORIENTED_EDGE('',*,*,#631,.F.);
#831=ORIENTED_EDGE('',*,*,#634,.F.);
#832=ORIENTED_EDGE('',*,*,#625,.F.);
#833=ORIENTED_EDGE('',*,*,#629,.F.);
#834=ORIENTED_EDGE('',*,*,#632,.F.);
#835=ORIENTED_EDGE('',*,*,#520,.T.);
#836=ORIENTED_EDGE('',*,*,#613,.T.);
#837=ORIENTED_EDGE('',*,*,#614,.T.);
#838=ORIENTED_EDGE('',*,*,#557,.T.);
#839=ORIENTED_EDGE('',*,*,#554,.T.);
#840=ORIENTED_EDGE('',*,*,#551,.T.);
#841=ORIENTED_EDGE('',*,*,#560,.T.);
#842=ORIENTED_EDGE('',*,*,#573,.T.);
#843=ORIENTED_EDGE('',*,*,#530,.T.);
#844=ORIENTED_EDGE('',*,*,#532,.T.);
#845=ORIENTED_EDGE('',*,*,#620,.T.);
#846=ORIENTED_EDGE('',*,*,#523,.T.);
#847=ORIENTED_EDGE('',*,*,#525,.T.);
#848=ORIENTED_EDGE('',*,*,#617,.T.);
#849=ORIENTED_EDGE('',*,*,#593,.T.);
#850=ORIENTED_EDGE('',*,*,#590,.T.);
#851=ORIENTED_EDGE('',*,*,#587,.T.);
#852=ORIENTED_EDGE('',*,*,#596,.T.);
#853=ORIENTED_EDGE('',*,*,#582,.T.);
#854=ORIENTED_EDGE('',*,*,#579,.T.);
#855=ORIENTED_EDGE('',*,*,#576,.T.);
#856=ORIENTED_EDGE('',*,*,#569,.T.);
#857=ORIENTED_EDGE('',*,*,#566,.T.);
#858=ORIENTED_EDGE('',*,*,#563,.T.);
#859=ORIENTED_EDGE('',*,*,#572,.T.);
#860=ORIENTED_EDGE('',*,*,#545,.T.);
#861=ORIENTED_EDGE('',*,*,#542,.T.);
#862=ORIENTED_EDGE('',*,*,#539,.T.);
#863=ORIENTED_EDGE('',*,*,#548,.T.);
#864=ORIENTED_EDGE('',*,*,#514,.T.);
#865=ORIENTED_EDGE('',*,*,#609,.T.);
#866=ORIENTED_EDGE('',*,*,#610,.T.);
#867=ORIENTED_EDGE('',*,*,#635,.T.);
#868=ORIENTED_EDGE('',*,*,#636,.T.);
#869=ORIENTED_EDGE('',*,*,#637,.F.);
#870=ORIENTED_EDGE('',*,*,#638,.F.);
#871=ORIENTED_EDGE('',*,*,#639,.T.);
#872=ORIENTED_EDGE('',*,*,#638,.T.);
#873=ORIENTED_EDGE('',*,*,#640,.F.);
#874=ORIENTED_EDGE('',*,*,#641,.F.);
#875=ORIENTED_EDGE('',*,*,#642,.T.);
#876=ORIENTED_EDGE('',*,*,#641,.T.);
#877=ORIENTED_EDGE('',*,*,#643,.F.);
#878=ORIENTED_EDGE('',*,*,#644,.F.);
#879=ORIENTED_EDGE('',*,*,#645,.T.);
#880=ORIENTED_EDGE('',*,*,#644,.T.);
#881=ORIENTED_EDGE('',*,*,#646,.F.);
#882=ORIENTED_EDGE('',*,*,#636,.F.);
#883=ORIENTED_EDGE('',*,*,#646,.T.);
#884=ORIENTED_EDGE('',*,*,#643,.T.);
#885=ORIENTED_EDGE('',*,*,#640,.T.);
#886=ORIENTED_EDGE('',*,*,#637,.T.);
#887=ORIENTED_EDGE('',*,*,#522,.T.);
#888=ORIENTED_EDGE('',*,*,#534,.T.);
#889=ORIENTED_EDGE('',*,*,#592,.T.);
#890=ORIENTED_EDGE('',*,*,#595,.T.);
#891=ORIENTED_EDGE('',*,*,#585,.T.);
#892=ORIENTED_EDGE('',*,*,#589,.T.);
#893=ORIENTED_EDGE('',*,*,#584,.T.);
#894=ORIENTED_EDGE('',*,*,#581,.T.);
#895=ORIENTED_EDGE('',*,*,#578,.T.);
#896=ORIENTED_EDGE('',*,*,#575,.T.);
#897=ORIENTED_EDGE('',*,*,#568,.T.);
#898=ORIENTED_EDGE('',*,*,#571,.T.);
#899=ORIENTED_EDGE('',*,*,#561,.T.);
#900=ORIENTED_EDGE('',*,*,#565,.T.);
#901=ORIENTED_EDGE('',*,*,#556,.T.);
#902=ORIENTED_EDGE('',*,*,#559,.T.);
#903=ORIENTED_EDGE('',*,*,#549,.T.);
#904=ORIENTED_EDGE('',*,*,#553,.T.);
#905=ORIENTED_EDGE('',*,*,#544,.T.);
#906=ORIENTED_EDGE('',*,*,#547,.T.);
#907=ORIENTED_EDGE('',*,*,#537,.T.);
#908=ORIENTED_EDGE('',*,*,#541,.T.);
#909=ORIENTED_EDGE('',*,*,#527,.T.);
#910=ORIENTED_EDGE('',*,*,#516,.T.);
#911=ORIENTED_EDGE('',*,*,#645,.F.);
#912=ORIENTED_EDGE('',*,*,#635,.F.);
#913=ORIENTED_EDGE('',*,*,#639,.F.);
#914=ORIENTED_EDGE('',*,*,#642,.F.);
#915=ORIENTED_EDGE('',*,*,#623,.T.);
#916=ORIENTED_EDGE('',*,*,#633,.T.);
#917=ORIENTED_EDGE('',*,*,#630,.T.);
#918=ORIENTED_EDGE('',*,*,#627,.T.);
#919=PLANE('',#1027);
#920=PLANE('',#1034);
#921=PLANE('',#1046);
#922=PLANE('',#1054);
#923=PLANE('',#1057);
#924=PLANE('',#1058);
#925=PLANE('',#1059);
#926=PLANE('',#1060);
#927=PLANE('',#1061);
#928=PLANE('',#1062);
#929=PLANE('',#1063);
#930=PLANE('',#1064);
#931=PLANE('',#1065);
#932=PLANE('',#1066);
#933=PLANE('',#1067);
#934=PLANE('',#1068);
#935=PLANE('',#1081);
#936=PLANE('',#1082);
#937=PLANE('',#1083);
#938=PLANE('',#1084);
#939=PLANE('',#1088);
#940=PLANE('',#1092);
#941=PLANE('',#1096);
#942=PLANE('',#1100);
#943=PLANE('',#1105);
#944=PLANE('',#1110);
#945=PLANE('',#1114);
#946=PLANE('',#1118);
#947=PLANE('',#1119);
#948=PLANE('',#1120);
#949=PLANE('',#1121);
#950=PLANE('',#1122);
#951=PLANE('',#1123);
#952=PLANE('',#1124);
#953=PLANE('',#1125);
#954=PLANE('',#1126);
#955=PLANE('',#1127);
#956=PLANE('',#1128);
#957=PLANE('',#1129);
#958=ADVANCED_FACE('',(#236),#919,.T.);
#959=ADVANCED_FACE('',(#237),#220,.F.);
#960=ADVANCED_FACE('',(#238),#920,.T.);
#961=ADVANCED_FACE('',(#239),#221,.F.);
#962=ADVANCED_FACE('',(#240),#222,.F.);
#963=ADVANCED_FACE('',(#241),#921,.T.);
#964=ADVANCED_FACE('',(#242),#223,.F.);
#965=ADVANCED_FACE('',(#243),#922,.T.);
#966=ADVANCED_FACE('',(#244),#923,.F.);
#967=ADVANCED_FACE('',(#245),#924,.F.);
#968=ADVANCED_FACE('',(#246),#925,.F.);
#969=ADVANCED_FACE('',(#247),#926,.F.);
#970=ADVANCED_FACE('',(#248),#927,.F.);
#971=ADVANCED_FACE('',(#249),#928,.F.);
#972=ADVANCED_FACE('',(#250),#929,.F.);
#973=ADVANCED_FACE('',(#251),#930,.F.);
#974=ADVANCED_FACE('',(#252),#931,.F.);
#975=ADVANCED_FACE('',(#253),#932,.F.);
#976=ADVANCED_FACE('',(#254),#933,.F.);
#977=ADVANCED_FACE('',(#255),#934,.F.);
#978=ADVANCED_FACE('',(#256),#224,.F.);
#979=ADVANCED_FACE('',(#257),#225,.F.);
#980=ADVANCED_FACE('',(#258),#226,.F.);
#981=ADVANCED_FACE('',(#259),#227,.F.);
#982=ADVANCED_FACE('',(#260),#935,.F.);
#983=ADVANCED_FACE('',(#261),#936,.F.);
#984=ADVANCED_FACE('',(#262),#937,.F.);
#985=ADVANCED_FACE('',(#263),#938,.F.);
#986=ADVANCED_FACE('',(#264),#228,.F.);
#987=ADVANCED_FACE('',(#265),#939,.F.);
#988=ADVANCED_FACE('',(#266),#229,.F.);
#989=ADVANCED_FACE('',(#267),#940,.F.);
#990=ADVANCED_FACE('',(#268),#230,.F.);
#991=ADVANCED_FACE('',(#269),#941,.F.);
#992=ADVANCED_FACE('',(#270),#231,.F.);
#993=ADVANCED_FACE('',(#271),#942,.F.);
#994=ADVANCED_FACE('',(#272),#232,.T.);
#995=ADVANCED_FACE('',(#273,#15),#943,.F.);
#996=ADVANCED_FACE('',(#274),#233,.T.);
#997=ADVANCED_FACE('',(#275,#16),#944,.F.);
#998=ADVANCED_FACE('',(#276),#234,.T.);
#999=ADVANCED_FACE('',(#277,#17),#945,.F.);
#1000=ADVANCED_FACE('',(#278),#235,.T.);
#1001=ADVANCED_FACE('',(#279,#18),#946,.F.);
#1002=ADVANCED_FACE('',(#280),#947,.F.);
#1003=ADVANCED_FACE('',(#281),#948,.F.);
#1004=ADVANCED_FACE('',(#282),#949,.F.);
#1005=ADVANCED_FACE('',(#283),#950,.F.);
#1006=ADVANCED_FACE('',(#284,#19,#20,#21,#22,#23,#24,#25,#26,#27,#28,#29,
#30),#951,.F.);
#1007=ADVANCED_FACE('',(#285),#952,.T.);
#1008=ADVANCED_FACE('',(#286),#953,.T.);
#1009=ADVANCED_FACE('',(#287),#954,.T.);
#1010=ADVANCED_FACE('',(#288),#955,.T.);
#1011=ADVANCED_FACE('',(#289,#31,#32,#33,#34,#35,#36,#37,#38,#39,#40,#41,
#42),#956,.T.);
#1012=ADVANCED_FACE('',(#290,#43),#957,.F.);
#1013=CLOSED_SHELL('',(#958,#959,#960,#961,#962,#963,#964,#965,#966,#967,
#968,#969,#970,#971,#972,#973,#974,#975,#976,#977,#978,#979,#980,#981,#982,
#983,#984,#985,#986,#987,#988,#989,#990,#991,#992,#993,#994,#995,#996,#997,
#998,#999,#1000,#1001,#1002,#1003,#1004,#1005,#1006,#1007,#1008,#1009,#1010,
#1011,#1012));
#1014=DERIVED_UNIT_ELEMENT(#1016,1.);
#1015=DERIVED_UNIT_ELEMENT(#1711,-3.);
#1016=(
MASS_UNIT()
NAMED_UNIT(*)
SI_UNIT(.KILO.,.GRAM.)
);
#1017=DERIVED_UNIT((#1014,#1015));
#1018=MEASURE_REPRESENTATION_ITEM('density measure',
POSITIVE_RATIO_MEASURE(7850.),#1017);
#1019=PROPERTY_DEFINITION_REPRESENTATION(#1024,#1021);
#1020=PROPERTY_DEFINITION_REPRESENTATION(#1025,#1022);
#1021=REPRESENTATION('material name',(#1023),#1708);
#1022=REPRESENTATION('density',(#1018),#1708);
#1023=DESCRIPTIVE_REPRESENTATION_ITEM('A\X\E7o','A\X\E7o');
#1024=PROPERTY_DEFINITION('material property','material name',#1718);
#1025=PROPERTY_DEFINITION('material property','density of part',#1718);
#1026=AXIS2_PLACEMENT_3D('',#1426,#1130,#1131);
#1027=AXIS2_PLACEMENT_3D('',#1427,#1132,#1133);
#1028=AXIS2_PLACEMENT_3D('',#1430,#1134,#1135);
#1029=AXIS2_PLACEMENT_3D('',#1432,#1136,#1137);
#1030=AXIS2_PLACEMENT_3D('',#1433,#1138,#1139);
#1031=AXIS2_PLACEMENT_3D('',#1434,#1140,#1141);
#1032=AXIS2_PLACEMENT_3D('',#1435,#1142,#1143);
#1033=AXIS2_PLACEMENT_3D('',#1438,#1145,#1146);
#1034=AXIS2_PLACEMENT_3D('',#1439,#1147,#1148);
#1035=AXIS2_PLACEMENT_3D('',#1442,#1149,#1150);
#1036=AXIS2_PLACEMENT_3D('',#1444,#1151,#1152);
#1037=AXIS2_PLACEMENT_3D('',#1445,#1153,#1154);
#1038=AXIS2_PLACEMENT_3D('',#1446,#1155,#1156);
#1039=AXIS2_PLACEMENT_3D('',#1447,#1157,#1158);
#1040=AXIS2_PLACEMENT_3D('',#1450,#1160,#1161);
#1041=AXIS2_PLACEMENT_3D('',#1451,#1162,#1163);
#1042=AXIS2_PLACEMENT_3D('',#1454,#1164,#1165);
#1043=AXIS2_PLACEMENT_3D('',#1456,#1166,#1167);
#1044=AXIS2_PLACEMENT_3D('',#1457,#1168,#1169);
#1045=AXIS2_PLACEMENT_3D('',#1460,#1171,#1172);
#1046=AXIS2_PLACEMENT_3D('',#1461,#1173,#1174);
#1047=AXIS2_PLACEMENT_3D('',#1463,#1175,#1176);
#1048=AXIS2_PLACEMENT_3D('',#1464,#1177,#1178);
#1049=AXIS2_PLACEMENT_3D('',#1465,#1179,#1180);
#1050=AXIS2_PLACEMENT_3D('',#1468,#1181,#1182);
#1051=AXIS2_PLACEMENT_3D('',#1470,#1183,#1184);
#1052=AXIS2_PLACEMENT_3D('',#1471,#1185,#1186);
#1053=AXIS2_PLACEMENT_3D('',#1474,#1188,#1189);
#1054=AXIS2_PLACEMENT_3D('',#1475,#1190,#1191);
#1055=AXIS2_PLACEMENT_3D('',#1477,#1192,#1193);
#1056=AXIS2_PLACEMENT_3D('',#1478,#1194,#1195);
#1057=AXIS2_PLACEMENT_3D('',#1479,#1196,#1197);
#1058=AXIS2_PLACEMENT_3D('',#1488,#1202,#1203);
#1059=AXIS2_PLACEMENT_3D('',#1494,#1207,#1208);
#1060=AXIS2_PLACEMENT_3D('',#1500,#1212,#1213);
#1061=AXIS2_PLACEMENT_3D('',#1503,#1216,#1217);
#1062=AXIS2_PLACEMENT_3D('',#1512,#1222,#1223);
#1063=AXIS2_PLACEMENT_3D('',#1518,#1227,#1228);
#1064=AXIS2_PLACEMENT_3D('',#1524,#1232,#1233);
#1065=AXIS2_PLACEMENT_3D('',#1527,#1236,#1237);
#1066=AXIS2_PLACEMENT_3D('',#1536,#1242,#1243);
#1067=AXIS2_PLACEMENT_3D('',#1542,#1247,#1248);
#1068=AXIS2_PLACEMENT_3D('',#1548,#1252,#1253);
#1069=AXIS2_PLACEMENT_3D('',#1551,#1256,#1257);
#1070=AXIS2_PLACEMENT_3D('',#1553,#1258,#1259);
#1071=AXIS2_PLACEMENT_3D('',#1556,#1261,#1262);
#1072=AXIS2_PLACEMENT_3D('',#1557,#1263,#1264);
#1073=AXIS2_PLACEMENT_3D('',#1559,#1265,#1266);
#1074=AXIS2_PLACEMENT_3D('',#1562,#1268,#1269);
#1075=AXIS2_PLACEMENT_3D('',#1563,#1270,#1271);
#1076=AXIS2_PLACEMENT_3D('',#1565,#1272,#1273);
#1077=AXIS2_PLACEMENT_3D('',#1568,#1275,#1276);
#1078=AXIS2_PLACEMENT_3D('',#1569,#1277,#1278);
#1079=AXIS2_PLACEMENT_3D('',#1571,#1279,#1280);
#1080=AXIS2_PLACEMENT_3D('',#1574,#1282,#1283);
#1081=AXIS2_PLACEMENT_3D('',#1575,#1284,#1285);
#1082=AXIS2_PLACEMENT_3D('',#1584,#1290,#1291);
#1083=AXIS2_PLACEMENT_3D('',#1590,#1295,#1296);
#1084=AXIS2_PLACEMENT_3D('',#1596,#1300,#1301);
#1085=AXIS2_PLACEMENT_3D('',#1599,#1304,#1305);
#1086=AXIS2_PLACEMENT_3D('',#1601,#1306,#1307);
#1087=AXIS2_PLACEMENT_3D('',#1604,#1309,#1310);
#1088=AXIS2_PLACEMENT_3D('',#1605,#1311,#1312);
#1089=AXIS2_PLACEMENT_3D('',#1606,#1313,#1314);
#1090=AXIS2_PLACEMENT_3D('',#1608,#1315,#1316);
#1091=AXIS2_PLACEMENT_3D('',#1611,#1318,#1319);
#1092=AXIS2_PLACEMENT_3D('',#1612,#1320,#1321);
#1093=AXIS2_PLACEMENT_3D('',#1613,#1322,#1323);
#1094=AXIS2_PLACEMENT_3D('',#1615,#1324,#1325);
#1095=AXIS2_PLACEMENT_3D('',#1618,#1327,#1328);
#1096=AXIS2_PLACEMENT_3D('',#1619,#1329,#1330);
#1097=AXIS2_PLACEMENT_3D('',#1620,#1331,#1332);
#1098=AXIS2_PLACEMENT_3D('',#1622,#1333,#1334);
#1099=AXIS2_PLACEMENT_3D('',#1625,#1336,#1337);
#1100=AXIS2_PLACEMENT_3D('',#1626,#1338,#1339);
#1101=AXIS2_PLACEMENT_3D('',#1627,#1340,#1341);
#1102=AXIS2_PLACEMENT_3D('',#1629,#1342,#1343);
#1103=AXIS2_PLACEMENT_3D('',#1630,#1344,#1345);
#1104=AXIS2_PLACEMENT_3D('',#1633,#1347,#1348);
#1105=AXIS2_PLACEMENT_3D('',#1634,#1349,#1350);
#1106=AXIS2_PLACEMENT_3D('',#1635,#1351,#1352);
#1107=AXIS2_PLACEMENT_3D('',#1637,#1353,#1354);
#1108=AXIS2_PLACEMENT_3D('',#1638,#1355,#1356);
#1109=AXIS2_PLACEMENT_3D('',#1641,#1358,#1359);
#1110=AXIS2_PLACEMENT_3D('',#1642,#1360,#1361);
#1111=AXIS2_PLACEMENT_3D('',#1643,#1362,#1363);
#1112=AXIS2_PLACEMENT_3D('',#1644,#1364,#1365);
#1113=AXIS2_PLACEMENT_3D('',#1647,#1367,#1368);
#1114=AXIS2_PLACEMENT_3D('',#1648,#1369,#1370);
#1115=AXIS2_PLACEMENT_3D('',#1649,#1371,#1372);
#1116=AXIS2_PLACEMENT_3D('',#1650,#1373,#1374);
#1117=AXIS2_PLACEMENT_3D('',#1653,#1376,#1377);
#1118=AXIS2_PLACEMENT_3D('',#1654,#1378,#1379);
#1119=AXIS2_PLACEMENT_3D('',#1655,#1380,#1381);
#1120=AXIS2_PLACEMENT_3D('',#1664,#1386,#1387);
#1121=AXIS2_PLACEMENT_3D('',#1670,#1391,#1392);
#1122=AXIS2_PLACEMENT_3D('',#1676,#1396,#1397);
#1123=AXIS2_PLACEMENT_3D('',#1679,#1400,#1401);
#1124=AXIS2_PLACEMENT_3D('',#1680,#1402,#1403);
#1125=AXIS2_PLACEMENT_3D('',#1689,#1408,#1409);
#1126=AXIS2_PLACEMENT_3D('',#1695,#1413,#1414);
#1127=AXIS2_PLACEMENT_3D('',#1701,#1418,#1419);
#1128=AXIS2_PLACEMENT_3D('',#1704,#1422,#1423);
#1129=AXIS2_PLACEMENT_3D('',#1705,#1424,#1425);
#1130=DIRECTION('axis',(0.,0.,1.));
#1131=DIRECTION('refdir',(1.,0.,0.));
#1132=DIRECTION('center_axis',(0.,0.,1.));
#1133=DIRECTION('ref_axis',(1.,0.,0.));
#1134=DIRECTION('center_axis',(0.,0.,1.));
#1135=DIRECTION('ref_axis',(1.,0.,0.));
#1136=DIRECTION('center_axis',(0.,0.,1.));
#1137=DIRECTION('ref_axis',(1.,0.,0.));
#1138=DIRECTION('center_axis',(0.,0.,1.));
#1139=DIRECTION('ref_axis',(1.,0.,0.));
#1140=DIRECTION('center_axis',(0.,0.,1.));
#1141=DIRECTION('ref_axis',(1.,0.,0.));
#1142=DIRECTION('center_axis',(0.,0.,1.));
#1143=DIRECTION('ref_axis',(1.,0.,0.));
#1144=DIRECTION('',(0.,0.,1.));
#1145=DIRECTION('center_axis',(0.,0.,-1.));
#1146=DIRECTION('ref_axis',(1.,0.,0.));
#1147=DIRECTION('center_axis',(0.,0.,1.));
#1148=DIRECTION('ref_axis',(1.,0.,0.));
#1149=DIRECTION('center_axis',(0.,0.,1.));
#1150=DIRECTION('ref_axis',(1.,0.,0.));
#1151=DIRECTION('center_axis',(0.,0.,1.));
#1152=DIRECTION('ref_axis',(1.,0.,0.));
#1153=DIRECTION('center_axis',(0.,0.,1.));
#1154=DIRECTION('ref_axis',(1.,0.,0.));
#1155=DIRECTION('center_axis',(0.,0.,1.));
#1156=DIRECTION('ref_axis',(1.,0.,0.));
#1157=DIRECTION('center_axis',(0.,0.,1.));
#1158=DIRECTION('ref_axis',(1.,0.,0.));
#1159=DIRECTION('',(0.,0.,1.));
#1160=DIRECTION('center_axis',(0.,0.,-1.));
#1161=DIRECTION('ref_axis',(1.,0.,0.));
#1162=DIRECTION('center_axis',(0.,0.,1.));
#1163=DIRECTION('ref_axis',(1.,0.,0.));
#1164=DIRECTION('center_axis',(0.,0.,1.));
#1165=DIRECTION('ref_axis',(1.,0.,0.));
#1166=DIRECTION('center_axis',(0.,0.,1.));
#1167=DIRECTION('ref_axis',(1.,0.,0.));
#1168=DIRECTION('center_axis',(0.,0.,1.));
#1169=DIRECTION('ref_axis',(1.,0.,0.));
#1170=DIRECTION('',(0.,0.,1.));
#1171=DIRECTION('center_axis',(0.,0.,-1.));
#1172=DIRECTION('ref_axis',(1.,0.,0.));
#1173=DIRECTION('center_axis',(0.,0.,1.));
#1174=DIRECTION('ref_axis',(1.,0.,0.));
#1175=DIRECTION('center_axis',(0.,0.,1.));
#1176=DIRECTION('ref_axis',(1.,0.,0.));
#1177=DIRECTION('center_axis',(0.,0.,1.));
#1178=DIRECTION('ref_axis',(1.,0.,0.));
#1179=DIRECTION('center_axis',(0.,0.,1.));
#1180=DIRECTION('ref_axis',(1.,0.,0.));
#1181=DIRECTION('center_axis',(0.,0.,1.));
#1182=DIRECTION('ref_axis',(1.,0.,0.));
#1183=DIRECTION('center_axis',(0.,0.,1.));
#1184=DIRECTION('ref_axis',(1.,0.,0.));
#1185=DIRECTION('center_axis',(0.,0.,1.));
#1186=DIRECTION('ref_axis',(1.,0.,0.));
#1187=DIRECTION('',(0.,0.,1.));
#1188=DIRECTION('center_axis',(0.,0.,-1.));
#1189=DIRECTION('ref_axis',(1.,0.,0.));
#1190=DIRECTION('center_axis',(0.,0.,1.));
#1191=DIRECTION('ref_axis',(1.,0.,0.));
#1192=DIRECTION('center_axis',(0.,0.,1.));
#1193=DIRECTION('ref_axis',(1.,0.,0.));
#1194=DIRECTION('center_axis',(0.,0.,1.));
#1195=DIRECTION('ref_axis',(1.,0.,0.));
#1196=DIRECTION('center_axis',(0.,-1.,0.));
#1197=DIRECTION('ref_axis',(1.,0.,0.));
#1198=DIRECTION('',(-1.,0.,0.));
#1199=DIRECTION('',(0.,0.,1.));
#1200=DIRECTION('',(1.,0.,0.));
#1201=DIRECTION('',(0.,0.,1.));
#1202=DIRECTION('center_axis',(-1.,0.,0.));
#1203=DIRECTION('ref_axis',(0.,-1.,0.));
#1204=DIRECTION('',(0.,1.,0.));
#1205=DIRECTION('',(0.,-1.,0.));
#1206=DIRECTION('',(0.,0.,1.));
#1207=DIRECTION('center_axis',(0.,1.,0.));
#1208=DIRECTION('ref_axis',(-1.,0.,0.));
#1209=DIRECTION('',(1.,0.,0.));
#1210=DIRECTION('',(-1.,0.,0.));
#1211=DIRECTION('',(0.,0.,1.));
#1212=DIRECTION('center_axis',(1.,0.,0.));
#1213=DIRECTION('ref_axis',(0.,1.,0.));
#1214=DIRECTION('',(0.,-1.,0.));
#1215=DIRECTION('',(0.,1.,0.));
#1216=DIRECTION('center_axis',(0.,-1.,0.));
#1217=DIRECTION('ref_axis',(1.,0.,0.));
#1218=DIRECTION('',(-1.,0.,0.));
#1219=DIRECTION('',(0.,0.,1.));
#1220=DIRECTION('',(1.,0.,0.));
#1221=DIRECTION('',(0.,0.,1.));
#1222=DIRECTION('center_axis',(-1.,0.,0.));
#1223=DIRECTION('ref_axis',(0.,-1.,0.));
#1224=DIRECTION('',(0.,1.,0.));
#1225=DIRECTION('',(0.,-1.,0.));
#1226=DIRECTION('',(0.,0.,1.));
#1227=DIRECTION('center_axis',(0.,1.,0.));
#1228=DIRECTION('ref_axis',(-1.,0.,0.));
#1229=DIRECTION('',(1.,0.,0.));
#1230=DIRECTION('',(-1.,0.,0.));
#1231=DIRECTION('',(0.,0.,1.));
#1232=DIRECTION('center_axis',(1.,0.,0.));
#1233=DIRECTION('ref_axis',(0.,1.,0.));
#1234=DIRECTION('',(0.,-1.,0.));
#1235=DIRECTION('',(0.,1.,0.));
#1236=DIRECTION('center_axis',(0.,-1.,0.));
#1237=DIRECTION('ref_axis',(1.,0.,0.));
#1238=DIRECTION('',(-1.,0.,0.));
#1239=DIRECTION('',(0.,0.,1.));
#1240=DIRECTION('',(1.,0.,0.));
#1241=DIRECTION('',(0.,0.,1.));
#1242=DIRECTION('center_axis',(-1.,0.,0.));
#1243=DIRECTION('ref_axis',(0.,-1.,0.));
#1244=DIRECTION('',(0.,1.,0.));
#1245=DIRECTION('',(0.,-1.,0.));
#1246=DIRECTION('',(0.,0.,1.));
#1247=DIRECTION('center_axis',(0.,1.,0.));
#1248=DIRECTION('ref_axis',(-1.,0.,0.));
#1249=DIRECTION('',(1.,0.,0.));
#1250=DIRECTION('',(-1.,0.,0.));
#1251=DIRECTION('',(0.,0.,1.));
#1252=DIRECTION('center_axis',(1.,0.,0.));
#1253=DIRECTION('ref_axis',(0.,1.,0.));
#1254=DIRECTION('',(0.,-1.,0.));
#1255=DIRECTION('',(0.,1.,0.));
#1256=DIRECTION('center_axis',(0.,0.,1.));
#1257=DIRECTION('ref_axis',(1.,0.,0.));
#1258=DIRECTION('center_axis',(0.,0.,1.));
#1259=DIRECTION('ref_axis',(1.,0.,0.));
#1260=DIRECTION('',(0.,0.,1.));
#1261=DIRECTION('center_axis',(0.,0.,-1.));
#1262=DIRECTION('ref_axis',(1.,0.,0.));
#1263=DIRECTION('center_axis',(0.,0.,1.));
#1264=DIRECTION('ref_axis',(1.,0.,0.));
#1265=DIRECTION('center_axis',(0.,0.,1.));
#1266=DIRECTION('ref_axis',(1.,0.,0.));
#1267=DIRECTION('',(0.,0.,1.));
#1268=DIRECTION('center_axis',(0.,0.,-1.));
#1269=DIRECTION('ref_axis',(1.,0.,0.));
#1270=DIRECTION('center_axis',(0.,0.,1.));
#1271=DIRECTION('ref_axis',(1.,0.,0.));
#1272=DIRECTION('center_axis',(0.,0.,1.));
#1273=DIRECTION('ref_axis',(1.,0.,0.));
#1274=DIRECTION('',(0.,0.,1.));
#1275=DIRECTION('center_axis',(0.,0.,-1.));
#1276=DIRECTION('ref_axis',(1.,0.,0.));
#1277=DIRECTION('center_axis',(0.,0.,1.));
#1278=DIRECTION('ref_axis',(1.,0.,0.));
#1279=DIRECTION('center_axis',(0.,0.,1.));
#1280=DIRECTION('ref_axis',(1.,0.,0.));
#1281=DIRECTION('',(0.,0.,1.));
#1282=DIRECTION('center_axis',(0.,0.,-1.));
#1283=DIRECTION('ref_axis',(1.,0.,0.));
#1284=DIRECTION('center_axis',(0.,-1.,0.));
#1285=DIRECTION('ref_axis',(1.,0.,0.));
#1286=DIRECTION('',(-1.,0.,0.));
#1287=DIRECTION('',(0.,0.,1.));
#1288=DIRECTION('',(1.,0.,0.));
#1289=DIRECTION('',(0.,0.,1.));
#1290=DIRECTION('center_axis',(-1.,0.,0.));
#1291=DIRECTION('ref_axis',(0.,-1.,0.));
#1292=DIRECTION('',(0.,1.,0.));
#1293=DIRECTION('',(0.,-1.,0.));
#1294=DIRECTION('',(0.,0.,1.));
#1295=DIRECTION('center_axis',(0.,1.,0.));
#1296=DIRECTION('ref_axis',(-1.,0.,0.));
#1297=DIRECTION('',(1.,0.,0.));
#1298=DIRECTION('',(-1.,0.,0.));
#1299=DIRECTION('',(0.,0.,1.));
#1300=DIRECTION('center_axis',(1.,2.77555756156289E-16,0.));
#1301=DIRECTION('ref_axis',(-2.77555756156289E-16,1.,0.));
#1302=DIRECTION('',(2.77555756156289E-16,-1.,0.));
#1303=DIRECTION('',(-2.77555756156289E-16,1.,0.));
#1304=DIRECTION('center_axis',(0.,0.,1.));
#1305=DIRECTION('ref_axis',(1.,0.,0.));
#1306=DIRECTION('center_axis',(0.,0.,1.));
#1307=DIRECTION('ref_axis',(1.,0.,0.));
#1308=DIRECTION('',(0.,0.,1.));
#1309=DIRECTION('center_axis',(0.,0.,1.));
#1310=DIRECTION('ref_axis',(1.,0.,0.));
#1311=DIRECTION('center_axis',(0.,0.,1.));
#1312=DIRECTION('ref_axis',(1.,0.,0.));
#1313=DIRECTION('center_axis',(0.,0.,1.));
#1314=DIRECTION('ref_axis',(1.,0.,0.));
#1315=DIRECTION('center_axis',(0.,0.,1.));
#1316=DIRECTION('ref_axis',(1.,0.,0.));
#1317=DIRECTION('',(0.,0.,1.));
#1318=DIRECTION('center_axis',(0.,0.,1.));
#1319=DIRECTION('ref_axis',(1.,0.,0.));
#1320=DIRECTION('center_axis',(0.,0.,1.));
#1321=DIRECTION('ref_axis',(1.,0.,0.));
#1322=DIRECTION('center_axis',(0.,0.,1.));
#1323=DIRECTION('ref_axis',(1.,0.,0.));
#1324=DIRECTION('center_axis',(0.,0.,1.));
#1325=DIRECTION('ref_axis',(1.,0.,0.));
#1326=DIRECTION('',(0.,0.,1.));
#1327=DIRECTION('center_axis',(0.,0.,1.));
#1328=DIRECTION('ref_axis',(1.,0.,0.));
#1329=DIRECTION('center_axis',(0.,0.,1.));
#1330=DIRECTION('ref_axis',(1.,0.,0.));
#1331=DIRECTION('center_axis',(0.,0.,1.));
#1332=DIRECTION('ref_axis',(1.,0.,0.));
#1333=DIRECTION('center_axis',(0.,0.,1.));
#1334=DIRECTION('ref_axis',(1.,0.,0.));
#1335=DIRECTION('',(0.,0.,1.));
#1336=DIRECTION('center_axis',(0.,0.,1.));
#1337=DIRECTION('ref_axis',(1.,0.,0.));
#1338=DIRECTION('center_axis',(0.,0.,1.));
#1339=DIRECTION('ref_axis',(1.,0.,0.));
#1340=DIRECTION('center_axis',(0.,0.,1.));
#1341=DIRECTION('ref_axis',(1.,0.,0.));
#1342=DIRECTION('center_axis',(0.,0.,1.));
#1343=DIRECTION('ref_axis',(1.,0.,0.));
#1344=DIRECTION('center_axis',(0.,0.,1.));
#1345=DIRECTION('ref_axis',(1.,0.,0.));
#1346=DIRECTION('',(0.,0.,-1.));
#1347=DIRECTION('center_axis',(0.,0.,1.));
#1348=DIRECTION('ref_axis',(1.,0.,0.));
#1349=DIRECTION('center_axis',(0.,0.,1.));
#1350=DIRECTION('ref_axis',(1.,0.,0.));
#1351=DIRECTION('center_axis',(0.,0.,1.));
#1352=DIRECTION('ref_axis',(1.,0.,0.));
#1353=DIRECTION('center_axis',(0.,0.,1.));
#1354=DIRECTION('ref_axis',(1.,0.,0.));
#1355=DIRECTION('center_axis',(0.,0.,1.));
#1356=DIRECTION('ref_axis',(1.,0.,0.));
#1357=DIRECTION('',(0.,0.,-1.));
#1358=DIRECTION('center_axis',(0.,0.,1.));
#1359=DIRECTION('ref_axis',(1.,0.,0.));
#1360=DIRECTION('center_axis',(0.,0.,1.));
#1361=DIRECTION('ref_axis',(1.,0.,0.));
#1362=DIRECTION('center_axis',(0.,0.,1.));
#1363=DIRECTION('ref_axis',(1.,0.,0.));
#1364=DIRECTION('center_axis',(0.,0.,1.));
#1365=DIRECTION('ref_axis',(1.,0.,0.));
#1366=DIRECTION('',(0.,0.,-1.));
#1367=DIRECTION('center_axis',(0.,0.,1.));
#1368=DIRECTION('ref_axis',(1.,0.,0.));
#1369=DIRECTION('center_axis',(0.,0.,1.));
#1370=DIRECTION('ref_axis',(1.,0.,0.));
#1371=DIRECTION('center_axis',(0.,0.,1.));
#1372=DIRECTION('ref_axis',(1.,0.,0.));
#1373=DIRECTION('center_axis',(0.,0.,1.));
#1374=DIRECTION('ref_axis',(1.,0.,0.));
#1375=DIRECTION('',(0.,0.,-1.));
#1376=DIRECTION('center_axis',(0.,0.,1.));
#1377=DIRECTION('ref_axis',(1.,0.,0.));
#1378=DIRECTION('center_axis',(0.,0.,1.));
#1379=DIRECTION('ref_axis',(1.,0.,0.));
#1380=DIRECTION('center_axis',(0.,1.,0.));
#1381=DIRECTION('ref_axis',(-1.,0.,0.));
#1382=DIRECTION('',(-1.,0.,0.));
#1383=DIRECTION('',(0.,0.,1.));
#1384=DIRECTION('',(-1.,0.,0.));
#1385=DIRECTION('',(0.,0.,1.));
#1386=DIRECTION('center_axis',(1.,0.,0.));
#1387=DIRECTION('ref_axis',(0.,1.,0.));
#1388=DIRECTION('',(0.,1.,0.));
#1389=DIRECTION('',(0.,0.,1.));
#1390=DIRECTION('',(0.,1.,0.));
#1391=DIRECTION('center_axis',(0.,-1.,0.));
#1392=DIRECTION('ref_axis',(1.,0.,0.));
#1393=DIRECTION('',(1.,0.,0.));
#1394=DIRECTION('',(0.,0.,1.));
#1395=DIRECTION('',(1.,0.,0.));
#1396=DIRECTION('center_axis',(-1.,0.,0.));
#1397=DIRECTION('ref_axis',(0.,-1.,0.));
#1398=DIRECTION('',(0.,-1.,0.));
#1399=DIRECTION('',(0.,-1.,0.));
#1400=DIRECTION('center_axis',(0.,0.,1.));
#1401=DIRECTION('ref_axis',(1.,0.,0.));
#1402=DIRECTION('center_axis',(0.,1.,0.));
#1403=DIRECTION('ref_axis',(-1.,0.,0.));
#1404=DIRECTION('',(-1.,0.,0.));
#1405=DIRECTION('',(0.,0.,1.));
#1406=DIRECTION('',(-1.,0.,0.));
#1407=DIRECTION('',(0.,0.,1.));
#1408=DIRECTION('center_axis',(1.,0.,0.));
#1409=DIRECTION('ref_axis',(0.,1.,0.));
#1410=DIRECTION('',(0.,1.,0.));
#1411=DIRECTION('',(0.,1.,0.));
#1412=DIRECTION('',(0.,0.,1.));
#1413=DIRECTION('center_axis',(0.,-1.,0.));
#1414=DIRECTION('ref_axis',(1.,0.,0.));
#1415=DIRECTION('',(1.,0.,0.));
#1416=DIRECTION('',(1.,0.,0.));
#1417=DIRECTION('',(0.,0.,1.));
#1418=DIRECTION('center_axis',(-1.,0.,0.));
#1419=DIRECTION('ref_axis',(0.,-1.,0.));
#1420=DIRECTION('',(0.,-1.,0.));
#1421=DIRECTION('',(0.,-1.,0.));
#1422=DIRECTION('center_axis',(0.,0.,1.));
#1423=DIRECTION('ref_axis',(1.,0.,0.));
#1424=DIRECTION('center_axis',(0.,0.,1.));
#1425=DIRECTION('ref_axis',(1.,0.,0.));
#1426=CARTESIAN_POINT('',(0.,0.,0.));
#1427=CARTESIAN_POINT('Origin',(96.,58.5,72.));
#1428=CARTESIAN_POINT('',(94.9940331340492,57.255801195705,72.));
#1429=CARTESIAN_POINT('',(94.6448857848698,59.3506852907815,72.));
#1430=CARTESIAN_POINT('Origin',(90.,57.5,72.));
#1431=CARTESIAN_POINT('',(94.4,58.5,72.));
#1432=CARTESIAN_POINT('Origin',(96.,58.5,72.));
#1433=CARTESIAN_POINT('Origin',(96.,58.5,72.));
#1434=CARTESIAN_POINT('Origin',(96.,58.5,72.));
#1435=CARTESIAN_POINT('Origin',(96.,58.5,72.));
#1436=CARTESIAN_POINT('',(94.4,58.5,75.));
#1437=CARTESIAN_POINT('',(94.4,58.5,72.));
#1438=CARTESIAN_POINT('Origin',(96.,58.5,75.));
#1439=CARTESIAN_POINT('Origin',(96.,-58.5,72.));
#1440=CARTESIAN_POINT('',(94.6448857848698,-59.3506852907815,72.));
#1441=CARTESIAN_POINT('',(94.9940331340492,-57.255801195705,72.));
#1442=CARTESIAN_POINT('Origin',(90.,-57.5,72.));
#1443=CARTESIAN_POINT('',(94.4,-58.5,72.));
#1444=CARTESIAN_POINT('Origin',(96.,-58.5,72.));
#1445=CARTESIAN_POINT('Origin',(96.,-58.5,72.));
#1446=CARTESIAN_POINT('Origin',(96.,-58.5,72.));
#1447=CARTESIAN_POINT('Origin',(96.,-58.5,72.));
#1448=CARTESIAN_POINT('',(94.4,-58.5,75.));
#1449=CARTESIAN_POINT('',(94.4,-58.5,72.));
#1450=CARTESIAN_POINT('Origin',(96.,-58.5,75.));
#1451=CARTESIAN_POINT('Origin',(-96.,58.5,72.));
#1452=CARTESIAN_POINT('',(-94.6448857848698,59.3506852907815,72.));
#1453=CARTESIAN_POINT('',(-97.6,58.5,72.));
#1454=CARTESIAN_POINT('Origin',(-96.,58.5,72.));
#1455=CARTESIAN_POINT('',(-94.9940331340492,57.255801195705,72.));
#1456=CARTESIAN_POINT('Origin',(-96.,58.5,72.));
#1457=CARTESIAN_POINT('Origin',(-96.,58.5,72.));
#1458=CARTESIAN_POINT('',(-97.6,58.5,75.));
#1459=CARTESIAN_POINT('',(-97.6,58.5,72.));
#1460=CARTESIAN_POINT('Origin',(-96.,58.5,75.));
#1461=CARTESIAN_POINT('Origin',(-96.,58.5,72.));
#1462=CARTESIAN_POINT('',(-95.,57.5,72.));
#1463=CARTESIAN_POINT('Origin',(-90.,57.5,72.));
#1464=CARTESIAN_POINT('Origin',(-90.,57.5,72.));
#1465=CARTESIAN_POINT('Origin',(-96.,-58.5,72.));
#1466=CARTESIAN_POINT('',(-94.9940331340492,-57.255801195705,72.));
#1467=CARTESIAN_POINT('',(-97.6,-58.5,72.));
#1468=CARTESIAN_POINT('Origin',(-96.,-58.5,72.));
#1469=CARTESIAN_POINT('',(-94.6448857848698,-59.3506852907815,72.));
#1470=CARTESIAN_POINT('Origin',(-96.,-58.5,72.));
#1471=CARTESIAN_POINT('Origin',(-96.,-58.5,72.));
#1472=CARTESIAN_POINT('',(-97.6,-58.5,75.));
#1473=CARTESIAN_POINT('',(-97.6,-58.5,72.));
#1474=CARTESIAN_POINT('Origin',(-96.,-58.5,75.));
#1475=CARTESIAN_POINT('Origin',(-96.,-58.5,72.));
#1476=CARTESIAN_POINT('',(-95.,-57.5,72.));
#1477=CARTESIAN_POINT('Origin',(-90.,-57.5,72.));
#1478=CARTESIAN_POINT('Origin',(-90.,-57.5,72.));
#1479=CARTESIAN_POINT('Origin',(57.,-30.25,72.));
#1480=CARTESIAN_POINT('',(67.,-30.25,75.));
#1481=CARTESIAN_POINT('',(57.,-30.25,75.));
#1482=CARTESIAN_POINT('',(28.5,-30.25,75.));
#1483=CARTESIAN_POINT('',(67.,-30.25,72.));
#1484=CARTESIAN_POINT('',(67.,-30.25,72.));
#1485=CARTESIAN_POINT('',(57.,-30.25,72.));
#1486=CARTESIAN_POINT('',(28.5,-30.25,72.));
#1487=CARTESIAN_POINT('',(57.,-30.25,72.));
#1488=CARTESIAN_POINT('Origin',(57.,-25.75,72.));
#1489=CARTESIAN_POINT('',(57.,-25.75,75.));
#1490=CARTESIAN_POINT('',(57.,-12.875,75.));
#1491=CARTESIAN_POINT('',(57.,-25.75,72.));
#1492=CARTESIAN_POINT('',(57.,-12.875,72.));
#1493=CARTESIAN_POINT('',(57.,-25.75,72.));
#1494=CARTESIAN_POINT('Origin',(67.,-25.75,72.));
#1495=CARTESIAN_POINT('',(67.,-25.75,75.));
#1496=CARTESIAN_POINT('',(33.5,-25.75,75.));
#1497=CARTESIAN_POINT('',(67.,-25.75,72.));
#1498=CARTESIAN_POINT('',(33.5,-25.75,72.));
#1499=CARTESIAN_POINT('',(67.,-25.75,72.));
#1500=CARTESIAN_POINT('Origin',(67.,-30.25,72.));
#1501=CARTESIAN_POINT('',(67.,-15.125,75.));
#1502=CARTESIAN_POINT('',(67.,-15.125,72.));
#1503=CARTESIAN_POINT('Origin',(50.,-2.,72.));
#1504=CARTESIAN_POINT('',(74.,-2.,75.));
#1505=CARTESIAN_POINT('',(50.,-2.,75.));
#1506=CARTESIAN_POINT('',(25.,-2.,75.));
#1507=CARTESIAN_POINT('',(74.,-2.,72.));
#1508=CARTESIAN_POINT('',(74.,-2.,72.));
#1509=CARTESIAN_POINT('',(50.,-2.,72.));
#1510=CARTESIAN_POINT('',(25.,-2.,72.));
#1511=CARTESIAN_POINT('',(50.,-2.,72.));
#1512=CARTESIAN_POINT('Origin',(50.,10.,72.));
#1513=CARTESIAN_POINT('',(50.,10.,75.));
#1514=CARTESIAN_POINT('',(50.,5.,75.));
#1515=CARTESIAN_POINT('',(50.,10.,72.));
#1516=CARTESIAN_POINT('',(50.,5.,72.));
#1517=CARTESIAN_POINT('',(50.,10.,72.));
#1518=CARTESIAN_POINT('Origin',(74.,10.,72.));
#1519=CARTESIAN_POINT('',(74.,10.,75.));
#1520=CARTESIAN_POINT('',(37.,10.,75.));
#1521=CARTESIAN_POINT('',(74.,10.,72.));
#1522=CARTESIAN_POINT('',(37.,10.,72.));
#1523=CARTESIAN_POINT('',(74.,10.,72.));
#1524=CARTESIAN_POINT('Origin',(74.,-2.,72.));
#1525=CARTESIAN_POINT('',(74.,-1.,75.));
#1526=CARTESIAN_POINT('',(74.,-1.,72.));
#1527=CARTESIAN_POINT('Origin',(54.,27.,72.));
#1528=CARTESIAN_POINT('',(70.,27.,75.));
#1529=CARTESIAN_POINT('',(54.,27.,75.));
#1530=CARTESIAN_POINT('',(27.,27.,75.));
#1531=CARTESIAN_POINT('',(70.,27.,72.));
#1532=CARTESIAN_POINT('',(70.,27.,72.));
#1533=CARTESIAN_POINT('',(54.,27.,72.));
#1534=CARTESIAN_POINT('',(27.,27.,72.));
#1535=CARTESIAN_POINT('',(54.,27.,72.));
#1536=CARTESIAN_POINT('Origin',(54.,41.,72.));
#1537=CARTESIAN_POINT('',(54.,41.,75.));
#1538=CARTESIAN_POINT('',(54.,20.5,75.));
#1539=CARTESIAN_POINT('',(54.,41.,72.));
#1540=CARTESIAN_POINT('',(54.,20.5,72.));
#1541=CARTESIAN_POINT('',(54.,41.,72.));
#1542=CARTESIAN_POINT('Origin',(70.,41.,72.));
#1543=CARTESIAN_POINT('',(70.,41.,75.));
#1544=CARTESIAN_POINT('',(35.,41.,75.));
#1545=CARTESIAN_POINT('',(70.,41.,72.));
#1546=CARTESIAN_POINT('',(35.,41.,72.));
#1547=CARTESIAN_POINT('',(70.,41.,72.));
#1548=CARTESIAN_POINT('Origin',(70.,27.,72.));
#1549=CARTESIAN_POINT('',(70.,13.5,75.));
#1550=CARTESIAN_POINT('',(70.,13.5,72.));
#1551=CARTESIAN_POINT('Origin',(-22.,5.,72.));
#1552=CARTESIAN_POINT('',(-28.,5.,72.));
#1553=CARTESIAN_POINT('Origin',(-22.,5.,72.));
#1554=CARTESIAN_POINT('',(-28.,5.,75.));
#1555=CARTESIAN_POINT('',(-28.,5.,72.));
#1556=CARTESIAN_POINT('Origin',(-22.,5.,75.));
#1557=CARTESIAN_POINT('Origin',(-44.,5.,72.));
#1558=CARTESIAN_POINT('',(-50.,5.,72.));
#1559=CARTESIAN_POINT('Origin',(-44.,5.,72.));
#1560=CARTESIAN_POINT('',(-50.,5.,75.));
#1561=CARTESIAN_POINT('',(-50.,5.,72.));
#1562=CARTESIAN_POINT('Origin',(-44.,5.,75.));
#1563=CARTESIAN_POINT('Origin',(-66.,5.,72.));
#1564=CARTESIAN_POINT('',(-72.,5.,72.));
#1565=CARTESIAN_POINT('Origin',(-66.,5.,72.));
#1566=CARTESIAN_POINT('',(-72.,5.,75.));
#1567=CARTESIAN_POINT('',(-72.,5.,72.));
#1568=CARTESIAN_POINT('Origin',(-66.,5.,75.));
#1569=CARTESIAN_POINT('Origin',(-88.,5.,72.));
#1570=CARTESIAN_POINT('',(-94.,5.,72.));
#1571=CARTESIAN_POINT('Origin',(-88.,5.,72.));
#1572=CARTESIAN_POINT('',(-94.,5.,75.));
#1573=CARTESIAN_POINT('',(-94.,5.,72.));
#1574=CARTESIAN_POINT('Origin',(-88.,5.,75.));
#1575=CARTESIAN_POINT('Origin',(-94.,-50.,72.));
#1576=CARTESIAN_POINT('',(-16.,-50.,75.));
#1577=CARTESIAN_POINT('',(-94.,-50.,75.));
#1578=CARTESIAN_POINT('',(-47.,-50.,75.));
#1579=CARTESIAN_POINT('',(-16.,-50.,72.));
#1580=CARTESIAN_POINT('',(-16.,-50.,72.));
#1581=CARTESIAN_POINT('',(-94.,-50.,72.));
#1582=CARTESIAN_POINT('',(-47.,-50.,72.));
#1583=CARTESIAN_POINT('',(-94.,-50.,72.));
#1584=CARTESIAN_POINT('Origin',(-94.,-34.,72.));
#1585=CARTESIAN_POINT('',(-94.,-34.,75.));
#1586=CARTESIAN_POINT('',(-94.,-17.,75.));
#1587=CARTESIAN_POINT('',(-94.,-34.,72.));
#1588=CARTESIAN_POINT('',(-94.,-17.,72.));
#1589=CARTESIAN_POINT('',(-94.,-34.,72.));
#1590=CARTESIAN_POINT('Origin',(-16.,-34.,72.));
#1591=CARTESIAN_POINT('',(-16.,-34.,75.));
#1592=CARTESIAN_POINT('',(-8.,-34.,75.));
#1593=CARTESIAN_POINT('',(-16.,-34.,72.));
#1594=CARTESIAN_POINT('',(-8.,-34.,72.));
#1595=CARTESIAN_POINT('',(-16.,-34.,72.));
#1596=CARTESIAN_POINT('Origin',(-16.,-50.,72.));
#1597=CARTESIAN_POINT('',(-16.,-25.,75.));
#1598=CARTESIAN_POINT('',(-16.,-25.,72.));
#1599=CARTESIAN_POINT('Origin',(90.,57.5,0.));
#1600=CARTESIAN_POINT('',(87.7,57.5,0.));
#1601=CARTESIAN_POINT('Origin',(90.,57.5,0.));
#1602=CARTESIAN_POINT('',(87.7,57.5,9.));
#1603=CARTESIAN_POINT('',(87.7,57.5,0.));
#1604=CARTESIAN_POINT('Origin',(90.,57.5,9.));
#1605=CARTESIAN_POINT('Origin',(90.,57.5,9.));
#1606=CARTESIAN_POINT('Origin',(90.,-57.5,0.));
#1607=CARTESIAN_POINT('',(87.7,-57.5,0.));
#1608=CARTESIAN_POINT('Origin',(90.,-57.5,0.));
#1609=CARTESIAN_POINT('',(87.7,-57.5,9.));
#1610=CARTESIAN_POINT('',(87.7,-57.5,0.));
#1611=CARTESIAN_POINT('Origin',(90.,-57.5,9.));
#1612=CARTESIAN_POINT('Origin',(90.,-57.5,9.));
#1613=CARTESIAN_POINT('Origin',(-90.,57.5,0.));
#1614=CARTESIAN_POINT('',(-92.3,57.5,0.));
#1615=CARTESIAN_POINT('Origin',(-90.,57.5,0.));
#1616=CARTESIAN_POINT('',(-92.3,57.5,9.));
#1617=CARTESIAN_POINT('',(-92.3,57.5,0.));
#1618=CARTESIAN_POINT('Origin',(-90.,57.5,9.));
#1619=CARTESIAN_POINT('Origin',(-90.,57.5,9.));
#1620=CARTESIAN_POINT('Origin',(-90.,-57.5,0.));
#1621=CARTESIAN_POINT('',(-92.3,-57.5,0.));
#1622=CARTESIAN_POINT('Origin',(-90.,-57.5,0.));
#1623=CARTESIAN_POINT('',(-92.3,-57.5,9.));
#1624=CARTESIAN_POINT('',(-92.3,-57.5,0.));
#1625=CARTESIAN_POINT('Origin',(-90.,-57.5,9.));
#1626=CARTESIAN_POINT('Origin',(-90.,-57.5,9.));
#1627=CARTESIAN_POINT('Origin',(90.,57.5,0.));
#1628=CARTESIAN_POINT('',(85.,57.5,72.));
#1629=CARTESIAN_POINT('Origin',(90.,57.5,72.));
#1630=CARTESIAN_POINT('Origin',(90.,57.5,72.));
#1631=CARTESIAN_POINT('',(85.,57.5,0.));
#1632=CARTESIAN_POINT('',(85.,57.5,0.));
#1633=CARTESIAN_POINT('Origin',(90.,57.5,0.));
#1634=CARTESIAN_POINT('Origin',(90.,57.5,0.));
#1635=CARTESIAN_POINT('Origin',(90.,-57.5,0.));
#1636=CARTESIAN_POINT('',(85.,-57.5,72.));
#1637=CARTESIAN_POINT('Origin',(90.,-57.5,72.));
#1638=CARTESIAN_POINT('Origin',(90.,-57.5,72.));
#1639=CARTESIAN_POINT('',(85.,-57.5,0.));
#1640=CARTESIAN_POINT('',(85.,-57.5,0.));
#1641=CARTESIAN_POINT('Origin',(90.,-57.5,0.));
#1642=CARTESIAN_POINT('Origin',(90.,-57.5,0.));
#1643=CARTESIAN_POINT('Origin',(-90.,57.5,0.));
#1644=CARTESIAN_POINT('Origin',(-90.,57.5,72.));
#1645=CARTESIAN_POINT('',(-95.,57.5,0.));
#1646=CARTESIAN_POINT('',(-95.,57.5,0.));
#1647=CARTESIAN_POINT('Origin',(-90.,57.5,0.));
#1648=CARTESIAN_POINT('Origin',(-90.,57.5,0.));
#1649=CARTESIAN_POINT('Origin',(-90.,-57.5,0.));
#1650=CARTESIAN_POINT('Origin',(-90.,-57.5,72.));
#1651=CARTESIAN_POINT('',(-95.,-57.5,0.));
#1652=CARTESIAN_POINT('',(-95.,-57.5,0.));
#1653=CARTESIAN_POINT('Origin',(-90.,-57.5,0.));
#1654=CARTESIAN_POINT('Origin',(-90.,-57.5,0.));
#1655=CARTESIAN_POINT('Origin',(107.,69.5,0.));
#1656=CARTESIAN_POINT('',(107.,69.5,0.));
#1657=CARTESIAN_POINT('',(-107.,69.5,0.));
#1658=CARTESIAN_POINT('',(53.5,69.5,0.));
#1659=CARTESIAN_POINT('',(107.,69.5,72.));
#1660=CARTESIAN_POINT('',(107.,69.5,0.));
#1661=CARTESIAN_POINT('',(-107.,69.5,72.));
#1662=CARTESIAN_POINT('',(107.,69.5,72.));
#1663=CARTESIAN_POINT('',(-107.,69.5,0.));
#1664=CARTESIAN_POINT('Origin',(107.,-69.5,0.));
#1665=CARTESIAN_POINT('',(107.,-69.5,0.));
#1666=CARTESIAN_POINT('',(107.,-34.75,0.));
#1667=CARTESIAN_POINT('',(107.,-69.5,72.));
#1668=CARTESIAN_POINT('',(107.,-69.5,0.));
#1669=CARTESIAN_POINT('',(107.,-69.5,72.));
#1670=CARTESIAN_POINT('Origin',(-107.,-69.5,0.));
#1671=CARTESIAN_POINT('',(-107.,-69.5,0.));
#1672=CARTESIAN_POINT('',(-53.5,-69.5,0.));
#1673=CARTESIAN_POINT('',(-107.,-69.5,72.));
#1674=CARTESIAN_POINT('',(-107.,-69.5,0.));
#1675=CARTESIAN_POINT('',(-107.,-69.5,72.));
#1676=CARTESIAN_POINT('Origin',(-107.,69.5,0.));
#1677=CARTESIAN_POINT('',(-107.,34.75,0.));
#1678=CARTESIAN_POINT('',(-107.,69.5,72.));
#1679=CARTESIAN_POINT('Origin',(0.,0.,72.));
#1680=CARTESIAN_POINT('Origin',(110.,72.5,0.));
#1681=CARTESIAN_POINT('',(110.,72.5,0.));
#1682=CARTESIAN_POINT('',(-110.,72.5,0.));
#1683=CARTESIAN_POINT('',(110.,72.5,0.));
#1684=CARTESIAN_POINT('',(-110.,72.5,75.));
#1685=CARTESIAN_POINT('',(-110.,72.5,0.));
#1686=CARTESIAN_POINT('',(110.,72.5,75.));
#1687=CARTESIAN_POINT('',(110.,72.5,75.));
#1688=CARTESIAN_POINT('',(110.,72.5,0.));
#1689=CARTESIAN_POINT('Origin',(110.,-72.5,0.));
#1690=CARTESIAN_POINT('',(110.,-72.5,0.));
#1691=CARTESIAN_POINT('',(110.,-72.5,0.));
#1692=CARTESIAN_POINT('',(110.,-72.5,75.));
#1693=CARTESIAN_POINT('',(110.,-72.5,75.));
#1694=CARTESIAN_POINT('',(110.,-72.5,0.));
#1695=CARTESIAN_POINT('Origin',(-110.,-72.5,0.));
#1696=CARTESIAN_POINT('',(-110.,-72.5,0.));
#1697=CARTESIAN_POINT('',(-110.,-72.5,0.));
#1698=CARTESIAN_POINT('',(-110.,-72.5,75.));
#1699=CARTESIAN_POINT('',(-110.,-72.5,75.));
#1700=CARTESIAN_POINT('',(-110.,-72.5,0.));
#1701=CARTESIAN_POINT('Origin',(-110.,72.5,0.));
#1702=CARTESIAN_POINT('',(-110.,72.5,0.));
#1703=CARTESIAN_POINT('',(-110.,72.5,75.));
#1704=CARTESIAN_POINT('Origin',(0.,0.,75.));
#1705=CARTESIAN_POINT('Origin',(0.,0.,0.));
#1706=UNCERTAINTY_MEASURE_WITH_UNIT(LENGTH_MEASURE(0.01),#1710,
'DISTANCE_ACCURACY_VALUE',
'Maximum model space distance between geometric entities at asserted c
onnectivities');
#1707=UNCERTAINTY_MEASURE_WITH_UNIT(LENGTH_MEASURE(0.01),#1710,
'DISTANCE_ACCURACY_VALUE',
'Maximum model space distance between geometric entities at asserted c
onnectivities');
#1708=(
GEOMETRIC_REPRESENTATION_CONTEXT(3)
GLOBAL_UNCERTAINTY_ASSIGNED_CONTEXT((#1706))
GLOBAL_UNIT_ASSIGNED_CONTEXT((#1710,#1712,#1713))
REPRESENTATION_CONTEXT('','3D')
);
#1709=(
GEOMETRIC_REPRESENTATION_CONTEXT(3)
GLOBAL_UNCERTAINTY_ASSIGNED_CONTEXT((#1707))
GLOBAL_UNIT_ASSIGNED_CONTEXT((#1710,#1712,#1713))
REPRESENTATION_CONTEXT('','3D')
);
#1710=(
LENGTH_UNIT()
NAMED_UNIT(*)
SI_UNIT(.MILLI.,.METRE.)
);
#1711=(
LENGTH_UNIT()
NAMED_UNIT(*)
SI_UNIT($,.METRE.)
);
#1712=(
NAMED_UNIT(*)
PLANE_ANGLE_UNIT()
SI_UNIT($,.RADIAN.)
);
#1713=(
NAMED_UNIT(*)
SI_UNIT($,.STERADIAN.)
SOLID_ANGLE_UNIT()
);
#1714=SHAPE_DEFINITION_REPRESENTATION(#1715,#1716);
#1715=PRODUCT_DEFINITION_SHAPE('',$,#1718);
#1716=SHAPE_REPRESENTATION('',(#1026),#1708);
#1717=PRODUCT_DEFINITION_CONTEXT('part definition',#1722,'design');
#1718=PRODUCT_DEFINITION('SmartMeter_RearHousing',
'SmartMeter_RearHousing',#1719,#1717);
#1719=PRODUCT_DEFINITION_FORMATION('',$,#1724);
#1720=PRODUCT_RELATED_PRODUCT_CATEGORY('SmartMeter_RearHousing',
'SmartMeter_RearHousing',(#1724));
#1721=APPLICATION_PROTOCOL_DEFINITION('international standard',
'automotive_design',2009,#1722);
#1722=APPLICATION_CONTEXT(
'Core Data for Automotive Mechanical Design Process');
#1723=PRODUCT_CONTEXT('part definition',#1722,'mechanical');
#1724=PRODUCT('SmartMeter_RearHousing','SmartMeter_RearHousing',$,(#1723));
#1725=PRESENTATION_STYLE_ASSIGNMENT((#1726));
#1726=SURFACE_STYLE_USAGE(.BOTH.,#1727);
#1727=SURFACE_SIDE_STYLE('',(#1728));
#1728=SURFACE_STYLE_FILL_AREA(#1729);
#1729=FILL_AREA_STYLE('A\X\E7o - Acetinado',(#1730));
#1730=FILL_AREA_STYLE_COLOUR('A\X\E7o - Acetinado',#1731);
#1731=COLOUR_RGB('A\X\E7o - Acetinado',0.627450980392157,0.627450980392157,
0.627450980392157);
ENDSEC;
END-ISO-10303-21;
