ISO-10303-21;
HEADER;
/* Generated by software containing ST-Developer
 * from STEP Tools, Inc. (www.steptools.com) 
 */

FILE_DESCRIPTION(
/* description */ (''),
/* implementation_level */ '2;1');

FILE_NAME(
/* name */ 'SmartMeter_InternalTray.step',
/* time_stamp */ '2026-10-03T13:53:30-03:00',
/* author */ (''),
/* organization */ (''),
/* preprocessor_version */ 'ST-DEVELOPER v20.1',
/* originating_system */ 'Autodesk Translation Framework v15.8.0.0',
/* authorisation */ '');

FILE_SCHEMA (('AUTOMOTIVE_DESIGN { 1 0 10303 214 3 1 1 }'));
ENDSEC;

DATA;
#10=MECHANICAL_DESIGN_GEOMETRIC_PRESENTATION_REPRESENTATION('',(#13),#1307);
#11=SHAPE_REPRESENTATION_RELATIONSHIP('SRR','None',#1314,#12);
#12=ADVANCED_BREP_SHAPE_REPRESENTATION('',(#14),#1306);
#13=STYLED_ITEM('',(#1323),#14);
#14=MANIFOLD_SOLID_BREP('Corpo1',#767);
#15=FACE_BOUND('',#145,.T.);
#16=FACE_BOUND('',#148,.T.);
#17=FACE_BOUND('',#151,.T.);
#18=FACE_BOUND('',#154,.T.);
#19=FACE_BOUND('',#157,.T.);
#20=FACE_BOUND('',#160,.T.);
#21=FACE_BOUND('',#163,.T.);
#22=FACE_BOUND('',#166,.T.);
#23=FACE_BOUND('',#171,.T.);
#24=FACE_BOUND('',#172,.T.);
#25=FACE_BOUND('',#174,.T.);
#26=FACE_BOUND('',#175,.T.);
#27=FACE_BOUND('',#176,.T.);
#28=FACE_BOUND('',#177,.T.);
#29=FACE_BOUND('',#178,.T.);
#30=FACE_BOUND('',#184,.T.);
#31=FACE_BOUND('',#185,.T.);
#32=FACE_BOUND('',#186,.T.);
#33=FACE_BOUND('',#187,.T.);
#34=FACE_BOUND('',#188,.T.);
#35=PLANE('',#784);
#36=PLANE('',#788);
#37=PLANE('',#792);
#38=PLANE('',#796);
#39=PLANE('',#800);
#40=PLANE('',#804);
#41=PLANE('',#808);
#42=PLANE('',#812);
#43=PLANE('',#813);
#44=PLANE('',#814);
#45=PLANE('',#815);
#46=PLANE('',#816);
#47=PLANE('',#817);
#48=PLANE('',#818);
#49=PLANE('',#819);
#50=PLANE('',#820);
#51=PLANE('',#824);
#52=PLANE('',#828);
#53=PLANE('',#832);
#54=PLANE('',#836);
#55=PLANE('',#840);
#56=PLANE('',#844);
#57=PLANE('',#848);
#58=PLANE('',#852);
#59=PLANE('',#853);
#60=PLANE('',#854);
#61=PLANE('',#855);
#62=PLANE('',#856);
#63=PLANE('',#857);
#64=PLANE('',#858);
#65=PLANE('',#859);
#66=PLANE('',#860);
#67=PLANE('',#861);
#68=PLANE('',#862);
#69=FACE_OUTER_BOUND('',#119,.T.);
#70=FACE_OUTER_BOUND('',#120,.T.);
#71=FACE_OUTER_BOUND('',#121,.T.);
#72=FACE_OUTER_BOUND('',#122,.T.);
#73=FACE_OUTER_BOUND('',#123,.T.);
#74=FACE_OUTER_BOUND('',#124,.T.);
#75=FACE_OUTER_BOUND('',#125,.T.);
#76=FACE_OUTER_BOUND('',#126,.T.);
#77=FACE_OUTER_BOUND('',#127,.T.);
#78=FACE_OUTER_BOUND('',#128,.T.);
#79=FACE_OUTER_BOUND('',#129,.T.);
#80=FACE_OUTER_BOUND('',#130,.T.);
#81=FACE_OUTER_BOUND('',#131,.T.);
#82=FACE_OUTER_BOUND('',#132,.T.);
#83=FACE_OUTER_BOUND('',#133,.T.);
#84=FACE_OUTER_BOUND('',#134,.T.);
#85=FACE_OUTER_BOUND('',#135,.T.);
#86=FACE_OUTER_BOUND('',#136,.T.);
#87=FACE_OUTER_BOUND('',#137,.T.);
#88=FACE_OUTER_BOUND('',#138,.T.);
#89=FACE_OUTER_BOUND('',#139,.T.);
#90=FACE_OUTER_BOUND('',#140,.T.);
#91=FACE_OUTER_BOUND('',#141,.T.);
#92=FACE_OUTER_BOUND('',#142,.T.);
#93=FACE_OUTER_BOUND('',#143,.T.);
#94=FACE_OUTER_BOUND('',#144,.T.);
#95=FACE_OUTER_BOUND('',#146,.T.);
#96=FACE_OUTER_BOUND('',#147,.T.);
#97=FACE_OUTER_BOUND('',#149,.T.);
#98=FACE_OUTER_BOUND('',#150,.T.);
#99=FACE_OUTER_BOUND('',#152,.T.);
#100=FACE_OUTER_BOUND('',#153,.T.);
#101=FACE_OUTER_BOUND('',#155,.T.);
#102=FACE_OUTER_BOUND('',#156,.T.);
#103=FACE_OUTER_BOUND('',#158,.T.);
#104=FACE_OUTER_BOUND('',#159,.T.);
#105=FACE_OUTER_BOUND('',#161,.T.);
#106=FACE_OUTER_BOUND('',#162,.T.);
#107=FACE_OUTER_BOUND('',#164,.T.);
#108=FACE_OUTER_BOUND('',#165,.T.);
#109=FACE_OUTER_BOUND('',#167,.T.);
#110=FACE_OUTER_BOUND('',#168,.T.);
#111=FACE_OUTER_BOUND('',#169,.T.);
#112=FACE_OUTER_BOUND('',#170,.T.);
#113=FACE_OUTER_BOUND('',#173,.T.);
#114=FACE_OUTER_BOUND('',#179,.T.);
#115=FACE_OUTER_BOUND('',#180,.T.);
#116=FACE_OUTER_BOUND('',#181,.T.);
#117=FACE_OUTER_BOUND('',#182,.T.);
#118=FACE_OUTER_BOUND('',#183,.T.);
#119=EDGE_LOOP('',(#509,#510,#511,#512));
#120=EDGE_LOOP('',(#513));
#121=EDGE_LOOP('',(#514,#515,#516,#517));
#122=EDGE_LOOP('',(#518));
#123=EDGE_LOOP('',(#519,#520,#521,#522));
#124=EDGE_LOOP('',(#523));
#125=EDGE_LOOP('',(#524,#525,#526,#527));
#126=EDGE_LOOP('',(#528));
#127=EDGE_LOOP('',(#529,#530,#531,#532));
#128=EDGE_LOOP('',(#533));
#129=EDGE_LOOP('',(#534,#535,#536,#537));
#130=EDGE_LOOP('',(#538));
#131=EDGE_LOOP('',(#539,#540,#541,#542));
#132=EDGE_LOOP('',(#543));
#133=EDGE_LOOP('',(#544,#545,#546,#547));
#134=EDGE_LOOP('',(#548));
#135=EDGE_LOOP('',(#549,#550,#551,#552));
#136=EDGE_LOOP('',(#553,#554,#555,#556));
#137=EDGE_LOOP('',(#557,#558,#559,#560));
#138=EDGE_LOOP('',(#561,#562,#563,#564));
#139=EDGE_LOOP('',(#565,#566,#567,#568));
#140=EDGE_LOOP('',(#569,#570,#571,#572));
#141=EDGE_LOOP('',(#573,#574,#575,#576));
#142=EDGE_LOOP('',(#577,#578,#579,#580));
#143=EDGE_LOOP('',(#581,#582,#583,#584));
#144=EDGE_LOOP('',(#585));
#145=EDGE_LOOP('',(#586));
#146=EDGE_LOOP('',(#587,#588,#589,#590));
#147=EDGE_LOOP('',(#591));
#148=EDGE_LOOP('',(#592));
#149=EDGE_LOOP('',(#593,#594,#595,#596));
#150=EDGE_LOOP('',(#597));
#151=EDGE_LOOP('',(#598));
#152=EDGE_LOOP('',(#599,#600,#601,#602));
#153=EDGE_LOOP('',(#603));
#154=EDGE_LOOP('',(#604));
#155=EDGE_LOOP('',(#605,#606,#607,#608));
#156=EDGE_LOOP('',(#609));
#157=EDGE_LOOP('',(#610));
#158=EDGE_LOOP('',(#611,#612,#613,#614));
#159=EDGE_LOOP('',(#615));
#160=EDGE_LOOP('',(#616));
#161=EDGE_LOOP('',(#617,#618,#619,#620));
#162=EDGE_LOOP('',(#621));
#163=EDGE_LOOP('',(#622));
#164=EDGE_LOOP('',(#623,#624,#625,#626));
#165=EDGE_LOOP('',(#627));
#166=EDGE_LOOP('',(#628));
#167=EDGE_LOOP('',(#629,#630,#631,#632));
#168=EDGE_LOOP('',(#633,#634,#635,#636));
#169=EDGE_LOOP('',(#637,#638,#639,#640));
#170=EDGE_LOOP('',(#641,#642,#643,#644));
#171=EDGE_LOOP('',(#645,#646,#647,#648));
#172=EDGE_LOOP('',(#649,#650,#651,#652));
#173=EDGE_LOOP('',(#653,#654,#655,#656));
#174=EDGE_LOOP('',(#657,#658,#659,#660));
#175=EDGE_LOOP('',(#661));
#176=EDGE_LOOP('',(#662));
#177=EDGE_LOOP('',(#663));
#178=EDGE_LOOP('',(#664));
#179=EDGE_LOOP('',(#665,#666,#667,#668,#669,#670,#671,#672));
#180=EDGE_LOOP('',(#673,#674,#675,#676));
#181=EDGE_LOOP('',(#677,#678,#679,#680,#681,#682,#683,#684));
#182=EDGE_LOOP('',(#685,#686,#687,#688));
#183=EDGE_LOOP('',(#689,#690,#691,#692));
#184=EDGE_LOOP('',(#693,#694,#695,#696));
#185=EDGE_LOOP('',(#697));
#186=EDGE_LOOP('',(#698));
#187=EDGE_LOOP('',(#699));
#188=EDGE_LOOP('',(#700));
#189=LINE('',#1098,#253);
#190=LINE('',#1105,#254);
#191=LINE('',#1112,#255);
#192=LINE('',#1119,#256);
#193=LINE('',#1126,#257);
#194=LINE('',#1133,#258);
#195=LINE('',#1140,#259);
#196=LINE('',#1147,#260);
#197=LINE('',#1153,#261);
#198=LINE('',#1155,#262);
#199=LINE('',#1157,#263);
#200=LINE('',#1158,#264);
#201=LINE('',#1161,#265);
#202=LINE('',#1163,#266);
#203=LINE('',#1164,#267);
#204=LINE('',#1167,#268);
#205=LINE('',#1169,#269);
#206=LINE('',#1170,#270);
#207=LINE('',#1172,#271);
#208=LINE('',#1173,#272);
#209=LINE('',#1177,#273);
#210=LINE('',#1179,#274);
#211=LINE('',#1181,#275);
#212=LINE('',#1182,#276);
#213=LINE('',#1185,#277);
#214=LINE('',#1187,#278);
#215=LINE('',#1188,#279);
#216=LINE('',#1191,#280);
#217=LINE('',#1193,#281);
#218=LINE('',#1194,#282);
#219=LINE('',#1196,#283);
#220=LINE('',#1197,#284);
#221=LINE('',#1202,#285);
#222=LINE('',#1209,#286);
#223=LINE('',#1216,#287);
#224=LINE('',#1223,#288);
#225=LINE('',#1230,#289);
#226=LINE('',#1237,#290);
#227=LINE('',#1244,#291);
#228=LINE('',#1251,#292);
#229=LINE('',#1257,#293);
#230=LINE('',#1259,#294);
#231=LINE('',#1261,#295);
#232=LINE('',#1262,#296);
#233=LINE('',#1266,#297);
#234=LINE('',#1268,#298);
#235=LINE('',#1270,#299);
#236=LINE('',#1271,#300);
#237=LINE('',#1273,#301);
#238=LINE('',#1274,#302);
#239=LINE('',#1278,#303);
#240=LINE('',#1280,#304);
#241=LINE('',#1282,#305);
#242=LINE('',#1283,#306);
#243=LINE('',#1286,#307);
#244=LINE('',#1288,#308);
#245=LINE('',#1289,#309);
#246=LINE('',#1292,#310);
#247=LINE('',#1293,#311);
#248=LINE('',#1294,#312);
#249=LINE('',#1296,#313);
#250=LINE('',#1299,#314);
#251=LINE('',#1300,#315);
#252=LINE('',#1302,#316);
#253=VECTOR('',#869,1.6);
#254=VECTOR('',#878,1.6);
#255=VECTOR('',#887,1.6);
#256=VECTOR('',#896,1.6);
#257=VECTOR('',#905,1.6);
#258=VECTOR('',#914,1.6);
#259=VECTOR('',#923,1.6);
#260=VECTOR('',#932,1.6);
#261=VECTOR('',#939,10.);
#262=VECTOR('',#940,10.);
#263=VECTOR('',#941,10.);
#264=VECTOR('',#942,10.);
#265=VECTOR('',#945,10.);
#266=VECTOR('',#946,10.);
#267=VECTOR('',#947,10.);
#268=VECTOR('',#950,10.);
#269=VECTOR('',#951,10.);
#270=VECTOR('',#952,10.);
#271=VECTOR('',#955,10.);
#272=VECTOR('',#956,10.);
#273=VECTOR('',#959,10.);
#274=VECTOR('',#960,10.);
#275=VECTOR('',#961,10.);
#276=VECTOR('',#962,10.);
#277=VECTOR('',#965,10.);
#278=VECTOR('',#966,10.);
#279=VECTOR('',#967,10.);
#280=VECTOR('',#970,10.);
#281=VECTOR('',#971,10.);
#282=VECTOR('',#972,10.);
#283=VECTOR('',#975,10.);
#284=VECTOR('',#976,10.);
#285=VECTOR('',#981,5.);
#286=VECTOR('',#990,5.);
#287=VECTOR('',#999,5.);
#288=VECTOR('',#1008,5.);
#289=VECTOR('',#1017,5.);
#290=VECTOR('',#1026,5.);
#291=VECTOR('',#1035,5.);
#292=VECTOR('',#1044,5.);
#293=VECTOR('',#1051,10.);
#294=VECTOR('',#1052,10.);
#295=VECTOR('',#1053,10.);
#296=VECTOR('',#1054,10.);
#297=VECTOR('',#1057,10.);
#298=VECTOR('',#1058,10.);
#299=VECTOR('',#1059,10.);
#300=VECTOR('',#1060,10.);
#301=VECTOR('',#1063,10.);
#302=VECTOR('',#1064,10.);
#303=VECTOR('',#1067,10.);
#304=VECTOR('',#1068,10.);
#305=VECTOR('',#1069,10.);
#306=VECTOR('',#1070,10.);
#307=VECTOR('',#1073,10.);
#308=VECTOR('',#1074,10.);
#309=VECTOR('',#1075,10.);
#310=VECTOR('',#1078,10.);
#311=VECTOR('',#1079,10.);
#312=VECTOR('',#1080,10.);
#313=VECTOR('',#1083,10.);
#314=VECTOR('',#1086,10.);
#315=VECTOR('',#1087,10.);
#316=VECTOR('',#1090,10.);
#317=CIRCLE('',#782,1.6);
#318=CIRCLE('',#783,1.6);
#319=CIRCLE('',#786,1.6);
#320=CIRCLE('',#787,1.6);
#321=CIRCLE('',#790,1.6);
#322=CIRCLE('',#791,1.6);
#323=CIRCLE('',#794,1.6);
#324=CIRCLE('',#795,1.6);
#325=CIRCLE('',#798,1.6);
#326=CIRCLE('',#799,1.6);
#327=CIRCLE('',#802,1.6);
#328=CIRCLE('',#803,1.6);
#329=CIRCLE('',#806,1.6);
#330=CIRCLE('',#807,1.6);
#331=CIRCLE('',#810,1.6);
#332=CIRCLE('',#811,1.6);
#333=CIRCLE('',#822,5.);
#334=CIRCLE('',#823,5.);
#335=CIRCLE('',#826,5.);
#336=CIRCLE('',#827,5.);
#337=CIRCLE('',#830,5.);
#338=CIRCLE('',#831,5.);
#339=CIRCLE('',#834,5.);
#340=CIRCLE('',#835,5.);
#341=CIRCLE('',#838,5.);
#342=CIRCLE('',#839,5.);
#343=CIRCLE('',#842,5.);
#344=CIRCLE('',#843,5.);
#345=CIRCLE('',#846,5.);
#346=CIRCLE('',#847,5.);
#347=CIRCLE('',#850,5.);
#348=CIRCLE('',#851,5.);
#349=VERTEX_POINT('',#1095);
#350=VERTEX_POINT('',#1097);
#351=VERTEX_POINT('',#1102);
#352=VERTEX_POINT('',#1104);
#353=VERTEX_POINT('',#1109);
#354=VERTEX_POINT('',#1111);
#355=VERTEX_POINT('',#1116);
#356=VERTEX_POINT('',#1118);
#357=VERTEX_POINT('',#1123);
#358=VERTEX_POINT('',#1125);
#359=VERTEX_POINT('',#1130);
#360=VERTEX_POINT('',#1132);
#361=VERTEX_POINT('',#1137);
#362=VERTEX_POINT('',#1139);
#363=VERTEX_POINT('',#1144);
#364=VERTEX_POINT('',#1146);
#365=VERTEX_POINT('',#1151);
#366=VERTEX_POINT('',#1152);
#367=VERTEX_POINT('',#1154);
#368=VERTEX_POINT('',#1156);
#369=VERTEX_POINT('',#1160);
#370=VERTEX_POINT('',#1162);
#371=VERTEX_POINT('',#1166);
#372=VERTEX_POINT('',#1168);
#373=VERTEX_POINT('',#1175);
#374=VERTEX_POINT('',#1176);
#375=VERTEX_POINT('',#1178);
#376=VERTEX_POINT('',#1180);
#377=VERTEX_POINT('',#1184);
#378=VERTEX_POINT('',#1186);
#379=VERTEX_POINT('',#1190);
#380=VERTEX_POINT('',#1192);
#381=VERTEX_POINT('',#1199);
#382=VERTEX_POINT('',#1201);
#383=VERTEX_POINT('',#1206);
#384=VERTEX_POINT('',#1208);
#385=VERTEX_POINT('',#1213);
#386=VERTEX_POINT('',#1215);
#387=VERTEX_POINT('',#1220);
#388=VERTEX_POINT('',#1222);
#389=VERTEX_POINT('',#1227);
#390=VERTEX_POINT('',#1229);
#391=VERTEX_POINT('',#1234);
#392=VERTEX_POINT('',#1236);
#393=VERTEX_POINT('',#1241);
#394=VERTEX_POINT('',#1243);
#395=VERTEX_POINT('',#1248);
#396=VERTEX_POINT('',#1250);
#397=VERTEX_POINT('',#1255);
#398=VERTEX_POINT('',#1256);
#399=VERTEX_POINT('',#1258);
#400=VERTEX_POINT('',#1260);
#401=VERTEX_POINT('',#1264);
#402=VERTEX_POINT('',#1265);
#403=VERTEX_POINT('',#1267);
#404=VERTEX_POINT('',#1269);
#405=VERTEX_POINT('',#1276);
#406=VERTEX_POINT('',#1277);
#407=VERTEX_POINT('',#1279);
#408=VERTEX_POINT('',#1281);
#409=VERTEX_POINT('',#1285);
#410=VERTEX_POINT('',#1287);
#411=VERTEX_POINT('',#1291);
#412=VERTEX_POINT('',#1298);
#413=EDGE_CURVE('',#349,#349,#317,.T.);
#414=EDGE_CURVE('',#349,#350,#189,.T.);
#415=EDGE_CURVE('',#350,#350,#318,.T.);
#416=EDGE_CURVE('',#351,#351,#319,.T.);
#417=EDGE_CURVE('',#351,#352,#190,.T.);
#418=EDGE_CURVE('',#352,#352,#320,.T.);
#419=EDGE_CURVE('',#353,#353,#321,.T.);
#420=EDGE_CURVE('',#353,#354,#191,.T.);
#421=EDGE_CURVE('',#354,#354,#322,.T.);
#422=EDGE_CURVE('',#355,#355,#323,.T.);
#423=EDGE_CURVE('',#355,#356,#192,.T.);
#424=EDGE_CURVE('',#356,#356,#324,.T.);
#425=EDGE_CURVE('',#357,#357,#325,.T.);
#426=EDGE_CURVE('',#357,#358,#193,.T.);
#427=EDGE_CURVE('',#358,#358,#326,.T.);
#428=EDGE_CURVE('',#359,#359,#327,.T.);
#429=EDGE_CURVE('',#359,#360,#194,.T.);
#430=EDGE_CURVE('',#360,#360,#328,.T.);
#431=EDGE_CURVE('',#361,#361,#329,.T.);
#432=EDGE_CURVE('',#361,#362,#195,.T.);
#433=EDGE_CURVE('',#362,#362,#330,.T.);
#434=EDGE_CURVE('',#363,#363,#331,.T.);
#435=EDGE_CURVE('',#363,#364,#196,.T.);
#436=EDGE_CURVE('',#364,#364,#332,.T.);
#437=EDGE_CURVE('',#365,#366,#197,.T.);
#438=EDGE_CURVE('',#365,#367,#198,.T.);
#439=EDGE_CURVE('',#368,#367,#199,.T.);
#440=EDGE_CURVE('',#366,#368,#200,.T.);
#441=EDGE_CURVE('',#369,#365,#201,.T.);
#442=EDGE_CURVE('',#369,#370,#202,.T.);
#443=EDGE_CURVE('',#367,#370,#203,.T.);
#444=EDGE_CURVE('',#371,#369,#204,.T.);
#445=EDGE_CURVE('',#371,#372,#205,.T.);
#446=EDGE_CURVE('',#370,#372,#206,.T.);
#447=EDGE_CURVE('',#366,#371,#207,.T.);
#448=EDGE_CURVE('',#372,#368,#208,.T.);
#449=EDGE_CURVE('',#373,#374,#209,.T.);
#450=EDGE_CURVE('',#373,#375,#210,.T.);
#451=EDGE_CURVE('',#376,#375,#211,.T.);
#452=EDGE_CURVE('',#374,#376,#212,.T.);
#453=EDGE_CURVE('',#377,#373,#213,.T.);
#454=EDGE_CURVE('',#377,#378,#214,.T.);
#455=EDGE_CURVE('',#375,#378,#215,.T.);
#456=EDGE_CURVE('',#379,#377,#216,.T.);
#457=EDGE_CURVE('',#379,#380,#217,.T.);
#458=EDGE_CURVE('',#378,#380,#218,.T.);
#459=EDGE_CURVE('',#374,#379,#219,.T.);
#460=EDGE_CURVE('',#380,#376,#220,.T.);
#461=EDGE_CURVE('',#381,#381,#333,.T.);
#462=EDGE_CURVE('',#381,#382,#221,.T.);
#463=EDGE_CURVE('',#382,#382,#334,.T.);
#464=EDGE_CURVE('',#383,#383,#335,.T.);
#465=EDGE_CURVE('',#383,#384,#222,.T.);
#466=EDGE_CURVE('',#384,#384,#336,.T.);
#467=EDGE_CURVE('',#385,#385,#337,.T.);
#468=EDGE_CURVE('',#385,#386,#223,.T.);
#469=EDGE_CURVE('',#386,#386,#338,.T.);
#470=EDGE_CURVE('',#387,#387,#339,.T.);
#471=EDGE_CURVE('',#387,#388,#224,.T.);
#472=EDGE_CURVE('',#388,#388,#340,.T.);
#473=EDGE_CURVE('',#389,#389,#341,.T.);
#474=EDGE_CURVE('',#389,#390,#225,.T.);
#475=EDGE_CURVE('',#390,#390,#342,.T.);
#476=EDGE_CURVE('',#391,#391,#343,.T.);
#477=EDGE_CURVE('',#391,#392,#226,.T.);
#478=EDGE_CURVE('',#392,#392,#344,.T.);
#479=EDGE_CURVE('',#393,#393,#345,.T.);
#480=EDGE_CURVE('',#393,#394,#227,.T.);
#481=EDGE_CURVE('',#394,#394,#346,.T.);
#482=EDGE_CURVE('',#395,#395,#347,.T.);
#483=EDGE_CURVE('',#395,#396,#228,.T.);
#484=EDGE_CURVE('',#396,#396,#348,.T.);
#485=EDGE_CURVE('',#397,#398,#229,.T.);
#486=EDGE_CURVE('',#397,#399,#230,.T.);
#487=EDGE_CURVE('',#400,#399,#231,.T.);
#488=EDGE_CURVE('',#398,#400,#232,.T.);
#489=EDGE_CURVE('',#401,#402,#233,.T.);
#490=EDGE_CURVE('',#401,#403,#234,.T.);
#491=EDGE_CURVE('',#404,#403,#235,.T.);
#492=EDGE_CURVE('',#402,#404,#236,.T.);
#493=EDGE_CURVE('',#399,#404,#237,.T.);
#494=EDGE_CURVE('',#403,#400,#238,.T.);
#495=EDGE_CURVE('',#405,#406,#239,.T.);
#496=EDGE_CURVE('',#407,#405,#240,.T.);
#497=EDGE_CURVE('',#408,#407,#241,.T.);
#498=EDGE_CURVE('',#406,#408,#242,.T.);
#499=EDGE_CURVE('',#402,#409,#243,.T.);
#500=EDGE_CURVE('',#409,#410,#244,.T.);
#501=EDGE_CURVE('',#410,#401,#245,.T.);
#502=EDGE_CURVE('',#407,#411,#246,.T.);
#503=EDGE_CURVE('',#398,#411,#247,.T.);
#504=EDGE_CURVE('',#408,#410,#248,.T.);
#505=EDGE_CURVE('',#406,#409,#249,.T.);
#506=EDGE_CURVE('',#412,#397,#250,.T.);
#507=EDGE_CURVE('',#405,#412,#251,.T.);
#508=EDGE_CURVE('',#411,#412,#252,.T.);
#509=ORIENTED_EDGE('',*,*,#413,.F.);
#510=ORIENTED_EDGE('',*,*,#414,.T.);
#511=ORIENTED_EDGE('',*,*,#415,.F.);
#512=ORIENTED_EDGE('',*,*,#414,.F.);
#513=ORIENTED_EDGE('',*,*,#413,.T.);
#514=ORIENTED_EDGE('',*,*,#416,.F.);
#515=ORIENTED_EDGE('',*,*,#417,.T.);
#516=ORIENTED_EDGE('',*,*,#418,.F.);
#517=ORIENTED_EDGE('',*,*,#417,.F.);
#518=ORIENTED_EDGE('',*,*,#416,.T.);
#519=ORIENTED_EDGE('',*,*,#419,.F.);
#520=ORIENTED_EDGE('',*,*,#420,.T.);
#521=ORIENTED_EDGE('',*,*,#421,.F.);
#522=ORIENTED_EDGE('',*,*,#420,.F.);
#523=ORIENTED_EDGE('',*,*,#419,.T.);
#524=ORIENTED_EDGE('',*,*,#422,.F.);
#525=ORIENTED_EDGE('',*,*,#423,.T.);
#526=ORIENTED_EDGE('',*,*,#424,.F.);
#527=ORIENTED_EDGE('',*,*,#423,.F.);
#528=ORIENTED_EDGE('',*,*,#422,.T.);
#529=ORIENTED_EDGE('',*,*,#425,.F.);
#530=ORIENTED_EDGE('',*,*,#426,.T.);
#531=ORIENTED_EDGE('',*,*,#427,.F.);
#532=ORIENTED_EDGE('',*,*,#426,.F.);
#533=ORIENTED_EDGE('',*,*,#425,.T.);
#534=ORIENTED_EDGE('',*,*,#428,.F.);
#535=ORIENTED_EDGE('',*,*,#429,.T.);
#536=ORIENTED_EDGE('',*,*,#430,.F.);
#537=ORIENTED_EDGE('',*,*,#429,.F.);
#538=ORIENTED_EDGE('',*,*,#428,.T.);
#539=ORIENTED_EDGE('',*,*,#431,.F.);
#540=ORIENTED_EDGE('',*,*,#432,.T.);
#541=ORIENTED_EDGE('',*,*,#433,.F.);
#542=ORIENTED_EDGE('',*,*,#432,.F.);
#543=ORIENTED_EDGE('',*,*,#431,.T.);
#544=ORIENTED_EDGE('',*,*,#434,.F.);
#545=ORIENTED_EDGE('',*,*,#435,.T.);
#546=ORIENTED_EDGE('',*,*,#436,.F.);
#547=ORIENTED_EDGE('',*,*,#435,.F.);
#548=ORIENTED_EDGE('',*,*,#434,.T.);
#549=ORIENTED_EDGE('',*,*,#437,.F.);
#550=ORIENTED_EDGE('',*,*,#438,.T.);
#551=ORIENTED_EDGE('',*,*,#439,.F.);
#552=ORIENTED_EDGE('',*,*,#440,.F.);
#553=ORIENTED_EDGE('',*,*,#441,.F.);
#554=ORIENTED_EDGE('',*,*,#442,.T.);
#555=ORIENTED_EDGE('',*,*,#443,.F.);
#556=ORIENTED_EDGE('',*,*,#438,.F.);
#557=ORIENTED_EDGE('',*,*,#444,.F.);
#558=ORIENTED_EDGE('',*,*,#445,.T.);
#559=ORIENTED_EDGE('',*,*,#446,.F.);
#560=ORIENTED_EDGE('',*,*,#442,.F.);
#561=ORIENTED_EDGE('',*,*,#447,.F.);
#562=ORIENTED_EDGE('',*,*,#440,.T.);
#563=ORIENTED_EDGE('',*,*,#448,.F.);
#564=ORIENTED_EDGE('',*,*,#445,.F.);
#565=ORIENTED_EDGE('',*,*,#449,.F.);
#566=ORIENTED_EDGE('',*,*,#450,.T.);
#567=ORIENTED_EDGE('',*,*,#451,.F.);
#568=ORIENTED_EDGE('',*,*,#452,.F.);
#569=ORIENTED_EDGE('',*,*,#453,.F.);
#570=ORIENTED_EDGE('',*,*,#454,.T.);
#571=ORIENTED_EDGE('',*,*,#455,.F.);
#572=ORIENTED_EDGE('',*,*,#450,.F.);
#573=ORIENTED_EDGE('',*,*,#456,.F.);
#574=ORIENTED_EDGE('',*,*,#457,.T.);
#575=ORIENTED_EDGE('',*,*,#458,.F.);
#576=ORIENTED_EDGE('',*,*,#454,.F.);
#577=ORIENTED_EDGE('',*,*,#459,.F.);
#578=ORIENTED_EDGE('',*,*,#452,.T.);
#579=ORIENTED_EDGE('',*,*,#460,.F.);
#580=ORIENTED_EDGE('',*,*,#457,.F.);
#581=ORIENTED_EDGE('',*,*,#461,.F.);
#582=ORIENTED_EDGE('',*,*,#462,.T.);
#583=ORIENTED_EDGE('',*,*,#463,.F.);
#584=ORIENTED_EDGE('',*,*,#462,.F.);
#585=ORIENTED_EDGE('',*,*,#461,.T.);
#586=ORIENTED_EDGE('',*,*,#415,.T.);
#587=ORIENTED_EDGE('',*,*,#464,.F.);
#588=ORIENTED_EDGE('',*,*,#465,.T.);
#589=ORIENTED_EDGE('',*,*,#466,.F.);
#590=ORIENTED_EDGE('',*,*,#465,.F.);
#591=ORIENTED_EDGE('',*,*,#464,.T.);
#592=ORIENTED_EDGE('',*,*,#418,.T.);
#593=ORIENTED_EDGE('',*,*,#467,.F.);
#594=ORIENTED_EDGE('',*,*,#468,.T.);
#595=ORIENTED_EDGE('',*,*,#469,.F.);
#596=ORIENTED_EDGE('',*,*,#468,.F.);
#597=ORIENTED_EDGE('',*,*,#467,.T.);
#598=ORIENTED_EDGE('',*,*,#421,.T.);
#599=ORIENTED_EDGE('',*,*,#470,.F.);
#600=ORIENTED_EDGE('',*,*,#471,.T.);
#601=ORIENTED_EDGE('',*,*,#472,.F.);
#602=ORIENTED_EDGE('',*,*,#471,.F.);
#603=ORIENTED_EDGE('',*,*,#470,.T.);
#604=ORIENTED_EDGE('',*,*,#424,.T.);
#605=ORIENTED_EDGE('',*,*,#473,.F.);
#606=ORIENTED_EDGE('',*,*,#474,.T.);
#607=ORIENTED_EDGE('',*,*,#475,.F.);
#608=ORIENTED_EDGE('',*,*,#474,.F.);
#609=ORIENTED_EDGE('',*,*,#473,.T.);
#610=ORIENTED_EDGE('',*,*,#427,.T.);
#611=ORIENTED_EDGE('',*,*,#476,.F.);
#612=ORIENTED_EDGE('',*,*,#477,.T.);
#613=ORIENTED_EDGE('',*,*,#478,.F.);
#614=ORIENTED_EDGE('',*,*,#477,.F.);
#615=ORIENTED_EDGE('',*,*,#476,.T.);
#616=ORIENTED_EDGE('',*,*,#430,.T.);
#617=ORIENTED_EDGE('',*,*,#479,.F.);
#618=ORIENTED_EDGE('',*,*,#480,.T.);
#619=ORIENTED_EDGE('',*,*,#481,.F.);
#620=ORIENTED_EDGE('',*,*,#480,.F.);
#621=ORIENTED_EDGE('',*,*,#479,.T.);
#622=ORIENTED_EDGE('',*,*,#433,.T.);
#623=ORIENTED_EDGE('',*,*,#482,.F.);
#624=ORIENTED_EDGE('',*,*,#483,.T.);
#625=ORIENTED_EDGE('',*,*,#484,.F.);
#626=ORIENTED_EDGE('',*,*,#483,.F.);
#627=ORIENTED_EDGE('',*,*,#482,.T.);
#628=ORIENTED_EDGE('',*,*,#436,.T.);
#629=ORIENTED_EDGE('',*,*,#485,.F.);
#630=ORIENTED_EDGE('',*,*,#486,.T.);
#631=ORIENTED_EDGE('',*,*,#487,.F.);
#632=ORIENTED_EDGE('',*,*,#488,.F.);
#633=ORIENTED_EDGE('',*,*,#489,.F.);
#634=ORIENTED_EDGE('',*,*,#490,.T.);
#635=ORIENTED_EDGE('',*,*,#491,.F.);
#636=ORIENTED_EDGE('',*,*,#492,.F.);
#637=ORIENTED_EDGE('',*,*,#487,.T.);
#638=ORIENTED_EDGE('',*,*,#493,.T.);
#639=ORIENTED_EDGE('',*,*,#491,.T.);
#640=ORIENTED_EDGE('',*,*,#494,.T.);
#641=ORIENTED_EDGE('',*,*,#495,.F.);
#642=ORIENTED_EDGE('',*,*,#496,.F.);
#643=ORIENTED_EDGE('',*,*,#497,.F.);
#644=ORIENTED_EDGE('',*,*,#498,.F.);
#645=ORIENTED_EDGE('',*,*,#437,.T.);
#646=ORIENTED_EDGE('',*,*,#447,.T.);
#647=ORIENTED_EDGE('',*,*,#444,.T.);
#648=ORIENTED_EDGE('',*,*,#441,.T.);
#649=ORIENTED_EDGE('',*,*,#449,.T.);
#650=ORIENTED_EDGE('',*,*,#459,.T.);
#651=ORIENTED_EDGE('',*,*,#456,.T.);
#652=ORIENTED_EDGE('',*,*,#453,.T.);
#653=ORIENTED_EDGE('',*,*,#489,.T.);
#654=ORIENTED_EDGE('',*,*,#499,.T.);
#655=ORIENTED_EDGE('',*,*,#500,.T.);
#656=ORIENTED_EDGE('',*,*,#501,.T.);
#657=ORIENTED_EDGE('',*,*,#439,.T.);
#658=ORIENTED_EDGE('',*,*,#443,.T.);
#659=ORIENTED_EDGE('',*,*,#446,.T.);
#660=ORIENTED_EDGE('',*,*,#448,.T.);
#661=ORIENTED_EDGE('',*,*,#463,.T.);
#662=ORIENTED_EDGE('',*,*,#466,.T.);
#663=ORIENTED_EDGE('',*,*,#469,.T.);
#664=ORIENTED_EDGE('',*,*,#472,.T.);
#665=ORIENTED_EDGE('',*,*,#497,.T.);
#666=ORIENTED_EDGE('',*,*,#502,.T.);
#667=ORIENTED_EDGE('',*,*,#503,.F.);
#668=ORIENTED_EDGE('',*,*,#488,.T.);
#669=ORIENTED_EDGE('',*,*,#494,.F.);
#670=ORIENTED_EDGE('',*,*,#490,.F.);
#671=ORIENTED_EDGE('',*,*,#501,.F.);
#672=ORIENTED_EDGE('',*,*,#504,.F.);
#673=ORIENTED_EDGE('',*,*,#498,.T.);
#674=ORIENTED_EDGE('',*,*,#504,.T.);
#675=ORIENTED_EDGE('',*,*,#500,.F.);
#676=ORIENTED_EDGE('',*,*,#505,.F.);
#677=ORIENTED_EDGE('',*,*,#506,.F.);
#678=ORIENTED_EDGE('',*,*,#507,.F.);
#679=ORIENTED_EDGE('',*,*,#495,.T.);
#680=ORIENTED_EDGE('',*,*,#505,.T.);
#681=ORIENTED_EDGE('',*,*,#499,.F.);
#682=ORIENTED_EDGE('',*,*,#492,.T.);
#683=ORIENTED_EDGE('',*,*,#493,.F.);
#684=ORIENTED_EDGE('',*,*,#486,.F.);
#685=ORIENTED_EDGE('',*,*,#496,.T.);
#686=ORIENTED_EDGE('',*,*,#507,.T.);
#687=ORIENTED_EDGE('',*,*,#508,.F.);
#688=ORIENTED_EDGE('',*,*,#502,.F.);
#689=ORIENTED_EDGE('',*,*,#485,.T.);
#690=ORIENTED_EDGE('',*,*,#503,.T.);
#691=ORIENTED_EDGE('',*,*,#508,.T.);
#692=ORIENTED_EDGE('',*,*,#506,.T.);
#693=ORIENTED_EDGE('',*,*,#451,.T.);
#694=ORIENTED_EDGE('',*,*,#455,.T.);
#695=ORIENTED_EDGE('',*,*,#458,.T.);
#696=ORIENTED_EDGE('',*,*,#460,.T.);
#697=ORIENTED_EDGE('',*,*,#475,.T.);
#698=ORIENTED_EDGE('',*,*,#478,.T.);
#699=ORIENTED_EDGE('',*,*,#481,.T.);
#700=ORIENTED_EDGE('',*,*,#484,.T.);
#701=CYLINDRICAL_SURFACE('',#781,1.6);
#702=CYLINDRICAL_SURFACE('',#785,1.6);
#703=CYLINDRICAL_SURFACE('',#789,1.6);
#704=CYLINDRICAL_SURFACE('',#793,1.6);
#705=CYLINDRICAL_SURFACE('',#797,1.6);
#706=CYLINDRICAL_SURFACE('',#801,1.6);
#707=CYLINDRICAL_SURFACE('',#805,1.6);
#708=CYLINDRICAL_SURFACE('',#809,1.6);
#709=CYLINDRICAL_SURFACE('',#821,5.);
#710=CYLINDRICAL_SURFACE('',#825,5.);
#711=CYLINDRICAL_SURFACE('',#829,5.);
#712=CYLINDRICAL_SURFACE('',#833,5.);
#713=CYLINDRICAL_SURFACE('',#837,5.);
#714=CYLINDRICAL_SURFACE('',#841,5.);
#715=CYLINDRICAL_SURFACE('',#845,5.);
#716=CYLINDRICAL_SURFACE('',#849,5.);
#717=ADVANCED_FACE('',(#69),#701,.F.);
#718=ADVANCED_FACE('',(#70),#35,.T.);
#719=ADVANCED_FACE('',(#71),#702,.F.);
#720=ADVANCED_FACE('',(#72),#36,.T.);
#721=ADVANCED_FACE('',(#73),#703,.F.);
#722=ADVANCED_FACE('',(#74),#37,.T.);
#723=ADVANCED_FACE('',(#75),#704,.F.);
#724=ADVANCED_FACE('',(#76),#38,.T.);
#725=ADVANCED_FACE('',(#77),#705,.F.);
#726=ADVANCED_FACE('',(#78),#39,.T.);
#727=ADVANCED_FACE('',(#79),#706,.F.);
#728=ADVANCED_FACE('',(#80),#40,.T.);
#729=ADVANCED_FACE('',(#81),#707,.F.);
#730=ADVANCED_FACE('',(#82),#41,.T.);
#731=ADVANCED_FACE('',(#83),#708,.F.);
#732=ADVANCED_FACE('',(#84),#42,.T.);
#733=ADVANCED_FACE('',(#85),#43,.F.);
#734=ADVANCED_FACE('',(#86),#44,.F.);
#735=ADVANCED_FACE('',(#87),#45,.F.);
#736=ADVANCED_FACE('',(#88),#46,.F.);
#737=ADVANCED_FACE('',(#89),#47,.F.);
#738=ADVANCED_FACE('',(#90),#48,.F.);
#739=ADVANCED_FACE('',(#91),#49,.F.);
#740=ADVANCED_FACE('',(#92),#50,.F.);
#741=ADVANCED_FACE('',(#93),#709,.T.);
#742=ADVANCED_FACE('',(#94,#15),#51,.T.);
#743=ADVANCED_FACE('',(#95),#710,.T.);
#744=ADVANCED_FACE('',(#96,#16),#52,.T.);
#745=ADVANCED_FACE('',(#97),#711,.T.);
#746=ADVANCED_FACE('',(#98,#17),#53,.T.);
#747=ADVANCED_FACE('',(#99),#712,.T.);
#748=ADVANCED_FACE('',(#100,#18),#54,.T.);
#749=ADVANCED_FACE('',(#101),#713,.T.);
#750=ADVANCED_FACE('',(#102,#19),#55,.T.);
#751=ADVANCED_FACE('',(#103),#714,.T.);
#752=ADVANCED_FACE('',(#104,#20),#56,.T.);
#753=ADVANCED_FACE('',(#105),#715,.T.);
#754=ADVANCED_FACE('',(#106,#21),#57,.T.);
#755=ADVANCED_FACE('',(#107),#716,.T.);
#756=ADVANCED_FACE('',(#108,#22),#58,.T.);
#757=ADVANCED_FACE('',(#109),#59,.T.);
#758=ADVANCED_FACE('',(#110),#60,.T.);
#759=ADVANCED_FACE('',(#111),#61,.T.);
#760=ADVANCED_FACE('',(#112,#23,#24),#62,.F.);
#761=ADVANCED_FACE('',(#113,#25,#26,#27,#28,#29),#63,.T.);
#762=ADVANCED_FACE('',(#114),#64,.T.);
#763=ADVANCED_FACE('',(#115),#65,.T.);
#764=ADVANCED_FACE('',(#116),#66,.T.);
#765=ADVANCED_FACE('',(#117),#67,.T.);
#766=ADVANCED_FACE('',(#118,#30,#31,#32,#33,#34),#68,.T.);
#767=CLOSED_SHELL('',(#717,#718,#719,#720,#721,#722,#723,#724,#725,#726,
#727,#728,#729,#730,#731,#732,#733,#734,#735,#736,#737,#738,#739,#740,#741,
#742,#743,#744,#745,#746,#747,#748,#749,#750,#751,#752,#753,#754,#755,#756,
#757,#758,#759,#760,#761,#762,#763,#764,#765,#766));
#768=DERIVED_UNIT_ELEMENT(#770,1.);
#769=DERIVED_UNIT_ELEMENT(#1309,-3.);
#770=(
MASS_UNIT()
NAMED_UNIT(*)
SI_UNIT(.KILO.,.GRAM.)
);
#771=DERIVED_UNIT((#768,#769));
#772=MEASURE_REPRESENTATION_ITEM('density measure',
POSITIVE_RATIO_MEASURE(7850.),#771);
#773=PROPERTY_DEFINITION_REPRESENTATION(#778,#775);
#774=PROPERTY_DEFINITION_REPRESENTATION(#779,#776);
#775=REPRESENTATION('material name',(#777),#1306);
#776=REPRESENTATION('density',(#772),#1306);
#777=DESCRIPTIVE_REPRESENTATION_ITEM('A\X\E7o','A\X\E7o');
#778=PROPERTY_DEFINITION('material property','material name',#1316);
#779=PROPERTY_DEFINITION('material property','density of part',#1316);
#780=AXIS2_PLACEMENT_3D('',#1093,#863,#864);
#781=AXIS2_PLACEMENT_3D('',#1094,#865,#866);
#782=AXIS2_PLACEMENT_3D('',#1096,#867,#868);
#783=AXIS2_PLACEMENT_3D('',#1099,#870,#871);
#784=AXIS2_PLACEMENT_3D('',#1100,#872,#873);
#785=AXIS2_PLACEMENT_3D('',#1101,#874,#875);
#786=AXIS2_PLACEMENT_3D('',#1103,#876,#877);
#787=AXIS2_PLACEMENT_3D('',#1106,#879,#880);
#788=AXIS2_PLACEMENT_3D('',#1107,#881,#882);
#789=AXIS2_PLACEMENT_3D('',#1108,#883,#884);
#790=AXIS2_PLACEMENT_3D('',#1110,#885,#886);
#791=AXIS2_PLACEMENT_3D('',#1113,#888,#889);
#792=AXIS2_PLACEMENT_3D('',#1114,#890,#891);
#793=AXIS2_PLACEMENT_3D('',#1115,#892,#893);
#794=AXIS2_PLACEMENT_3D('',#1117,#894,#895);
#795=AXIS2_PLACEMENT_3D('',#1120,#897,#898);
#796=AXIS2_PLACEMENT_3D('',#1121,#899,#900);
#797=AXIS2_PLACEMENT_3D('',#1122,#901,#902);
#798=AXIS2_PLACEMENT_3D('',#1124,#903,#904);
#799=AXIS2_PLACEMENT_3D('',#1127,#906,#907);
#800=AXIS2_PLACEMENT_3D('',#1128,#908,#909);
#801=AXIS2_PLACEMENT_3D('',#1129,#910,#911);
#802=AXIS2_PLACEMENT_3D('',#1131,#912,#913);
#803=AXIS2_PLACEMENT_3D('',#1134,#915,#916);
#804=AXIS2_PLACEMENT_3D('',#1135,#917,#918);
#805=AXIS2_PLACEMENT_3D('',#1136,#919,#920);
#806=AXIS2_PLACEMENT_3D('',#1138,#921,#922);
#807=AXIS2_PLACEMENT_3D('',#1141,#924,#925);
#808=AXIS2_PLACEMENT_3D('',#1142,#926,#927);
#809=AXIS2_PLACEMENT_3D('',#1143,#928,#929);
#810=AXIS2_PLACEMENT_3D('',#1145,#930,#931);
#811=AXIS2_PLACEMENT_3D('',#1148,#933,#934);
#812=AXIS2_PLACEMENT_3D('',#1149,#935,#936);
#813=AXIS2_PLACEMENT_3D('',#1150,#937,#938);
#814=AXIS2_PLACEMENT_3D('',#1159,#943,#944);
#815=AXIS2_PLACEMENT_3D('',#1165,#948,#949);
#816=AXIS2_PLACEMENT_3D('',#1171,#953,#954);
#817=AXIS2_PLACEMENT_3D('',#1174,#957,#958);
#818=AXIS2_PLACEMENT_3D('',#1183,#963,#964);
#819=AXIS2_PLACEMENT_3D('',#1189,#968,#969);
#820=AXIS2_PLACEMENT_3D('',#1195,#973,#974);
#821=AXIS2_PLACEMENT_3D('',#1198,#977,#978);
#822=AXIS2_PLACEMENT_3D('',#1200,#979,#980);
#823=AXIS2_PLACEMENT_3D('',#1203,#982,#983);
#824=AXIS2_PLACEMENT_3D('',#1204,#984,#985);
#825=AXIS2_PLACEMENT_3D('',#1205,#986,#987);
#826=AXIS2_PLACEMENT_3D('',#1207,#988,#989);
#827=AXIS2_PLACEMENT_3D('',#1210,#991,#992);
#828=AXIS2_PLACEMENT_3D('',#1211,#993,#994);
#829=AXIS2_PLACEMENT_3D('',#1212,#995,#996);
#830=AXIS2_PLACEMENT_3D('',#1214,#997,#998);
#831=AXIS2_PLACEMENT_3D('',#1217,#1000,#1001);
#832=AXIS2_PLACEMENT_3D('',#1218,#1002,#1003);
#833=AXIS2_PLACEMENT_3D('',#1219,#1004,#1005);
#834=AXIS2_PLACEMENT_3D('',#1221,#1006,#1007);
#835=AXIS2_PLACEMENT_3D('',#1224,#1009,#1010);
#836=AXIS2_PLACEMENT_3D('',#1225,#1011,#1012);
#837=AXIS2_PLACEMENT_3D('',#1226,#1013,#1014);
#838=AXIS2_PLACEMENT_3D('',#1228,#1015,#1016);
#839=AXIS2_PLACEMENT_3D('',#1231,#1018,#1019);
#840=AXIS2_PLACEMENT_3D('',#1232,#1020,#1021);
#841=AXIS2_PLACEMENT_3D('',#1233,#1022,#1023);
#842=AXIS2_PLACEMENT_3D('',#1235,#1024,#1025);
#843=AXIS2_PLACEMENT_3D('',#1238,#1027,#1028);
#844=AXIS2_PLACEMENT_3D('',#1239,#1029,#1030);
#845=AXIS2_PLACEMENT_3D('',#1240,#1031,#1032);
#846=AXIS2_PLACEMENT_3D('',#1242,#1033,#1034);
#847=AXIS2_PLACEMENT_3D('',#1245,#1036,#1037);
#848=AXIS2_PLACEMENT_3D('',#1246,#1038,#1039);
#849=AXIS2_PLACEMENT_3D('',#1247,#1040,#1041);
#850=AXIS2_PLACEMENT_3D('',#1249,#1042,#1043);
#851=AXIS2_PLACEMENT_3D('',#1252,#1045,#1046);
#852=AXIS2_PLACEMENT_3D('',#1253,#1047,#1048);
#853=AXIS2_PLACEMENT_3D('',#1254,#1049,#1050);
#854=AXIS2_PLACEMENT_3D('',#1263,#1055,#1056);
#855=AXIS2_PLACEMENT_3D('',#1272,#1061,#1062);
#856=AXIS2_PLACEMENT_3D('',#1275,#1065,#1066);
#857=AXIS2_PLACEMENT_3D('',#1284,#1071,#1072);
#858=AXIS2_PLACEMENT_3D('',#1290,#1076,#1077);
#859=AXIS2_PLACEMENT_3D('',#1295,#1081,#1082);
#860=AXIS2_PLACEMENT_3D('',#1297,#1084,#1085);
#861=AXIS2_PLACEMENT_3D('',#1301,#1088,#1089);
#862=AXIS2_PLACEMENT_3D('',#1303,#1091,#1092);
#863=DIRECTION('axis',(0.,0.,1.));
#864=DIRECTION('refdir',(1.,0.,0.));
#865=DIRECTION('center_axis',(0.,0.,1.));
#866=DIRECTION('ref_axis',(1.,0.,0.));
#867=DIRECTION('center_axis',(0.,0.,1.));
#868=DIRECTION('ref_axis',(1.,0.,0.));
#869=DIRECTION('',(0.,0.,1.));
#870=DIRECTION('center_axis',(0.,0.,-1.));
#871=DIRECTION('ref_axis',(1.,0.,0.));
#872=DIRECTION('center_axis',(0.,0.,1.));
#873=DIRECTION('ref_axis',(1.,0.,0.));
#874=DIRECTION('center_axis',(0.,0.,1.));
#875=DIRECTION('ref_axis',(1.,0.,0.));
#876=DIRECTION('center_axis',(0.,0.,1.));
#877=DIRECTION('ref_axis',(1.,0.,0.));
#878=DIRECTION('',(0.,0.,1.));
#879=DIRECTION('center_axis',(0.,0.,-1.));
#880=DIRECTION('ref_axis',(1.,0.,0.));
#881=DIRECTION('center_axis',(0.,0.,1.));
#882=DIRECTION('ref_axis',(1.,0.,0.));
#883=DIRECTION('center_axis',(0.,0.,1.));
#884=DIRECTION('ref_axis',(1.,0.,0.));
#885=DIRECTION('center_axis',(0.,0.,1.));
#886=DIRECTION('ref_axis',(1.,0.,0.));
#887=DIRECTION('',(0.,0.,1.));
#888=DIRECTION('center_axis',(0.,0.,-1.));
#889=DIRECTION('ref_axis',(1.,0.,0.));
#890=DIRECTION('center_axis',(0.,0.,1.));
#891=DIRECTION('ref_axis',(1.,0.,0.));
#892=DIRECTION('center_axis',(0.,0.,1.));
#893=DIRECTION('ref_axis',(1.,0.,0.));
#894=DIRECTION('center_axis',(0.,0.,1.));
#895=DIRECTION('ref_axis',(1.,0.,0.));
#896=DIRECTION('',(0.,0.,1.));
#897=DIRECTION('center_axis',(0.,0.,-1.));
#898=DIRECTION('ref_axis',(1.,0.,0.));
#899=DIRECTION('center_axis',(0.,0.,1.));
#900=DIRECTION('ref_axis',(1.,0.,0.));
#901=DIRECTION('center_axis',(0.,0.,1.));
#902=DIRECTION('ref_axis',(1.,0.,0.));
#903=DIRECTION('center_axis',(0.,0.,1.));
#904=DIRECTION('ref_axis',(1.,0.,0.));
#905=DIRECTION('',(0.,0.,1.));
#906=DIRECTION('center_axis',(0.,0.,-1.));
#907=DIRECTION('ref_axis',(1.,0.,0.));
#908=DIRECTION('center_axis',(0.,0.,1.));
#909=DIRECTION('ref_axis',(1.,0.,0.));
#910=DIRECTION('center_axis',(0.,0.,1.));
#911=DIRECTION('ref_axis',(1.,0.,0.));
#912=DIRECTION('center_axis',(0.,0.,1.));
#913=DIRECTION('ref_axis',(1.,0.,0.));
#914=DIRECTION('',(0.,0.,1.));
#915=DIRECTION('center_axis',(0.,0.,-1.));
#916=DIRECTION('ref_axis',(1.,0.,0.));
#917=DIRECTION('center_axis',(0.,0.,1.));
#918=DIRECTION('ref_axis',(1.,0.,0.));
#919=DIRECTION('center_axis',(0.,0.,1.));
#920=DIRECTION('ref_axis',(1.,0.,0.));
#921=DIRECTION('center_axis',(0.,0.,1.));
#922=DIRECTION('ref_axis',(1.,0.,0.));
#923=DIRECTION('',(0.,0.,1.));
#924=DIRECTION('center_axis',(0.,0.,-1.));
#925=DIRECTION('ref_axis',(1.,0.,0.));
#926=DIRECTION('center_axis',(0.,0.,1.));
#927=DIRECTION('ref_axis',(1.,0.,0.));
#928=DIRECTION('center_axis',(0.,0.,1.));
#929=DIRECTION('ref_axis',(1.,0.,0.));
#930=DIRECTION('center_axis',(0.,0.,1.));
#931=DIRECTION('ref_axis',(1.,0.,0.));
#932=DIRECTION('',(0.,0.,1.));
#933=DIRECTION('center_axis',(0.,0.,-1.));
#934=DIRECTION('ref_axis',(1.,0.,0.));
#935=DIRECTION('center_axis',(0.,0.,1.));
#936=DIRECTION('ref_axis',(1.,0.,0.));
#937=DIRECTION('center_axis',(0.,1.,0.));
#938=DIRECTION('ref_axis',(-1.,0.,0.));
#939=DIRECTION('',(-1.,0.,0.));
#940=DIRECTION('',(0.,0.,1.));
#941=DIRECTION('',(1.,0.,0.));
#942=DIRECTION('',(0.,0.,1.));
#943=DIRECTION('center_axis',(1.,0.,0.));
#944=DIRECTION('ref_axis',(0.,1.,0.));
#945=DIRECTION('',(0.,1.,0.));
#946=DIRECTION('',(0.,0.,1.));
#947=DIRECTION('',(0.,-1.,0.));
#948=DIRECTION('center_axis',(0.,-1.,0.));
#949=DIRECTION('ref_axis',(1.,0.,0.));
#950=DIRECTION('',(1.,0.,0.));
#951=DIRECTION('',(0.,0.,1.));
#952=DIRECTION('',(-1.,0.,0.));
#953=DIRECTION('center_axis',(-1.,0.,0.));
#954=DIRECTION('ref_axis',(0.,-1.,0.));
#955=DIRECTION('',(0.,-1.,0.));
#956=DIRECTION('',(0.,1.,0.));
#957=DIRECTION('center_axis',(0.,1.,0.));
#958=DIRECTION('ref_axis',(-1.,0.,0.));
#959=DIRECTION('',(-1.,0.,0.));
#960=DIRECTION('',(0.,0.,1.));
#961=DIRECTION('',(1.,0.,0.));
#962=DIRECTION('',(0.,0.,1.));
#963=DIRECTION('center_axis',(1.,0.,0.));
#964=DIRECTION('ref_axis',(0.,1.,0.));
#965=DIRECTION('',(0.,1.,0.));
#966=DIRECTION('',(0.,0.,1.));
#967=DIRECTION('',(0.,-1.,0.));
#968=DIRECTION('center_axis',(0.,-1.,0.));
#969=DIRECTION('ref_axis',(1.,0.,0.));
#970=DIRECTION('',(1.,0.,0.));
#971=DIRECTION('',(0.,0.,1.));
#972=DIRECTION('',(-1.,0.,0.));
#973=DIRECTION('center_axis',(-1.,0.,0.));
#974=DIRECTION('ref_axis',(0.,-1.,0.));
#975=DIRECTION('',(0.,-1.,0.));
#976=DIRECTION('',(0.,1.,0.));
#977=DIRECTION('center_axis',(0.,0.,1.));
#978=DIRECTION('ref_axis',(1.,0.,0.));
#979=DIRECTION('center_axis',(0.,0.,1.));
#980=DIRECTION('ref_axis',(1.,0.,0.));
#981=DIRECTION('',(0.,0.,-1.));
#982=DIRECTION('center_axis',(0.,0.,-1.));
#983=DIRECTION('ref_axis',(1.,0.,0.));
#984=DIRECTION('center_axis',(0.,0.,1.));
#985=DIRECTION('ref_axis',(1.,0.,0.));
#986=DIRECTION('center_axis',(0.,0.,1.));
#987=DIRECTION('ref_axis',(1.,0.,0.));
#988=DIRECTION('center_axis',(0.,0.,1.));
#989=DIRECTION('ref_axis',(1.,0.,0.));
#990=DIRECTION('',(0.,0.,-1.));
#991=DIRECTION('center_axis',(0.,0.,-1.));
#992=DIRECTION('ref_axis',(1.,0.,0.));
#993=DIRECTION('center_axis',(0.,0.,1.));
#994=DIRECTION('ref_axis',(1.,0.,0.));
#995=DIRECTION('center_axis',(0.,0.,1.));
#996=DIRECTION('ref_axis',(1.,0.,0.));
#997=DIRECTION('center_axis',(0.,0.,1.));
#998=DIRECTION('ref_axis',(1.,0.,0.));
#999=DIRECTION('',(0.,0.,-1.));
#1000=DIRECTION('center_axis',(0.,0.,-1.));
#1001=DIRECTION('ref_axis',(1.,0.,0.));
#1002=DIRECTION('center_axis',(0.,0.,1.));
#1003=DIRECTION('ref_axis',(1.,0.,0.));
#1004=DIRECTION('center_axis',(0.,0.,1.));
#1005=DIRECTION('ref_axis',(1.,0.,0.));
#1006=DIRECTION('center_axis',(0.,0.,1.));
#1007=DIRECTION('ref_axis',(1.,0.,0.));
#1008=DIRECTION('',(0.,0.,-1.));
#1009=DIRECTION('center_axis',(0.,0.,-1.));
#1010=DIRECTION('ref_axis',(1.,0.,0.));
#1011=DIRECTION('center_axis',(0.,0.,1.));
#1012=DIRECTION('ref_axis',(1.,0.,0.));
#1013=DIRECTION('center_axis',(0.,0.,1.));
#1014=DIRECTION('ref_axis',(1.,0.,0.));
#1015=DIRECTION('center_axis',(0.,0.,1.));
#1016=DIRECTION('ref_axis',(1.,0.,0.));
#1017=DIRECTION('',(0.,0.,-1.));
#1018=DIRECTION('center_axis',(0.,0.,-1.));
#1019=DIRECTION('ref_axis',(1.,0.,0.));
#1020=DIRECTION('center_axis',(0.,0.,1.));
#1021=DIRECTION('ref_axis',(1.,0.,0.));
#1022=DIRECTION('center_axis',(0.,0.,1.));
#1023=DIRECTION('ref_axis',(1.,0.,0.));
#1024=DIRECTION('center_axis',(0.,0.,1.));
#1025=DIRECTION('ref_axis',(1.,0.,0.));
#1026=DIRECTION('',(0.,0.,-1.));
#1027=DIRECTION('center_axis',(0.,0.,-1.));
#1028=DIRECTION('ref_axis',(1.,0.,0.));
#1029=DIRECTION('center_axis',(0.,0.,1.));
#1030=DIRECTION('ref_axis',(1.,0.,0.));
#1031=DIRECTION('center_axis',(0.,0.,1.));
#1032=DIRECTION('ref_axis',(1.,0.,0.));
#1033=DIRECTION('center_axis',(0.,0.,1.));
#1034=DIRECTION('ref_axis',(1.,0.,0.));
#1035=DIRECTION('',(0.,0.,-1.));
#1036=DIRECTION('center_axis',(0.,0.,-1.));
#1037=DIRECTION('ref_axis',(1.,0.,0.));
#1038=DIRECTION('center_axis',(0.,0.,1.));
#1039=DIRECTION('ref_axis',(1.,0.,0.));
#1040=DIRECTION('center_axis',(0.,0.,1.));
#1041=DIRECTION('ref_axis',(1.,0.,0.));
#1042=DIRECTION('center_axis',(0.,0.,1.));
#1043=DIRECTION('ref_axis',(1.,0.,0.));
#1044=DIRECTION('',(0.,0.,-1.));
#1045=DIRECTION('center_axis',(0.,0.,-1.));
#1046=DIRECTION('ref_axis',(1.,0.,0.));
#1047=DIRECTION('center_axis',(0.,0.,1.));
#1048=DIRECTION('ref_axis',(1.,0.,0.));
#1049=DIRECTION('center_axis',(-1.,0.,0.));
#1050=DIRECTION('ref_axis',(0.,-1.,0.));
#1051=DIRECTION('',(0.,1.,0.));
#1052=DIRECTION('',(0.,0.,1.));
#1053=DIRECTION('',(0.,-1.,0.));
#1054=DIRECTION('',(0.,0.,1.));
#1055=DIRECTION('center_axis',(1.,0.,0.));
#1056=DIRECTION('ref_axis',(0.,1.,0.));
#1057=DIRECTION('',(0.,-1.,0.));
#1058=DIRECTION('',(0.,0.,1.));
#1059=DIRECTION('',(0.,1.,0.));
#1060=DIRECTION('',(0.,0.,1.));
#1061=DIRECTION('center_axis',(0.,0.,1.));
#1062=DIRECTION('ref_axis',(1.,0.,0.));
#1063=DIRECTION('',(1.,0.,0.));
#1064=DIRECTION('',(-1.,0.,0.));
#1065=DIRECTION('center_axis',(0.,0.,1.));
#1066=DIRECTION('ref_axis',(1.,0.,0.));
#1067=DIRECTION('',(1.,0.,0.));
#1068=DIRECTION('',(0.,-1.,0.));
#1069=DIRECTION('',(-1.,0.,0.));
#1070=DIRECTION('',(0.,1.,0.));
#1071=DIRECTION('center_axis',(0.,0.,1.));
#1072=DIRECTION('ref_axis',(1.,0.,0.));
#1073=DIRECTION('',(1.,0.,0.));
#1074=DIRECTION('',(0.,1.,0.));
#1075=DIRECTION('',(-1.,0.,0.));
#1076=DIRECTION('center_axis',(0.,1.,0.));
#1077=DIRECTION('ref_axis',(-1.,0.,0.));
#1078=DIRECTION('',(0.,0.,1.));
#1079=DIRECTION('',(-1.,0.,0.));
#1080=DIRECTION('',(0.,0.,1.));
#1081=DIRECTION('center_axis',(1.,0.,0.));
#1082=DIRECTION('ref_axis',(0.,1.,0.));
#1083=DIRECTION('',(0.,0.,1.));
#1084=DIRECTION('center_axis',(0.,-1.,0.));
#1085=DIRECTION('ref_axis',(1.,0.,0.));
#1086=DIRECTION('',(1.,0.,0.));
#1087=DIRECTION('',(0.,0.,1.));
#1088=DIRECTION('center_axis',(-1.,0.,0.));
#1089=DIRECTION('ref_axis',(0.,-1.,0.));
#1090=DIRECTION('',(0.,-1.,0.));
#1091=DIRECTION('center_axis',(0.,0.,1.));
#1092=DIRECTION('ref_axis',(1.,0.,0.));
#1093=CARTESIAN_POINT('',(0.,0.,0.));
#1094=CARTESIAN_POINT('Origin',(80.,25.,3.));
#1095=CARTESIAN_POINT('',(78.4,25.,3.));
#1096=CARTESIAN_POINT('Origin',(80.,25.,3.));
#1097=CARTESIAN_POINT('',(78.4,25.,11.));
#1098=CARTESIAN_POINT('',(78.4,25.,3.));
#1099=CARTESIAN_POINT('Origin',(80.,25.,11.));
#1100=CARTESIAN_POINT('Origin',(80.,25.,3.));
#1101=CARTESIAN_POINT('Origin',(80.,-25.,3.));
#1102=CARTESIAN_POINT('',(78.4,-25.,3.));
#1103=CARTESIAN_POINT('Origin',(80.,-25.,3.));
#1104=CARTESIAN_POINT('',(78.4,-25.,11.));
#1105=CARTESIAN_POINT('',(78.4,-25.,3.));
#1106=CARTESIAN_POINT('Origin',(80.,-25.,11.));
#1107=CARTESIAN_POINT('Origin',(80.,-25.,3.));
#1108=CARTESIAN_POINT('Origin',(10.,25.,3.));
#1109=CARTESIAN_POINT('',(8.4,25.,3.));
#1110=CARTESIAN_POINT('Origin',(10.,25.,3.));
#1111=CARTESIAN_POINT('',(8.4,25.,11.));
#1112=CARTESIAN_POINT('',(8.4,25.,3.));
#1113=CARTESIAN_POINT('Origin',(10.,25.,11.));
#1114=CARTESIAN_POINT('Origin',(10.,25.,3.));
#1115=CARTESIAN_POINT('Origin',(10.,-25.,3.));
#1116=CARTESIAN_POINT('',(8.4,-25.,3.));
#1117=CARTESIAN_POINT('Origin',(10.,-25.,3.));
#1118=CARTESIAN_POINT('',(8.4,-25.,11.));
#1119=CARTESIAN_POINT('',(8.4,-25.,3.));
#1120=CARTESIAN_POINT('Origin',(10.,-25.,11.));
#1121=CARTESIAN_POINT('Origin',(10.,-25.,3.));
#1122=CARTESIAN_POINT('Origin',(-26.,30.,3.));
#1123=CARTESIAN_POINT('',(-27.6,30.,3.));
#1124=CARTESIAN_POINT('Origin',(-26.,30.,3.));
#1125=CARTESIAN_POINT('',(-27.6,30.,11.));
#1126=CARTESIAN_POINT('',(-27.6,30.,3.));
#1127=CARTESIAN_POINT('Origin',(-26.,30.,11.));
#1128=CARTESIAN_POINT('Origin',(-26.,30.,3.));
#1129=CARTESIAN_POINT('Origin',(-26.,-30.,3.));
#1130=CARTESIAN_POINT('',(-27.6,-30.,3.));
#1131=CARTESIAN_POINT('Origin',(-26.,-30.,3.));
#1132=CARTESIAN_POINT('',(-27.6,-30.,11.));
#1133=CARTESIAN_POINT('',(-27.6,-30.,3.));
#1134=CARTESIAN_POINT('Origin',(-26.,-30.,11.));
#1135=CARTESIAN_POINT('Origin',(-26.,-30.,3.));
#1136=CARTESIAN_POINT('Origin',(-86.,30.,3.));
#1137=CARTESIAN_POINT('',(-87.6,30.,3.));
#1138=CARTESIAN_POINT('Origin',(-86.,30.,3.));
#1139=CARTESIAN_POINT('',(-87.6,30.,11.));
#1140=CARTESIAN_POINT('',(-87.6,30.,3.));
#1141=CARTESIAN_POINT('Origin',(-86.,30.,11.));
#1142=CARTESIAN_POINT('Origin',(-86.,30.,3.));
#1143=CARTESIAN_POINT('Origin',(-86.,-30.,3.));
#1144=CARTESIAN_POINT('',(-87.6,-30.,3.));
#1145=CARTESIAN_POINT('Origin',(-86.,-30.,3.));
#1146=CARTESIAN_POINT('',(-87.6,-30.,11.));
#1147=CARTESIAN_POINT('',(-87.6,-30.,3.));
#1148=CARTESIAN_POINT('Origin',(-86.,-30.,11.));
#1149=CARTESIAN_POINT('Origin',(-86.,-30.,3.));
#1150=CARTESIAN_POINT('Origin',(6.5,12.,0.));
#1151=CARTESIAN_POINT('',(6.5,12.,0.));
#1152=CARTESIAN_POINT('',(-1.5,12.,0.));
#1153=CARTESIAN_POINT('',(3.25,12.,0.));
#1154=CARTESIAN_POINT('',(6.5,12.,3.));
#1155=CARTESIAN_POINT('',(6.5,12.,0.));
#1156=CARTESIAN_POINT('',(-1.5,12.,3.));
#1157=CARTESIAN_POINT('',(3.25,12.,3.));
#1158=CARTESIAN_POINT('',(-1.5,12.,0.));
#1159=CARTESIAN_POINT('Origin',(6.5,-12.,0.));
#1160=CARTESIAN_POINT('',(6.5,-12.,0.));
#1161=CARTESIAN_POINT('',(6.5,-6.,0.));
#1162=CARTESIAN_POINT('',(6.5,-12.,3.));
#1163=CARTESIAN_POINT('',(6.5,-12.,0.));
#1164=CARTESIAN_POINT('',(6.5,-6.,3.));
#1165=CARTESIAN_POINT('Origin',(-1.5,-12.,0.));
#1166=CARTESIAN_POINT('',(-1.5,-12.,0.));
#1167=CARTESIAN_POINT('',(-0.75,-12.,0.));
#1168=CARTESIAN_POINT('',(-1.5,-12.,3.));
#1169=CARTESIAN_POINT('',(-1.5,-12.,0.));
#1170=CARTESIAN_POINT('',(-0.75,-12.,3.));
#1171=CARTESIAN_POINT('Origin',(-1.5,12.,0.));
#1172=CARTESIAN_POINT('',(-1.5,6.,0.));
#1173=CARTESIAN_POINT('',(-1.5,6.,3.));
#1174=CARTESIAN_POINT('Origin',(-20.5,12.,0.));
#1175=CARTESIAN_POINT('',(-20.5,12.,0.));
#1176=CARTESIAN_POINT('',(-28.5,12.,0.));
#1177=CARTESIAN_POINT('',(-10.25,12.,0.));
#1178=CARTESIAN_POINT('',(-20.5,12.,3.));
#1179=CARTESIAN_POINT('',(-20.5,12.,0.));
#1180=CARTESIAN_POINT('',(-28.5,12.,3.));
#1181=CARTESIAN_POINT('',(-10.25,12.,3.));
#1182=CARTESIAN_POINT('',(-28.5,12.,0.));
#1183=CARTESIAN_POINT('Origin',(-20.5,-12.,0.));
#1184=CARTESIAN_POINT('',(-20.5,-12.,0.));
#1185=CARTESIAN_POINT('',(-20.5,-6.,0.));
#1186=CARTESIAN_POINT('',(-20.5,-12.,3.));
#1187=CARTESIAN_POINT('',(-20.5,-12.,0.));
#1188=CARTESIAN_POINT('',(-20.5,-6.,3.));
#1189=CARTESIAN_POINT('Origin',(-28.5,-12.,0.));
#1190=CARTESIAN_POINT('',(-28.5,-12.,0.));
#1191=CARTESIAN_POINT('',(-14.25,-12.,0.));
#1192=CARTESIAN_POINT('',(-28.5,-12.,3.));
#1193=CARTESIAN_POINT('',(-28.5,-12.,0.));
#1194=CARTESIAN_POINT('',(-14.25,-12.,3.));
#1195=CARTESIAN_POINT('Origin',(-28.5,12.,0.));
#1196=CARTESIAN_POINT('',(-28.5,6.,0.));
#1197=CARTESIAN_POINT('',(-28.5,6.,3.));
#1198=CARTESIAN_POINT('Origin',(80.,25.,0.));
#1199=CARTESIAN_POINT('',(75.,25.,11.));
#1200=CARTESIAN_POINT('Origin',(80.,25.,11.));
#1201=CARTESIAN_POINT('',(75.,25.,3.));
#1202=CARTESIAN_POINT('',(75.,25.,0.));
#1203=CARTESIAN_POINT('Origin',(80.,25.,3.));
#1204=CARTESIAN_POINT('Origin',(80.,25.,11.));
#1205=CARTESIAN_POINT('Origin',(80.,-25.,0.));
#1206=CARTESIAN_POINT('',(75.,-25.,11.));
#1207=CARTESIAN_POINT('Origin',(80.,-25.,11.));
#1208=CARTESIAN_POINT('',(75.,-25.,3.));
#1209=CARTESIAN_POINT('',(75.,-25.,0.));
#1210=CARTESIAN_POINT('Origin',(80.,-25.,3.));
#1211=CARTESIAN_POINT('Origin',(80.,-25.,11.));
#1212=CARTESIAN_POINT('Origin',(10.,25.,0.));
#1213=CARTESIAN_POINT('',(5.,25.,11.));
#1214=CARTESIAN_POINT('Origin',(10.,25.,11.));
#1215=CARTESIAN_POINT('',(5.,25.,3.));
#1216=CARTESIAN_POINT('',(5.,25.,0.));
#1217=CARTESIAN_POINT('Origin',(10.,25.,3.));
#1218=CARTESIAN_POINT('Origin',(10.,25.,11.));
#1219=CARTESIAN_POINT('Origin',(10.,-25.,0.));
#1220=CARTESIAN_POINT('',(5.,-25.,11.));
#1221=CARTESIAN_POINT('Origin',(10.,-25.,11.));
#1222=CARTESIAN_POINT('',(5.,-25.,3.));
#1223=CARTESIAN_POINT('',(5.,-25.,0.));
#1224=CARTESIAN_POINT('Origin',(10.,-25.,3.));
#1225=CARTESIAN_POINT('Origin',(10.,-25.,11.));
#1226=CARTESIAN_POINT('Origin',(-26.,30.,0.));
#1227=CARTESIAN_POINT('',(-31.,30.,11.));
#1228=CARTESIAN_POINT('Origin',(-26.,30.,11.));
#1229=CARTESIAN_POINT('',(-31.,30.,3.));
#1230=CARTESIAN_POINT('',(-31.,30.,0.));
#1231=CARTESIAN_POINT('Origin',(-26.,30.,3.));
#1232=CARTESIAN_POINT('Origin',(-26.,30.,11.));
#1233=CARTESIAN_POINT('Origin',(-26.,-30.,0.));
#1234=CARTESIAN_POINT('',(-31.,-30.,11.));
#1235=CARTESIAN_POINT('Origin',(-26.,-30.,11.));
#1236=CARTESIAN_POINT('',(-31.,-30.,3.));
#1237=CARTESIAN_POINT('',(-31.,-30.,0.));
#1238=CARTESIAN_POINT('Origin',(-26.,-30.,3.));
#1239=CARTESIAN_POINT('Origin',(-26.,-30.,11.));
#1240=CARTESIAN_POINT('Origin',(-86.,30.,0.));
#1241=CARTESIAN_POINT('',(-91.,30.,11.));
#1242=CARTESIAN_POINT('Origin',(-86.,30.,11.));
#1243=CARTESIAN_POINT('',(-91.,30.,3.));
#1244=CARTESIAN_POINT('',(-91.,30.,0.));
#1245=CARTESIAN_POINT('Origin',(-86.,30.,3.));
#1246=CARTESIAN_POINT('Origin',(-86.,30.,11.));
#1247=CARTESIAN_POINT('Origin',(-86.,-30.,0.));
#1248=CARTESIAN_POINT('',(-91.,-30.,11.));
#1249=CARTESIAN_POINT('Origin',(-86.,-30.,11.));
#1250=CARTESIAN_POINT('',(-91.,-30.,3.));
#1251=CARTESIAN_POINT('',(-91.,-30.,0.));
#1252=CARTESIAN_POINT('Origin',(-86.,-30.,3.));
#1253=CARTESIAN_POINT('Origin',(-86.,-30.,11.));
#1254=CARTESIAN_POINT('Origin',(-12.5,63.5,0.));
#1255=CARTESIAN_POINT('',(-12.5,-63.5,3.));
#1256=CARTESIAN_POINT('',(-12.5,63.5,3.));
#1257=CARTESIAN_POINT('',(-12.5,31.75,3.));
#1258=CARTESIAN_POINT('',(-12.5,-63.5,28.));
#1259=CARTESIAN_POINT('',(-12.5,-63.5,0.));
#1260=CARTESIAN_POINT('',(-12.5,63.5,28.));
#1261=CARTESIAN_POINT('',(-12.5,63.5,28.));
#1262=CARTESIAN_POINT('',(-12.5,63.5,0.));
#1263=CARTESIAN_POINT('Origin',(-9.5,-63.5,0.));
#1264=CARTESIAN_POINT('',(-9.5,63.5,3.));
#1265=CARTESIAN_POINT('',(-9.49999999999999,-63.5,3.));
#1266=CARTESIAN_POINT('',(-9.5,-31.75,3.));
#1267=CARTESIAN_POINT('',(-9.5,63.5,28.));
#1268=CARTESIAN_POINT('',(-9.5,63.5,0.));
#1269=CARTESIAN_POINT('',(-9.5,-63.5,28.));
#1270=CARTESIAN_POINT('',(-9.5,-63.5,28.));
#1271=CARTESIAN_POINT('',(-9.5,-63.5,0.));
#1272=CARTESIAN_POINT('Origin',(-11.,0.,28.));
#1273=CARTESIAN_POINT('',(-12.5,-63.5,28.));
#1274=CARTESIAN_POINT('',(-9.5,63.5,28.));
#1275=CARTESIAN_POINT('Origin',(0.,0.,0.));
#1276=CARTESIAN_POINT('',(-101.,-63.5,0.));
#1277=CARTESIAN_POINT('',(101.,-63.5,0.));
#1278=CARTESIAN_POINT('',(-101.,-63.5,0.));
#1279=CARTESIAN_POINT('',(-101.,63.5,0.));
#1280=CARTESIAN_POINT('',(-101.,63.5,0.));
#1281=CARTESIAN_POINT('',(101.,63.5,0.));
#1282=CARTESIAN_POINT('',(101.,63.5,0.));
#1283=CARTESIAN_POINT('',(101.,-63.5,0.));
#1284=CARTESIAN_POINT('Origin',(0.,0.,3.));
#1285=CARTESIAN_POINT('',(101.,-63.5,3.));
#1286=CARTESIAN_POINT('',(-101.,-63.5,3.));
#1287=CARTESIAN_POINT('',(101.,63.5,3.));
#1288=CARTESIAN_POINT('',(101.,-63.5,3.));
#1289=CARTESIAN_POINT('',(101.,63.5,3.));
#1290=CARTESIAN_POINT('Origin',(101.,63.5,0.));
#1291=CARTESIAN_POINT('',(-101.,63.5,3.));
#1292=CARTESIAN_POINT('',(-101.,63.5,0.));
#1293=CARTESIAN_POINT('',(101.,63.5,3.));
#1294=CARTESIAN_POINT('',(101.,63.5,0.));
#1295=CARTESIAN_POINT('Origin',(101.,-63.5,0.));
#1296=CARTESIAN_POINT('',(101.,-63.5,0.));
#1297=CARTESIAN_POINT('Origin',(-101.,-63.5,0.));
#1298=CARTESIAN_POINT('',(-101.,-63.5,3.));
#1299=CARTESIAN_POINT('',(-101.,-63.5,3.));
#1300=CARTESIAN_POINT('',(-101.,-63.5,0.));
#1301=CARTESIAN_POINT('Origin',(-101.,63.5,0.));
#1302=CARTESIAN_POINT('',(-101.,63.5,3.));
#1303=CARTESIAN_POINT('Origin',(0.,0.,3.));
#1304=UNCERTAINTY_MEASURE_WITH_UNIT(LENGTH_MEASURE(0.01),#1308,
'DISTANCE_ACCURACY_VALUE',
'Maximum model space distance between geometric entities at asserted c
onnectivities');
#1305=UNCERTAINTY_MEASURE_WITH_UNIT(LENGTH_MEASURE(0.01),#1308,
'DISTANCE_ACCURACY_VALUE',
'Maximum model space distance between geometric entities at asserted c
onnectivities');
#1306=(
GEOMETRIC_REPRESENTATION_CONTEXT(3)
GLOBAL_UNCERTAINTY_ASSIGNED_CONTEXT((#1304))
GLOBAL_UNIT_ASSIGNED_CONTEXT((#1308,#1310,#1311))
REPRESENTATION_CONTEXT('','3D')
);
#1307=(
GEOMETRIC_REPRESENTATION_CONTEXT(3)
GLOBAL_UNCERTAINTY_ASSIGNED_CONTEXT((#1305))
GLOBAL_UNIT_ASSIGNED_CONTEXT((#1308,#1310,#1311))
REPRESENTATION_CONTEXT('','3D')
);
#1308=(
LENGTH_UNIT()
NAMED_UNIT(*)
SI_UNIT(.MILLI.,.METRE.)
);
#1309=(
LENGTH_UNIT()
NAMED_UNIT(*)
SI_UNIT($,.METRE.)
);
#1310=(
NAMED_UNIT(*)
PLANE_ANGLE_UNIT()
SI_UNIT($,.RADIAN.)
);
#1311=(
NAMED_UNIT(*)
SI_UNIT($,.STERADIAN.)
SOLID_ANGLE_UNIT()
);
#1312=SHAPE_DEFINITION_REPRESENTATION(#1313,#1314);
#1313=PRODUCT_DEFINITION_SHAPE('',$,#1316);
#1314=SHAPE_REPRESENTATION('',(#780),#1306);
#1315=PRODUCT_DEFINITION_CONTEXT('part definition',#1320,'design');
#1316=PRODUCT_DEFINITION('SmartMeter_InternalTray',
'SmartMeter_InternalTray',#1317,#1315);
#1317=PRODUCT_DEFINITION_FORMATION('',$,#1322);
#1318=PRODUCT_RELATED_PRODUCT_CATEGORY('SmartMeter_InternalTray',
'SmartMeter_InternalTray',(#1322));
#1319=APPLICATION_PROTOCOL_DEFINITION('international standard',
'automotive_design',2009,#1320);
#1320=APPLICATION_CONTEXT(
'Core Data for Automotive Mechanical Design Process');
#1321=PRODUCT_CONTEXT('part definition',#1320,'mechanical');
#1322=PRODUCT('SmartMeter_InternalTray','SmartMeter_InternalTray',$,(#1321));
#1323=PRESENTATION_STYLE_ASSIGNMENT((#1324));
#1324=SURFACE_STYLE_USAGE(.BOTH.,#1325);
#1325=SURFACE_SIDE_STYLE('',(#1326));
#1326=SURFACE_STYLE_FILL_AREA(#1327);
#1327=FILL_AREA_STYLE('A\X\E7o - Acetinado',(#1328));
#1328=FILL_AREA_STYLE_COLOUR('A\X\E7o - Acetinado',#1329);
#1329=COLOUR_RGB('A\X\E7o - Acetinado',0.627450980392157,0.627450980392157,
0.627450980392157);
ENDSEC;
END-ISO-10303-21;
