ISO-10303-21;
HEADER;
/* Generated by software containing ST-Developer
 * from STEP Tools, Inc. (www.steptools.com) 
 */

FILE_DESCRIPTION(
/* description */ (''),
/* implementation_level */ '2;1');

FILE_NAME(
/* name */ 'SmartMeter_DisplayBracket.step',
/* time_stamp */ '2026-10-03T13:53:30-03:00',
/* author */ (''),
/* organization */ (''),
/* preprocessor_version */ 'ST-DEVELOPER v20.1',
/* originating_system */ 'Autodesk Translation Framework v15.8.0.0',
/* authorisation */ '');

FILE_SCHEMA (('AUTOMOTIVE_DESIGN { 1 0 10303 214 3 1 1 }'));
ENDSEC;

DATA;
#10=MECHANICAL_DESIGN_GEOMETRIC_PRESENTATION_REPRESENTATION('',(#13),#607);
#11=SHAPE_REPRESENTATION_RELATIONSHIP('SRR','None',#614,#12);
#12=ADVANCED_BREP_SHAPE_REPRESENTATION('',(#14),#606);
#13=STYLED_ITEM('',(#623),#14);
#14=MANIFOLD_SOLID_BREP('Corpo1',#371);
#15=FACE_BOUND('',#65,.T.);
#16=FACE_BOUND('',#66,.T.);
#17=FACE_BOUND('',#67,.T.);
#18=FACE_BOUND('',#68,.T.);
#19=FACE_BOUND('',#69,.T.);
#20=FACE_BOUND('',#80,.T.);
#21=FACE_BOUND('',#81,.T.);
#22=FACE_BOUND('',#82,.T.);
#23=FACE_BOUND('',#83,.T.);
#24=FACE_BOUND('',#84,.T.);
#25=PLANE('',#397);
#26=PLANE('',#398);
#27=PLANE('',#399);
#28=PLANE('',#400);
#29=PLANE('',#401);
#30=PLANE('',#402);
#31=PLANE('',#403);
#32=PLANE('',#404);
#33=PLANE('',#405);
#34=PLANE('',#406);
#35=PLANE('',#407);
#36=PLANE('',#408);
#37=PLANE('',#409);
#38=PLANE('',#410);
#39=FACE_OUTER_BOUND('',#57,.T.);
#40=FACE_OUTER_BOUND('',#58,.T.);
#41=FACE_OUTER_BOUND('',#59,.T.);
#42=FACE_OUTER_BOUND('',#60,.T.);
#43=FACE_OUTER_BOUND('',#61,.T.);
#44=FACE_OUTER_BOUND('',#62,.T.);
#45=FACE_OUTER_BOUND('',#63,.T.);
#46=FACE_OUTER_BOUND('',#64,.T.);
#47=FACE_OUTER_BOUND('',#70,.T.);
#48=FACE_OUTER_BOUND('',#71,.T.);
#49=FACE_OUTER_BOUND('',#72,.T.);
#50=FACE_OUTER_BOUND('',#73,.T.);
#51=FACE_OUTER_BOUND('',#74,.T.);
#52=FACE_OUTER_BOUND('',#75,.T.);
#53=FACE_OUTER_BOUND('',#76,.T.);
#54=FACE_OUTER_BOUND('',#77,.T.);
#55=FACE_OUTER_BOUND('',#78,.T.);
#56=FACE_OUTER_BOUND('',#79,.T.);
#57=EDGE_LOOP('',(#253,#254,#255,#256));
#58=EDGE_LOOP('',(#257,#258,#259,#260));
#59=EDGE_LOOP('',(#261,#262,#263,#264));
#60=EDGE_LOOP('',(#265,#266,#267,#268));
#61=EDGE_LOOP('',(#269,#270,#271,#272));
#62=EDGE_LOOP('',(#273,#274,#275,#276));
#63=EDGE_LOOP('',(#277,#278,#279,#280));
#64=EDGE_LOOP('',(#281,#282,#283,#284,#285,#286,#287,#288));
#65=EDGE_LOOP('',(#289));
#66=EDGE_LOOP('',(#290));
#67=EDGE_LOOP('',(#291));
#68=EDGE_LOOP('',(#292));
#69=EDGE_LOOP('',(#293,#294,#295,#296));
#70=EDGE_LOOP('',(#297,#298,#299,#300));
#71=EDGE_LOOP('',(#301,#302,#303,#304));
#72=EDGE_LOOP('',(#305,#306,#307,#308));
#73=EDGE_LOOP('',(#309,#310,#311,#312));
#74=EDGE_LOOP('',(#313,#314,#315,#316));
#75=EDGE_LOOP('',(#317,#318,#319,#320));
#76=EDGE_LOOP('',(#321,#322,#323,#324));
#77=EDGE_LOOP('',(#325,#326,#327,#328));
#78=EDGE_LOOP('',(#329,#330,#331,#332));
#79=EDGE_LOOP('',(#333,#334,#335,#336,#337,#338,#339,#340));
#80=EDGE_LOOP('',(#341));
#81=EDGE_LOOP('',(#342));
#82=EDGE_LOOP('',(#343));
#83=EDGE_LOOP('',(#344));
#84=EDGE_LOOP('',(#345,#346,#347,#348));
#85=LINE('',#510,#125);
#86=LINE('',#516,#126);
#87=LINE('',#522,#127);
#88=LINE('',#528,#128);
#89=LINE('',#533,#129);
#90=LINE('',#535,#130);
#91=LINE('',#537,#131);
#92=LINE('',#538,#132);
#93=LINE('',#541,#133);
#94=LINE('',#543,#134);
#95=LINE('',#544,#135);
#96=LINE('',#547,#136);
#97=LINE('',#549,#137);
#98=LINE('',#550,#138);
#99=LINE('',#553,#139);
#100=LINE('',#555,#140);
#101=LINE('',#557,#141);
#102=LINE('',#559,#142);
#103=LINE('',#560,#143);
#104=LINE('',#563,#144);
#105=LINE('',#565,#145);
#106=LINE('',#567,#146);
#107=LINE('',#568,#147);
#108=LINE('',#571,#148);
#109=LINE('',#572,#149);
#110=LINE('',#575,#150);
#111=LINE('',#577,#151);
#112=LINE('',#578,#152);
#113=LINE('',#581,#153);
#114=LINE('',#582,#154);
#115=LINE('',#585,#155);
#116=LINE('',#586,#156);
#117=LINE('',#588,#157);
#118=LINE('',#592,#158);
#119=LINE('',#593,#159);
#120=LINE('',#594,#160);
#121=LINE('',#596,#161);
#122=LINE('',#599,#162);
#123=LINE('',#600,#163);
#124=LINE('',#602,#164);
#125=VECTOR('',#417,1.6);
#126=VECTOR('',#424,1.6);
#127=VECTOR('',#431,1.6);
#128=VECTOR('',#438,1.6);
#129=VECTOR('',#443,10.);
#130=VECTOR('',#444,10.);
#131=VECTOR('',#445,10.);
#132=VECTOR('',#446,10.);
#133=VECTOR('',#449,10.);
#134=VECTOR('',#450,10.);
#135=VECTOR('',#451,10.);
#136=VECTOR('',#454,10.);
#137=VECTOR('',#455,10.);
#138=VECTOR('',#456,10.);
#139=VECTOR('',#459,10.);
#140=VECTOR('',#460,10.);
#141=VECTOR('',#461,10.);
#142=VECTOR('',#462,10.);
#143=VECTOR('',#463,10.);
#144=VECTOR('',#464,10.);
#145=VECTOR('',#465,10.);
#146=VECTOR('',#466,10.);
#147=VECTOR('',#467,10.);
#148=VECTOR('',#470,10.);
#149=VECTOR('',#471,10.);
#150=VECTOR('',#474,10.);
#151=VECTOR('',#475,10.);
#152=VECTOR('',#476,10.);
#153=VECTOR('',#479,10.);
#154=VECTOR('',#480,10.);
#155=VECTOR('',#483,10.);
#156=VECTOR('',#484,10.);
#157=VECTOR('',#487,10.);
#158=VECTOR('',#490,10.);
#159=VECTOR('',#491,10.);
#160=VECTOR('',#492,10.);
#161=VECTOR('',#495,10.);
#162=VECTOR('',#498,10.);
#163=VECTOR('',#499,10.);
#164=VECTOR('',#502,10.);
#165=CIRCLE('',#386,1.6);
#166=CIRCLE('',#387,1.6);
#167=CIRCLE('',#389,1.6);
#168=CIRCLE('',#390,1.6);
#169=CIRCLE('',#392,1.6);
#170=CIRCLE('',#393,1.6);
#171=CIRCLE('',#395,1.6);
#172=CIRCLE('',#396,1.6);
#173=VERTEX_POINT('',#507);
#174=VERTEX_POINT('',#509);
#175=VERTEX_POINT('',#513);
#176=VERTEX_POINT('',#515);
#177=VERTEX_POINT('',#519);
#178=VERTEX_POINT('',#521);
#179=VERTEX_POINT('',#525);
#180=VERTEX_POINT('',#527);
#181=VERTEX_POINT('',#531);
#182=VERTEX_POINT('',#532);
#183=VERTEX_POINT('',#534);
#184=VERTEX_POINT('',#536);
#185=VERTEX_POINT('',#540);
#186=VERTEX_POINT('',#542);
#187=VERTEX_POINT('',#546);
#188=VERTEX_POINT('',#548);
#189=VERTEX_POINT('',#552);
#190=VERTEX_POINT('',#554);
#191=VERTEX_POINT('',#556);
#192=VERTEX_POINT('',#558);
#193=VERTEX_POINT('',#561);
#194=VERTEX_POINT('',#562);
#195=VERTEX_POINT('',#564);
#196=VERTEX_POINT('',#566);
#197=VERTEX_POINT('',#570);
#198=VERTEX_POINT('',#574);
#199=VERTEX_POINT('',#576);
#200=VERTEX_POINT('',#580);
#201=VERTEX_POINT('',#584);
#202=VERTEX_POINT('',#590);
#203=VERTEX_POINT('',#591);
#204=VERTEX_POINT('',#598);
#205=EDGE_CURVE('',#173,#173,#165,.T.);
#206=EDGE_CURVE('',#173,#174,#85,.T.);
#207=EDGE_CURVE('',#174,#174,#166,.T.);
#208=EDGE_CURVE('',#175,#175,#167,.T.);
#209=EDGE_CURVE('',#175,#176,#86,.T.);
#210=EDGE_CURVE('',#176,#176,#168,.T.);
#211=EDGE_CURVE('',#177,#177,#169,.T.);
#212=EDGE_CURVE('',#177,#178,#87,.T.);
#213=EDGE_CURVE('',#178,#178,#170,.T.);
#214=EDGE_CURVE('',#179,#179,#171,.T.);
#215=EDGE_CURVE('',#179,#180,#88,.T.);
#216=EDGE_CURVE('',#180,#180,#172,.T.);
#217=EDGE_CURVE('',#181,#182,#89,.T.);
#218=EDGE_CURVE('',#183,#181,#90,.T.);
#219=EDGE_CURVE('',#184,#183,#91,.T.);
#220=EDGE_CURVE('',#184,#182,#92,.T.);
#221=EDGE_CURVE('',#182,#185,#93,.T.);
#222=EDGE_CURVE('',#186,#184,#94,.T.);
#223=EDGE_CURVE('',#185,#186,#95,.T.);
#224=EDGE_CURVE('',#187,#181,#96,.T.);
#225=EDGE_CURVE('',#188,#187,#97,.T.);
#226=EDGE_CURVE('',#183,#188,#98,.T.);
#227=EDGE_CURVE('',#185,#189,#99,.T.);
#228=EDGE_CURVE('',#189,#190,#100,.T.);
#229=EDGE_CURVE('',#190,#191,#101,.T.);
#230=EDGE_CURVE('',#191,#192,#102,.T.);
#231=EDGE_CURVE('',#192,#187,#103,.T.);
#232=EDGE_CURVE('',#193,#194,#104,.T.);
#233=EDGE_CURVE('',#194,#195,#105,.T.);
#234=EDGE_CURVE('',#195,#196,#106,.T.);
#235=EDGE_CURVE('',#196,#193,#107,.T.);
#236=EDGE_CURVE('',#186,#197,#108,.T.);
#237=EDGE_CURVE('',#197,#189,#109,.T.);
#238=EDGE_CURVE('',#198,#195,#110,.T.);
#239=EDGE_CURVE('',#199,#198,#111,.T.);
#240=EDGE_CURVE('',#199,#196,#112,.T.);
#241=EDGE_CURVE('',#200,#199,#113,.T.);
#242=EDGE_CURVE('',#200,#193,#114,.T.);
#243=EDGE_CURVE('',#201,#200,#115,.T.);
#244=EDGE_CURVE('',#201,#194,#116,.T.);
#245=EDGE_CURVE('',#198,#201,#117,.T.);
#246=EDGE_CURVE('',#202,#203,#118,.T.);
#247=EDGE_CURVE('',#203,#191,#119,.T.);
#248=EDGE_CURVE('',#202,#190,#120,.T.);
#249=EDGE_CURVE('',#197,#202,#121,.T.);
#250=EDGE_CURVE('',#204,#192,#122,.T.);
#251=EDGE_CURVE('',#204,#188,#123,.T.);
#252=EDGE_CURVE('',#203,#204,#124,.T.);
#253=ORIENTED_EDGE('',*,*,#205,.F.);
#254=ORIENTED_EDGE('',*,*,#206,.T.);
#255=ORIENTED_EDGE('',*,*,#207,.F.);
#256=ORIENTED_EDGE('',*,*,#206,.F.);
#257=ORIENTED_EDGE('',*,*,#208,.F.);
#258=ORIENTED_EDGE('',*,*,#209,.T.);
#259=ORIENTED_EDGE('',*,*,#210,.F.);
#260=ORIENTED_EDGE('',*,*,#209,.F.);
#261=ORIENTED_EDGE('',*,*,#211,.F.);
#262=ORIENTED_EDGE('',*,*,#212,.T.);
#263=ORIENTED_EDGE('',*,*,#213,.F.);
#264=ORIENTED_EDGE('',*,*,#212,.F.);
#265=ORIENTED_EDGE('',*,*,#214,.F.);
#266=ORIENTED_EDGE('',*,*,#215,.T.);
#267=ORIENTED_EDGE('',*,*,#216,.F.);
#268=ORIENTED_EDGE('',*,*,#215,.F.);
#269=ORIENTED_EDGE('',*,*,#217,.F.);
#270=ORIENTED_EDGE('',*,*,#218,.F.);
#271=ORIENTED_EDGE('',*,*,#219,.F.);
#272=ORIENTED_EDGE('',*,*,#220,.T.);
#273=ORIENTED_EDGE('',*,*,#221,.F.);
#274=ORIENTED_EDGE('',*,*,#220,.F.);
#275=ORIENTED_EDGE('',*,*,#222,.F.);
#276=ORIENTED_EDGE('',*,*,#223,.F.);
#277=ORIENTED_EDGE('',*,*,#224,.F.);
#278=ORIENTED_EDGE('',*,*,#225,.F.);
#279=ORIENTED_EDGE('',*,*,#226,.F.);
#280=ORIENTED_EDGE('',*,*,#218,.T.);
#281=ORIENTED_EDGE('',*,*,#224,.T.);
#282=ORIENTED_EDGE('',*,*,#217,.T.);
#283=ORIENTED_EDGE('',*,*,#221,.T.);
#284=ORIENTED_EDGE('',*,*,#227,.T.);
#285=ORIENTED_EDGE('',*,*,#228,.T.);
#286=ORIENTED_EDGE('',*,*,#229,.T.);
#287=ORIENTED_EDGE('',*,*,#230,.T.);
#288=ORIENTED_EDGE('',*,*,#231,.T.);
#289=ORIENTED_EDGE('',*,*,#207,.T.);
#290=ORIENTED_EDGE('',*,*,#210,.T.);
#291=ORIENTED_EDGE('',*,*,#213,.T.);
#292=ORIENTED_EDGE('',*,*,#216,.T.);
#293=ORIENTED_EDGE('',*,*,#232,.T.);
#294=ORIENTED_EDGE('',*,*,#233,.T.);
#295=ORIENTED_EDGE('',*,*,#234,.T.);
#296=ORIENTED_EDGE('',*,*,#235,.T.);
#297=ORIENTED_EDGE('',*,*,#223,.T.);
#298=ORIENTED_EDGE('',*,*,#236,.T.);
#299=ORIENTED_EDGE('',*,*,#237,.T.);
#300=ORIENTED_EDGE('',*,*,#227,.F.);
#301=ORIENTED_EDGE('',*,*,#234,.F.);
#302=ORIENTED_EDGE('',*,*,#238,.F.);
#303=ORIENTED_EDGE('',*,*,#239,.F.);
#304=ORIENTED_EDGE('',*,*,#240,.T.);
#305=ORIENTED_EDGE('',*,*,#235,.F.);
#306=ORIENTED_EDGE('',*,*,#240,.F.);
#307=ORIENTED_EDGE('',*,*,#241,.F.);
#308=ORIENTED_EDGE('',*,*,#242,.T.);
#309=ORIENTED_EDGE('',*,*,#232,.F.);
#310=ORIENTED_EDGE('',*,*,#242,.F.);
#311=ORIENTED_EDGE('',*,*,#243,.F.);
#312=ORIENTED_EDGE('',*,*,#244,.T.);
#313=ORIENTED_EDGE('',*,*,#233,.F.);
#314=ORIENTED_EDGE('',*,*,#244,.F.);
#315=ORIENTED_EDGE('',*,*,#245,.F.);
#316=ORIENTED_EDGE('',*,*,#238,.T.);
#317=ORIENTED_EDGE('',*,*,#246,.T.);
#318=ORIENTED_EDGE('',*,*,#247,.T.);
#319=ORIENTED_EDGE('',*,*,#229,.F.);
#320=ORIENTED_EDGE('',*,*,#248,.F.);
#321=ORIENTED_EDGE('',*,*,#249,.T.);
#322=ORIENTED_EDGE('',*,*,#248,.T.);
#323=ORIENTED_EDGE('',*,*,#228,.F.);
#324=ORIENTED_EDGE('',*,*,#237,.F.);
#325=ORIENTED_EDGE('',*,*,#225,.T.);
#326=ORIENTED_EDGE('',*,*,#231,.F.);
#327=ORIENTED_EDGE('',*,*,#250,.F.);
#328=ORIENTED_EDGE('',*,*,#251,.T.);
#329=ORIENTED_EDGE('',*,*,#252,.T.);
#330=ORIENTED_EDGE('',*,*,#250,.T.);
#331=ORIENTED_EDGE('',*,*,#230,.F.);
#332=ORIENTED_EDGE('',*,*,#247,.F.);
#333=ORIENTED_EDGE('',*,*,#226,.T.);
#334=ORIENTED_EDGE('',*,*,#251,.F.);
#335=ORIENTED_EDGE('',*,*,#252,.F.);
#336=ORIENTED_EDGE('',*,*,#246,.F.);
#337=ORIENTED_EDGE('',*,*,#249,.F.);
#338=ORIENTED_EDGE('',*,*,#236,.F.);
#339=ORIENTED_EDGE('',*,*,#222,.T.);
#340=ORIENTED_EDGE('',*,*,#219,.T.);
#341=ORIENTED_EDGE('',*,*,#205,.T.);
#342=ORIENTED_EDGE('',*,*,#208,.T.);
#343=ORIENTED_EDGE('',*,*,#211,.T.);
#344=ORIENTED_EDGE('',*,*,#214,.T.);
#345=ORIENTED_EDGE('',*,*,#243,.T.);
#346=ORIENTED_EDGE('',*,*,#241,.T.);
#347=ORIENTED_EDGE('',*,*,#239,.T.);
#348=ORIENTED_EDGE('',*,*,#245,.T.);
#349=CYLINDRICAL_SURFACE('',#385,1.6);
#350=CYLINDRICAL_SURFACE('',#388,1.6);
#351=CYLINDRICAL_SURFACE('',#391,1.6);
#352=CYLINDRICAL_SURFACE('',#394,1.6);
#353=ADVANCED_FACE('',(#39),#349,.F.);
#354=ADVANCED_FACE('',(#40),#350,.F.);
#355=ADVANCED_FACE('',(#41),#351,.F.);
#356=ADVANCED_FACE('',(#42),#352,.F.);
#357=ADVANCED_FACE('',(#43),#25,.F.);
#358=ADVANCED_FACE('',(#44),#26,.F.);
#359=ADVANCED_FACE('',(#45),#27,.F.);
#360=ADVANCED_FACE('',(#46,#15,#16,#17,#18,#19),#28,.T.);
#361=ADVANCED_FACE('',(#47),#29,.T.);
#362=ADVANCED_FACE('',(#48),#30,.F.);
#363=ADVANCED_FACE('',(#49),#31,.F.);
#364=ADVANCED_FACE('',(#50),#32,.F.);
#365=ADVANCED_FACE('',(#51),#33,.F.);
#366=ADVANCED_FACE('',(#52),#34,.T.);
#367=ADVANCED_FACE('',(#53),#35,.T.);
#368=ADVANCED_FACE('',(#54),#36,.T.);
#369=ADVANCED_FACE('',(#55),#37,.T.);
#370=ADVANCED_FACE('',(#56,#20,#21,#22,#23,#24),#38,.F.);
#371=CLOSED_SHELL('',(#353,#354,#355,#356,#357,#358,#359,#360,#361,#362,
#363,#364,#365,#366,#367,#368,#369,#370));
#372=DERIVED_UNIT_ELEMENT(#374,1.);
#373=DERIVED_UNIT_ELEMENT(#609,-3.);
#374=(
MASS_UNIT()
NAMED_UNIT(*)
SI_UNIT(.KILO.,.GRAM.)
);
#375=DERIVED_UNIT((#372,#373));
#376=MEASURE_REPRESENTATION_ITEM('density measure',
POSITIVE_RATIO_MEASURE(7850.),#375);
#377=PROPERTY_DEFINITION_REPRESENTATION(#382,#379);
#378=PROPERTY_DEFINITION_REPRESENTATION(#383,#380);
#379=REPRESENTATION('material name',(#381),#606);
#380=REPRESENTATION('density',(#376),#606);
#381=DESCRIPTIVE_REPRESENTATION_ITEM('A\X\E7o','A\X\E7o');
#382=PROPERTY_DEFINITION('material property','material name',#616);
#383=PROPERTY_DEFINITION('material property','density of part',#616);
#384=AXIS2_PLACEMENT_3D('',#505,#411,#412);
#385=AXIS2_PLACEMENT_3D('',#506,#413,#414);
#386=AXIS2_PLACEMENT_3D('',#508,#415,#416);
#387=AXIS2_PLACEMENT_3D('',#511,#418,#419);
#388=AXIS2_PLACEMENT_3D('',#512,#420,#421);
#389=AXIS2_PLACEMENT_3D('',#514,#422,#423);
#390=AXIS2_PLACEMENT_3D('',#517,#425,#426);
#391=AXIS2_PLACEMENT_3D('',#518,#427,#428);
#392=AXIS2_PLACEMENT_3D('',#520,#429,#430);
#393=AXIS2_PLACEMENT_3D('',#523,#432,#433);
#394=AXIS2_PLACEMENT_3D('',#524,#434,#435);
#395=AXIS2_PLACEMENT_3D('',#526,#436,#437);
#396=AXIS2_PLACEMENT_3D('',#529,#439,#440);
#397=AXIS2_PLACEMENT_3D('',#530,#441,#442);
#398=AXIS2_PLACEMENT_3D('',#539,#447,#448);
#399=AXIS2_PLACEMENT_3D('',#545,#452,#453);
#400=AXIS2_PLACEMENT_3D('',#551,#457,#458);
#401=AXIS2_PLACEMENT_3D('',#569,#468,#469);
#402=AXIS2_PLACEMENT_3D('',#573,#472,#473);
#403=AXIS2_PLACEMENT_3D('',#579,#477,#478);
#404=AXIS2_PLACEMENT_3D('',#583,#481,#482);
#405=AXIS2_PLACEMENT_3D('',#587,#485,#486);
#406=AXIS2_PLACEMENT_3D('',#589,#488,#489);
#407=AXIS2_PLACEMENT_3D('',#595,#493,#494);
#408=AXIS2_PLACEMENT_3D('',#597,#496,#497);
#409=AXIS2_PLACEMENT_3D('',#601,#500,#501);
#410=AXIS2_PLACEMENT_3D('',#603,#503,#504);
#411=DIRECTION('axis',(0.,0.,1.));
#412=DIRECTION('refdir',(1.,0.,0.));
#413=DIRECTION('center_axis',(0.,0.,1.));
#414=DIRECTION('ref_axis',(1.,0.,0.));
#415=DIRECTION('center_axis',(0.,0.,1.));
#416=DIRECTION('ref_axis',(1.,0.,0.));
#417=DIRECTION('',(0.,0.,1.));
#418=DIRECTION('center_axis',(0.,0.,-1.));
#419=DIRECTION('ref_axis',(1.,0.,0.));
#420=DIRECTION('center_axis',(0.,0.,1.));
#421=DIRECTION('ref_axis',(1.,0.,0.));
#422=DIRECTION('center_axis',(0.,0.,1.));
#423=DIRECTION('ref_axis',(1.,0.,0.));
#424=DIRECTION('',(0.,0.,1.));
#425=DIRECTION('center_axis',(0.,0.,-1.));
#426=DIRECTION('ref_axis',(1.,0.,0.));
#427=DIRECTION('center_axis',(0.,0.,1.));
#428=DIRECTION('ref_axis',(1.,0.,0.));
#429=DIRECTION('center_axis',(0.,0.,1.));
#430=DIRECTION('ref_axis',(1.,0.,0.));
#431=DIRECTION('',(0.,0.,1.));
#432=DIRECTION('center_axis',(0.,0.,-1.));
#433=DIRECTION('ref_axis',(1.,0.,0.));
#434=DIRECTION('center_axis',(0.,0.,1.));
#435=DIRECTION('ref_axis',(1.,0.,0.));
#436=DIRECTION('center_axis',(0.,0.,1.));
#437=DIRECTION('ref_axis',(1.,0.,0.));
#438=DIRECTION('',(0.,0.,1.));
#439=DIRECTION('center_axis',(0.,0.,-1.));
#440=DIRECTION('ref_axis',(1.,0.,0.));
#441=DIRECTION('center_axis',(0.,1.,0.));
#442=DIRECTION('ref_axis',(-1.,0.,0.));
#443=DIRECTION('',(1.,0.,0.));
#444=DIRECTION('',(0.,0.,1.));
#445=DIRECTION('',(-1.,0.,0.));
#446=DIRECTION('',(0.,0.,1.));
#447=DIRECTION('center_axis',(1.,0.,0.));
#448=DIRECTION('ref_axis',(0.,1.,0.));
#449=DIRECTION('',(0.,-1.,0.));
#450=DIRECTION('',(0.,1.,0.));
#451=DIRECTION('',(0.,0.,-1.));
#452=DIRECTION('center_axis',(-1.,0.,0.));
#453=DIRECTION('ref_axis',(0.,-1.,0.));
#454=DIRECTION('',(0.,1.,0.));
#455=DIRECTION('',(0.,0.,1.));
#456=DIRECTION('',(0.,-1.,0.));
#457=DIRECTION('center_axis',(0.,0.,1.));
#458=DIRECTION('ref_axis',(1.,0.,0.));
#459=DIRECTION('',(1.,0.,0.));
#460=DIRECTION('',(0.,1.,0.));
#461=DIRECTION('',(-1.,0.,0.));
#462=DIRECTION('',(0.,-1.,0.));
#463=DIRECTION('',(1.,0.,0.));
#464=DIRECTION('',(1.,0.,0.));
#465=DIRECTION('',(0.,-1.,0.));
#466=DIRECTION('',(-1.,0.,0.));
#467=DIRECTION('',(0.,1.,0.));
#468=DIRECTION('center_axis',(0.,-1.,0.));
#469=DIRECTION('ref_axis',(1.,0.,0.));
#470=DIRECTION('',(1.,0.,0.));
#471=DIRECTION('',(0.,0.,1.));
#472=DIRECTION('center_axis',(0.,-1.,0.));
#473=DIRECTION('ref_axis',(1.,0.,0.));
#474=DIRECTION('',(0.,0.,1.));
#475=DIRECTION('',(1.,0.,0.));
#476=DIRECTION('',(0.,0.,1.));
#477=DIRECTION('center_axis',(-1.,0.,0.));
#478=DIRECTION('ref_axis',(0.,-1.,0.));
#479=DIRECTION('',(0.,-1.,0.));
#480=DIRECTION('',(0.,0.,1.));
#481=DIRECTION('center_axis',(0.,1.,0.));
#482=DIRECTION('ref_axis',(-1.,0.,0.));
#483=DIRECTION('',(-1.,0.,0.));
#484=DIRECTION('',(0.,0.,1.));
#485=DIRECTION('center_axis',(1.,0.,0.));
#486=DIRECTION('ref_axis',(0.,1.,0.));
#487=DIRECTION('',(0.,1.,0.));
#488=DIRECTION('center_axis',(0.,1.,0.));
#489=DIRECTION('ref_axis',(-1.,0.,0.));
#490=DIRECTION('',(-1.,0.,0.));
#491=DIRECTION('',(0.,0.,1.));
#492=DIRECTION('',(0.,0.,1.));
#493=DIRECTION('center_axis',(1.,0.,0.));
#494=DIRECTION('ref_axis',(0.,1.,0.));
#495=DIRECTION('',(0.,1.,0.));
#496=DIRECTION('center_axis',(0.,-1.,0.));
#497=DIRECTION('ref_axis',(1.,0.,0.));
#498=DIRECTION('',(0.,0.,1.));
#499=DIRECTION('',(1.,0.,0.));
#500=DIRECTION('center_axis',(-1.,0.,0.));
#501=DIRECTION('ref_axis',(0.,-1.,0.));
#502=DIRECTION('',(0.,-1.,0.));
#503=DIRECTION('center_axis',(0.,0.,1.));
#504=DIRECTION('ref_axis',(1.,0.,0.));
#505=CARTESIAN_POINT('',(0.,0.,0.));
#506=CARTESIAN_POINT('Origin',(90.,57.5,0.));
#507=CARTESIAN_POINT('',(88.4,57.5,0.));
#508=CARTESIAN_POINT('Origin',(90.,57.5,0.));
#509=CARTESIAN_POINT('',(88.4,57.5,3.));
#510=CARTESIAN_POINT('',(88.4,57.5,0.));
#511=CARTESIAN_POINT('Origin',(90.,57.5,3.));
#512=CARTESIAN_POINT('Origin',(90.,-57.5,0.));
#513=CARTESIAN_POINT('',(88.4,-57.5,0.));
#514=CARTESIAN_POINT('Origin',(90.,-57.5,0.));
#515=CARTESIAN_POINT('',(88.4,-57.5,3.));
#516=CARTESIAN_POINT('',(88.4,-57.5,0.));
#517=CARTESIAN_POINT('Origin',(90.,-57.5,3.));
#518=CARTESIAN_POINT('Origin',(-90.,57.5,0.));
#519=CARTESIAN_POINT('',(-91.6,57.5,0.));
#520=CARTESIAN_POINT('Origin',(-90.,57.5,0.));
#521=CARTESIAN_POINT('',(-91.6,57.5,3.));
#522=CARTESIAN_POINT('',(-91.6,57.5,0.));
#523=CARTESIAN_POINT('Origin',(-90.,57.5,3.));
#524=CARTESIAN_POINT('Origin',(-90.,-57.5,0.));
#525=CARTESIAN_POINT('',(-91.6,-57.5,0.));
#526=CARTESIAN_POINT('Origin',(-90.,-57.5,0.));
#527=CARTESIAN_POINT('',(-91.6,-57.5,3.));
#528=CARTESIAN_POINT('',(-91.6,-57.5,0.));
#529=CARTESIAN_POINT('Origin',(-90.,-57.5,3.));
#530=CARTESIAN_POINT('Origin',(12.,-52.5,0.));
#531=CARTESIAN_POINT('',(-12.,-52.5,3.));
#532=CARTESIAN_POINT('',(12.,-52.5,3.));
#533=CARTESIAN_POINT('',(6.,-52.5,3.));
#534=CARTESIAN_POINT('',(-12.,-52.5,0.));
#535=CARTESIAN_POINT('',(-12.,-52.5,0.));
#536=CARTESIAN_POINT('',(12.,-52.5,0.));
#537=CARTESIAN_POINT('',(6.,-52.5,0.));
#538=CARTESIAN_POINT('',(12.,-52.5,0.));
#539=CARTESIAN_POINT('Origin',(12.,-62.5,0.));
#540=CARTESIAN_POINT('',(12.,-62.5,3.));
#541=CARTESIAN_POINT('',(12.,-31.25,3.));
#542=CARTESIAN_POINT('',(12.,-62.5,0.));
#543=CARTESIAN_POINT('',(12.,-31.25,0.));
#544=CARTESIAN_POINT('',(12.,-62.5,0.));
#545=CARTESIAN_POINT('Origin',(-12.,-52.5,0.));
#546=CARTESIAN_POINT('',(-12.,-62.5,3.));
#547=CARTESIAN_POINT('',(-12.,-26.25,3.));
#548=CARTESIAN_POINT('',(-12.,-62.5,0.));
#549=CARTESIAN_POINT('',(-12.,-62.5,0.));
#550=CARTESIAN_POINT('',(-12.,-26.25,0.));
#551=CARTESIAN_POINT('Origin',(0.,0.,3.));
#552=CARTESIAN_POINT('',(95.,-62.5,3.));
#553=CARTESIAN_POINT('',(-95.,-62.5,3.));
#554=CARTESIAN_POINT('',(95.,62.5,3.));
#555=CARTESIAN_POINT('',(95.,-62.5,3.));
#556=CARTESIAN_POINT('',(-95.,62.5,3.));
#557=CARTESIAN_POINT('',(95.,62.5,3.));
#558=CARTESIAN_POINT('',(-95.,-62.5,3.));
#559=CARTESIAN_POINT('',(-95.,62.5,3.));
#560=CARTESIAN_POINT('',(-95.,-62.5,3.));
#561=CARTESIAN_POINT('',(-84.5,52.,3.));
#562=CARTESIAN_POINT('',(84.5,52.,3.));
#563=CARTESIAN_POINT('',(42.25,52.,3.));
#564=CARTESIAN_POINT('',(84.5,-52.,3.));
#565=CARTESIAN_POINT('',(84.5,-26.,3.));
#566=CARTESIAN_POINT('',(-84.5,-52.,3.));
#567=CARTESIAN_POINT('',(-42.25,-52.,3.));
#568=CARTESIAN_POINT('',(-84.5,26.,3.));
#569=CARTESIAN_POINT('Origin',(-95.,-62.5,0.));
#570=CARTESIAN_POINT('',(95.,-62.5,0.));
#571=CARTESIAN_POINT('',(-95.,-62.5,0.));
#572=CARTESIAN_POINT('',(95.,-62.5,0.));
#573=CARTESIAN_POINT('Origin',(-84.5,-52.,0.));
#574=CARTESIAN_POINT('',(84.5,-52.,0.));
#575=CARTESIAN_POINT('',(84.5,-52.,0.));
#576=CARTESIAN_POINT('',(-84.5,-52.,0.));
#577=CARTESIAN_POINT('',(-42.25,-52.,0.));
#578=CARTESIAN_POINT('',(-84.5,-52.,0.));
#579=CARTESIAN_POINT('Origin',(-84.5,52.,0.));
#580=CARTESIAN_POINT('',(-84.5,52.,0.));
#581=CARTESIAN_POINT('',(-84.5,26.,0.));
#582=CARTESIAN_POINT('',(-84.5,52.,0.));
#583=CARTESIAN_POINT('Origin',(84.5,52.,0.));
#584=CARTESIAN_POINT('',(84.5,52.,0.));
#585=CARTESIAN_POINT('',(42.25,52.,0.));
#586=CARTESIAN_POINT('',(84.5,52.,0.));
#587=CARTESIAN_POINT('Origin',(84.5,-52.,0.));
#588=CARTESIAN_POINT('',(84.5,-26.,0.));
#589=CARTESIAN_POINT('Origin',(95.,62.5,0.));
#590=CARTESIAN_POINT('',(95.,62.5,0.));
#591=CARTESIAN_POINT('',(-95.,62.5,0.));
#592=CARTESIAN_POINT('',(95.,62.5,0.));
#593=CARTESIAN_POINT('',(-95.,62.5,0.));
#594=CARTESIAN_POINT('',(95.,62.5,0.));
#595=CARTESIAN_POINT('Origin',(95.,-62.5,0.));
#596=CARTESIAN_POINT('',(95.,-62.5,0.));
#597=CARTESIAN_POINT('Origin',(-95.,-62.5,0.));
#598=CARTESIAN_POINT('',(-95.,-62.5,0.));
#599=CARTESIAN_POINT('',(-95.,-62.5,0.));
#600=CARTESIAN_POINT('',(-95.,-62.5,0.));
#601=CARTESIAN_POINT('Origin',(-95.,62.5,0.));
#602=CARTESIAN_POINT('',(-95.,62.5,0.));
#603=CARTESIAN_POINT('Origin',(0.,0.,0.));
#604=UNCERTAINTY_MEASURE_WITH_UNIT(LENGTH_MEASURE(0.01),#608,
'DISTANCE_ACCURACY_VALUE',
'Maximum model space distance between geometric entities at asserted c
onnectivities');
#605=UNCERTAINTY_MEASURE_WITH_UNIT(LENGTH_MEASURE(0.01),#608,
'DISTANCE_ACCURACY_VALUE',
'Maximum model space distance between geometric entities at asserted c
onnectivities');
#606=(
GEOMETRIC_REPRESENTATION_CONTEXT(3)
GLOBAL_UNCERTAINTY_ASSIGNED_CONTEXT((#604))
GLOBAL_UNIT_ASSIGNED_CONTEXT((#608,#610,#611))
REPRESENTATION_CONTEXT('','3D')
);
#607=(
GEOMETRIC_REPRESENTATION_CONTEXT(3)
GLOBAL_UNCERTAINTY_ASSIGNED_CONTEXT((#605))
GLOBAL_UNIT_ASSIGNED_CONTEXT((#608,#610,#611))
REPRESENTATION_CONTEXT('','3D')
);
#608=(
LENGTH_UNIT()
NAMED_UNIT(*)
SI_UNIT(.MILLI.,.METRE.)
);
#609=(
LENGTH_UNIT()
NAMED_UNIT(*)
SI_UNIT($,.METRE.)
);
#610=(
NAMED_UNIT(*)
PLANE_ANGLE_UNIT()
SI_UNIT($,.RADIAN.)
);
#611=(
NAMED_UNIT(*)
SI_UNIT($,.STERADIAN.)
SOLID_ANGLE_UNIT()
);
#612=SHAPE_DEFINITION_REPRESENTATION(#613,#614);
#613=PRODUCT_DEFINITION_SHAPE('',$,#616);
#614=SHAPE_REPRESENTATION('',(#384),#606);
#615=PRODUCT_DEFINITION_CONTEXT('part definition',#620,'design');
#616=PRODUCT_DEFINITION('SmartMeter_DisplayBracket',
'SmartMeter_DisplayBracket',#617,#615);
#617=PRODUCT_DEFINITION_FORMATION('',$,#622);
#618=PRODUCT_RELATED_PRODUCT_CATEGORY('SmartMeter_DisplayBracket',
'SmartMeter_DisplayBracket',(#622));
#619=APPLICATION_PROTOCOL_DEFINITION('international standard',
'automotive_design',2009,#620);
#620=APPLICATION_CONTEXT(
'Core Data for Automotive Mechanical Design Process');
#621=PRODUCT_CONTEXT('part definition',#620,'mechanical');
#622=PRODUCT('SmartMeter_DisplayBracket','SmartMeter_DisplayBracket',$,
(#621));
#623=PRESENTATION_STYLE_ASSIGNMENT((#624));
#624=SURFACE_STYLE_USAGE(.BOTH.,#625);
#625=SURFACE_SIDE_STYLE('',(#626));
#626=SURFACE_STYLE_FILL_AREA(#627);
#627=FILL_AREA_STYLE('A\X\E7o - Acetinado',(#628));
#628=FILL_AREA_STYLE_COLOUR('A\X\E7o - Acetinado',#629);
#629=COLOUR_RGB('A\X\E7o - Acetinado',0.627450980392157,0.627450980392157,
0.627450980392157);
ENDSEC;
END-ISO-10303-21;
