ISO-10303-21;
HEADER;
/* Generated by software containing ST-Developer
 * from STEP Tools, Inc. (www.steptools.com) 
 */

FILE_DESCRIPTION(
/* description */ (''),
/* implementation_level */ '2;1');

FILE_NAME(
/* name */ 'SmartMeter_VentilationGrille.step',
/* time_stamp */ '2026-10-03T13:53:31-03:00',
/* author */ (''),
/* organization */ (''),
/* preprocessor_version */ 'ST-DEVELOPER v20.1',
/* originating_system */ 'Autodesk Translation Framework v15.8.0.0',
/* authorisation */ '');

FILE_SCHEMA (('AUTOMOTIVE_DESIGN { 1 0 10303 214 3 1 1 }'));
ENDSEC;

DATA;
#10=MECHANICAL_DESIGN_GEOMETRIC_PRESENTATION_REPRESENTATION('',(#13),#1155);
#11=SHAPE_REPRESENTATION_RELATIONSHIP('SRR','None',#1162,#12);
#12=ADVANCED_BREP_SHAPE_REPRESENTATION('',(#14),#1154);
#13=STYLED_ITEM('',(#1171),#14);
#14=MANIFOLD_SOLID_BREP('Corpo1',#727);
#15=FACE_BOUND('',#132,.T.);
#16=FACE_BOUND('',#133,.T.);
#17=FACE_BOUND('',#134,.T.);
#18=FACE_BOUND('',#135,.T.);
#19=FACE_BOUND('',#136,.T.);
#20=FACE_BOUND('',#137,.T.);
#21=FACE_BOUND('',#138,.T.);
#22=FACE_BOUND('',#139,.T.);
#23=FACE_BOUND('',#140,.T.);
#24=FACE_BOUND('',#141,.T.);
#25=FACE_BOUND('',#143,.T.);
#26=FACE_BOUND('',#144,.T.);
#27=FACE_BOUND('',#145,.T.);
#28=FACE_BOUND('',#146,.T.);
#29=FACE_BOUND('',#147,.T.);
#30=FACE_BOUND('',#148,.T.);
#31=FACE_BOUND('',#149,.T.);
#32=FACE_BOUND('',#150,.T.);
#33=FACE_BOUND('',#151,.T.);
#34=FACE_BOUND('',#152,.T.);
#35=PLANE('',#753);
#36=PLANE('',#754);
#37=PLANE('',#755);
#38=PLANE('',#756);
#39=PLANE('',#757);
#40=PLANE('',#758);
#41=PLANE('',#759);
#42=PLANE('',#760);
#43=PLANE('',#761);
#44=PLANE('',#762);
#45=PLANE('',#763);
#46=PLANE('',#764);
#47=PLANE('',#765);
#48=PLANE('',#766);
#49=PLANE('',#767);
#50=PLANE('',#768);
#51=PLANE('',#769);
#52=PLANE('',#770);
#53=PLANE('',#771);
#54=PLANE('',#772);
#55=PLANE('',#773);
#56=PLANE('',#774);
#57=PLANE('',#775);
#58=PLANE('',#776);
#59=PLANE('',#777);
#60=PLANE('',#778);
#61=PLANE('',#779);
#62=PLANE('',#780);
#63=PLANE('',#781);
#64=PLANE('',#782);
#65=FACE_OUTER_BOUND('',#99,.T.);
#66=FACE_OUTER_BOUND('',#100,.T.);
#67=FACE_OUTER_BOUND('',#101,.T.);
#68=FACE_OUTER_BOUND('',#102,.T.);
#69=FACE_OUTER_BOUND('',#103,.T.);
#70=FACE_OUTER_BOUND('',#104,.T.);
#71=FACE_OUTER_BOUND('',#105,.T.);
#72=FACE_OUTER_BOUND('',#106,.T.);
#73=FACE_OUTER_BOUND('',#107,.T.);
#74=FACE_OUTER_BOUND('',#108,.T.);
#75=FACE_OUTER_BOUND('',#109,.T.);
#76=FACE_OUTER_BOUND('',#110,.T.);
#77=FACE_OUTER_BOUND('',#111,.T.);
#78=FACE_OUTER_BOUND('',#112,.T.);
#79=FACE_OUTER_BOUND('',#113,.T.);
#80=FACE_OUTER_BOUND('',#114,.T.);
#81=FACE_OUTER_BOUND('',#115,.T.);
#82=FACE_OUTER_BOUND('',#116,.T.);
#83=FACE_OUTER_BOUND('',#117,.T.);
#84=FACE_OUTER_BOUND('',#118,.T.);
#85=FACE_OUTER_BOUND('',#119,.T.);
#86=FACE_OUTER_BOUND('',#120,.T.);
#87=FACE_OUTER_BOUND('',#121,.T.);
#88=FACE_OUTER_BOUND('',#122,.T.);
#89=FACE_OUTER_BOUND('',#123,.T.);
#90=FACE_OUTER_BOUND('',#124,.T.);
#91=FACE_OUTER_BOUND('',#125,.T.);
#92=FACE_OUTER_BOUND('',#126,.T.);
#93=FACE_OUTER_BOUND('',#127,.T.);
#94=FACE_OUTER_BOUND('',#128,.T.);
#95=FACE_OUTER_BOUND('',#129,.T.);
#96=FACE_OUTER_BOUND('',#130,.T.);
#97=FACE_OUTER_BOUND('',#131,.T.);
#98=FACE_OUTER_BOUND('',#142,.T.);
#99=EDGE_LOOP('',(#497,#498,#499,#500));
#100=EDGE_LOOP('',(#501,#502,#503,#504));
#101=EDGE_LOOP('',(#505,#506,#507,#508));
#102=EDGE_LOOP('',(#509,#510,#511,#512));
#103=EDGE_LOOP('',(#513,#514,#515,#516));
#104=EDGE_LOOP('',(#517,#518,#519,#520));
#105=EDGE_LOOP('',(#521,#522,#523,#524));
#106=EDGE_LOOP('',(#525,#526,#527,#528));
#107=EDGE_LOOP('',(#529,#530,#531,#532));
#108=EDGE_LOOP('',(#533,#534,#535,#536));
#109=EDGE_LOOP('',(#537,#538,#539,#540));
#110=EDGE_LOOP('',(#541,#542,#543,#544));
#111=EDGE_LOOP('',(#545,#546,#547,#548));
#112=EDGE_LOOP('',(#549,#550,#551,#552));
#113=EDGE_LOOP('',(#553,#554,#555,#556));
#114=EDGE_LOOP('',(#557,#558,#559,#560));
#115=EDGE_LOOP('',(#561,#562,#563,#564));
#116=EDGE_LOOP('',(#565,#566,#567,#568));
#117=EDGE_LOOP('',(#569,#570,#571,#572));
#118=EDGE_LOOP('',(#573,#574,#575,#576));
#119=EDGE_LOOP('',(#577,#578,#579,#580));
#120=EDGE_LOOP('',(#581,#582,#583,#584));
#121=EDGE_LOOP('',(#585,#586,#587,#588));
#122=EDGE_LOOP('',(#589,#590,#591,#592));
#123=EDGE_LOOP('',(#593,#594,#595,#596));
#124=EDGE_LOOP('',(#597,#598,#599,#600));
#125=EDGE_LOOP('',(#601,#602,#603,#604));
#126=EDGE_LOOP('',(#605,#606,#607,#608));
#127=EDGE_LOOP('',(#609,#610,#611,#612));
#128=EDGE_LOOP('',(#613,#614,#615,#616));
#129=EDGE_LOOP('',(#617,#618,#619,#620));
#130=EDGE_LOOP('',(#621,#622,#623,#624));
#131=EDGE_LOOP('',(#625,#626,#627,#628));
#132=EDGE_LOOP('',(#629));
#133=EDGE_LOOP('',(#630,#631,#632,#633));
#134=EDGE_LOOP('',(#634,#635,#636,#637));
#135=EDGE_LOOP('',(#638,#639,#640,#641));
#136=EDGE_LOOP('',(#642,#643,#644,#645));
#137=EDGE_LOOP('',(#646,#647,#648,#649));
#138=EDGE_LOOP('',(#650,#651,#652,#653));
#139=EDGE_LOOP('',(#654));
#140=EDGE_LOOP('',(#655));
#141=EDGE_LOOP('',(#656));
#142=EDGE_LOOP('',(#657,#658,#659,#660));
#143=EDGE_LOOP('',(#661));
#144=EDGE_LOOP('',(#662,#663,#664,#665));
#145=EDGE_LOOP('',(#666,#667,#668,#669));
#146=EDGE_LOOP('',(#670,#671,#672,#673));
#147=EDGE_LOOP('',(#674,#675,#676,#677));
#148=EDGE_LOOP('',(#678,#679,#680,#681));
#149=EDGE_LOOP('',(#682,#683,#684,#685));
#150=EDGE_LOOP('',(#686));
#151=EDGE_LOOP('',(#687));
#152=EDGE_LOOP('',(#688));
#153=LINE('',#962,#241);
#154=LINE('',#968,#242);
#155=LINE('',#974,#243);
#156=LINE('',#980,#244);
#157=LINE('',#985,#245);
#158=LINE('',#987,#246);
#159=LINE('',#989,#247);
#160=LINE('',#990,#248);
#161=LINE('',#993,#249);
#162=LINE('',#995,#250);
#163=LINE('',#996,#251);
#164=LINE('',#999,#252);
#165=LINE('',#1001,#253);
#166=LINE('',#1002,#254);
#167=LINE('',#1004,#255);
#168=LINE('',#1005,#256);
#169=LINE('',#1009,#257);
#170=LINE('',#1011,#258);
#171=LINE('',#1013,#259);
#172=LINE('',#1014,#260);
#173=LINE('',#1017,#261);
#174=LINE('',#1019,#262);
#175=LINE('',#1020,#263);
#176=LINE('',#1023,#264);
#177=LINE('',#1025,#265);
#178=LINE('',#1026,#266);
#179=LINE('',#1028,#267);
#180=LINE('',#1029,#268);
#181=LINE('',#1033,#269);
#182=LINE('',#1035,#270);
#183=LINE('',#1037,#271);
#184=LINE('',#1038,#272);
#185=LINE('',#1041,#273);
#186=LINE('',#1043,#274);
#187=LINE('',#1044,#275);
#188=LINE('',#1047,#276);
#189=LINE('',#1049,#277);
#190=LINE('',#1050,#278);
#191=LINE('',#1052,#279);
#192=LINE('',#1053,#280);
#193=LINE('',#1057,#281);
#194=LINE('',#1059,#282);
#195=LINE('',#1061,#283);
#196=LINE('',#1062,#284);
#197=LINE('',#1065,#285);
#198=LINE('',#1067,#286);
#199=LINE('',#1068,#287);
#200=LINE('',#1071,#288);
#201=LINE('',#1073,#289);
#202=LINE('',#1074,#290);
#203=LINE('',#1076,#291);
#204=LINE('',#1077,#292);
#205=LINE('',#1081,#293);
#206=LINE('',#1083,#294);
#207=LINE('',#1085,#295);
#208=LINE('',#1086,#296);
#209=LINE('',#1089,#297);
#210=LINE('',#1091,#298);
#211=LINE('',#1092,#299);
#212=LINE('',#1095,#300);
#213=LINE('',#1097,#301);
#214=LINE('',#1098,#302);
#215=LINE('',#1100,#303);
#216=LINE('',#1101,#304);
#217=LINE('',#1105,#305);
#218=LINE('',#1107,#306);
#219=LINE('',#1109,#307);
#220=LINE('',#1110,#308);
#221=LINE('',#1113,#309);
#222=LINE('',#1115,#310);
#223=LINE('',#1116,#311);
#224=LINE('',#1119,#312);
#225=LINE('',#1121,#313);
#226=LINE('',#1122,#314);
#227=LINE('',#1124,#315);
#228=LINE('',#1125,#316);
#229=LINE('',#1129,#317);
#230=LINE('',#1131,#318);
#231=LINE('',#1133,#319);
#232=LINE('',#1134,#320);
#233=LINE('',#1137,#321);
#234=LINE('',#1139,#322);
#235=LINE('',#1140,#323);
#236=LINE('',#1143,#324);
#237=LINE('',#1145,#325);
#238=LINE('',#1146,#326);
#239=LINE('',#1148,#327);
#240=LINE('',#1149,#328);
#241=VECTOR('',#789,1.6);
#242=VECTOR('',#796,1.6);
#243=VECTOR('',#803,1.6);
#244=VECTOR('',#810,1.6);
#245=VECTOR('',#815,10.);
#246=VECTOR('',#816,10.);
#247=VECTOR('',#817,10.);
#248=VECTOR('',#818,10.);
#249=VECTOR('',#821,10.);
#250=VECTOR('',#822,10.);
#251=VECTOR('',#823,10.);
#252=VECTOR('',#826,10.);
#253=VECTOR('',#827,10.);
#254=VECTOR('',#828,10.);
#255=VECTOR('',#831,10.);
#256=VECTOR('',#832,10.);
#257=VECTOR('',#835,10.);
#258=VECTOR('',#836,10.);
#259=VECTOR('',#837,10.);
#260=VECTOR('',#838,10.);
#261=VECTOR('',#841,10.);
#262=VECTOR('',#842,10.);
#263=VECTOR('',#843,10.);
#264=VECTOR('',#846,10.);
#265=VECTOR('',#847,10.);
#266=VECTOR('',#848,10.);
#267=VECTOR('',#851,10.);
#268=VECTOR('',#852,10.);
#269=VECTOR('',#855,10.);
#270=VECTOR('',#856,10.);
#271=VECTOR('',#857,10.);
#272=VECTOR('',#858,10.);
#273=VECTOR('',#861,10.);
#274=VECTOR('',#862,10.);
#275=VECTOR('',#863,10.);
#276=VECTOR('',#866,10.);
#277=VECTOR('',#867,10.);
#278=VECTOR('',#868,10.);
#279=VECTOR('',#871,10.);
#280=VECTOR('',#872,10.);
#281=VECTOR('',#875,10.);
#282=VECTOR('',#876,10.);
#283=VECTOR('',#877,10.);
#284=VECTOR('',#878,10.);
#285=VECTOR('',#881,10.);
#286=VECTOR('',#882,10.);
#287=VECTOR('',#883,10.);
#288=VECTOR('',#886,10.);
#289=VECTOR('',#887,10.);
#290=VECTOR('',#888,10.);
#291=VECTOR('',#891,10.);
#292=VECTOR('',#892,10.);
#293=VECTOR('',#895,10.);
#294=VECTOR('',#896,10.);
#295=VECTOR('',#897,10.);
#296=VECTOR('',#898,10.);
#297=VECTOR('',#901,10.);
#298=VECTOR('',#902,10.);
#299=VECTOR('',#903,10.);
#300=VECTOR('',#906,10.);
#301=VECTOR('',#907,10.);
#302=VECTOR('',#908,10.);
#303=VECTOR('',#911,10.);
#304=VECTOR('',#912,10.);
#305=VECTOR('',#915,10.);
#306=VECTOR('',#916,10.);
#307=VECTOR('',#917,10.);
#308=VECTOR('',#918,10.);
#309=VECTOR('',#921,10.);
#310=VECTOR('',#922,10.);
#311=VECTOR('',#923,10.);
#312=VECTOR('',#926,10.);
#313=VECTOR('',#927,10.);
#314=VECTOR('',#928,10.);
#315=VECTOR('',#931,10.);
#316=VECTOR('',#932,10.);
#317=VECTOR('',#935,10.);
#318=VECTOR('',#936,10.);
#319=VECTOR('',#937,10.);
#320=VECTOR('',#938,10.);
#321=VECTOR('',#941,10.);
#322=VECTOR('',#942,10.);
#323=VECTOR('',#943,10.);
#324=VECTOR('',#946,10.);
#325=VECTOR('',#947,10.);
#326=VECTOR('',#948,10.);
#327=VECTOR('',#951,10.);
#328=VECTOR('',#952,10.);
#329=CIRCLE('',#742,1.6);
#330=CIRCLE('',#743,1.6);
#331=CIRCLE('',#745,1.6);
#332=CIRCLE('',#746,1.6);
#333=CIRCLE('',#748,1.6);
#334=CIRCLE('',#749,1.6);
#335=CIRCLE('',#751,1.6);
#336=CIRCLE('',#752,1.6);
#337=VERTEX_POINT('',#959);
#338=VERTEX_POINT('',#961);
#339=VERTEX_POINT('',#965);
#340=VERTEX_POINT('',#967);
#341=VERTEX_POINT('',#971);
#342=VERTEX_POINT('',#973);
#343=VERTEX_POINT('',#977);
#344=VERTEX_POINT('',#979);
#345=VERTEX_POINT('',#983);
#346=VERTEX_POINT('',#984);
#347=VERTEX_POINT('',#986);
#348=VERTEX_POINT('',#988);
#349=VERTEX_POINT('',#992);
#350=VERTEX_POINT('',#994);
#351=VERTEX_POINT('',#998);
#352=VERTEX_POINT('',#1000);
#353=VERTEX_POINT('',#1007);
#354=VERTEX_POINT('',#1008);
#355=VERTEX_POINT('',#1010);
#356=VERTEX_POINT('',#1012);
#357=VERTEX_POINT('',#1016);
#358=VERTEX_POINT('',#1018);
#359=VERTEX_POINT('',#1022);
#360=VERTEX_POINT('',#1024);
#361=VERTEX_POINT('',#1031);
#362=VERTEX_POINT('',#1032);
#363=VERTEX_POINT('',#1034);
#364=VERTEX_POINT('',#1036);
#365=VERTEX_POINT('',#1040);
#366=VERTEX_POINT('',#1042);
#367=VERTEX_POINT('',#1046);
#368=VERTEX_POINT('',#1048);
#369=VERTEX_POINT('',#1055);
#370=VERTEX_POINT('',#1056);
#371=VERTEX_POINT('',#1058);
#372=VERTEX_POINT('',#1060);
#373=VERTEX_POINT('',#1064);
#374=VERTEX_POINT('',#1066);
#375=VERTEX_POINT('',#1070);
#376=VERTEX_POINT('',#1072);
#377=VERTEX_POINT('',#1079);
#378=VERTEX_POINT('',#1080);
#379=VERTEX_POINT('',#1082);
#380=VERTEX_POINT('',#1084);
#381=VERTEX_POINT('',#1088);
#382=VERTEX_POINT('',#1090);
#383=VERTEX_POINT('',#1094);
#384=VERTEX_POINT('',#1096);
#385=VERTEX_POINT('',#1103);
#386=VERTEX_POINT('',#1104);
#387=VERTEX_POINT('',#1106);
#388=VERTEX_POINT('',#1108);
#389=VERTEX_POINT('',#1112);
#390=VERTEX_POINT('',#1114);
#391=VERTEX_POINT('',#1118);
#392=VERTEX_POINT('',#1120);
#393=VERTEX_POINT('',#1127);
#394=VERTEX_POINT('',#1128);
#395=VERTEX_POINT('',#1130);
#396=VERTEX_POINT('',#1132);
#397=VERTEX_POINT('',#1136);
#398=VERTEX_POINT('',#1138);
#399=VERTEX_POINT('',#1142);
#400=VERTEX_POINT('',#1144);
#401=EDGE_CURVE('',#337,#337,#329,.T.);
#402=EDGE_CURVE('',#337,#338,#153,.T.);
#403=EDGE_CURVE('',#338,#338,#330,.T.);
#404=EDGE_CURVE('',#339,#339,#331,.T.);
#405=EDGE_CURVE('',#339,#340,#154,.T.);
#406=EDGE_CURVE('',#340,#340,#332,.T.);
#407=EDGE_CURVE('',#341,#341,#333,.T.);
#408=EDGE_CURVE('',#341,#342,#155,.T.);
#409=EDGE_CURVE('',#342,#342,#334,.T.);
#410=EDGE_CURVE('',#343,#343,#335,.T.);
#411=EDGE_CURVE('',#343,#344,#156,.T.);
#412=EDGE_CURVE('',#344,#344,#336,.T.);
#413=EDGE_CURVE('',#345,#346,#157,.T.);
#414=EDGE_CURVE('',#347,#345,#158,.T.);
#415=EDGE_CURVE('',#348,#347,#159,.T.);
#416=EDGE_CURVE('',#348,#346,#160,.T.);
#417=EDGE_CURVE('',#346,#349,#161,.T.);
#418=EDGE_CURVE('',#350,#348,#162,.T.);
#419=EDGE_CURVE('',#350,#349,#163,.T.);
#420=EDGE_CURVE('',#349,#351,#164,.T.);
#421=EDGE_CURVE('',#352,#350,#165,.T.);
#422=EDGE_CURVE('',#352,#351,#166,.T.);
#423=EDGE_CURVE('',#351,#345,#167,.T.);
#424=EDGE_CURVE('',#347,#352,#168,.T.);
#425=EDGE_CURVE('',#353,#354,#169,.T.);
#426=EDGE_CURVE('',#355,#353,#170,.T.);
#427=EDGE_CURVE('',#356,#355,#171,.T.);
#428=EDGE_CURVE('',#356,#354,#172,.T.);
#429=EDGE_CURVE('',#354,#357,#173,.T.);
#430=EDGE_CURVE('',#358,#356,#174,.T.);
#431=EDGE_CURVE('',#358,#357,#175,.T.);
#432=EDGE_CURVE('',#357,#359,#176,.T.);
#433=EDGE_CURVE('',#360,#358,#177,.T.);
#434=EDGE_CURVE('',#360,#359,#178,.T.);
#435=EDGE_CURVE('',#359,#353,#179,.T.);
#436=EDGE_CURVE('',#355,#360,#180,.T.);
#437=EDGE_CURVE('',#361,#362,#181,.T.);
#438=EDGE_CURVE('',#363,#361,#182,.T.);
#439=EDGE_CURVE('',#364,#363,#183,.T.);
#440=EDGE_CURVE('',#364,#362,#184,.T.);
#441=EDGE_CURVE('',#362,#365,#185,.T.);
#442=EDGE_CURVE('',#366,#364,#186,.T.);
#443=EDGE_CURVE('',#366,#365,#187,.T.);
#444=EDGE_CURVE('',#365,#367,#188,.T.);
#445=EDGE_CURVE('',#368,#366,#189,.T.);
#446=EDGE_CURVE('',#368,#367,#190,.T.);
#447=EDGE_CURVE('',#367,#361,#191,.T.);
#448=EDGE_CURVE('',#363,#368,#192,.T.);
#449=EDGE_CURVE('',#369,#370,#193,.T.);
#450=EDGE_CURVE('',#371,#369,#194,.T.);
#451=EDGE_CURVE('',#372,#371,#195,.T.);
#452=EDGE_CURVE('',#372,#370,#196,.T.);
#453=EDGE_CURVE('',#370,#373,#197,.T.);
#454=EDGE_CURVE('',#374,#372,#198,.T.);
#455=EDGE_CURVE('',#374,#373,#199,.T.);
#456=EDGE_CURVE('',#373,#375,#200,.T.);
#457=EDGE_CURVE('',#376,#374,#201,.T.);
#458=EDGE_CURVE('',#376,#375,#202,.T.);
#459=EDGE_CURVE('',#375,#369,#203,.T.);
#460=EDGE_CURVE('',#371,#376,#204,.T.);
#461=EDGE_CURVE('',#377,#378,#205,.T.);
#462=EDGE_CURVE('',#379,#377,#206,.T.);
#463=EDGE_CURVE('',#380,#379,#207,.T.);
#464=EDGE_CURVE('',#380,#378,#208,.T.);
#465=EDGE_CURVE('',#378,#381,#209,.T.);
#466=EDGE_CURVE('',#382,#380,#210,.T.);
#467=EDGE_CURVE('',#382,#381,#211,.T.);
#468=EDGE_CURVE('',#381,#383,#212,.T.);
#469=EDGE_CURVE('',#384,#382,#213,.T.);
#470=EDGE_CURVE('',#384,#383,#214,.T.);
#471=EDGE_CURVE('',#383,#377,#215,.T.);
#472=EDGE_CURVE('',#379,#384,#216,.T.);
#473=EDGE_CURVE('',#385,#386,#217,.T.);
#474=EDGE_CURVE('',#387,#385,#218,.T.);
#475=EDGE_CURVE('',#388,#387,#219,.T.);
#476=EDGE_CURVE('',#388,#386,#220,.T.);
#477=EDGE_CURVE('',#386,#389,#221,.T.);
#478=EDGE_CURVE('',#390,#388,#222,.T.);
#479=EDGE_CURVE('',#390,#389,#223,.T.);
#480=EDGE_CURVE('',#389,#391,#224,.T.);
#481=EDGE_CURVE('',#392,#390,#225,.T.);
#482=EDGE_CURVE('',#392,#391,#226,.T.);
#483=EDGE_CURVE('',#391,#385,#227,.T.);
#484=EDGE_CURVE('',#387,#392,#228,.T.);
#485=EDGE_CURVE('',#393,#394,#229,.T.);
#486=EDGE_CURVE('',#394,#395,#230,.T.);
#487=EDGE_CURVE('',#396,#395,#231,.T.);
#488=EDGE_CURVE('',#393,#396,#232,.T.);
#489=EDGE_CURVE('',#397,#393,#233,.T.);
#490=EDGE_CURVE('',#398,#396,#234,.T.);
#491=EDGE_CURVE('',#397,#398,#235,.T.);
#492=EDGE_CURVE('',#399,#397,#236,.T.);
#493=EDGE_CURVE('',#400,#398,#237,.T.);
#494=EDGE_CURVE('',#399,#400,#238,.T.);
#495=EDGE_CURVE('',#394,#399,#239,.T.);
#496=EDGE_CURVE('',#395,#400,#240,.T.);
#497=ORIENTED_EDGE('',*,*,#401,.F.);
#498=ORIENTED_EDGE('',*,*,#402,.T.);
#499=ORIENTED_EDGE('',*,*,#403,.F.);
#500=ORIENTED_EDGE('',*,*,#402,.F.);
#501=ORIENTED_EDGE('',*,*,#404,.F.);
#502=ORIENTED_EDGE('',*,*,#405,.T.);
#503=ORIENTED_EDGE('',*,*,#406,.F.);
#504=ORIENTED_EDGE('',*,*,#405,.F.);
#505=ORIENTED_EDGE('',*,*,#407,.F.);
#506=ORIENTED_EDGE('',*,*,#408,.T.);
#507=ORIENTED_EDGE('',*,*,#409,.F.);
#508=ORIENTED_EDGE('',*,*,#408,.F.);
#509=ORIENTED_EDGE('',*,*,#410,.F.);
#510=ORIENTED_EDGE('',*,*,#411,.T.);
#511=ORIENTED_EDGE('',*,*,#412,.F.);
#512=ORIENTED_EDGE('',*,*,#411,.F.);
#513=ORIENTED_EDGE('',*,*,#413,.F.);
#514=ORIENTED_EDGE('',*,*,#414,.F.);
#515=ORIENTED_EDGE('',*,*,#415,.F.);
#516=ORIENTED_EDGE('',*,*,#416,.T.);
#517=ORIENTED_EDGE('',*,*,#417,.F.);
#518=ORIENTED_EDGE('',*,*,#416,.F.);
#519=ORIENTED_EDGE('',*,*,#418,.F.);
#520=ORIENTED_EDGE('',*,*,#419,.T.);
#521=ORIENTED_EDGE('',*,*,#420,.F.);
#522=ORIENTED_EDGE('',*,*,#419,.F.);
#523=ORIENTED_EDGE('',*,*,#421,.F.);
#524=ORIENTED_EDGE('',*,*,#422,.T.);
#525=ORIENTED_EDGE('',*,*,#423,.F.);
#526=ORIENTED_EDGE('',*,*,#422,.F.);
#527=ORIENTED_EDGE('',*,*,#424,.F.);
#528=ORIENTED_EDGE('',*,*,#414,.T.);
#529=ORIENTED_EDGE('',*,*,#425,.F.);
#530=ORIENTED_EDGE('',*,*,#426,.F.);
#531=ORIENTED_EDGE('',*,*,#427,.F.);
#532=ORIENTED_EDGE('',*,*,#428,.T.);
#533=ORIENTED_EDGE('',*,*,#429,.F.);
#534=ORIENTED_EDGE('',*,*,#428,.F.);
#535=ORIENTED_EDGE('',*,*,#430,.F.);
#536=ORIENTED_EDGE('',*,*,#431,.T.);
#537=ORIENTED_EDGE('',*,*,#432,.F.);
#538=ORIENTED_EDGE('',*,*,#431,.F.);
#539=ORIENTED_EDGE('',*,*,#433,.F.);
#540=ORIENTED_EDGE('',*,*,#434,.T.);
#541=ORIENTED_EDGE('',*,*,#435,.F.);
#542=ORIENTED_EDGE('',*,*,#434,.F.);
#543=ORIENTED_EDGE('',*,*,#436,.F.);
#544=ORIENTED_EDGE('',*,*,#426,.T.);
#545=ORIENTED_EDGE('',*,*,#437,.F.);
#546=ORIENTED_EDGE('',*,*,#438,.F.);
#547=ORIENTED_EDGE('',*,*,#439,.F.);
#548=ORIENTED_EDGE('',*,*,#440,.T.);
#549=ORIENTED_EDGE('',*,*,#441,.F.);
#550=ORIENTED_EDGE('',*,*,#440,.F.);
#551=ORIENTED_EDGE('',*,*,#442,.F.);
#552=ORIENTED_EDGE('',*,*,#443,.T.);
#553=ORIENTED_EDGE('',*,*,#444,.F.);
#554=ORIENTED_EDGE('',*,*,#443,.F.);
#555=ORIENTED_EDGE('',*,*,#445,.F.);
#556=ORIENTED_EDGE('',*,*,#446,.T.);
#557=ORIENTED_EDGE('',*,*,#447,.F.);
#558=ORIENTED_EDGE('',*,*,#446,.F.);
#559=ORIENTED_EDGE('',*,*,#448,.F.);
#560=ORIENTED_EDGE('',*,*,#438,.T.);
#561=ORIENTED_EDGE('',*,*,#449,.F.);
#562=ORIENTED_EDGE('',*,*,#450,.F.);
#563=ORIENTED_EDGE('',*,*,#451,.F.);
#564=ORIENTED_EDGE('',*,*,#452,.T.);
#565=ORIENTED_EDGE('',*,*,#453,.F.);
#566=ORIENTED_EDGE('',*,*,#452,.F.);
#567=ORIENTED_EDGE('',*,*,#454,.F.);
#568=ORIENTED_EDGE('',*,*,#455,.T.);
#569=ORIENTED_EDGE('',*,*,#456,.F.);
#570=ORIENTED_EDGE('',*,*,#455,.F.);
#571=ORIENTED_EDGE('',*,*,#457,.F.);
#572=ORIENTED_EDGE('',*,*,#458,.T.);
#573=ORIENTED_EDGE('',*,*,#459,.F.);
#574=ORIENTED_EDGE('',*,*,#458,.F.);
#575=ORIENTED_EDGE('',*,*,#460,.F.);
#576=ORIENTED_EDGE('',*,*,#450,.T.);
#577=ORIENTED_EDGE('',*,*,#461,.F.);
#578=ORIENTED_EDGE('',*,*,#462,.F.);
#579=ORIENTED_EDGE('',*,*,#463,.F.);
#580=ORIENTED_EDGE('',*,*,#464,.T.);
#581=ORIENTED_EDGE('',*,*,#465,.F.);
#582=ORIENTED_EDGE('',*,*,#464,.F.);
#583=ORIENTED_EDGE('',*,*,#466,.F.);
#584=ORIENTED_EDGE('',*,*,#467,.T.);
#585=ORIENTED_EDGE('',*,*,#468,.F.);
#586=ORIENTED_EDGE('',*,*,#467,.F.);
#587=ORIENTED_EDGE('',*,*,#469,.F.);
#588=ORIENTED_EDGE('',*,*,#470,.T.);
#589=ORIENTED_EDGE('',*,*,#471,.F.);
#590=ORIENTED_EDGE('',*,*,#470,.F.);
#591=ORIENTED_EDGE('',*,*,#472,.F.);
#592=ORIENTED_EDGE('',*,*,#462,.T.);
#593=ORIENTED_EDGE('',*,*,#473,.F.);
#594=ORIENTED_EDGE('',*,*,#474,.F.);
#595=ORIENTED_EDGE('',*,*,#475,.F.);
#596=ORIENTED_EDGE('',*,*,#476,.T.);
#597=ORIENTED_EDGE('',*,*,#477,.F.);
#598=ORIENTED_EDGE('',*,*,#476,.F.);
#599=ORIENTED_EDGE('',*,*,#478,.F.);
#600=ORIENTED_EDGE('',*,*,#479,.T.);
#601=ORIENTED_EDGE('',*,*,#480,.F.);
#602=ORIENTED_EDGE('',*,*,#479,.F.);
#603=ORIENTED_EDGE('',*,*,#481,.F.);
#604=ORIENTED_EDGE('',*,*,#482,.T.);
#605=ORIENTED_EDGE('',*,*,#483,.F.);
#606=ORIENTED_EDGE('',*,*,#482,.F.);
#607=ORIENTED_EDGE('',*,*,#484,.F.);
#608=ORIENTED_EDGE('',*,*,#474,.T.);
#609=ORIENTED_EDGE('',*,*,#485,.T.);
#610=ORIENTED_EDGE('',*,*,#486,.T.);
#611=ORIENTED_EDGE('',*,*,#487,.F.);
#612=ORIENTED_EDGE('',*,*,#488,.F.);
#613=ORIENTED_EDGE('',*,*,#489,.T.);
#614=ORIENTED_EDGE('',*,*,#488,.T.);
#615=ORIENTED_EDGE('',*,*,#490,.F.);
#616=ORIENTED_EDGE('',*,*,#491,.F.);
#617=ORIENTED_EDGE('',*,*,#492,.T.);
#618=ORIENTED_EDGE('',*,*,#491,.T.);
#619=ORIENTED_EDGE('',*,*,#493,.F.);
#620=ORIENTED_EDGE('',*,*,#494,.F.);
#621=ORIENTED_EDGE('',*,*,#495,.T.);
#622=ORIENTED_EDGE('',*,*,#494,.T.);
#623=ORIENTED_EDGE('',*,*,#496,.F.);
#624=ORIENTED_EDGE('',*,*,#486,.F.);
#625=ORIENTED_EDGE('',*,*,#496,.T.);
#626=ORIENTED_EDGE('',*,*,#493,.T.);
#627=ORIENTED_EDGE('',*,*,#490,.T.);
#628=ORIENTED_EDGE('',*,*,#487,.T.);
#629=ORIENTED_EDGE('',*,*,#406,.T.);
#630=ORIENTED_EDGE('',*,*,#480,.T.);
#631=ORIENTED_EDGE('',*,*,#483,.T.);
#632=ORIENTED_EDGE('',*,*,#473,.T.);
#633=ORIENTED_EDGE('',*,*,#477,.T.);
#634=ORIENTED_EDGE('',*,*,#468,.T.);
#635=ORIENTED_EDGE('',*,*,#471,.T.);
#636=ORIENTED_EDGE('',*,*,#461,.T.);
#637=ORIENTED_EDGE('',*,*,#465,.T.);
#638=ORIENTED_EDGE('',*,*,#456,.T.);
#639=ORIENTED_EDGE('',*,*,#459,.T.);
#640=ORIENTED_EDGE('',*,*,#449,.T.);
#641=ORIENTED_EDGE('',*,*,#453,.T.);
#642=ORIENTED_EDGE('',*,*,#444,.T.);
#643=ORIENTED_EDGE('',*,*,#447,.T.);
#644=ORIENTED_EDGE('',*,*,#437,.T.);
#645=ORIENTED_EDGE('',*,*,#441,.T.);
#646=ORIENTED_EDGE('',*,*,#432,.T.);
#647=ORIENTED_EDGE('',*,*,#435,.T.);
#648=ORIENTED_EDGE('',*,*,#425,.T.);
#649=ORIENTED_EDGE('',*,*,#429,.T.);
#650=ORIENTED_EDGE('',*,*,#420,.T.);
#651=ORIENTED_EDGE('',*,*,#423,.T.);
#652=ORIENTED_EDGE('',*,*,#413,.T.);
#653=ORIENTED_EDGE('',*,*,#417,.T.);
#654=ORIENTED_EDGE('',*,*,#412,.T.);
#655=ORIENTED_EDGE('',*,*,#409,.T.);
#656=ORIENTED_EDGE('',*,*,#403,.T.);
#657=ORIENTED_EDGE('',*,*,#495,.F.);
#658=ORIENTED_EDGE('',*,*,#485,.F.);
#659=ORIENTED_EDGE('',*,*,#489,.F.);
#660=ORIENTED_EDGE('',*,*,#492,.F.);
#661=ORIENTED_EDGE('',*,*,#404,.T.);
#662=ORIENTED_EDGE('',*,*,#481,.T.);
#663=ORIENTED_EDGE('',*,*,#478,.T.);
#664=ORIENTED_EDGE('',*,*,#475,.T.);
#665=ORIENTED_EDGE('',*,*,#484,.T.);
#666=ORIENTED_EDGE('',*,*,#469,.T.);
#667=ORIENTED_EDGE('',*,*,#466,.T.);
#668=ORIENTED_EDGE('',*,*,#463,.T.);
#669=ORIENTED_EDGE('',*,*,#472,.T.);
#670=ORIENTED_EDGE('',*,*,#457,.T.);
#671=ORIENTED_EDGE('',*,*,#454,.T.);
#672=ORIENTED_EDGE('',*,*,#451,.T.);
#673=ORIENTED_EDGE('',*,*,#460,.T.);
#674=ORIENTED_EDGE('',*,*,#445,.T.);
#675=ORIENTED_EDGE('',*,*,#442,.T.);
#676=ORIENTED_EDGE('',*,*,#439,.T.);
#677=ORIENTED_EDGE('',*,*,#448,.T.);
#678=ORIENTED_EDGE('',*,*,#433,.T.);
#679=ORIENTED_EDGE('',*,*,#430,.T.);
#680=ORIENTED_EDGE('',*,*,#427,.T.);
#681=ORIENTED_EDGE('',*,*,#436,.T.);
#682=ORIENTED_EDGE('',*,*,#421,.T.);
#683=ORIENTED_EDGE('',*,*,#418,.T.);
#684=ORIENTED_EDGE('',*,*,#415,.T.);
#685=ORIENTED_EDGE('',*,*,#424,.T.);
#686=ORIENTED_EDGE('',*,*,#410,.T.);
#687=ORIENTED_EDGE('',*,*,#407,.T.);
#688=ORIENTED_EDGE('',*,*,#401,.T.);
#689=CYLINDRICAL_SURFACE('',#741,1.6);
#690=CYLINDRICAL_SURFACE('',#744,1.6);
#691=CYLINDRICAL_SURFACE('',#747,1.6);
#692=CYLINDRICAL_SURFACE('',#750,1.6);
#693=ADVANCED_FACE('',(#65),#689,.F.);
#694=ADVANCED_FACE('',(#66),#690,.F.);
#695=ADVANCED_FACE('',(#67),#691,.F.);
#696=ADVANCED_FACE('',(#68),#692,.F.);
#697=ADVANCED_FACE('',(#69),#35,.F.);
#698=ADVANCED_FACE('',(#70),#36,.F.);
#699=ADVANCED_FACE('',(#71),#37,.F.);
#700=ADVANCED_FACE('',(#72),#38,.F.);
#701=ADVANCED_FACE('',(#73),#39,.F.);
#702=ADVANCED_FACE('',(#74),#40,.F.);
#703=ADVANCED_FACE('',(#75),#41,.F.);
#704=ADVANCED_FACE('',(#76),#42,.F.);
#705=ADVANCED_FACE('',(#77),#43,.F.);
#706=ADVANCED_FACE('',(#78),#44,.F.);
#707=ADVANCED_FACE('',(#79),#45,.F.);
#708=ADVANCED_FACE('',(#80),#46,.F.);
#709=ADVANCED_FACE('',(#81),#47,.F.);
#710=ADVANCED_FACE('',(#82),#48,.F.);
#711=ADVANCED_FACE('',(#83),#49,.F.);
#712=ADVANCED_FACE('',(#84),#50,.F.);
#713=ADVANCED_FACE('',(#85),#51,.F.);
#714=ADVANCED_FACE('',(#86),#52,.F.);
#715=ADVANCED_FACE('',(#87),#53,.F.);
#716=ADVANCED_FACE('',(#88),#54,.F.);
#717=ADVANCED_FACE('',(#89),#55,.F.);
#718=ADVANCED_FACE('',(#90),#56,.F.);
#719=ADVANCED_FACE('',(#91),#57,.F.);
#720=ADVANCED_FACE('',(#92),#58,.F.);
#721=ADVANCED_FACE('',(#93),#59,.T.);
#722=ADVANCED_FACE('',(#94),#60,.T.);
#723=ADVANCED_FACE('',(#95),#61,.T.);
#724=ADVANCED_FACE('',(#96),#62,.T.);
#725=ADVANCED_FACE('',(#97,#15,#16,#17,#18,#19,#20,#21,#22,#23,#24),#63,
 .T.);
#726=ADVANCED_FACE('',(#98,#25,#26,#27,#28,#29,#30,#31,#32,#33,#34),#64,
 .F.);
#727=CLOSED_SHELL('',(#693,#694,#695,#696,#697,#698,#699,#700,#701,#702,
#703,#704,#705,#706,#707,#708,#709,#710,#711,#712,#713,#714,#715,#716,#717,
#718,#719,#720,#721,#722,#723,#724,#725,#726));
#728=DERIVED_UNIT_ELEMENT(#730,1.);
#729=DERIVED_UNIT_ELEMENT(#1157,-3.);
#730=(
MASS_UNIT()
NAMED_UNIT(*)
SI_UNIT(.KILO.,.GRAM.)
);
#731=DERIVED_UNIT((#728,#729));
#732=MEASURE_REPRESENTATION_ITEM('density measure',
POSITIVE_RATIO_MEASURE(7850.),#731);
#733=PROPERTY_DEFINITION_REPRESENTATION(#738,#735);
#734=PROPERTY_DEFINITION_REPRESENTATION(#739,#736);
#735=REPRESENTATION('material name',(#737),#1154);
#736=REPRESENTATION('density',(#732),#1154);
#737=DESCRIPTIVE_REPRESENTATION_ITEM('A\X\E7o','A\X\E7o');
#738=PROPERTY_DEFINITION('material property','material name',#1164);
#739=PROPERTY_DEFINITION('material property','density of part',#1164);
#740=AXIS2_PLACEMENT_3D('',#957,#783,#784);
#741=AXIS2_PLACEMENT_3D('',#958,#785,#786);
#742=AXIS2_PLACEMENT_3D('',#960,#787,#788);
#743=AXIS2_PLACEMENT_3D('',#963,#790,#791);
#744=AXIS2_PLACEMENT_3D('',#964,#792,#793);
#745=AXIS2_PLACEMENT_3D('',#966,#794,#795);
#746=AXIS2_PLACEMENT_3D('',#969,#797,#798);
#747=AXIS2_PLACEMENT_3D('',#970,#799,#800);
#748=AXIS2_PLACEMENT_3D('',#972,#801,#802);
#749=AXIS2_PLACEMENT_3D('',#975,#804,#805);
#750=AXIS2_PLACEMENT_3D('',#976,#806,#807);
#751=AXIS2_PLACEMENT_3D('',#978,#808,#809);
#752=AXIS2_PLACEMENT_3D('',#981,#811,#812);
#753=AXIS2_PLACEMENT_3D('',#982,#813,#814);
#754=AXIS2_PLACEMENT_3D('',#991,#819,#820);
#755=AXIS2_PLACEMENT_3D('',#997,#824,#825);
#756=AXIS2_PLACEMENT_3D('',#1003,#829,#830);
#757=AXIS2_PLACEMENT_3D('',#1006,#833,#834);
#758=AXIS2_PLACEMENT_3D('',#1015,#839,#840);
#759=AXIS2_PLACEMENT_3D('',#1021,#844,#845);
#760=AXIS2_PLACEMENT_3D('',#1027,#849,#850);
#761=AXIS2_PLACEMENT_3D('',#1030,#853,#854);
#762=AXIS2_PLACEMENT_3D('',#1039,#859,#860);
#763=AXIS2_PLACEMENT_3D('',#1045,#864,#865);
#764=AXIS2_PLACEMENT_3D('',#1051,#869,#870);
#765=AXIS2_PLACEMENT_3D('',#1054,#873,#874);
#766=AXIS2_PLACEMENT_3D('',#1063,#879,#880);
#767=AXIS2_PLACEMENT_3D('',#1069,#884,#885);
#768=AXIS2_PLACEMENT_3D('',#1075,#889,#890);
#769=AXIS2_PLACEMENT_3D('',#1078,#893,#894);
#770=AXIS2_PLACEMENT_3D('',#1087,#899,#900);
#771=AXIS2_PLACEMENT_3D('',#1093,#904,#905);
#772=AXIS2_PLACEMENT_3D('',#1099,#909,#910);
#773=AXIS2_PLACEMENT_3D('',#1102,#913,#914);
#774=AXIS2_PLACEMENT_3D('',#1111,#919,#920);
#775=AXIS2_PLACEMENT_3D('',#1117,#924,#925);
#776=AXIS2_PLACEMENT_3D('',#1123,#929,#930);
#777=AXIS2_PLACEMENT_3D('',#1126,#933,#934);
#778=AXIS2_PLACEMENT_3D('',#1135,#939,#940);
#779=AXIS2_PLACEMENT_3D('',#1141,#944,#945);
#780=AXIS2_PLACEMENT_3D('',#1147,#949,#950);
#781=AXIS2_PLACEMENT_3D('',#1150,#953,#954);
#782=AXIS2_PLACEMENT_3D('',#1151,#955,#956);
#783=DIRECTION('axis',(0.,0.,1.));
#784=DIRECTION('refdir',(1.,0.,0.));
#785=DIRECTION('center_axis',(0.,0.,1.));
#786=DIRECTION('ref_axis',(1.,0.,0.));
#787=DIRECTION('center_axis',(0.,0.,1.));
#788=DIRECTION('ref_axis',(1.,0.,0.));
#789=DIRECTION('',(0.,0.,1.));
#790=DIRECTION('center_axis',(0.,0.,-1.));
#791=DIRECTION('ref_axis',(1.,0.,0.));
#792=DIRECTION('center_axis',(0.,0.,1.));
#793=DIRECTION('ref_axis',(1.,0.,0.));
#794=DIRECTION('center_axis',(0.,0.,1.));
#795=DIRECTION('ref_axis',(1.,0.,0.));
#796=DIRECTION('',(0.,0.,1.));
#797=DIRECTION('center_axis',(0.,0.,-1.));
#798=DIRECTION('ref_axis',(1.,0.,0.));
#799=DIRECTION('center_axis',(0.,0.,1.));
#800=DIRECTION('ref_axis',(1.,0.,0.));
#801=DIRECTION('center_axis',(0.,0.,1.));
#802=DIRECTION('ref_axis',(1.,0.,0.));
#803=DIRECTION('',(0.,0.,1.));
#804=DIRECTION('center_axis',(0.,0.,-1.));
#805=DIRECTION('ref_axis',(1.,0.,0.));
#806=DIRECTION('center_axis',(0.,0.,1.));
#807=DIRECTION('ref_axis',(1.,0.,0.));
#808=DIRECTION('center_axis',(0.,0.,1.));
#809=DIRECTION('ref_axis',(1.,0.,0.));
#810=DIRECTION('',(0.,0.,1.));
#811=DIRECTION('center_axis',(0.,0.,-1.));
#812=DIRECTION('ref_axis',(1.,0.,0.));
#813=DIRECTION('center_axis',(0.,-1.,0.));
#814=DIRECTION('ref_axis',(1.,0.,0.));
#815=DIRECTION('',(-1.,0.,0.));
#816=DIRECTION('',(0.,0.,1.));
#817=DIRECTION('',(1.,0.,0.));
#818=DIRECTION('',(0.,0.,1.));
#819=DIRECTION('center_axis',(-1.,0.,0.));
#820=DIRECTION('ref_axis',(0.,-1.,0.));
#821=DIRECTION('',(0.,1.,0.));
#822=DIRECTION('',(0.,-1.,0.));
#823=DIRECTION('',(0.,0.,1.));
#824=DIRECTION('center_axis',(0.,1.,0.));
#825=DIRECTION('ref_axis',(-1.,0.,0.));
#826=DIRECTION('',(1.,0.,0.));
#827=DIRECTION('',(-1.,0.,0.));
#828=DIRECTION('',(0.,0.,1.));
#829=DIRECTION('center_axis',(1.,0.,0.));
#830=DIRECTION('ref_axis',(0.,1.,0.));
#831=DIRECTION('',(0.,-1.,0.));
#832=DIRECTION('',(0.,1.,0.));
#833=DIRECTION('center_axis',(0.,-1.,0.));
#834=DIRECTION('ref_axis',(1.,0.,0.));
#835=DIRECTION('',(-1.,0.,0.));
#836=DIRECTION('',(0.,0.,1.));
#837=DIRECTION('',(1.,0.,0.));
#838=DIRECTION('',(0.,0.,1.));
#839=DIRECTION('center_axis',(-1.,0.,0.));
#840=DIRECTION('ref_axis',(0.,-1.,0.));
#841=DIRECTION('',(0.,1.,0.));
#842=DIRECTION('',(0.,-1.,0.));
#843=DIRECTION('',(0.,0.,1.));
#844=DIRECTION('center_axis',(0.,1.,0.));
#845=DIRECTION('ref_axis',(-1.,0.,0.));
#846=DIRECTION('',(1.,0.,0.));
#847=DIRECTION('',(-1.,0.,0.));
#848=DIRECTION('',(0.,0.,1.));
#849=DIRECTION('center_axis',(1.,0.,0.));
#850=DIRECTION('ref_axis',(0.,1.,0.));
#851=DIRECTION('',(0.,-1.,0.));
#852=DIRECTION('',(0.,1.,0.));
#853=DIRECTION('center_axis',(0.,-1.,0.));
#854=DIRECTION('ref_axis',(1.,0.,0.));
#855=DIRECTION('',(-1.,0.,0.));
#856=DIRECTION('',(0.,0.,1.));
#857=DIRECTION('',(1.,0.,0.));
#858=DIRECTION('',(0.,0.,1.));
#859=DIRECTION('center_axis',(-1.,0.,0.));
#860=DIRECTION('ref_axis',(0.,-1.,0.));
#861=DIRECTION('',(0.,1.,0.));
#862=DIRECTION('',(0.,-1.,0.));
#863=DIRECTION('',(0.,0.,1.));
#864=DIRECTION('center_axis',(0.,1.,0.));
#865=DIRECTION('ref_axis',(-1.,0.,0.));
#866=DIRECTION('',(1.,0.,0.));
#867=DIRECTION('',(-1.,0.,0.));
#868=DIRECTION('',(0.,0.,1.));
#869=DIRECTION('center_axis',(1.,0.,0.));
#870=DIRECTION('ref_axis',(0.,1.,0.));
#871=DIRECTION('',(0.,-1.,0.));
#872=DIRECTION('',(0.,1.,0.));
#873=DIRECTION('center_axis',(0.,-1.,0.));
#874=DIRECTION('ref_axis',(1.,0.,0.));
#875=DIRECTION('',(-1.,0.,0.));
#876=DIRECTION('',(0.,0.,1.));
#877=DIRECTION('',(1.,0.,0.));
#878=DIRECTION('',(0.,0.,1.));
#879=DIRECTION('center_axis',(-1.,0.,0.));
#880=DIRECTION('ref_axis',(0.,-1.,0.));
#881=DIRECTION('',(0.,1.,0.));
#882=DIRECTION('',(0.,-1.,0.));
#883=DIRECTION('',(0.,0.,1.));
#884=DIRECTION('center_axis',(-2.04085114820801E-18,1.,0.));
#885=DIRECTION('ref_axis',(-1.,-2.04085114820801E-18,0.));
#886=DIRECTION('',(1.,2.04085114820801E-18,0.));
#887=DIRECTION('',(-1.,-2.04085114820801E-18,0.));
#888=DIRECTION('',(0.,0.,1.));
#889=DIRECTION('center_axis',(1.,0.,0.));
#890=DIRECTION('ref_axis',(0.,1.,0.));
#891=DIRECTION('',(0.,-1.,0.));
#892=DIRECTION('',(0.,1.,0.));
#893=DIRECTION('center_axis',(0.,-1.,0.));
#894=DIRECTION('ref_axis',(1.,0.,0.));
#895=DIRECTION('',(-1.,0.,0.));
#896=DIRECTION('',(0.,0.,1.));
#897=DIRECTION('',(1.,0.,0.));
#898=DIRECTION('',(0.,0.,1.));
#899=DIRECTION('center_axis',(-1.,0.,0.));
#900=DIRECTION('ref_axis',(0.,-1.,0.));
#901=DIRECTION('',(0.,1.,0.));
#902=DIRECTION('',(0.,-1.,0.));
#903=DIRECTION('',(0.,0.,1.));
#904=DIRECTION('center_axis',(0.,1.,0.));
#905=DIRECTION('ref_axis',(-1.,0.,0.));
#906=DIRECTION('',(1.,0.,0.));
#907=DIRECTION('',(-1.,0.,0.));
#908=DIRECTION('',(0.,0.,1.));
#909=DIRECTION('center_axis',(1.,0.,0.));
#910=DIRECTION('ref_axis',(0.,1.,0.));
#911=DIRECTION('',(0.,-1.,0.));
#912=DIRECTION('',(0.,1.,0.));
#913=DIRECTION('center_axis',(0.,-1.,0.));
#914=DIRECTION('ref_axis',(1.,0.,0.));
#915=DIRECTION('',(-1.,0.,0.));
#916=DIRECTION('',(0.,0.,1.));
#917=DIRECTION('',(1.,0.,0.));
#918=DIRECTION('',(0.,0.,1.));
#919=DIRECTION('center_axis',(-1.,0.,0.));
#920=DIRECTION('ref_axis',(0.,-1.,0.));
#921=DIRECTION('',(0.,1.,0.));
#922=DIRECTION('',(0.,-1.,0.));
#923=DIRECTION('',(0.,0.,1.));
#924=DIRECTION('center_axis',(0.,1.,0.));
#925=DIRECTION('ref_axis',(-1.,0.,0.));
#926=DIRECTION('',(1.,0.,0.));
#927=DIRECTION('',(-1.,0.,0.));
#928=DIRECTION('',(0.,0.,1.));
#929=DIRECTION('center_axis',(1.,0.,0.));
#930=DIRECTION('ref_axis',(0.,1.,0.));
#931=DIRECTION('',(0.,-1.,0.));
#932=DIRECTION('',(0.,1.,0.));
#933=DIRECTION('center_axis',(0.,1.,0.));
#934=DIRECTION('ref_axis',(-1.,0.,0.));
#935=DIRECTION('',(-1.,0.,0.));
#936=DIRECTION('',(0.,0.,1.));
#937=DIRECTION('',(-1.,0.,0.));
#938=DIRECTION('',(0.,0.,1.));
#939=DIRECTION('center_axis',(1.,0.,0.));
#940=DIRECTION('ref_axis',(0.,1.,0.));
#941=DIRECTION('',(0.,1.,0.));
#942=DIRECTION('',(0.,1.,0.));
#943=DIRECTION('',(0.,0.,1.));
#944=DIRECTION('center_axis',(0.,-1.,0.));
#945=DIRECTION('ref_axis',(1.,0.,0.));
#946=DIRECTION('',(1.,0.,0.));
#947=DIRECTION('',(1.,0.,0.));
#948=DIRECTION('',(0.,0.,1.));
#949=DIRECTION('center_axis',(-1.,0.,0.));
#950=DIRECTION('ref_axis',(0.,-1.,0.));
#951=DIRECTION('',(0.,-1.,0.));
#952=DIRECTION('',(0.,-1.,0.));
#953=DIRECTION('center_axis',(0.,0.,1.));
#954=DIRECTION('ref_axis',(1.,0.,0.));
#955=DIRECTION('center_axis',(0.,0.,1.));
#956=DIRECTION('ref_axis',(1.,0.,0.));
#957=CARTESIAN_POINT('',(0.,0.,0.));
#958=CARTESIAN_POINT('Origin',(39.,12.,0.));
#959=CARTESIAN_POINT('',(37.4,12.,0.));
#960=CARTESIAN_POINT('Origin',(39.,12.,0.));
#961=CARTESIAN_POINT('',(37.4,12.,2.5));
#962=CARTESIAN_POINT('',(37.4,12.,0.));
#963=CARTESIAN_POINT('Origin',(39.,12.,2.5));
#964=CARTESIAN_POINT('Origin',(39.,-12.,0.));
#965=CARTESIAN_POINT('',(37.4,-12.,0.));
#966=CARTESIAN_POINT('Origin',(39.,-12.,0.));
#967=CARTESIAN_POINT('',(37.4,-12.,2.5));
#968=CARTESIAN_POINT('',(37.4,-12.,0.));
#969=CARTESIAN_POINT('Origin',(39.,-12.,2.5));
#970=CARTESIAN_POINT('Origin',(-39.,12.,0.));
#971=CARTESIAN_POINT('',(-40.6,12.,0.));
#972=CARTESIAN_POINT('Origin',(-39.,12.,0.));
#973=CARTESIAN_POINT('',(-40.6,12.,2.5));
#974=CARTESIAN_POINT('',(-40.6,12.,0.));
#975=CARTESIAN_POINT('Origin',(-39.,12.,2.5));
#976=CARTESIAN_POINT('Origin',(-39.,-12.,0.));
#977=CARTESIAN_POINT('',(-40.6,-12.,0.));
#978=CARTESIAN_POINT('Origin',(-39.,-12.,0.));
#979=CARTESIAN_POINT('',(-40.6,-12.,2.5));
#980=CARTESIAN_POINT('',(-40.6,-12.,0.));
#981=CARTESIAN_POINT('Origin',(-39.,-12.,2.5));
#982=CARTESIAN_POINT('Origin',(-34.,10.75,0.));
#983=CARTESIAN_POINT('',(34.,10.75,2.5));
#984=CARTESIAN_POINT('',(-34.,10.75,2.5));
#985=CARTESIAN_POINT('',(-17.,10.75,2.5));
#986=CARTESIAN_POINT('',(34.,10.75,0.));
#987=CARTESIAN_POINT('',(34.,10.75,0.));
#988=CARTESIAN_POINT('',(-34.,10.75,0.));
#989=CARTESIAN_POINT('',(-17.,10.75,0.));
#990=CARTESIAN_POINT('',(-34.,10.75,0.));
#991=CARTESIAN_POINT('Origin',(-34.,14.25,0.));
#992=CARTESIAN_POINT('',(-34.,14.25,2.5));
#993=CARTESIAN_POINT('',(-34.,7.125,2.5));
#994=CARTESIAN_POINT('',(-34.,14.25,0.));
#995=CARTESIAN_POINT('',(-34.,7.125,0.));
#996=CARTESIAN_POINT('',(-34.,14.25,0.));
#997=CARTESIAN_POINT('Origin',(34.,14.25,0.));
#998=CARTESIAN_POINT('',(34.,14.25,2.5));
#999=CARTESIAN_POINT('',(17.,14.25,2.5));
#1000=CARTESIAN_POINT('',(34.,14.25,0.));
#1001=CARTESIAN_POINT('',(17.,14.25,0.));
#1002=CARTESIAN_POINT('',(34.,14.25,0.));
#1003=CARTESIAN_POINT('Origin',(34.,10.75,0.));
#1004=CARTESIAN_POINT('',(34.,5.375,2.5));
#1005=CARTESIAN_POINT('',(34.,5.375,0.));
#1006=CARTESIAN_POINT('Origin',(-34.,5.75,0.));
#1007=CARTESIAN_POINT('',(34.,5.75,2.5));
#1008=CARTESIAN_POINT('',(-34.,5.75,2.5));
#1009=CARTESIAN_POINT('',(-17.,5.75,2.5));
#1010=CARTESIAN_POINT('',(34.,5.75,0.));
#1011=CARTESIAN_POINT('',(34.,5.75,0.));
#1012=CARTESIAN_POINT('',(-34.,5.75,0.));
#1013=CARTESIAN_POINT('',(-17.,5.75,0.));
#1014=CARTESIAN_POINT('',(-34.,5.75,0.));
#1015=CARTESIAN_POINT('Origin',(-34.,9.25,0.));
#1016=CARTESIAN_POINT('',(-34.,9.25,2.5));
#1017=CARTESIAN_POINT('',(-34.,4.625,2.5));
#1018=CARTESIAN_POINT('',(-34.,9.25,0.));
#1019=CARTESIAN_POINT('',(-34.,4.625,0.));
#1020=CARTESIAN_POINT('',(-34.,9.25,0.));
#1021=CARTESIAN_POINT('Origin',(34.,9.25,0.));
#1022=CARTESIAN_POINT('',(34.,9.25,2.5));
#1023=CARTESIAN_POINT('',(17.,9.25,2.5));
#1024=CARTESIAN_POINT('',(34.,9.25,0.));
#1025=CARTESIAN_POINT('',(17.,9.25,0.));
#1026=CARTESIAN_POINT('',(34.,9.25,0.));
#1027=CARTESIAN_POINT('Origin',(34.,5.75,0.));
#1028=CARTESIAN_POINT('',(34.,2.875,2.5));
#1029=CARTESIAN_POINT('',(34.,2.875,0.));
#1030=CARTESIAN_POINT('Origin',(-34.,0.75,0.));
#1031=CARTESIAN_POINT('',(34.,0.75,2.5));
#1032=CARTESIAN_POINT('',(-34.,0.75,2.5));
#1033=CARTESIAN_POINT('',(-17.,0.75,2.5));
#1034=CARTESIAN_POINT('',(34.,0.75,0.));
#1035=CARTESIAN_POINT('',(34.,0.75,0.));
#1036=CARTESIAN_POINT('',(-34.,0.75,0.));
#1037=CARTESIAN_POINT('',(-17.,0.75,0.));
#1038=CARTESIAN_POINT('',(-34.,0.75,0.));
#1039=CARTESIAN_POINT('Origin',(-34.,4.25,0.));
#1040=CARTESIAN_POINT('',(-34.,4.25,2.5));
#1041=CARTESIAN_POINT('',(-34.,2.125,2.5));
#1042=CARTESIAN_POINT('',(-34.,4.25,0.));
#1043=CARTESIAN_POINT('',(-34.,2.125,0.));
#1044=CARTESIAN_POINT('',(-34.,4.25,0.));
#1045=CARTESIAN_POINT('Origin',(34.,4.25,0.));
#1046=CARTESIAN_POINT('',(34.,4.25,2.5));
#1047=CARTESIAN_POINT('',(17.,4.25,2.5));
#1048=CARTESIAN_POINT('',(34.,4.25,0.));
#1049=CARTESIAN_POINT('',(17.,4.25,0.));
#1050=CARTESIAN_POINT('',(34.,4.25,0.));
#1051=CARTESIAN_POINT('Origin',(34.,0.75,0.));
#1052=CARTESIAN_POINT('',(34.,0.375,2.5));
#1053=CARTESIAN_POINT('',(34.,0.375,0.));
#1054=CARTESIAN_POINT('Origin',(-34.,-4.25,0.));
#1055=CARTESIAN_POINT('',(34.,-4.25,2.5));
#1056=CARTESIAN_POINT('',(-34.,-4.25,2.5));
#1057=CARTESIAN_POINT('',(-17.,-4.25,2.5));
#1058=CARTESIAN_POINT('',(34.,-4.25,0.));
#1059=CARTESIAN_POINT('',(34.,-4.25,0.));
#1060=CARTESIAN_POINT('',(-34.,-4.25,0.));
#1061=CARTESIAN_POINT('',(-17.,-4.25,0.));
#1062=CARTESIAN_POINT('',(-34.,-4.25,0.));
#1063=CARTESIAN_POINT('Origin',(-34.,-0.75,0.));
#1064=CARTESIAN_POINT('',(-34.,-0.75,2.5));
#1065=CARTESIAN_POINT('',(-34.,-0.375,2.5));
#1066=CARTESIAN_POINT('',(-34.,-0.75,0.));
#1067=CARTESIAN_POINT('',(-34.,-0.375,0.));
#1068=CARTESIAN_POINT('',(-34.,-0.75,0.));
#1069=CARTESIAN_POINT('Origin',(34.,-0.75,0.));
#1070=CARTESIAN_POINT('',(34.,-0.75,2.5));
#1071=CARTESIAN_POINT('',(17.,-0.75,2.5));
#1072=CARTESIAN_POINT('',(34.,-0.75,0.));
#1073=CARTESIAN_POINT('',(17.,-0.75,0.));
#1074=CARTESIAN_POINT('',(34.,-0.75,0.));
#1075=CARTESIAN_POINT('Origin',(34.,-4.25,0.));
#1076=CARTESIAN_POINT('',(34.,-2.125,2.5));
#1077=CARTESIAN_POINT('',(34.,-2.125,0.));
#1078=CARTESIAN_POINT('Origin',(-34.,-9.25,0.));
#1079=CARTESIAN_POINT('',(34.,-9.25,2.5));
#1080=CARTESIAN_POINT('',(-34.,-9.25,2.5));
#1081=CARTESIAN_POINT('',(-17.,-9.25,2.5));
#1082=CARTESIAN_POINT('',(34.,-9.25,0.));
#1083=CARTESIAN_POINT('',(34.,-9.25,0.));
#1084=CARTESIAN_POINT('',(-34.,-9.25,0.));
#1085=CARTESIAN_POINT('',(-17.,-9.25,0.));
#1086=CARTESIAN_POINT('',(-34.,-9.25,0.));
#1087=CARTESIAN_POINT('Origin',(-34.,-5.75,0.));
#1088=CARTESIAN_POINT('',(-34.,-5.75,2.5));
#1089=CARTESIAN_POINT('',(-34.,-2.875,2.5));
#1090=CARTESIAN_POINT('',(-34.,-5.75,0.));
#1091=CARTESIAN_POINT('',(-34.,-2.875,0.));
#1092=CARTESIAN_POINT('',(-34.,-5.75,0.));
#1093=CARTESIAN_POINT('Origin',(34.,-5.75,0.));
#1094=CARTESIAN_POINT('',(34.,-5.75,2.5));
#1095=CARTESIAN_POINT('',(17.,-5.75,2.5));
#1096=CARTESIAN_POINT('',(34.,-5.75,0.));
#1097=CARTESIAN_POINT('',(17.,-5.75,0.));
#1098=CARTESIAN_POINT('',(34.,-5.75,0.));
#1099=CARTESIAN_POINT('Origin',(34.,-9.25,0.));
#1100=CARTESIAN_POINT('',(34.,-4.625,2.5));
#1101=CARTESIAN_POINT('',(34.,-4.625,0.));
#1102=CARTESIAN_POINT('Origin',(-34.,-14.25,0.));
#1103=CARTESIAN_POINT('',(34.,-14.25,2.5));
#1104=CARTESIAN_POINT('',(-34.,-14.25,2.5));
#1105=CARTESIAN_POINT('',(-17.,-14.25,2.5));
#1106=CARTESIAN_POINT('',(34.,-14.25,0.));
#1107=CARTESIAN_POINT('',(34.,-14.25,0.));
#1108=CARTESIAN_POINT('',(-34.,-14.25,0.));
#1109=CARTESIAN_POINT('',(-17.,-14.25,0.));
#1110=CARTESIAN_POINT('',(-34.,-14.25,0.));
#1111=CARTESIAN_POINT('Origin',(-34.,-10.75,0.));
#1112=CARTESIAN_POINT('',(-34.,-10.75,2.5));
#1113=CARTESIAN_POINT('',(-34.,-5.375,2.5));
#1114=CARTESIAN_POINT('',(-34.,-10.75,0.));
#1115=CARTESIAN_POINT('',(-34.,-5.375,0.));
#1116=CARTESIAN_POINT('',(-34.,-10.75,0.));
#1117=CARTESIAN_POINT('Origin',(34.,-10.75,0.));
#1118=CARTESIAN_POINT('',(34.,-10.75,2.5));
#1119=CARTESIAN_POINT('',(17.,-10.75,2.5));
#1120=CARTESIAN_POINT('',(34.,-10.75,0.));
#1121=CARTESIAN_POINT('',(17.,-10.75,0.));
#1122=CARTESIAN_POINT('',(34.,-10.75,0.));
#1123=CARTESIAN_POINT('Origin',(34.,-14.25,0.));
#1124=CARTESIAN_POINT('',(34.,-7.125,2.5));
#1125=CARTESIAN_POINT('',(34.,-7.125,0.));
#1126=CARTESIAN_POINT('Origin',(45.,18.,0.));
#1127=CARTESIAN_POINT('',(45.,18.,0.));
#1128=CARTESIAN_POINT('',(-45.,18.,0.));
#1129=CARTESIAN_POINT('',(45.,18.,0.));
#1130=CARTESIAN_POINT('',(-45.,18.,2.5));
#1131=CARTESIAN_POINT('',(-45.,18.,0.));
#1132=CARTESIAN_POINT('',(45.,18.,2.5));
#1133=CARTESIAN_POINT('',(45.,18.,2.5));
#1134=CARTESIAN_POINT('',(45.,18.,0.));
#1135=CARTESIAN_POINT('Origin',(45.,-18.,0.));
#1136=CARTESIAN_POINT('',(45.,-18.,0.));
#1137=CARTESIAN_POINT('',(45.,-18.,0.));
#1138=CARTESIAN_POINT('',(45.,-18.,2.5));
#1139=CARTESIAN_POINT('',(45.,-18.,2.5));
#1140=CARTESIAN_POINT('',(45.,-18.,0.));
#1141=CARTESIAN_POINT('Origin',(-45.,-18.,0.));
#1142=CARTESIAN_POINT('',(-45.,-18.,0.));
#1143=CARTESIAN_POINT('',(-45.,-18.,0.));
#1144=CARTESIAN_POINT('',(-45.,-18.,2.5));
#1145=CARTESIAN_POINT('',(-45.,-18.,2.5));
#1146=CARTESIAN_POINT('',(-45.,-18.,0.));
#1147=CARTESIAN_POINT('Origin',(-45.,18.,0.));
#1148=CARTESIAN_POINT('',(-45.,18.,0.));
#1149=CARTESIAN_POINT('',(-45.,18.,2.5));
#1150=CARTESIAN_POINT('Origin',(0.,0.,2.5));
#1151=CARTESIAN_POINT('Origin',(0.,0.,0.));
#1152=UNCERTAINTY_MEASURE_WITH_UNIT(LENGTH_MEASURE(0.01),#1156,
'DISTANCE_ACCURACY_VALUE',
'Maximum model space distance between geometric entities at asserted c
onnectivities');
#1153=UNCERTAINTY_MEASURE_WITH_UNIT(LENGTH_MEASURE(0.01),#1156,
'DISTANCE_ACCURACY_VALUE',
'Maximum model space distance between geometric entities at asserted c
onnectivities');
#1154=(
GEOMETRIC_REPRESENTATION_CONTEXT(3)
GLOBAL_UNCERTAINTY_ASSIGNED_CONTEXT((#1152))
GLOBAL_UNIT_ASSIGNED_CONTEXT((#1156,#1158,#1159))
REPRESENTATION_CONTEXT('','3D')
);
#1155=(
GEOMETRIC_REPRESENTATION_CONTEXT(3)
GLOBAL_UNCERTAINTY_ASSIGNED_CONTEXT((#1153))
GLOBAL_UNIT_ASSIGNED_CONTEXT((#1156,#1158,#1159))
REPRESENTATION_CONTEXT('','3D')
);
#1156=(
LENGTH_UNIT()
NAMED_UNIT(*)
SI_UNIT(.MILLI.,.METRE.)
);
#1157=(
LENGTH_UNIT()
NAMED_UNIT(*)
SI_UNIT($,.METRE.)
);
#1158=(
NAMED_UNIT(*)
PLANE_ANGLE_UNIT()
SI_UNIT($,.RADIAN.)
);
#1159=(
NAMED_UNIT(*)
SI_UNIT($,.STERADIAN.)
SOLID_ANGLE_UNIT()
);
#1160=SHAPE_DEFINITION_REPRESENTATION(#1161,#1162);
#1161=PRODUCT_DEFINITION_SHAPE('',$,#1164);
#1162=SHAPE_REPRESENTATION('',(#740),#1154);
#1163=PRODUCT_DEFINITION_CONTEXT('part definition',#1168,'design');
#1164=PRODUCT_DEFINITION('SmartMeter_VentilationGrille',
'SmartMeter_VentilationGrille',#1165,#1163);
#1165=PRODUCT_DEFINITION_FORMATION('',$,#1170);
#1166=PRODUCT_RELATED_PRODUCT_CATEGORY('SmartMeter_VentilationGrille',
'SmartMeter_VentilationGrille',(#1170));
#1167=APPLICATION_PROTOCOL_DEFINITION('international standard',
'automotive_design',2009,#1168);
#1168=APPLICATION_CONTEXT(
'Core Data for Automotive Mechanical Design Process');
#1169=PRODUCT_CONTEXT('part definition',#1168,'mechanical');
#1170=PRODUCT('SmartMeter_VentilationGrille',
'SmartMeter_VentilationGrille',$,(#1169));
#1171=PRESENTATION_STYLE_ASSIGNMENT((#1172));
#1172=SURFACE_STYLE_USAGE(.BOTH.,#1173);
#1173=SURFACE_SIDE_STYLE('',(#1174));
#1174=SURFACE_STYLE_FILL_AREA(#1175);
#1175=FILL_AREA_STYLE('A\X\E7o - Acetinado',(#1176));
#1176=FILL_AREA_STYLE_COLOUR('A\X\E7o - Acetinado',#1177);
#1177=COLOUR_RGB('A\X\E7o - Acetinado',0.627450980392157,0.627450980392157,
0.627450980392157);
ENDSEC;
END-ISO-10303-21;
