ISO-10303-21;
HEADER;
/* Generated by software containing ST-Developer
 * from STEP Tools, Inc. (www.steptools.com) 
 */

FILE_DESCRIPTION(
/* description */ (''),
/* implementation_level */ '2;1');

FILE_NAME(
/* name */ 'SmartMeter_DesktopFeet.step',
/* time_stamp */ '2026-10-03T17:39:32-03:00',
/* author */ (''),
/* organization */ (''),
/* preprocessor_version */ 'ST-DEVELOPER v20.1',
/* originating_system */ 'Autodesk Translation Framework v15.8.0.0',
/* authorisation */ '');

FILE_SCHEMA (('AUTOMOTIVE_DESIGN { 1 0 10303 214 3 1 1 }'));
ENDSEC;

DATA;
#10=MECHANICAL_DESIGN_GEOMETRIC_PRESENTATION_REPRESENTATION('',(#13,#14),
#490);
#11=SHAPE_REPRESENTATION_RELATIONSHIP('SRR','None',#497,#12);
#12=ADVANCED_BREP_SHAPE_REPRESENTATION('',(#15,#16),#489);
#13=STYLED_ITEM('',(#506),#15);
#14=STYLED_ITEM('',(#506),#16);
#15=MANIFOLD_SOLID_BREP('Corpo1',#293);
#16=MANIFOLD_SOLID_BREP('Corpo2',#294);
#17=FACE_BOUND('',#60,.T.);
#18=FACE_BOUND('',#61,.T.);
#19=FACE_BOUND('',#63,.T.);
#20=FACE_BOUND('',#64,.T.);
#21=FACE_BOUND('',#72,.T.);
#22=FACE_BOUND('',#73,.T.);
#23=FACE_BOUND('',#75,.T.);
#24=FACE_BOUND('',#76,.T.);
#25=PLANE('',#314);
#26=PLANE('',#315);
#27=PLANE('',#316);
#28=PLANE('',#317);
#29=PLANE('',#318);
#30=PLANE('',#319);
#31=PLANE('',#326);
#32=PLANE('',#327);
#33=PLANE('',#328);
#34=PLANE('',#329);
#35=PLANE('',#330);
#36=PLANE('',#331);
#37=FACE_OUTER_BOUND('',#53,.T.);
#38=FACE_OUTER_BOUND('',#54,.T.);
#39=FACE_OUTER_BOUND('',#55,.T.);
#40=FACE_OUTER_BOUND('',#56,.T.);
#41=FACE_OUTER_BOUND('',#57,.T.);
#42=FACE_OUTER_BOUND('',#58,.T.);
#43=FACE_OUTER_BOUND('',#59,.T.);
#44=FACE_OUTER_BOUND('',#62,.T.);
#45=FACE_OUTER_BOUND('',#65,.T.);
#46=FACE_OUTER_BOUND('',#66,.T.);
#47=FACE_OUTER_BOUND('',#67,.T.);
#48=FACE_OUTER_BOUND('',#68,.T.);
#49=FACE_OUTER_BOUND('',#69,.T.);
#50=FACE_OUTER_BOUND('',#70,.T.);
#51=FACE_OUTER_BOUND('',#71,.T.);
#52=FACE_OUTER_BOUND('',#74,.T.);
#53=EDGE_LOOP('',(#201,#202,#203,#204));
#54=EDGE_LOOP('',(#205,#206,#207,#208));
#55=EDGE_LOOP('',(#209,#210,#211,#212));
#56=EDGE_LOOP('',(#213,#214,#215,#216));
#57=EDGE_LOOP('',(#217,#218,#219,#220));
#58=EDGE_LOOP('',(#221,#222,#223,#224));
#59=EDGE_LOOP('',(#225,#226,#227,#228));
#60=EDGE_LOOP('',(#229));
#61=EDGE_LOOP('',(#230));
#62=EDGE_LOOP('',(#231,#232,#233,#234));
#63=EDGE_LOOP('',(#235));
#64=EDGE_LOOP('',(#236));
#65=EDGE_LOOP('',(#237,#238,#239,#240));
#66=EDGE_LOOP('',(#241,#242,#243,#244));
#67=EDGE_LOOP('',(#245,#246,#247,#248));
#68=EDGE_LOOP('',(#249,#250,#251,#252));
#69=EDGE_LOOP('',(#253,#254,#255,#256));
#70=EDGE_LOOP('',(#257,#258,#259,#260));
#71=EDGE_LOOP('',(#261,#262,#263,#264));
#72=EDGE_LOOP('',(#265));
#73=EDGE_LOOP('',(#266));
#74=EDGE_LOOP('',(#267,#268,#269,#270));
#75=EDGE_LOOP('',(#271));
#76=EDGE_LOOP('',(#272));
#77=LINE('',#415,#105);
#78=LINE('',#421,#106);
#79=LINE('',#426,#107);
#80=LINE('',#428,#108);
#81=LINE('',#430,#109);
#82=LINE('',#431,#110);
#83=LINE('',#434,#111);
#84=LINE('',#436,#112);
#85=LINE('',#437,#113);
#86=LINE('',#440,#114);
#87=LINE('',#442,#115);
#88=LINE('',#443,#116);
#89=LINE('',#445,#117);
#90=LINE('',#446,#118);
#91=LINE('',#453,#119);
#92=LINE('',#459,#120);
#93=LINE('',#464,#121);
#94=LINE('',#466,#122);
#95=LINE('',#468,#123);
#96=LINE('',#469,#124);
#97=LINE('',#472,#125);
#98=LINE('',#474,#126);
#99=LINE('',#475,#127);
#100=LINE('',#478,#128);
#101=LINE('',#480,#129);
#102=LINE('',#481,#130);
#103=LINE('',#483,#131);
#104=LINE('',#484,#132);
#105=VECTOR('',#338,1.6);
#106=VECTOR('',#345,1.6);
#107=VECTOR('',#350,10.);
#108=VECTOR('',#351,10.);
#109=VECTOR('',#352,10.);
#110=VECTOR('',#353,10.);
#111=VECTOR('',#356,10.);
#112=VECTOR('',#357,10.);
#113=VECTOR('',#358,10.);
#114=VECTOR('',#361,10.);
#115=VECTOR('',#362,10.);
#116=VECTOR('',#363,10.);
#117=VECTOR('',#366,10.);
#118=VECTOR('',#367,10.);
#119=VECTOR('',#376,1.6);
#120=VECTOR('',#383,1.6);
#121=VECTOR('',#388,10.);
#122=VECTOR('',#389,10.);
#123=VECTOR('',#390,10.);
#124=VECTOR('',#391,10.);
#125=VECTOR('',#394,10.);
#126=VECTOR('',#395,10.);
#127=VECTOR('',#396,10.);
#128=VECTOR('',#399,10.);
#129=VECTOR('',#400,10.);
#130=VECTOR('',#401,10.);
#131=VECTOR('',#404,10.);
#132=VECTOR('',#405,10.);
#133=CIRCLE('',#309,1.6);
#134=CIRCLE('',#310,1.6);
#135=CIRCLE('',#312,1.6);
#136=CIRCLE('',#313,1.6);
#137=CIRCLE('',#321,1.6);
#138=CIRCLE('',#322,1.6);
#139=CIRCLE('',#324,1.6);
#140=CIRCLE('',#325,1.6);
#141=VERTEX_POINT('',#412);
#142=VERTEX_POINT('',#414);
#143=VERTEX_POINT('',#418);
#144=VERTEX_POINT('',#420);
#145=VERTEX_POINT('',#424);
#146=VERTEX_POINT('',#425);
#147=VERTEX_POINT('',#427);
#148=VERTEX_POINT('',#429);
#149=VERTEX_POINT('',#433);
#150=VERTEX_POINT('',#435);
#151=VERTEX_POINT('',#439);
#152=VERTEX_POINT('',#441);
#153=VERTEX_POINT('',#450);
#154=VERTEX_POINT('',#452);
#155=VERTEX_POINT('',#456);
#156=VERTEX_POINT('',#458);
#157=VERTEX_POINT('',#462);
#158=VERTEX_POINT('',#463);
#159=VERTEX_POINT('',#465);
#160=VERTEX_POINT('',#467);
#161=VERTEX_POINT('',#471);
#162=VERTEX_POINT('',#473);
#163=VERTEX_POINT('',#477);
#164=VERTEX_POINT('',#479);
#165=EDGE_CURVE('',#141,#141,#133,.T.);
#166=EDGE_CURVE('',#141,#142,#77,.T.);
#167=EDGE_CURVE('',#142,#142,#134,.T.);
#168=EDGE_CURVE('',#143,#143,#135,.T.);
#169=EDGE_CURVE('',#143,#144,#78,.T.);
#170=EDGE_CURVE('',#144,#144,#136,.T.);
#171=EDGE_CURVE('',#145,#146,#79,.T.);
#172=EDGE_CURVE('',#146,#147,#80,.T.);
#173=EDGE_CURVE('',#148,#147,#81,.T.);
#174=EDGE_CURVE('',#145,#148,#82,.T.);
#175=EDGE_CURVE('',#149,#145,#83,.T.);
#176=EDGE_CURVE('',#150,#148,#84,.T.);
#177=EDGE_CURVE('',#149,#150,#85,.T.);
#178=EDGE_CURVE('',#151,#149,#86,.T.);
#179=EDGE_CURVE('',#152,#150,#87,.T.);
#180=EDGE_CURVE('',#151,#152,#88,.T.);
#181=EDGE_CURVE('',#146,#151,#89,.T.);
#182=EDGE_CURVE('',#147,#152,#90,.T.);
#183=EDGE_CURVE('',#153,#153,#137,.T.);
#184=EDGE_CURVE('',#153,#154,#91,.T.);
#185=EDGE_CURVE('',#154,#154,#138,.T.);
#186=EDGE_CURVE('',#155,#155,#139,.T.);
#187=EDGE_CURVE('',#155,#156,#92,.T.);
#188=EDGE_CURVE('',#156,#156,#140,.T.);
#189=EDGE_CURVE('',#157,#158,#93,.T.);
#190=EDGE_CURVE('',#158,#159,#94,.T.);
#191=EDGE_CURVE('',#160,#159,#95,.T.);
#192=EDGE_CURVE('',#157,#160,#96,.T.);
#193=EDGE_CURVE('',#161,#157,#97,.T.);
#194=EDGE_CURVE('',#162,#160,#98,.T.);
#195=EDGE_CURVE('',#161,#162,#99,.T.);
#196=EDGE_CURVE('',#163,#161,#100,.T.);
#197=EDGE_CURVE('',#164,#162,#101,.T.);
#198=EDGE_CURVE('',#163,#164,#102,.T.);
#199=EDGE_CURVE('',#158,#163,#103,.T.);
#200=EDGE_CURVE('',#159,#164,#104,.T.);
#201=ORIENTED_EDGE('',*,*,#165,.F.);
#202=ORIENTED_EDGE('',*,*,#166,.T.);
#203=ORIENTED_EDGE('',*,*,#167,.F.);
#204=ORIENTED_EDGE('',*,*,#166,.F.);
#205=ORIENTED_EDGE('',*,*,#168,.F.);
#206=ORIENTED_EDGE('',*,*,#169,.T.);
#207=ORIENTED_EDGE('',*,*,#170,.F.);
#208=ORIENTED_EDGE('',*,*,#169,.F.);
#209=ORIENTED_EDGE('',*,*,#171,.T.);
#210=ORIENTED_EDGE('',*,*,#172,.T.);
#211=ORIENTED_EDGE('',*,*,#173,.F.);
#212=ORIENTED_EDGE('',*,*,#174,.F.);
#213=ORIENTED_EDGE('',*,*,#175,.T.);
#214=ORIENTED_EDGE('',*,*,#174,.T.);
#215=ORIENTED_EDGE('',*,*,#176,.F.);
#216=ORIENTED_EDGE('',*,*,#177,.F.);
#217=ORIENTED_EDGE('',*,*,#178,.T.);
#218=ORIENTED_EDGE('',*,*,#177,.T.);
#219=ORIENTED_EDGE('',*,*,#179,.F.);
#220=ORIENTED_EDGE('',*,*,#180,.F.);
#221=ORIENTED_EDGE('',*,*,#181,.T.);
#222=ORIENTED_EDGE('',*,*,#180,.T.);
#223=ORIENTED_EDGE('',*,*,#182,.F.);
#224=ORIENTED_EDGE('',*,*,#172,.F.);
#225=ORIENTED_EDGE('',*,*,#182,.T.);
#226=ORIENTED_EDGE('',*,*,#179,.T.);
#227=ORIENTED_EDGE('',*,*,#176,.T.);
#228=ORIENTED_EDGE('',*,*,#173,.T.);
#229=ORIENTED_EDGE('',*,*,#167,.T.);
#230=ORIENTED_EDGE('',*,*,#170,.T.);
#231=ORIENTED_EDGE('',*,*,#181,.F.);
#232=ORIENTED_EDGE('',*,*,#171,.F.);
#233=ORIENTED_EDGE('',*,*,#175,.F.);
#234=ORIENTED_EDGE('',*,*,#178,.F.);
#235=ORIENTED_EDGE('',*,*,#165,.T.);
#236=ORIENTED_EDGE('',*,*,#168,.T.);
#237=ORIENTED_EDGE('',*,*,#183,.F.);
#238=ORIENTED_EDGE('',*,*,#184,.T.);
#239=ORIENTED_EDGE('',*,*,#185,.F.);
#240=ORIENTED_EDGE('',*,*,#184,.F.);
#241=ORIENTED_EDGE('',*,*,#186,.F.);
#242=ORIENTED_EDGE('',*,*,#187,.T.);
#243=ORIENTED_EDGE('',*,*,#188,.F.);
#244=ORIENTED_EDGE('',*,*,#187,.F.);
#245=ORIENTED_EDGE('',*,*,#189,.T.);
#246=ORIENTED_EDGE('',*,*,#190,.T.);
#247=ORIENTED_EDGE('',*,*,#191,.F.);
#248=ORIENTED_EDGE('',*,*,#192,.F.);
#249=ORIENTED_EDGE('',*,*,#193,.T.);
#250=ORIENTED_EDGE('',*,*,#192,.T.);
#251=ORIENTED_EDGE('',*,*,#194,.F.);
#252=ORIENTED_EDGE('',*,*,#195,.F.);
#253=ORIENTED_EDGE('',*,*,#196,.T.);
#254=ORIENTED_EDGE('',*,*,#195,.T.);
#255=ORIENTED_EDGE('',*,*,#197,.F.);
#256=ORIENTED_EDGE('',*,*,#198,.F.);
#257=ORIENTED_EDGE('',*,*,#199,.T.);
#258=ORIENTED_EDGE('',*,*,#198,.T.);
#259=ORIENTED_EDGE('',*,*,#200,.F.);
#260=ORIENTED_EDGE('',*,*,#190,.F.);
#261=ORIENTED_EDGE('',*,*,#200,.T.);
#262=ORIENTED_EDGE('',*,*,#197,.T.);
#263=ORIENTED_EDGE('',*,*,#194,.T.);
#264=ORIENTED_EDGE('',*,*,#191,.T.);
#265=ORIENTED_EDGE('',*,*,#185,.T.);
#266=ORIENTED_EDGE('',*,*,#188,.T.);
#267=ORIENTED_EDGE('',*,*,#199,.F.);
#268=ORIENTED_EDGE('',*,*,#189,.F.);
#269=ORIENTED_EDGE('',*,*,#193,.F.);
#270=ORIENTED_EDGE('',*,*,#196,.F.);
#271=ORIENTED_EDGE('',*,*,#183,.T.);
#272=ORIENTED_EDGE('',*,*,#186,.T.);
#273=CYLINDRICAL_SURFACE('',#308,1.6);
#274=CYLINDRICAL_SURFACE('',#311,1.6);
#275=CYLINDRICAL_SURFACE('',#320,1.6);
#276=CYLINDRICAL_SURFACE('',#323,1.6);
#277=ADVANCED_FACE('',(#37),#273,.F.);
#278=ADVANCED_FACE('',(#38),#274,.F.);
#279=ADVANCED_FACE('',(#39),#25,.T.);
#280=ADVANCED_FACE('',(#40),#26,.T.);
#281=ADVANCED_FACE('',(#41),#27,.T.);
#282=ADVANCED_FACE('',(#42),#28,.T.);
#283=ADVANCED_FACE('',(#43,#17,#18),#29,.T.);
#284=ADVANCED_FACE('',(#44,#19,#20),#30,.F.);
#285=ADVANCED_FACE('',(#45),#275,.F.);
#286=ADVANCED_FACE('',(#46),#276,.F.);
#287=ADVANCED_FACE('',(#47),#31,.T.);
#288=ADVANCED_FACE('',(#48),#32,.T.);
#289=ADVANCED_FACE('',(#49),#33,.T.);
#290=ADVANCED_FACE('',(#50),#34,.T.);
#291=ADVANCED_FACE('',(#51,#21,#22),#35,.T.);
#292=ADVANCED_FACE('',(#52,#23,#24),#36,.F.);
#293=CLOSED_SHELL('',(#277,#278,#279,#280,#281,#282,#283,#284));
#294=CLOSED_SHELL('',(#285,#286,#287,#288,#289,#290,#291,#292));
#295=DERIVED_UNIT_ELEMENT(#297,1.);
#296=DERIVED_UNIT_ELEMENT(#492,-3.);
#297=(
MASS_UNIT()
NAMED_UNIT(*)
SI_UNIT(.KILO.,.GRAM.)
);
#298=DERIVED_UNIT((#295,#296));
#299=MEASURE_REPRESENTATION_ITEM('density measure',
POSITIVE_RATIO_MEASURE(7850.),#298);
#300=PROPERTY_DEFINITION_REPRESENTATION(#305,#302);
#301=PROPERTY_DEFINITION_REPRESENTATION(#306,#303);
#302=REPRESENTATION('material name',(#304),#489);
#303=REPRESENTATION('density',(#299),#489);
#304=DESCRIPTIVE_REPRESENTATION_ITEM('A\X\E7o','A\X\E7o');
#305=PROPERTY_DEFINITION('material property','material name',#499);
#306=PROPERTY_DEFINITION('material property','density of part',#499);
#307=AXIS2_PLACEMENT_3D('',#410,#332,#333);
#308=AXIS2_PLACEMENT_3D('',#411,#334,#335);
#309=AXIS2_PLACEMENT_3D('',#413,#336,#337);
#310=AXIS2_PLACEMENT_3D('',#416,#339,#340);
#311=AXIS2_PLACEMENT_3D('',#417,#341,#342);
#312=AXIS2_PLACEMENT_3D('',#419,#343,#344);
#313=AXIS2_PLACEMENT_3D('',#422,#346,#347);
#314=AXIS2_PLACEMENT_3D('',#423,#348,#349);
#315=AXIS2_PLACEMENT_3D('',#432,#354,#355);
#316=AXIS2_PLACEMENT_3D('',#438,#359,#360);
#317=AXIS2_PLACEMENT_3D('',#444,#364,#365);
#318=AXIS2_PLACEMENT_3D('',#447,#368,#369);
#319=AXIS2_PLACEMENT_3D('',#448,#370,#371);
#320=AXIS2_PLACEMENT_3D('',#449,#372,#373);
#321=AXIS2_PLACEMENT_3D('',#451,#374,#375);
#322=AXIS2_PLACEMENT_3D('',#454,#377,#378);
#323=AXIS2_PLACEMENT_3D('',#455,#379,#380);
#324=AXIS2_PLACEMENT_3D('',#457,#381,#382);
#325=AXIS2_PLACEMENT_3D('',#460,#384,#385);
#326=AXIS2_PLACEMENT_3D('',#461,#386,#387);
#327=AXIS2_PLACEMENT_3D('',#470,#392,#393);
#328=AXIS2_PLACEMENT_3D('',#476,#397,#398);
#329=AXIS2_PLACEMENT_3D('',#482,#402,#403);
#330=AXIS2_PLACEMENT_3D('',#485,#406,#407);
#331=AXIS2_PLACEMENT_3D('',#486,#408,#409);
#332=DIRECTION('axis',(0.,0.,1.));
#333=DIRECTION('refdir',(1.,0.,0.));
#334=DIRECTION('center_axis',(0.,0.,1.));
#335=DIRECTION('ref_axis',(1.,0.,0.));
#336=DIRECTION('center_axis',(0.,0.,1.));
#337=DIRECTION('ref_axis',(1.,0.,0.));
#338=DIRECTION('',(0.,0.,1.));
#339=DIRECTION('center_axis',(0.,0.,-1.));
#340=DIRECTION('ref_axis',(1.,0.,0.));
#341=DIRECTION('center_axis',(0.,0.,1.));
#342=DIRECTION('ref_axis',(1.,0.,0.));
#343=DIRECTION('center_axis',(0.,0.,1.));
#344=DIRECTION('ref_axis',(1.,0.,0.));
#345=DIRECTION('',(0.,0.,1.));
#346=DIRECTION('center_axis',(0.,0.,-1.));
#347=DIRECTION('ref_axis',(1.,0.,0.));
#348=DIRECTION('center_axis',(0.,1.,0.));
#349=DIRECTION('ref_axis',(-1.,0.,0.));
#350=DIRECTION('',(-1.,0.,0.));
#351=DIRECTION('',(0.,0.,1.));
#352=DIRECTION('',(-1.,0.,0.));
#353=DIRECTION('',(0.,0.,1.));
#354=DIRECTION('center_axis',(1.,0.,0.));
#355=DIRECTION('ref_axis',(0.,1.,0.));
#356=DIRECTION('',(0.,1.,0.));
#357=DIRECTION('',(0.,1.,0.));
#358=DIRECTION('',(0.,0.,1.));
#359=DIRECTION('center_axis',(0.,-1.,0.));
#360=DIRECTION('ref_axis',(1.,0.,0.));
#361=DIRECTION('',(1.,0.,0.));
#362=DIRECTION('',(1.,0.,0.));
#363=DIRECTION('',(0.,0.,1.));
#364=DIRECTION('center_axis',(-1.,0.,0.));
#365=DIRECTION('ref_axis',(0.,-1.,0.));
#366=DIRECTION('',(0.,-1.,0.));
#367=DIRECTION('',(0.,-1.,0.));
#368=DIRECTION('center_axis',(0.,0.,1.));
#369=DIRECTION('ref_axis',(1.,0.,0.));
#370=DIRECTION('center_axis',(0.,0.,1.));
#371=DIRECTION('ref_axis',(1.,0.,0.));
#372=DIRECTION('center_axis',(0.,0.,1.));
#373=DIRECTION('ref_axis',(1.,0.,0.));
#374=DIRECTION('center_axis',(0.,0.,1.));
#375=DIRECTION('ref_axis',(1.,0.,0.));
#376=DIRECTION('',(0.,0.,1.));
#377=DIRECTION('center_axis',(0.,0.,-1.));
#378=DIRECTION('ref_axis',(1.,0.,0.));
#379=DIRECTION('center_axis',(0.,0.,1.));
#380=DIRECTION('ref_axis',(1.,0.,0.));
#381=DIRECTION('center_axis',(0.,0.,1.));
#382=DIRECTION('ref_axis',(1.,0.,0.));
#383=DIRECTION('',(0.,0.,1.));
#384=DIRECTION('center_axis',(0.,0.,-1.));
#385=DIRECTION('ref_axis',(1.,0.,0.));
#386=DIRECTION('center_axis',(0.,1.,0.));
#387=DIRECTION('ref_axis',(-1.,0.,0.));
#388=DIRECTION('',(-1.,0.,0.));
#389=DIRECTION('',(0.,0.,1.));
#390=DIRECTION('',(-1.,0.,0.));
#391=DIRECTION('',(0.,0.,1.));
#392=DIRECTION('center_axis',(1.,0.,0.));
#393=DIRECTION('ref_axis',(0.,1.,0.));
#394=DIRECTION('',(0.,1.,0.));
#395=DIRECTION('',(0.,1.,0.));
#396=DIRECTION('',(0.,0.,1.));
#397=DIRECTION('center_axis',(0.,-1.,0.));
#398=DIRECTION('ref_axis',(1.,0.,0.));
#399=DIRECTION('',(1.,0.,0.));
#400=DIRECTION('',(1.,0.,0.));
#401=DIRECTION('',(0.,0.,1.));
#402=DIRECTION('center_axis',(-1.,0.,0.));
#403=DIRECTION('ref_axis',(0.,-1.,0.));
#404=DIRECTION('',(0.,-1.,0.));
#405=DIRECTION('',(0.,-1.,0.));
#406=DIRECTION('center_axis',(0.,0.,1.));
#407=DIRECTION('ref_axis',(1.,0.,0.));
#408=DIRECTION('center_axis',(0.,0.,1.));
#409=DIRECTION('ref_axis',(1.,0.,0.));
#410=CARTESIAN_POINT('',(0.,0.,0.));
#411=CARTESIAN_POINT('Origin',(-57.5,0.,0.));
#412=CARTESIAN_POINT('',(-59.1,-1.95943487863577E-16,0.));
#413=CARTESIAN_POINT('Origin',(-57.5,0.,0.));
#414=CARTESIAN_POINT('',(-59.1,1.95943487863577E-16,10.));
#415=CARTESIAN_POINT('',(-59.1,-1.95943487863577E-16,0.));
#416=CARTESIAN_POINT('Origin',(-57.5,0.,10.));
#417=CARTESIAN_POINT('Origin',(-92.5,0.,0.));
#418=CARTESIAN_POINT('',(-94.1,-1.95943487863577E-16,0.));
#419=CARTESIAN_POINT('Origin',(-92.5,0.,0.));
#420=CARTESIAN_POINT('',(-94.1,1.95943487863577E-16,10.));
#421=CARTESIAN_POINT('',(-94.1,-1.95943487863577E-16,0.));
#422=CARTESIAN_POINT('Origin',(-92.5,0.,10.));
#423=CARTESIAN_POINT('Origin',(-47.5,12.,0.));
#424=CARTESIAN_POINT('',(-47.5,12.,0.));
#425=CARTESIAN_POINT('',(-102.5,12.,0.));
#426=CARTESIAN_POINT('',(-47.5,12.,0.));
#427=CARTESIAN_POINT('',(-102.5,12.,10.));
#428=CARTESIAN_POINT('',(-102.5,12.,0.));
#429=CARTESIAN_POINT('',(-47.5,12.,10.));
#430=CARTESIAN_POINT('',(-47.5,12.,10.));
#431=CARTESIAN_POINT('',(-47.5,12.,0.));
#432=CARTESIAN_POINT('Origin',(-47.5,-12.,0.));
#433=CARTESIAN_POINT('',(-47.5,-12.,0.));
#434=CARTESIAN_POINT('',(-47.5,-12.,0.));
#435=CARTESIAN_POINT('',(-47.5,-12.,10.));
#436=CARTESIAN_POINT('',(-47.5,-12.,10.));
#437=CARTESIAN_POINT('',(-47.5,-12.,0.));
#438=CARTESIAN_POINT('Origin',(-102.5,-12.,0.));
#439=CARTESIAN_POINT('',(-102.5,-12.,0.));
#440=CARTESIAN_POINT('',(-102.5,-12.,0.));
#441=CARTESIAN_POINT('',(-102.5,-12.,10.));
#442=CARTESIAN_POINT('',(-102.5,-12.,10.));
#443=CARTESIAN_POINT('',(-102.5,-12.,0.));
#444=CARTESIAN_POINT('Origin',(-102.5,12.,0.));
#445=CARTESIAN_POINT('',(-102.5,12.,0.));
#446=CARTESIAN_POINT('',(-102.5,12.,10.));
#447=CARTESIAN_POINT('Origin',(-75.,0.,10.));
#448=CARTESIAN_POINT('Origin',(-75.,0.,0.));
#449=CARTESIAN_POINT('Origin',(92.5,0.,0.));
#450=CARTESIAN_POINT('',(90.9,-1.95943487863577E-16,0.));
#451=CARTESIAN_POINT('Origin',(92.5,0.,0.));
#452=CARTESIAN_POINT('',(90.9,1.95943487863577E-16,10.));
#453=CARTESIAN_POINT('',(90.9,-1.95943487863577E-16,0.));
#454=CARTESIAN_POINT('Origin',(92.5,0.,10.));
#455=CARTESIAN_POINT('Origin',(57.5,0.,0.));
#456=CARTESIAN_POINT('',(55.9,-1.95943487863577E-16,0.));
#457=CARTESIAN_POINT('Origin',(57.5,0.,0.));
#458=CARTESIAN_POINT('',(55.9,1.95943487863577E-16,10.));
#459=CARTESIAN_POINT('',(55.9,-1.95943487863577E-16,0.));
#460=CARTESIAN_POINT('Origin',(57.5,0.,10.));
#461=CARTESIAN_POINT('Origin',(102.5,12.,0.));
#462=CARTESIAN_POINT('',(102.5,12.,0.));
#463=CARTESIAN_POINT('',(47.5,12.,0.));
#464=CARTESIAN_POINT('',(102.5,12.,0.));
#465=CARTESIAN_POINT('',(47.5,12.,10.));
#466=CARTESIAN_POINT('',(47.5,12.,0.));
#467=CARTESIAN_POINT('',(102.5,12.,10.));
#468=CARTESIAN_POINT('',(102.5,12.,10.));
#469=CARTESIAN_POINT('',(102.5,12.,0.));
#470=CARTESIAN_POINT('Origin',(102.5,-12.,0.));
#471=CARTESIAN_POINT('',(102.5,-12.,0.));
#472=CARTESIAN_POINT('',(102.5,-12.,0.));
#473=CARTESIAN_POINT('',(102.5,-12.,10.));
#474=CARTESIAN_POINT('',(102.5,-12.,10.));
#475=CARTESIAN_POINT('',(102.5,-12.,0.));
#476=CARTESIAN_POINT('Origin',(47.5,-12.,0.));
#477=CARTESIAN_POINT('',(47.5,-12.,0.));
#478=CARTESIAN_POINT('',(47.5,-12.,0.));
#479=CARTESIAN_POINT('',(47.5,-12.,10.));
#480=CARTESIAN_POINT('',(47.5,-12.,10.));
#481=CARTESIAN_POINT('',(47.5,-12.,0.));
#482=CARTESIAN_POINT('Origin',(47.5,12.,0.));
#483=CARTESIAN_POINT('',(47.5,12.,0.));
#484=CARTESIAN_POINT('',(47.5,12.,10.));
#485=CARTESIAN_POINT('Origin',(75.,0.,10.));
#486=CARTESIAN_POINT('Origin',(75.,0.,0.));
#487=UNCERTAINTY_MEASURE_WITH_UNIT(LENGTH_MEASURE(0.01),#491,
'DISTANCE_ACCURACY_VALUE',
'Maximum model space distance between geometric entities at asserted c
onnectivities');
#488=UNCERTAINTY_MEASURE_WITH_UNIT(LENGTH_MEASURE(0.01),#491,
'DISTANCE_ACCURACY_VALUE',
'Maximum model space distance between geometric entities at asserted c
onnectivities');
#489=(
GEOMETRIC_REPRESENTATION_CONTEXT(3)
GLOBAL_UNCERTAINTY_ASSIGNED_CONTEXT((#487))
GLOBAL_UNIT_ASSIGNED_CONTEXT((#491,#493,#494))
REPRESENTATION_CONTEXT('','3D')
);
#490=(
GEOMETRIC_REPRESENTATION_CONTEXT(3)
GLOBAL_UNCERTAINTY_ASSIGNED_CONTEXT((#488))
GLOBAL_UNIT_ASSIGNED_CONTEXT((#491,#493,#494))
REPRESENTATION_CONTEXT('','3D')
);
#491=(
LENGTH_UNIT()
NAMED_UNIT(*)
SI_UNIT(.MILLI.,.METRE.)
);
#492=(
LENGTH_UNIT()
NAMED_UNIT(*)
SI_UNIT($,.METRE.)
);
#493=(
NAMED_UNIT(*)
PLANE_ANGLE_UNIT()
SI_UNIT($,.RADIAN.)
);
#494=(
NAMED_UNIT(*)
SI_UNIT($,.STERADIAN.)
SOLID_ANGLE_UNIT()
);
#495=SHAPE_DEFINITION_REPRESENTATION(#496,#497);
#496=PRODUCT_DEFINITION_SHAPE('',$,#499);
#497=SHAPE_REPRESENTATION('',(#307),#489);
#498=PRODUCT_DEFINITION_CONTEXT('part definition',#503,'design');
#499=PRODUCT_DEFINITION('SmartMeter_DesktopFeet',
'SmartMeter_DesktopFeet',#500,#498);
#500=PRODUCT_DEFINITION_FORMATION('',$,#505);
#501=PRODUCT_RELATED_PRODUCT_CATEGORY('SmartMeter_DesktopFeet',
'SmartMeter_DesktopFeet',(#505));
#502=APPLICATION_PROTOCOL_DEFINITION('international standard',
'automotive_design',2009,#503);
#503=APPLICATION_CONTEXT(
'Core Data for Automotive Mechanical Design Process');
#504=PRODUCT_CONTEXT('part definition',#503,'mechanical');
#505=PRODUCT('SmartMeter_DesktopFeet','SmartMeter_DesktopFeet',$,(#504));
#506=PRESENTATION_STYLE_ASSIGNMENT((#507));
#507=SURFACE_STYLE_USAGE(.BOTH.,#508);
#508=SURFACE_SIDE_STYLE('',(#509));
#509=SURFACE_STYLE_FILL_AREA(#510);
#510=FILL_AREA_STYLE('A\X\E7o - Acetinado',(#511));
#511=FILL_AREA_STYLE_COLOUR('A\X\E7o - Acetinado',#512);
#512=COLOUR_RGB('A\X\E7o - Acetinado',0.627450980392157,0.627450980392157,
0.627450980392157);
ENDSEC;
END-ISO-10303-21;
