ISO-10303-21;
HEADER;
/* Generated by software containing ST-Developer
 * from STEP Tools, Inc. (www.steptools.com) 
 */

FILE_DESCRIPTION(
/* description */ (''),
/* implementation_level */ '2;1');

FILE_NAME(
/* name */ 'SmartMeter_PanelMountFrame.step',
/* time_stamp */ '2026-10-03T17:39:33-03:00',
/* author */ (''),
/* organization */ (''),
/* preprocessor_version */ 'ST-DEVELOPER v20.1',
/* originating_system */ 'Autodesk Translation Framework v15.8.0.0',
/* authorisation */ '');

FILE_SCHEMA (('AUTOMOTIVE_DESIGN { 1 0 10303 214 3 1 1 }'));
ENDSEC;

DATA;
#10=MECHANICAL_DESIGN_GEOMETRIC_PRESENTATION_REPRESENTATION('',(#13),#631);
#11=SHAPE_REPRESENTATION_RELATIONSHIP('SRR','None',#638,#12);
#12=ADVANCED_BREP_SHAPE_REPRESENTATION('',(#14),#630);
#13=STYLED_ITEM('',(#647),#14);
#14=MANIFOLD_SOLID_BREP('Corpo1',#379);
#15=FACE_BOUND('',#78,.T.);
#16=FACE_BOUND('',#79,.T.);
#17=FACE_BOUND('',#80,.T.);
#18=FACE_BOUND('',#81,.T.);
#19=FACE_BOUND('',#82,.T.);
#20=FACE_BOUND('',#83,.T.);
#21=FACE_BOUND('',#84,.T.);
#22=FACE_BOUND('',#85,.T.);
#23=FACE_BOUND('',#86,.T.);
#24=FACE_BOUND('',#88,.T.);
#25=FACE_BOUND('',#89,.T.);
#26=FACE_BOUND('',#90,.T.);
#27=FACE_BOUND('',#91,.T.);
#28=FACE_BOUND('',#92,.T.);
#29=FACE_BOUND('',#93,.T.);
#30=FACE_BOUND('',#94,.T.);
#31=FACE_BOUND('',#95,.T.);
#32=FACE_BOUND('',#96,.T.);
#33=PLANE('',#417);
#34=PLANE('',#418);
#35=PLANE('',#419);
#36=PLANE('',#420);
#37=PLANE('',#421);
#38=PLANE('',#422);
#39=PLANE('',#423);
#40=PLANE('',#424);
#41=PLANE('',#425);
#42=PLANE('',#426);
#43=FACE_OUTER_BOUND('',#61,.T.);
#44=FACE_OUTER_BOUND('',#62,.T.);
#45=FACE_OUTER_BOUND('',#63,.T.);
#46=FACE_OUTER_BOUND('',#64,.T.);
#47=FACE_OUTER_BOUND('',#65,.T.);
#48=FACE_OUTER_BOUND('',#66,.T.);
#49=FACE_OUTER_BOUND('',#67,.T.);
#50=FACE_OUTER_BOUND('',#68,.T.);
#51=FACE_OUTER_BOUND('',#69,.T.);
#52=FACE_OUTER_BOUND('',#70,.T.);
#53=FACE_OUTER_BOUND('',#71,.T.);
#54=FACE_OUTER_BOUND('',#72,.T.);
#55=FACE_OUTER_BOUND('',#73,.T.);
#56=FACE_OUTER_BOUND('',#74,.T.);
#57=FACE_OUTER_BOUND('',#75,.T.);
#58=FACE_OUTER_BOUND('',#76,.T.);
#59=FACE_OUTER_BOUND('',#77,.T.);
#60=FACE_OUTER_BOUND('',#87,.T.);
#61=EDGE_LOOP('',(#257,#258,#259,#260));
#62=EDGE_LOOP('',(#261,#262,#263,#264));
#63=EDGE_LOOP('',(#265,#266,#267,#268));
#64=EDGE_LOOP('',(#269,#270,#271,#272));
#65=EDGE_LOOP('',(#273,#274,#275,#276));
#66=EDGE_LOOP('',(#277,#278,#279,#280));
#67=EDGE_LOOP('',(#281,#282,#283,#284));
#68=EDGE_LOOP('',(#285,#286,#287,#288));
#69=EDGE_LOOP('',(#289,#290,#291,#292));
#70=EDGE_LOOP('',(#293,#294,#295,#296));
#71=EDGE_LOOP('',(#297,#298,#299,#300));
#72=EDGE_LOOP('',(#301,#302,#303,#304));
#73=EDGE_LOOP('',(#305,#306,#307,#308));
#74=EDGE_LOOP('',(#309,#310,#311,#312));
#75=EDGE_LOOP('',(#313,#314,#315,#316));
#76=EDGE_LOOP('',(#317,#318,#319,#320));
#77=EDGE_LOOP('',(#321,#322,#323,#324));
#78=EDGE_LOOP('',(#325));
#79=EDGE_LOOP('',(#326));
#80=EDGE_LOOP('',(#327));
#81=EDGE_LOOP('',(#328));
#82=EDGE_LOOP('',(#329));
#83=EDGE_LOOP('',(#330));
#84=EDGE_LOOP('',(#331));
#85=EDGE_LOOP('',(#332,#333,#334,#335));
#86=EDGE_LOOP('',(#336));
#87=EDGE_LOOP('',(#337,#338,#339,#340));
#88=EDGE_LOOP('',(#341));
#89=EDGE_LOOP('',(#342));
#90=EDGE_LOOP('',(#343));
#91=EDGE_LOOP('',(#344));
#92=EDGE_LOOP('',(#345));
#93=EDGE_LOOP('',(#346));
#94=EDGE_LOOP('',(#347));
#95=EDGE_LOOP('',(#348,#349,#350,#351));
#96=EDGE_LOOP('',(#352));
#97=LINE('',#534,#129);
#98=LINE('',#540,#130);
#99=LINE('',#546,#131);
#100=LINE('',#552,#132);
#101=LINE('',#558,#133);
#102=LINE('',#564,#134);
#103=LINE('',#570,#135);
#104=LINE('',#576,#136);
#105=LINE('',#581,#137);
#106=LINE('',#583,#138);
#107=LINE('',#585,#139);
#108=LINE('',#586,#140);
#109=LINE('',#589,#141);
#110=LINE('',#591,#142);
#111=LINE('',#592,#143);
#112=LINE('',#595,#144);
#113=LINE('',#597,#145);
#114=LINE('',#598,#146);
#115=LINE('',#600,#147);
#116=LINE('',#601,#148);
#117=LINE('',#605,#149);
#118=LINE('',#607,#150);
#119=LINE('',#609,#151);
#120=LINE('',#610,#152);
#121=LINE('',#613,#153);
#122=LINE('',#615,#154);
#123=LINE('',#616,#155);
#124=LINE('',#619,#156);
#125=LINE('',#621,#157);
#126=LINE('',#622,#158);
#127=LINE('',#624,#159);
#128=LINE('',#625,#160);
#129=VECTOR('',#433,1.6);
#130=VECTOR('',#440,1.6);
#131=VECTOR('',#447,1.6);
#132=VECTOR('',#454,1.6);
#133=VECTOR('',#461,2.25);
#134=VECTOR('',#468,2.25);
#135=VECTOR('',#475,2.25);
#136=VECTOR('',#482,2.25);
#137=VECTOR('',#487,10.);
#138=VECTOR('',#488,10.);
#139=VECTOR('',#489,10.);
#140=VECTOR('',#490,10.);
#141=VECTOR('',#493,10.);
#142=VECTOR('',#494,10.);
#143=VECTOR('',#495,10.);
#144=VECTOR('',#498,10.);
#145=VECTOR('',#499,10.);
#146=VECTOR('',#500,10.);
#147=VECTOR('',#503,10.);
#148=VECTOR('',#504,10.);
#149=VECTOR('',#507,10.);
#150=VECTOR('',#508,10.);
#151=VECTOR('',#509,10.);
#152=VECTOR('',#510,10.);
#153=VECTOR('',#513,10.);
#154=VECTOR('',#514,10.);
#155=VECTOR('',#515,10.);
#156=VECTOR('',#518,10.);
#157=VECTOR('',#519,10.);
#158=VECTOR('',#520,10.);
#159=VECTOR('',#523,10.);
#160=VECTOR('',#524,10.);
#161=CIRCLE('',#394,1.6);
#162=CIRCLE('',#395,1.6);
#163=CIRCLE('',#397,1.6);
#164=CIRCLE('',#398,1.6);
#165=CIRCLE('',#400,1.6);
#166=CIRCLE('',#401,1.6);
#167=CIRCLE('',#403,1.6);
#168=CIRCLE('',#404,1.6);
#169=CIRCLE('',#406,2.25);
#170=CIRCLE('',#407,2.25);
#171=CIRCLE('',#409,2.25);
#172=CIRCLE('',#410,2.25);
#173=CIRCLE('',#412,2.25);
#174=CIRCLE('',#413,2.25);
#175=CIRCLE('',#415,2.25);
#176=CIRCLE('',#416,2.25);
#177=VERTEX_POINT('',#531);
#178=VERTEX_POINT('',#533);
#179=VERTEX_POINT('',#537);
#180=VERTEX_POINT('',#539);
#181=VERTEX_POINT('',#543);
#182=VERTEX_POINT('',#545);
#183=VERTEX_POINT('',#549);
#184=VERTEX_POINT('',#551);
#185=VERTEX_POINT('',#555);
#186=VERTEX_POINT('',#557);
#187=VERTEX_POINT('',#561);
#188=VERTEX_POINT('',#563);
#189=VERTEX_POINT('',#567);
#190=VERTEX_POINT('',#569);
#191=VERTEX_POINT('',#573);
#192=VERTEX_POINT('',#575);
#193=VERTEX_POINT('',#579);
#194=VERTEX_POINT('',#580);
#195=VERTEX_POINT('',#582);
#196=VERTEX_POINT('',#584);
#197=VERTEX_POINT('',#588);
#198=VERTEX_POINT('',#590);
#199=VERTEX_POINT('',#594);
#200=VERTEX_POINT('',#596);
#201=VERTEX_POINT('',#603);
#202=VERTEX_POINT('',#604);
#203=VERTEX_POINT('',#606);
#204=VERTEX_POINT('',#608);
#205=VERTEX_POINT('',#612);
#206=VERTEX_POINT('',#614);
#207=VERTEX_POINT('',#618);
#208=VERTEX_POINT('',#620);
#209=EDGE_CURVE('',#177,#177,#161,.T.);
#210=EDGE_CURVE('',#177,#178,#97,.T.);
#211=EDGE_CURVE('',#178,#178,#162,.T.);
#212=EDGE_CURVE('',#179,#179,#163,.T.);
#213=EDGE_CURVE('',#179,#180,#98,.T.);
#214=EDGE_CURVE('',#180,#180,#164,.T.);
#215=EDGE_CURVE('',#181,#181,#165,.T.);
#216=EDGE_CURVE('',#181,#182,#99,.T.);
#217=EDGE_CURVE('',#182,#182,#166,.T.);
#218=EDGE_CURVE('',#183,#183,#167,.T.);
#219=EDGE_CURVE('',#183,#184,#100,.T.);
#220=EDGE_CURVE('',#184,#184,#168,.T.);
#221=EDGE_CURVE('',#185,#185,#169,.T.);
#222=EDGE_CURVE('',#185,#186,#101,.T.);
#223=EDGE_CURVE('',#186,#186,#170,.T.);
#224=EDGE_CURVE('',#187,#187,#171,.T.);
#225=EDGE_CURVE('',#187,#188,#102,.T.);
#226=EDGE_CURVE('',#188,#188,#172,.T.);
#227=EDGE_CURVE('',#189,#189,#173,.T.);
#228=EDGE_CURVE('',#189,#190,#103,.T.);
#229=EDGE_CURVE('',#190,#190,#174,.T.);
#230=EDGE_CURVE('',#191,#191,#175,.T.);
#231=EDGE_CURVE('',#191,#192,#104,.T.);
#232=EDGE_CURVE('',#192,#192,#176,.T.);
#233=EDGE_CURVE('',#193,#194,#105,.T.);
#234=EDGE_CURVE('',#195,#193,#106,.T.);
#235=EDGE_CURVE('',#196,#195,#107,.T.);
#236=EDGE_CURVE('',#196,#194,#108,.T.);
#237=EDGE_CURVE('',#194,#197,#109,.T.);
#238=EDGE_CURVE('',#198,#196,#110,.T.);
#239=EDGE_CURVE('',#198,#197,#111,.T.);
#240=EDGE_CURVE('',#197,#199,#112,.T.);
#241=EDGE_CURVE('',#200,#198,#113,.T.);
#242=EDGE_CURVE('',#200,#199,#114,.T.);
#243=EDGE_CURVE('',#199,#193,#115,.T.);
#244=EDGE_CURVE('',#195,#200,#116,.T.);
#245=EDGE_CURVE('',#201,#202,#117,.T.);
#246=EDGE_CURVE('',#202,#203,#118,.T.);
#247=EDGE_CURVE('',#204,#203,#119,.T.);
#248=EDGE_CURVE('',#201,#204,#120,.T.);
#249=EDGE_CURVE('',#205,#201,#121,.T.);
#250=EDGE_CURVE('',#206,#204,#122,.T.);
#251=EDGE_CURVE('',#205,#206,#123,.T.);
#252=EDGE_CURVE('',#207,#205,#124,.T.);
#253=EDGE_CURVE('',#208,#206,#125,.T.);
#254=EDGE_CURVE('',#207,#208,#126,.T.);
#255=EDGE_CURVE('',#202,#207,#127,.T.);
#256=EDGE_CURVE('',#203,#208,#128,.T.);
#257=ORIENTED_EDGE('',*,*,#209,.F.);
#258=ORIENTED_EDGE('',*,*,#210,.T.);
#259=ORIENTED_EDGE('',*,*,#211,.F.);
#260=ORIENTED_EDGE('',*,*,#210,.F.);
#261=ORIENTED_EDGE('',*,*,#212,.F.);
#262=ORIENTED_EDGE('',*,*,#213,.T.);
#263=ORIENTED_EDGE('',*,*,#214,.F.);
#264=ORIENTED_EDGE('',*,*,#213,.F.);
#265=ORIENTED_EDGE('',*,*,#215,.F.);
#266=ORIENTED_EDGE('',*,*,#216,.T.);
#267=ORIENTED_EDGE('',*,*,#217,.F.);
#268=ORIENTED_EDGE('',*,*,#216,.F.);
#269=ORIENTED_EDGE('',*,*,#218,.F.);
#270=ORIENTED_EDGE('',*,*,#219,.T.);
#271=ORIENTED_EDGE('',*,*,#220,.F.);
#272=ORIENTED_EDGE('',*,*,#219,.F.);
#273=ORIENTED_EDGE('',*,*,#221,.F.);
#274=ORIENTED_EDGE('',*,*,#222,.T.);
#275=ORIENTED_EDGE('',*,*,#223,.F.);
#276=ORIENTED_EDGE('',*,*,#222,.F.);
#277=ORIENTED_EDGE('',*,*,#224,.F.);
#278=ORIENTED_EDGE('',*,*,#225,.T.);
#279=ORIENTED_EDGE('',*,*,#226,.F.);
#280=ORIENTED_EDGE('',*,*,#225,.F.);
#281=ORIENTED_EDGE('',*,*,#227,.F.);
#282=ORIENTED_EDGE('',*,*,#228,.T.);
#283=ORIENTED_EDGE('',*,*,#229,.F.);
#284=ORIENTED_EDGE('',*,*,#228,.F.);
#285=ORIENTED_EDGE('',*,*,#230,.F.);
#286=ORIENTED_EDGE('',*,*,#231,.T.);
#287=ORIENTED_EDGE('',*,*,#232,.F.);
#288=ORIENTED_EDGE('',*,*,#231,.F.);
#289=ORIENTED_EDGE('',*,*,#233,.F.);
#290=ORIENTED_EDGE('',*,*,#234,.F.);
#291=ORIENTED_EDGE('',*,*,#235,.F.);
#292=ORIENTED_EDGE('',*,*,#236,.T.);
#293=ORIENTED_EDGE('',*,*,#237,.F.);
#294=ORIENTED_EDGE('',*,*,#236,.F.);
#295=ORIENTED_EDGE('',*,*,#238,.F.);
#296=ORIENTED_EDGE('',*,*,#239,.T.);
#297=ORIENTED_EDGE('',*,*,#240,.F.);
#298=ORIENTED_EDGE('',*,*,#239,.F.);
#299=ORIENTED_EDGE('',*,*,#241,.F.);
#300=ORIENTED_EDGE('',*,*,#242,.T.);
#301=ORIENTED_EDGE('',*,*,#243,.F.);
#302=ORIENTED_EDGE('',*,*,#242,.F.);
#303=ORIENTED_EDGE('',*,*,#244,.F.);
#304=ORIENTED_EDGE('',*,*,#234,.T.);
#305=ORIENTED_EDGE('',*,*,#245,.T.);
#306=ORIENTED_EDGE('',*,*,#246,.T.);
#307=ORIENTED_EDGE('',*,*,#247,.F.);
#308=ORIENTED_EDGE('',*,*,#248,.F.);
#309=ORIENTED_EDGE('',*,*,#249,.T.);
#310=ORIENTED_EDGE('',*,*,#248,.T.);
#311=ORIENTED_EDGE('',*,*,#250,.F.);
#312=ORIENTED_EDGE('',*,*,#251,.F.);
#313=ORIENTED_EDGE('',*,*,#252,.T.);
#314=ORIENTED_EDGE('',*,*,#251,.T.);
#315=ORIENTED_EDGE('',*,*,#253,.F.);
#316=ORIENTED_EDGE('',*,*,#254,.F.);
#317=ORIENTED_EDGE('',*,*,#255,.T.);
#318=ORIENTED_EDGE('',*,*,#254,.T.);
#319=ORIENTED_EDGE('',*,*,#256,.F.);
#320=ORIENTED_EDGE('',*,*,#246,.F.);
#321=ORIENTED_EDGE('',*,*,#256,.T.);
#322=ORIENTED_EDGE('',*,*,#253,.T.);
#323=ORIENTED_EDGE('',*,*,#250,.T.);
#324=ORIENTED_EDGE('',*,*,#247,.T.);
#325=ORIENTED_EDGE('',*,*,#214,.T.);
#326=ORIENTED_EDGE('',*,*,#217,.T.);
#327=ORIENTED_EDGE('',*,*,#220,.T.);
#328=ORIENTED_EDGE('',*,*,#223,.T.);
#329=ORIENTED_EDGE('',*,*,#226,.T.);
#330=ORIENTED_EDGE('',*,*,#229,.T.);
#331=ORIENTED_EDGE('',*,*,#232,.T.);
#332=ORIENTED_EDGE('',*,*,#240,.T.);
#333=ORIENTED_EDGE('',*,*,#243,.T.);
#334=ORIENTED_EDGE('',*,*,#233,.T.);
#335=ORIENTED_EDGE('',*,*,#237,.T.);
#336=ORIENTED_EDGE('',*,*,#211,.T.);
#337=ORIENTED_EDGE('',*,*,#255,.F.);
#338=ORIENTED_EDGE('',*,*,#245,.F.);
#339=ORIENTED_EDGE('',*,*,#249,.F.);
#340=ORIENTED_EDGE('',*,*,#252,.F.);
#341=ORIENTED_EDGE('',*,*,#212,.T.);
#342=ORIENTED_EDGE('',*,*,#215,.T.);
#343=ORIENTED_EDGE('',*,*,#218,.T.);
#344=ORIENTED_EDGE('',*,*,#221,.T.);
#345=ORIENTED_EDGE('',*,*,#224,.T.);
#346=ORIENTED_EDGE('',*,*,#227,.T.);
#347=ORIENTED_EDGE('',*,*,#230,.T.);
#348=ORIENTED_EDGE('',*,*,#241,.T.);
#349=ORIENTED_EDGE('',*,*,#238,.T.);
#350=ORIENTED_EDGE('',*,*,#235,.T.);
#351=ORIENTED_EDGE('',*,*,#244,.T.);
#352=ORIENTED_EDGE('',*,*,#209,.T.);
#353=CYLINDRICAL_SURFACE('',#393,1.6);
#354=CYLINDRICAL_SURFACE('',#396,1.6);
#355=CYLINDRICAL_SURFACE('',#399,1.6);
#356=CYLINDRICAL_SURFACE('',#402,1.6);
#357=CYLINDRICAL_SURFACE('',#405,2.25);
#358=CYLINDRICAL_SURFACE('',#408,2.25);
#359=CYLINDRICAL_SURFACE('',#411,2.25);
#360=CYLINDRICAL_SURFACE('',#414,2.25);
#361=ADVANCED_FACE('',(#43),#353,.F.);
#362=ADVANCED_FACE('',(#44),#354,.F.);
#363=ADVANCED_FACE('',(#45),#355,.F.);
#364=ADVANCED_FACE('',(#46),#356,.F.);
#365=ADVANCED_FACE('',(#47),#357,.F.);
#366=ADVANCED_FACE('',(#48),#358,.F.);
#367=ADVANCED_FACE('',(#49),#359,.F.);
#368=ADVANCED_FACE('',(#50),#360,.F.);
#369=ADVANCED_FACE('',(#51),#33,.F.);
#370=ADVANCED_FACE('',(#52),#34,.F.);
#371=ADVANCED_FACE('',(#53),#35,.F.);
#372=ADVANCED_FACE('',(#54),#36,.F.);
#373=ADVANCED_FACE('',(#55),#37,.T.);
#374=ADVANCED_FACE('',(#56),#38,.T.);
#375=ADVANCED_FACE('',(#57),#39,.T.);
#376=ADVANCED_FACE('',(#58),#40,.T.);
#377=ADVANCED_FACE('',(#59,#15,#16,#17,#18,#19,#20,#21,#22,#23),#41,.T.);
#378=ADVANCED_FACE('',(#60,#24,#25,#26,#27,#28,#29,#30,#31,#32),#42,.F.);
#379=CLOSED_SHELL('',(#361,#362,#363,#364,#365,#366,#367,#368,#369,#370,
#371,#372,#373,#374,#375,#376,#377,#378));
#380=DERIVED_UNIT_ELEMENT(#382,1.);
#381=DERIVED_UNIT_ELEMENT(#633,-3.);
#382=(
MASS_UNIT()
NAMED_UNIT(*)
SI_UNIT(.KILO.,.GRAM.)
);
#383=DERIVED_UNIT((#380,#381));
#384=MEASURE_REPRESENTATION_ITEM('density measure',
POSITIVE_RATIO_MEASURE(7850.),#383);
#385=PROPERTY_DEFINITION_REPRESENTATION(#390,#387);
#386=PROPERTY_DEFINITION_REPRESENTATION(#391,#388);
#387=REPRESENTATION('material name',(#389),#630);
#388=REPRESENTATION('density',(#384),#630);
#389=DESCRIPTIVE_REPRESENTATION_ITEM('A\X\E7o','A\X\E7o');
#390=PROPERTY_DEFINITION('material property','material name',#640);
#391=PROPERTY_DEFINITION('material property','density of part',#640);
#392=AXIS2_PLACEMENT_3D('',#529,#427,#428);
#393=AXIS2_PLACEMENT_3D('',#530,#429,#430);
#394=AXIS2_PLACEMENT_3D('',#532,#431,#432);
#395=AXIS2_PLACEMENT_3D('',#535,#434,#435);
#396=AXIS2_PLACEMENT_3D('',#536,#436,#437);
#397=AXIS2_PLACEMENT_3D('',#538,#438,#439);
#398=AXIS2_PLACEMENT_3D('',#541,#441,#442);
#399=AXIS2_PLACEMENT_3D('',#542,#443,#444);
#400=AXIS2_PLACEMENT_3D('',#544,#445,#446);
#401=AXIS2_PLACEMENT_3D('',#547,#448,#449);
#402=AXIS2_PLACEMENT_3D('',#548,#450,#451);
#403=AXIS2_PLACEMENT_3D('',#550,#452,#453);
#404=AXIS2_PLACEMENT_3D('',#553,#455,#456);
#405=AXIS2_PLACEMENT_3D('',#554,#457,#458);
#406=AXIS2_PLACEMENT_3D('',#556,#459,#460);
#407=AXIS2_PLACEMENT_3D('',#559,#462,#463);
#408=AXIS2_PLACEMENT_3D('',#560,#464,#465);
#409=AXIS2_PLACEMENT_3D('',#562,#466,#467);
#410=AXIS2_PLACEMENT_3D('',#565,#469,#470);
#411=AXIS2_PLACEMENT_3D('',#566,#471,#472);
#412=AXIS2_PLACEMENT_3D('',#568,#473,#474);
#413=AXIS2_PLACEMENT_3D('',#571,#476,#477);
#414=AXIS2_PLACEMENT_3D('',#572,#478,#479);
#415=AXIS2_PLACEMENT_3D('',#574,#480,#481);
#416=AXIS2_PLACEMENT_3D('',#577,#483,#484);
#417=AXIS2_PLACEMENT_3D('',#578,#485,#486);
#418=AXIS2_PLACEMENT_3D('',#587,#491,#492);
#419=AXIS2_PLACEMENT_3D('',#593,#496,#497);
#420=AXIS2_PLACEMENT_3D('',#599,#501,#502);
#421=AXIS2_PLACEMENT_3D('',#602,#505,#506);
#422=AXIS2_PLACEMENT_3D('',#611,#511,#512);
#423=AXIS2_PLACEMENT_3D('',#617,#516,#517);
#424=AXIS2_PLACEMENT_3D('',#623,#521,#522);
#425=AXIS2_PLACEMENT_3D('',#626,#525,#526);
#426=AXIS2_PLACEMENT_3D('',#627,#527,#528);
#427=DIRECTION('axis',(0.,0.,1.));
#428=DIRECTION('refdir',(1.,0.,0.));
#429=DIRECTION('center_axis',(0.,0.,1.));
#430=DIRECTION('ref_axis',(1.,0.,0.));
#431=DIRECTION('center_axis',(0.,0.,1.));
#432=DIRECTION('ref_axis',(1.,0.,0.));
#433=DIRECTION('',(0.,0.,1.));
#434=DIRECTION('center_axis',(0.,0.,-1.));
#435=DIRECTION('ref_axis',(1.,0.,0.));
#436=DIRECTION('center_axis',(0.,0.,1.));
#437=DIRECTION('ref_axis',(1.,0.,0.));
#438=DIRECTION('center_axis',(0.,0.,1.));
#439=DIRECTION('ref_axis',(1.,0.,0.));
#440=DIRECTION('',(0.,0.,1.));
#441=DIRECTION('center_axis',(0.,0.,-1.));
#442=DIRECTION('ref_axis',(1.,0.,0.));
#443=DIRECTION('center_axis',(0.,0.,1.));
#444=DIRECTION('ref_axis',(1.,0.,0.));
#445=DIRECTION('center_axis',(0.,0.,1.));
#446=DIRECTION('ref_axis',(1.,0.,0.));
#447=DIRECTION('',(0.,0.,1.));
#448=DIRECTION('center_axis',(0.,0.,-1.));
#449=DIRECTION('ref_axis',(1.,0.,0.));
#450=DIRECTION('center_axis',(0.,0.,1.));
#451=DIRECTION('ref_axis',(1.,0.,0.));
#452=DIRECTION('center_axis',(0.,0.,1.));
#453=DIRECTION('ref_axis',(1.,0.,0.));
#454=DIRECTION('',(0.,0.,1.));
#455=DIRECTION('center_axis',(0.,0.,-1.));
#456=DIRECTION('ref_axis',(1.,0.,0.));
#457=DIRECTION('center_axis',(0.,0.,1.));
#458=DIRECTION('ref_axis',(1.,0.,0.));
#459=DIRECTION('center_axis',(0.,0.,1.));
#460=DIRECTION('ref_axis',(1.,0.,0.));
#461=DIRECTION('',(0.,0.,1.));
#462=DIRECTION('center_axis',(0.,0.,-1.));
#463=DIRECTION('ref_axis',(1.,0.,0.));
#464=DIRECTION('center_axis',(0.,0.,1.));
#465=DIRECTION('ref_axis',(1.,0.,0.));
#466=DIRECTION('center_axis',(0.,0.,1.));
#467=DIRECTION('ref_axis',(1.,0.,0.));
#468=DIRECTION('',(0.,0.,1.));
#469=DIRECTION('center_axis',(0.,0.,-1.));
#470=DIRECTION('ref_axis',(1.,0.,0.));
#471=DIRECTION('center_axis',(0.,0.,1.));
#472=DIRECTION('ref_axis',(1.,0.,0.));
#473=DIRECTION('center_axis',(0.,0.,1.));
#474=DIRECTION('ref_axis',(1.,0.,0.));
#475=DIRECTION('',(0.,0.,1.));
#476=DIRECTION('center_axis',(0.,0.,-1.));
#477=DIRECTION('ref_axis',(1.,0.,0.));
#478=DIRECTION('center_axis',(0.,0.,1.));
#479=DIRECTION('ref_axis',(1.,0.,0.));
#480=DIRECTION('center_axis',(0.,0.,1.));
#481=DIRECTION('ref_axis',(1.,0.,0.));
#482=DIRECTION('',(0.,0.,1.));
#483=DIRECTION('center_axis',(0.,0.,-1.));
#484=DIRECTION('ref_axis',(1.,0.,0.));
#485=DIRECTION('center_axis',(0.,-1.,0.));
#486=DIRECTION('ref_axis',(1.,0.,0.));
#487=DIRECTION('',(-1.,0.,0.));
#488=DIRECTION('',(0.,0.,1.));
#489=DIRECTION('',(1.,0.,0.));
#490=DIRECTION('',(0.,0.,1.));
#491=DIRECTION('center_axis',(-1.,0.,0.));
#492=DIRECTION('ref_axis',(0.,-1.,0.));
#493=DIRECTION('',(0.,1.,0.));
#494=DIRECTION('',(0.,-1.,0.));
#495=DIRECTION('',(0.,0.,1.));
#496=DIRECTION('center_axis',(0.,1.,0.));
#497=DIRECTION('ref_axis',(-1.,0.,0.));
#498=DIRECTION('',(1.,0.,0.));
#499=DIRECTION('',(-1.,0.,0.));
#500=DIRECTION('',(0.,0.,1.));
#501=DIRECTION('center_axis',(1.,0.,0.));
#502=DIRECTION('ref_axis',(0.,1.,0.));
#503=DIRECTION('',(0.,-1.,0.));
#504=DIRECTION('',(0.,1.,0.));
#505=DIRECTION('center_axis',(0.,1.,0.));
#506=DIRECTION('ref_axis',(-1.,0.,0.));
#507=DIRECTION('',(-1.,0.,0.));
#508=DIRECTION('',(0.,0.,1.));
#509=DIRECTION('',(-1.,0.,0.));
#510=DIRECTION('',(0.,0.,1.));
#511=DIRECTION('center_axis',(1.,0.,0.));
#512=DIRECTION('ref_axis',(0.,1.,0.));
#513=DIRECTION('',(0.,1.,0.));
#514=DIRECTION('',(0.,1.,0.));
#515=DIRECTION('',(0.,0.,1.));
#516=DIRECTION('center_axis',(0.,-1.,0.));
#517=DIRECTION('ref_axis',(1.,0.,0.));
#518=DIRECTION('',(1.,0.,0.));
#519=DIRECTION('',(1.,0.,0.));
#520=DIRECTION('',(0.,0.,1.));
#521=DIRECTION('center_axis',(-1.,0.,0.));
#522=DIRECTION('ref_axis',(0.,-1.,0.));
#523=DIRECTION('',(0.,-1.,0.));
#524=DIRECTION('',(0.,-1.,0.));
#525=DIRECTION('center_axis',(0.,0.,1.));
#526=DIRECTION('ref_axis',(1.,0.,0.));
#527=DIRECTION('center_axis',(0.,0.,1.));
#528=DIRECTION('ref_axis',(1.,0.,0.));
#529=CARTESIAN_POINT('',(0.,0.,0.));
#530=CARTESIAN_POINT('Origin',(104.,60.,0.));
#531=CARTESIAN_POINT('',(102.4,60.,0.));
#532=CARTESIAN_POINT('Origin',(104.,60.,0.));
#533=CARTESIAN_POINT('',(102.4,60.,4.));
#534=CARTESIAN_POINT('',(102.4,60.,0.));
#535=CARTESIAN_POINT('Origin',(104.,60.,4.));
#536=CARTESIAN_POINT('Origin',(104.,-60.,0.));
#537=CARTESIAN_POINT('',(102.4,-60.,0.));
#538=CARTESIAN_POINT('Origin',(104.,-60.,0.));
#539=CARTESIAN_POINT('',(102.4,-60.,4.));
#540=CARTESIAN_POINT('',(102.4,-60.,0.));
#541=CARTESIAN_POINT('Origin',(104.,-60.,4.));
#542=CARTESIAN_POINT('Origin',(-104.,60.,0.));
#543=CARTESIAN_POINT('',(-105.6,60.,0.));
#544=CARTESIAN_POINT('Origin',(-104.,60.,0.));
#545=CARTESIAN_POINT('',(-105.6,60.,4.));
#546=CARTESIAN_POINT('',(-105.6,60.,0.));
#547=CARTESIAN_POINT('Origin',(-104.,60.,4.));
#548=CARTESIAN_POINT('Origin',(-104.,-60.,0.));
#549=CARTESIAN_POINT('',(-105.6,-60.,0.));
#550=CARTESIAN_POINT('Origin',(-104.,-60.,0.));
#551=CARTESIAN_POINT('',(-105.6,-60.,4.));
#552=CARTESIAN_POINT('',(-105.6,-60.,0.));
#553=CARTESIAN_POINT('Origin',(-104.,-60.,4.));
#554=CARTESIAN_POINT('Origin',(114.,76.5,0.));
#555=CARTESIAN_POINT('',(111.75,76.5,0.));
#556=CARTESIAN_POINT('Origin',(114.,76.5,0.));
#557=CARTESIAN_POINT('',(111.75,76.5,4.));
#558=CARTESIAN_POINT('',(111.75,76.5,0.));
#559=CARTESIAN_POINT('Origin',(114.,76.5,4.));
#560=CARTESIAN_POINT('Origin',(114.,-76.5,0.));
#561=CARTESIAN_POINT('',(111.75,-76.5,0.));
#562=CARTESIAN_POINT('Origin',(114.,-76.5,0.));
#563=CARTESIAN_POINT('',(111.75,-76.5,4.));
#564=CARTESIAN_POINT('',(111.75,-76.5,0.));
#565=CARTESIAN_POINT('Origin',(114.,-76.5,4.));
#566=CARTESIAN_POINT('Origin',(-114.,76.5,0.));
#567=CARTESIAN_POINT('',(-116.25,76.5,0.));
#568=CARTESIAN_POINT('Origin',(-114.,76.5,0.));
#569=CARTESIAN_POINT('',(-116.25,76.5,4.));
#570=CARTESIAN_POINT('',(-116.25,76.5,0.));
#571=CARTESIAN_POINT('Origin',(-114.,76.5,4.));
#572=CARTESIAN_POINT('Origin',(-114.,-76.5,0.));
#573=CARTESIAN_POINT('',(-116.25,-76.5,0.));
#574=CARTESIAN_POINT('Origin',(-114.,-76.5,0.));
#575=CARTESIAN_POINT('',(-116.25,-76.5,4.));
#576=CARTESIAN_POINT('',(-116.25,-76.5,0.));
#577=CARTESIAN_POINT('Origin',(-114.,-76.5,4.));
#578=CARTESIAN_POINT('Origin',(-101.,-63.5,0.));
#579=CARTESIAN_POINT('',(101.,-63.5,4.));
#580=CARTESIAN_POINT('',(-101.,-63.5,4.));
#581=CARTESIAN_POINT('',(-50.5,-63.5,4.));
#582=CARTESIAN_POINT('',(101.,-63.5,0.));
#583=CARTESIAN_POINT('',(101.,-63.5,0.));
#584=CARTESIAN_POINT('',(-101.,-63.5,0.));
#585=CARTESIAN_POINT('',(-50.5,-63.5,0.));
#586=CARTESIAN_POINT('',(-101.,-63.5,0.));
#587=CARTESIAN_POINT('Origin',(-101.,63.5,0.));
#588=CARTESIAN_POINT('',(-101.,63.5,4.));
#589=CARTESIAN_POINT('',(-101.,31.75,4.));
#590=CARTESIAN_POINT('',(-101.,63.5,0.));
#591=CARTESIAN_POINT('',(-101.,31.75,0.));
#592=CARTESIAN_POINT('',(-101.,63.5,0.));
#593=CARTESIAN_POINT('Origin',(101.,63.5,0.));
#594=CARTESIAN_POINT('',(101.,63.5,4.));
#595=CARTESIAN_POINT('',(50.5,63.5,4.));
#596=CARTESIAN_POINT('',(101.,63.5,0.));
#597=CARTESIAN_POINT('',(50.5,63.5,0.));
#598=CARTESIAN_POINT('',(101.,63.5,0.));
#599=CARTESIAN_POINT('Origin',(101.,-63.5,0.));
#600=CARTESIAN_POINT('',(101.,-31.75,4.));
#601=CARTESIAN_POINT('',(101.,-31.75,0.));
#602=CARTESIAN_POINT('Origin',(120.,82.5,0.));
#603=CARTESIAN_POINT('',(120.,82.5,0.));
#604=CARTESIAN_POINT('',(-120.,82.5,0.));
#605=CARTESIAN_POINT('',(120.,82.5,0.));
#606=CARTESIAN_POINT('',(-120.,82.5,4.));
#607=CARTESIAN_POINT('',(-120.,82.5,0.));
#608=CARTESIAN_POINT('',(120.,82.5,4.));
#609=CARTESIAN_POINT('',(120.,82.5,4.));
#610=CARTESIAN_POINT('',(120.,82.5,0.));
#611=CARTESIAN_POINT('Origin',(120.,-82.5,0.));
#612=CARTESIAN_POINT('',(120.,-82.5,0.));
#613=CARTESIAN_POINT('',(120.,-82.5,0.));
#614=CARTESIAN_POINT('',(120.,-82.5,4.));
#615=CARTESIAN_POINT('',(120.,-82.5,4.));
#616=CARTESIAN_POINT('',(120.,-82.5,0.));
#617=CARTESIAN_POINT('Origin',(-120.,-82.5,0.));
#618=CARTESIAN_POINT('',(-120.,-82.5,0.));
#619=CARTESIAN_POINT('',(-120.,-82.5,0.));
#620=CARTESIAN_POINT('',(-120.,-82.5,4.));
#621=CARTESIAN_POINT('',(-120.,-82.5,4.));
#622=CARTESIAN_POINT('',(-120.,-82.5,0.));
#623=CARTESIAN_POINT('Origin',(-120.,82.5,0.));
#624=CARTESIAN_POINT('',(-120.,82.5,0.));
#625=CARTESIAN_POINT('',(-120.,82.5,4.));
#626=CARTESIAN_POINT('Origin',(0.,0.,4.));
#627=CARTESIAN_POINT('Origin',(0.,0.,0.));
#628=UNCERTAINTY_MEASURE_WITH_UNIT(LENGTH_MEASURE(0.01),#632,
'DISTANCE_ACCURACY_VALUE',
'Maximum model space distance between geometric entities at asserted c
onnectivities');
#629=UNCERTAINTY_MEASURE_WITH_UNIT(LENGTH_MEASURE(0.01),#632,
'DISTANCE_ACCURACY_VALUE',
'Maximum model space distance between geometric entities at asserted c
onnectivities');
#630=(
GEOMETRIC_REPRESENTATION_CONTEXT(3)
GLOBAL_UNCERTAINTY_ASSIGNED_CONTEXT((#628))
GLOBAL_UNIT_ASSIGNED_CONTEXT((#632,#634,#635))
REPRESENTATION_CONTEXT('','3D')
);
#631=(
GEOMETRIC_REPRESENTATION_CONTEXT(3)
GLOBAL_UNCERTAINTY_ASSIGNED_CONTEXT((#629))
GLOBAL_UNIT_ASSIGNED_CONTEXT((#632,#634,#635))
REPRESENTATION_CONTEXT('','3D')
);
#632=(
LENGTH_UNIT()
NAMED_UNIT(*)
SI_UNIT(.MILLI.,.METRE.)
);
#633=(
LENGTH_UNIT()
NAMED_UNIT(*)
SI_UNIT($,.METRE.)
);
#634=(
NAMED_UNIT(*)
PLANE_ANGLE_UNIT()
SI_UNIT($,.RADIAN.)
);
#635=(
NAMED_UNIT(*)
SI_UNIT($,.STERADIAN.)
SOLID_ANGLE_UNIT()
);
#636=SHAPE_DEFINITION_REPRESENTATION(#637,#638);
#637=PRODUCT_DEFINITION_SHAPE('',$,#640);
#638=SHAPE_REPRESENTATION('',(#392),#630);
#639=PRODUCT_DEFINITION_CONTEXT('part definition',#644,'design');
#640=PRODUCT_DEFINITION('SmartMeter_PanelMountFrame',
'SmartMeter_PanelMountFrame',#641,#639);
#641=PRODUCT_DEFINITION_FORMATION('',$,#646);
#642=PRODUCT_RELATED_PRODUCT_CATEGORY('SmartMeter_PanelMountFrame',
'SmartMeter_PanelMountFrame',(#646));
#643=APPLICATION_PROTOCOL_DEFINITION('international standard',
'automotive_design',2009,#644);
#644=APPLICATION_CONTEXT(
'Core Data for Automotive Mechanical Design Process');
#645=PRODUCT_CONTEXT('part definition',#644,'mechanical');
#646=PRODUCT('SmartMeter_PanelMountFrame','SmartMeter_PanelMountFrame',
$,(#645));
#647=PRESENTATION_STYLE_ASSIGNMENT((#648));
#648=SURFACE_STYLE_USAGE(.BOTH.,#649);
#649=SURFACE_SIDE_STYLE('',(#650));
#650=SURFACE_STYLE_FILL_AREA(#651);
#651=FILL_AREA_STYLE('A\X\E7o - Acetinado',(#652));
#652=FILL_AREA_STYLE_COLOUR('A\X\E7o - Acetinado',#653);
#653=COLOUR_RGB('A\X\E7o - Acetinado',0.627450980392157,0.627450980392157,
0.627450980392157);
ENDSEC;
END-ISO-10303-21;
