ISO-10303-21;
HEADER;
/* Generated by software containing ST-Developer
 * from STEP Tools, Inc. (www.steptools.com) 
 */

FILE_DESCRIPTION(
/* description */ (''),
/* implementation_level */ '2;1');

FILE_NAME(
/* name */ 'SmartMeter_RearPanel.step',
/* time_stamp */ '2026-10-03T17:39:34-03:00',
/* author */ (''),
/* organization */ (''),
/* preprocessor_version */ 'ST-DEVELOPER v20.1',
/* originating_system */ 'Autodesk Translation Framework v15.8.0.0',
/* authorisation */ '');

FILE_SCHEMA (('AUTOMOTIVE_DESIGN { 1 0 10303 214 3 1 1 }'));
ENDSEC;

DATA;
#10=MECHANICAL_DESIGN_GEOMETRIC_PRESENTATION_REPRESENTATION('',(#13),#1039);
#11=SHAPE_REPRESENTATION_RELATIONSHIP('SRR','None',#1046,#12);
#12=ADVANCED_BREP_SHAPE_REPRESENTATION('',(#14),#1038);
#13=STYLED_ITEM('',(#1055),#14);
#14=MANIFOLD_SOLID_BREP('Corpo1',#643);
#15=FACE_BOUND('',#120,.T.);
#16=FACE_BOUND('',#121,.T.);
#17=FACE_BOUND('',#122,.T.);
#18=FACE_BOUND('',#123,.T.);
#19=FACE_BOUND('',#124,.T.);
#20=FACE_BOUND('',#125,.T.);
#21=FACE_BOUND('',#126,.T.);
#22=FACE_BOUND('',#127,.T.);
#23=FACE_BOUND('',#128,.T.);
#24=FACE_BOUND('',#129,.T.);
#25=FACE_BOUND('',#130,.T.);
#26=FACE_BOUND('',#131,.T.);
#27=FACE_BOUND('',#133,.T.);
#28=FACE_BOUND('',#134,.T.);
#29=FACE_BOUND('',#135,.T.);
#30=FACE_BOUND('',#136,.T.);
#31=FACE_BOUND('',#137,.T.);
#32=FACE_BOUND('',#138,.T.);
#33=FACE_BOUND('',#139,.T.);
#34=FACE_BOUND('',#140,.T.);
#35=FACE_BOUND('',#141,.T.);
#36=FACE_BOUND('',#142,.T.);
#37=FACE_BOUND('',#143,.T.);
#38=FACE_BOUND('',#144,.T.);
#39=PLANE('',#669);
#40=PLANE('',#670);
#41=PLANE('',#671);
#42=PLANE('',#672);
#43=PLANE('',#673);
#44=PLANE('',#674);
#45=PLANE('',#675);
#46=PLANE('',#676);
#47=PLANE('',#677);
#48=PLANE('',#678);
#49=PLANE('',#679);
#50=PLANE('',#680);
#51=PLANE('',#693);
#52=PLANE('',#694);
#53=PLANE('',#695);
#54=PLANE('',#696);
#55=PLANE('',#697);
#56=PLANE('',#698);
#57=PLANE('',#699);
#58=PLANE('',#700);
#59=PLANE('',#701);
#60=PLANE('',#702);
#61=FACE_OUTER_BOUND('',#91,.T.);
#62=FACE_OUTER_BOUND('',#92,.T.);
#63=FACE_OUTER_BOUND('',#93,.T.);
#64=FACE_OUTER_BOUND('',#94,.T.);
#65=FACE_OUTER_BOUND('',#95,.T.);
#66=FACE_OUTER_BOUND('',#96,.T.);
#67=FACE_OUTER_BOUND('',#97,.T.);
#68=FACE_OUTER_BOUND('',#98,.T.);
#69=FACE_OUTER_BOUND('',#99,.T.);
#70=FACE_OUTER_BOUND('',#100,.T.);
#71=FACE_OUTER_BOUND('',#101,.T.);
#72=FACE_OUTER_BOUND('',#102,.T.);
#73=FACE_OUTER_BOUND('',#103,.T.);
#74=FACE_OUTER_BOUND('',#104,.T.);
#75=FACE_OUTER_BOUND('',#105,.T.);
#76=FACE_OUTER_BOUND('',#106,.T.);
#77=FACE_OUTER_BOUND('',#107,.T.);
#78=FACE_OUTER_BOUND('',#108,.T.);
#79=FACE_OUTER_BOUND('',#109,.T.);
#80=FACE_OUTER_BOUND('',#110,.T.);
#81=FACE_OUTER_BOUND('',#111,.T.);
#82=FACE_OUTER_BOUND('',#112,.T.);
#83=FACE_OUTER_BOUND('',#113,.T.);
#84=FACE_OUTER_BOUND('',#114,.T.);
#85=FACE_OUTER_BOUND('',#115,.T.);
#86=FACE_OUTER_BOUND('',#116,.T.);
#87=FACE_OUTER_BOUND('',#117,.T.);
#88=FACE_OUTER_BOUND('',#118,.T.);
#89=FACE_OUTER_BOUND('',#119,.T.);
#90=FACE_OUTER_BOUND('',#132,.T.);
#91=EDGE_LOOP('',(#437,#438,#439,#440));
#92=EDGE_LOOP('',(#441,#442,#443,#444));
#93=EDGE_LOOP('',(#445,#446,#447,#448));
#94=EDGE_LOOP('',(#449,#450,#451,#452));
#95=EDGE_LOOP('',(#453,#454,#455,#456));
#96=EDGE_LOOP('',(#457,#458,#459,#460));
#97=EDGE_LOOP('',(#461,#462,#463,#464));
#98=EDGE_LOOP('',(#465,#466,#467,#468));
#99=EDGE_LOOP('',(#469,#470,#471,#472));
#100=EDGE_LOOP('',(#473,#474,#475,#476));
#101=EDGE_LOOP('',(#477,#478,#479,#480));
#102=EDGE_LOOP('',(#481,#482,#483,#484));
#103=EDGE_LOOP('',(#485,#486,#487,#488));
#104=EDGE_LOOP('',(#489,#490,#491,#492));
#105=EDGE_LOOP('',(#493,#494,#495,#496));
#106=EDGE_LOOP('',(#497,#498,#499,#500));
#107=EDGE_LOOP('',(#501,#502,#503,#504));
#108=EDGE_LOOP('',(#505,#506,#507,#508));
#109=EDGE_LOOP('',(#509,#510,#511,#512));
#110=EDGE_LOOP('',(#513,#514,#515,#516));
#111=EDGE_LOOP('',(#517,#518,#519,#520));
#112=EDGE_LOOP('',(#521,#522,#523,#524));
#113=EDGE_LOOP('',(#525,#526,#527,#528));
#114=EDGE_LOOP('',(#529,#530,#531,#532));
#115=EDGE_LOOP('',(#533,#534,#535,#536));
#116=EDGE_LOOP('',(#537,#538,#539,#540));
#117=EDGE_LOOP('',(#541,#542,#543,#544));
#118=EDGE_LOOP('',(#545,#546,#547,#548));
#119=EDGE_LOOP('',(#549,#550,#551,#552));
#120=EDGE_LOOP('',(#553));
#121=EDGE_LOOP('',(#554));
#122=EDGE_LOOP('',(#555,#556,#557,#558));
#123=EDGE_LOOP('',(#559));
#124=EDGE_LOOP('',(#560));
#125=EDGE_LOOP('',(#561));
#126=EDGE_LOOP('',(#562));
#127=EDGE_LOOP('',(#563,#564,#565,#566));
#128=EDGE_LOOP('',(#567,#568,#569,#570));
#129=EDGE_LOOP('',(#571,#572,#573,#574));
#130=EDGE_LOOP('',(#575));
#131=EDGE_LOOP('',(#576));
#132=EDGE_LOOP('',(#577,#578,#579,#580));
#133=EDGE_LOOP('',(#581));
#134=EDGE_LOOP('',(#582));
#135=EDGE_LOOP('',(#583,#584,#585,#586));
#136=EDGE_LOOP('',(#587));
#137=EDGE_LOOP('',(#588));
#138=EDGE_LOOP('',(#589));
#139=EDGE_LOOP('',(#590));
#140=EDGE_LOOP('',(#591,#592,#593,#594));
#141=EDGE_LOOP('',(#595,#596,#597,#598));
#142=EDGE_LOOP('',(#599,#600,#601,#602));
#143=EDGE_LOOP('',(#603));
#144=EDGE_LOOP('',(#604));
#145=LINE('',#870,#213);
#146=LINE('',#876,#214);
#147=LINE('',#882,#215);
#148=LINE('',#888,#216);
#149=LINE('',#893,#217);
#150=LINE('',#895,#218);
#151=LINE('',#897,#219);
#152=LINE('',#898,#220);
#153=LINE('',#901,#221);
#154=LINE('',#903,#222);
#155=LINE('',#904,#223);
#156=LINE('',#907,#224);
#157=LINE('',#909,#225);
#158=LINE('',#910,#226);
#159=LINE('',#912,#227);
#160=LINE('',#913,#228);
#161=LINE('',#917,#229);
#162=LINE('',#919,#230);
#163=LINE('',#921,#231);
#164=LINE('',#922,#232);
#165=LINE('',#925,#233);
#166=LINE('',#927,#234);
#167=LINE('',#928,#235);
#168=LINE('',#931,#236);
#169=LINE('',#933,#237);
#170=LINE('',#934,#238);
#171=LINE('',#936,#239);
#172=LINE('',#937,#240);
#173=LINE('',#941,#241);
#174=LINE('',#943,#242);
#175=LINE('',#945,#243);
#176=LINE('',#946,#244);
#177=LINE('',#949,#245);
#178=LINE('',#951,#246);
#179=LINE('',#952,#247);
#180=LINE('',#955,#248);
#181=LINE('',#957,#249);
#182=LINE('',#958,#250);
#183=LINE('',#960,#251);
#184=LINE('',#961,#252);
#185=LINE('',#966,#253);
#186=LINE('',#972,#254);
#187=LINE('',#978,#255);
#188=LINE('',#984,#256);
#189=LINE('',#989,#257);
#190=LINE('',#991,#258);
#191=LINE('',#993,#259);
#192=LINE('',#994,#260);
#193=LINE('',#997,#261);
#194=LINE('',#999,#262);
#195=LINE('',#1000,#263);
#196=LINE('',#1003,#264);
#197=LINE('',#1005,#265);
#198=LINE('',#1006,#266);
#199=LINE('',#1008,#267);
#200=LINE('',#1009,#268);
#201=LINE('',#1013,#269);
#202=LINE('',#1015,#270);
#203=LINE('',#1017,#271);
#204=LINE('',#1018,#272);
#205=LINE('',#1021,#273);
#206=LINE('',#1023,#274);
#207=LINE('',#1024,#275);
#208=LINE('',#1027,#276);
#209=LINE('',#1029,#277);
#210=LINE('',#1030,#278);
#211=LINE('',#1032,#279);
#212=LINE('',#1033,#280);
#213=VECTOR('',#709,1.6);
#214=VECTOR('',#716,1.6);
#215=VECTOR('',#723,1.6);
#216=VECTOR('',#730,1.6);
#217=VECTOR('',#735,10.);
#218=VECTOR('',#736,10.);
#219=VECTOR('',#737,10.);
#220=VECTOR('',#738,10.);
#221=VECTOR('',#741,10.);
#222=VECTOR('',#742,10.);
#223=VECTOR('',#743,10.);
#224=VECTOR('',#746,10.);
#225=VECTOR('',#747,10.);
#226=VECTOR('',#748,10.);
#227=VECTOR('',#751,10.);
#228=VECTOR('',#752,10.);
#229=VECTOR('',#755,10.);
#230=VECTOR('',#756,10.);
#231=VECTOR('',#757,10.);
#232=VECTOR('',#758,10.);
#233=VECTOR('',#761,10.);
#234=VECTOR('',#762,10.);
#235=VECTOR('',#763,10.);
#236=VECTOR('',#766,10.);
#237=VECTOR('',#767,10.);
#238=VECTOR('',#768,10.);
#239=VECTOR('',#771,10.);
#240=VECTOR('',#772,10.);
#241=VECTOR('',#775,10.);
#242=VECTOR('',#776,10.);
#243=VECTOR('',#777,10.);
#244=VECTOR('',#778,10.);
#245=VECTOR('',#781,10.);
#246=VECTOR('',#782,10.);
#247=VECTOR('',#783,10.);
#248=VECTOR('',#786,10.);
#249=VECTOR('',#787,10.);
#250=VECTOR('',#788,10.);
#251=VECTOR('',#791,10.);
#252=VECTOR('',#792,10.);
#253=VECTOR('',#797,6.);
#254=VECTOR('',#804,6.);
#255=VECTOR('',#811,6.);
#256=VECTOR('',#818,6.);
#257=VECTOR('',#823,10.);
#258=VECTOR('',#824,10.);
#259=VECTOR('',#825,10.);
#260=VECTOR('',#826,10.);
#261=VECTOR('',#829,10.);
#262=VECTOR('',#830,10.);
#263=VECTOR('',#831,10.);
#264=VECTOR('',#834,10.);
#265=VECTOR('',#835,10.);
#266=VECTOR('',#836,10.);
#267=VECTOR('',#839,10.);
#268=VECTOR('',#840,10.);
#269=VECTOR('',#843,10.);
#270=VECTOR('',#844,10.);
#271=VECTOR('',#845,10.);
#272=VECTOR('',#846,10.);
#273=VECTOR('',#849,10.);
#274=VECTOR('',#850,10.);
#275=VECTOR('',#851,10.);
#276=VECTOR('',#854,10.);
#277=VECTOR('',#855,10.);
#278=VECTOR('',#856,10.);
#279=VECTOR('',#859,10.);
#280=VECTOR('',#860,10.);
#281=CIRCLE('',#658,1.6);
#282=CIRCLE('',#659,1.6);
#283=CIRCLE('',#661,1.6);
#284=CIRCLE('',#662,1.6);
#285=CIRCLE('',#664,1.6);
#286=CIRCLE('',#665,1.6);
#287=CIRCLE('',#667,1.6);
#288=CIRCLE('',#668,1.6);
#289=CIRCLE('',#682,6.);
#290=CIRCLE('',#683,6.);
#291=CIRCLE('',#685,6.);
#292=CIRCLE('',#686,6.);
#293=CIRCLE('',#688,6.);
#294=CIRCLE('',#689,6.);
#295=CIRCLE('',#691,6.);
#296=CIRCLE('',#692,6.);
#297=VERTEX_POINT('',#867);
#298=VERTEX_POINT('',#869);
#299=VERTEX_POINT('',#873);
#300=VERTEX_POINT('',#875);
#301=VERTEX_POINT('',#879);
#302=VERTEX_POINT('',#881);
#303=VERTEX_POINT('',#885);
#304=VERTEX_POINT('',#887);
#305=VERTEX_POINT('',#891);
#306=VERTEX_POINT('',#892);
#307=VERTEX_POINT('',#894);
#308=VERTEX_POINT('',#896);
#309=VERTEX_POINT('',#900);
#310=VERTEX_POINT('',#902);
#311=VERTEX_POINT('',#906);
#312=VERTEX_POINT('',#908);
#313=VERTEX_POINT('',#915);
#314=VERTEX_POINT('',#916);
#315=VERTEX_POINT('',#918);
#316=VERTEX_POINT('',#920);
#317=VERTEX_POINT('',#924);
#318=VERTEX_POINT('',#926);
#319=VERTEX_POINT('',#930);
#320=VERTEX_POINT('',#932);
#321=VERTEX_POINT('',#939);
#322=VERTEX_POINT('',#940);
#323=VERTEX_POINT('',#942);
#324=VERTEX_POINT('',#944);
#325=VERTEX_POINT('',#948);
#326=VERTEX_POINT('',#950);
#327=VERTEX_POINT('',#954);
#328=VERTEX_POINT('',#956);
#329=VERTEX_POINT('',#963);
#330=VERTEX_POINT('',#965);
#331=VERTEX_POINT('',#969);
#332=VERTEX_POINT('',#971);
#333=VERTEX_POINT('',#975);
#334=VERTEX_POINT('',#977);
#335=VERTEX_POINT('',#981);
#336=VERTEX_POINT('',#983);
#337=VERTEX_POINT('',#987);
#338=VERTEX_POINT('',#988);
#339=VERTEX_POINT('',#990);
#340=VERTEX_POINT('',#992);
#341=VERTEX_POINT('',#996);
#342=VERTEX_POINT('',#998);
#343=VERTEX_POINT('',#1002);
#344=VERTEX_POINT('',#1004);
#345=VERTEX_POINT('',#1011);
#346=VERTEX_POINT('',#1012);
#347=VERTEX_POINT('',#1014);
#348=VERTEX_POINT('',#1016);
#349=VERTEX_POINT('',#1020);
#350=VERTEX_POINT('',#1022);
#351=VERTEX_POINT('',#1026);
#352=VERTEX_POINT('',#1028);
#353=EDGE_CURVE('',#297,#297,#281,.T.);
#354=EDGE_CURVE('',#297,#298,#145,.T.);
#355=EDGE_CURVE('',#298,#298,#282,.T.);
#356=EDGE_CURVE('',#299,#299,#283,.T.);
#357=EDGE_CURVE('',#299,#300,#146,.T.);
#358=EDGE_CURVE('',#300,#300,#284,.T.);
#359=EDGE_CURVE('',#301,#301,#285,.T.);
#360=EDGE_CURVE('',#301,#302,#147,.T.);
#361=EDGE_CURVE('',#302,#302,#286,.T.);
#362=EDGE_CURVE('',#303,#303,#287,.T.);
#363=EDGE_CURVE('',#303,#304,#148,.T.);
#364=EDGE_CURVE('',#304,#304,#288,.T.);
#365=EDGE_CURVE('',#305,#306,#149,.T.);
#366=EDGE_CURVE('',#307,#305,#150,.T.);
#367=EDGE_CURVE('',#308,#307,#151,.T.);
#368=EDGE_CURVE('',#308,#306,#152,.T.);
#369=EDGE_CURVE('',#306,#309,#153,.T.);
#370=EDGE_CURVE('',#310,#308,#154,.T.);
#371=EDGE_CURVE('',#310,#309,#155,.T.);
#372=EDGE_CURVE('',#309,#311,#156,.T.);
#373=EDGE_CURVE('',#312,#310,#157,.T.);
#374=EDGE_CURVE('',#312,#311,#158,.T.);
#375=EDGE_CURVE('',#311,#305,#159,.T.);
#376=EDGE_CURVE('',#307,#312,#160,.T.);
#377=EDGE_CURVE('',#313,#314,#161,.T.);
#378=EDGE_CURVE('',#315,#313,#162,.T.);
#379=EDGE_CURVE('',#316,#315,#163,.T.);
#380=EDGE_CURVE('',#316,#314,#164,.T.);
#381=EDGE_CURVE('',#314,#317,#165,.T.);
#382=EDGE_CURVE('',#318,#316,#166,.T.);
#383=EDGE_CURVE('',#318,#317,#167,.T.);
#384=EDGE_CURVE('',#317,#319,#168,.T.);
#385=EDGE_CURVE('',#320,#318,#169,.T.);
#386=EDGE_CURVE('',#320,#319,#170,.T.);
#387=EDGE_CURVE('',#319,#313,#171,.T.);
#388=EDGE_CURVE('',#315,#320,#172,.T.);
#389=EDGE_CURVE('',#321,#322,#173,.T.);
#390=EDGE_CURVE('',#323,#321,#174,.T.);
#391=EDGE_CURVE('',#324,#323,#175,.T.);
#392=EDGE_CURVE('',#324,#322,#176,.T.);
#393=EDGE_CURVE('',#322,#325,#177,.T.);
#394=EDGE_CURVE('',#326,#324,#178,.T.);
#395=EDGE_CURVE('',#326,#325,#179,.T.);
#396=EDGE_CURVE('',#325,#327,#180,.T.);
#397=EDGE_CURVE('',#328,#326,#181,.T.);
#398=EDGE_CURVE('',#328,#327,#182,.T.);
#399=EDGE_CURVE('',#327,#321,#183,.T.);
#400=EDGE_CURVE('',#323,#328,#184,.T.);
#401=EDGE_CURVE('',#329,#329,#289,.T.);
#402=EDGE_CURVE('',#329,#330,#185,.T.);
#403=EDGE_CURVE('',#330,#330,#290,.T.);
#404=EDGE_CURVE('',#331,#331,#291,.T.);
#405=EDGE_CURVE('',#331,#332,#186,.T.);
#406=EDGE_CURVE('',#332,#332,#292,.T.);
#407=EDGE_CURVE('',#333,#333,#293,.T.);
#408=EDGE_CURVE('',#333,#334,#187,.T.);
#409=EDGE_CURVE('',#334,#334,#294,.T.);
#410=EDGE_CURVE('',#335,#335,#295,.T.);
#411=EDGE_CURVE('',#335,#336,#188,.T.);
#412=EDGE_CURVE('',#336,#336,#296,.T.);
#413=EDGE_CURVE('',#337,#338,#189,.T.);
#414=EDGE_CURVE('',#339,#337,#190,.T.);
#415=EDGE_CURVE('',#340,#339,#191,.T.);
#416=EDGE_CURVE('',#340,#338,#192,.T.);
#417=EDGE_CURVE('',#338,#341,#193,.T.);
#418=EDGE_CURVE('',#342,#340,#194,.T.);
#419=EDGE_CURVE('',#342,#341,#195,.T.);
#420=EDGE_CURVE('',#341,#343,#196,.T.);
#421=EDGE_CURVE('',#344,#342,#197,.T.);
#422=EDGE_CURVE('',#344,#343,#198,.T.);
#423=EDGE_CURVE('',#343,#337,#199,.T.);
#424=EDGE_CURVE('',#339,#344,#200,.T.);
#425=EDGE_CURVE('',#345,#346,#201,.T.);
#426=EDGE_CURVE('',#346,#347,#202,.T.);
#427=EDGE_CURVE('',#348,#347,#203,.T.);
#428=EDGE_CURVE('',#345,#348,#204,.T.);
#429=EDGE_CURVE('',#349,#345,#205,.T.);
#430=EDGE_CURVE('',#350,#348,#206,.T.);
#431=EDGE_CURVE('',#349,#350,#207,.T.);
#432=EDGE_CURVE('',#351,#349,#208,.T.);
#433=EDGE_CURVE('',#352,#350,#209,.T.);
#434=EDGE_CURVE('',#351,#352,#210,.T.);
#435=EDGE_CURVE('',#346,#351,#211,.T.);
#436=EDGE_CURVE('',#347,#352,#212,.T.);
#437=ORIENTED_EDGE('',*,*,#353,.F.);
#438=ORIENTED_EDGE('',*,*,#354,.T.);
#439=ORIENTED_EDGE('',*,*,#355,.F.);
#440=ORIENTED_EDGE('',*,*,#354,.F.);
#441=ORIENTED_EDGE('',*,*,#356,.F.);
#442=ORIENTED_EDGE('',*,*,#357,.T.);
#443=ORIENTED_EDGE('',*,*,#358,.F.);
#444=ORIENTED_EDGE('',*,*,#357,.F.);
#445=ORIENTED_EDGE('',*,*,#359,.F.);
#446=ORIENTED_EDGE('',*,*,#360,.T.);
#447=ORIENTED_EDGE('',*,*,#361,.F.);
#448=ORIENTED_EDGE('',*,*,#360,.F.);
#449=ORIENTED_EDGE('',*,*,#362,.F.);
#450=ORIENTED_EDGE('',*,*,#363,.T.);
#451=ORIENTED_EDGE('',*,*,#364,.F.);
#452=ORIENTED_EDGE('',*,*,#363,.F.);
#453=ORIENTED_EDGE('',*,*,#365,.F.);
#454=ORIENTED_EDGE('',*,*,#366,.F.);
#455=ORIENTED_EDGE('',*,*,#367,.F.);
#456=ORIENTED_EDGE('',*,*,#368,.T.);
#457=ORIENTED_EDGE('',*,*,#369,.F.);
#458=ORIENTED_EDGE('',*,*,#368,.F.);
#459=ORIENTED_EDGE('',*,*,#370,.F.);
#460=ORIENTED_EDGE('',*,*,#371,.T.);
#461=ORIENTED_EDGE('',*,*,#372,.F.);
#462=ORIENTED_EDGE('',*,*,#371,.F.);
#463=ORIENTED_EDGE('',*,*,#373,.F.);
#464=ORIENTED_EDGE('',*,*,#374,.T.);
#465=ORIENTED_EDGE('',*,*,#375,.F.);
#466=ORIENTED_EDGE('',*,*,#374,.F.);
#467=ORIENTED_EDGE('',*,*,#376,.F.);
#468=ORIENTED_EDGE('',*,*,#366,.T.);
#469=ORIENTED_EDGE('',*,*,#377,.F.);
#470=ORIENTED_EDGE('',*,*,#378,.F.);
#471=ORIENTED_EDGE('',*,*,#379,.F.);
#472=ORIENTED_EDGE('',*,*,#380,.T.);
#473=ORIENTED_EDGE('',*,*,#381,.F.);
#474=ORIENTED_EDGE('',*,*,#380,.F.);
#475=ORIENTED_EDGE('',*,*,#382,.F.);
#476=ORIENTED_EDGE('',*,*,#383,.T.);
#477=ORIENTED_EDGE('',*,*,#384,.F.);
#478=ORIENTED_EDGE('',*,*,#383,.F.);
#479=ORIENTED_EDGE('',*,*,#385,.F.);
#480=ORIENTED_EDGE('',*,*,#386,.T.);
#481=ORIENTED_EDGE('',*,*,#387,.F.);
#482=ORIENTED_EDGE('',*,*,#386,.F.);
#483=ORIENTED_EDGE('',*,*,#388,.F.);
#484=ORIENTED_EDGE('',*,*,#378,.T.);
#485=ORIENTED_EDGE('',*,*,#389,.F.);
#486=ORIENTED_EDGE('',*,*,#390,.F.);
#487=ORIENTED_EDGE('',*,*,#391,.F.);
#488=ORIENTED_EDGE('',*,*,#392,.T.);
#489=ORIENTED_EDGE('',*,*,#393,.F.);
#490=ORIENTED_EDGE('',*,*,#392,.F.);
#491=ORIENTED_EDGE('',*,*,#394,.F.);
#492=ORIENTED_EDGE('',*,*,#395,.T.);
#493=ORIENTED_EDGE('',*,*,#396,.F.);
#494=ORIENTED_EDGE('',*,*,#395,.F.);
#495=ORIENTED_EDGE('',*,*,#397,.F.);
#496=ORIENTED_EDGE('',*,*,#398,.T.);
#497=ORIENTED_EDGE('',*,*,#399,.F.);
#498=ORIENTED_EDGE('',*,*,#398,.F.);
#499=ORIENTED_EDGE('',*,*,#400,.F.);
#500=ORIENTED_EDGE('',*,*,#390,.T.);
#501=ORIENTED_EDGE('',*,*,#401,.F.);
#502=ORIENTED_EDGE('',*,*,#402,.T.);
#503=ORIENTED_EDGE('',*,*,#403,.F.);
#504=ORIENTED_EDGE('',*,*,#402,.F.);
#505=ORIENTED_EDGE('',*,*,#404,.F.);
#506=ORIENTED_EDGE('',*,*,#405,.T.);
#507=ORIENTED_EDGE('',*,*,#406,.F.);
#508=ORIENTED_EDGE('',*,*,#405,.F.);
#509=ORIENTED_EDGE('',*,*,#407,.F.);
#510=ORIENTED_EDGE('',*,*,#408,.T.);
#511=ORIENTED_EDGE('',*,*,#409,.F.);
#512=ORIENTED_EDGE('',*,*,#408,.F.);
#513=ORIENTED_EDGE('',*,*,#410,.F.);
#514=ORIENTED_EDGE('',*,*,#411,.T.);
#515=ORIENTED_EDGE('',*,*,#412,.F.);
#516=ORIENTED_EDGE('',*,*,#411,.F.);
#517=ORIENTED_EDGE('',*,*,#413,.F.);
#518=ORIENTED_EDGE('',*,*,#414,.F.);
#519=ORIENTED_EDGE('',*,*,#415,.F.);
#520=ORIENTED_EDGE('',*,*,#416,.T.);
#521=ORIENTED_EDGE('',*,*,#417,.F.);
#522=ORIENTED_EDGE('',*,*,#416,.F.);
#523=ORIENTED_EDGE('',*,*,#418,.F.);
#524=ORIENTED_EDGE('',*,*,#419,.T.);
#525=ORIENTED_EDGE('',*,*,#420,.F.);
#526=ORIENTED_EDGE('',*,*,#419,.F.);
#527=ORIENTED_EDGE('',*,*,#421,.F.);
#528=ORIENTED_EDGE('',*,*,#422,.T.);
#529=ORIENTED_EDGE('',*,*,#423,.F.);
#530=ORIENTED_EDGE('',*,*,#422,.F.);
#531=ORIENTED_EDGE('',*,*,#424,.F.);
#532=ORIENTED_EDGE('',*,*,#414,.T.);
#533=ORIENTED_EDGE('',*,*,#425,.T.);
#534=ORIENTED_EDGE('',*,*,#426,.T.);
#535=ORIENTED_EDGE('',*,*,#427,.F.);
#536=ORIENTED_EDGE('',*,*,#428,.F.);
#537=ORIENTED_EDGE('',*,*,#429,.T.);
#538=ORIENTED_EDGE('',*,*,#428,.T.);
#539=ORIENTED_EDGE('',*,*,#430,.F.);
#540=ORIENTED_EDGE('',*,*,#431,.F.);
#541=ORIENTED_EDGE('',*,*,#432,.T.);
#542=ORIENTED_EDGE('',*,*,#431,.T.);
#543=ORIENTED_EDGE('',*,*,#433,.F.);
#544=ORIENTED_EDGE('',*,*,#434,.F.);
#545=ORIENTED_EDGE('',*,*,#435,.T.);
#546=ORIENTED_EDGE('',*,*,#434,.T.);
#547=ORIENTED_EDGE('',*,*,#436,.F.);
#548=ORIENTED_EDGE('',*,*,#426,.F.);
#549=ORIENTED_EDGE('',*,*,#436,.T.);
#550=ORIENTED_EDGE('',*,*,#433,.T.);
#551=ORIENTED_EDGE('',*,*,#430,.T.);
#552=ORIENTED_EDGE('',*,*,#427,.T.);
#553=ORIENTED_EDGE('',*,*,#358,.T.);
#554=ORIENTED_EDGE('',*,*,#364,.T.);
#555=ORIENTED_EDGE('',*,*,#420,.T.);
#556=ORIENTED_EDGE('',*,*,#423,.T.);
#557=ORIENTED_EDGE('',*,*,#413,.T.);
#558=ORIENTED_EDGE('',*,*,#417,.T.);
#559=ORIENTED_EDGE('',*,*,#412,.T.);
#560=ORIENTED_EDGE('',*,*,#409,.T.);
#561=ORIENTED_EDGE('',*,*,#406,.T.);
#562=ORIENTED_EDGE('',*,*,#403,.T.);
#563=ORIENTED_EDGE('',*,*,#396,.T.);
#564=ORIENTED_EDGE('',*,*,#399,.T.);
#565=ORIENTED_EDGE('',*,*,#389,.T.);
#566=ORIENTED_EDGE('',*,*,#393,.T.);
#567=ORIENTED_EDGE('',*,*,#384,.T.);
#568=ORIENTED_EDGE('',*,*,#387,.T.);
#569=ORIENTED_EDGE('',*,*,#377,.T.);
#570=ORIENTED_EDGE('',*,*,#381,.T.);
#571=ORIENTED_EDGE('',*,*,#372,.T.);
#572=ORIENTED_EDGE('',*,*,#375,.T.);
#573=ORIENTED_EDGE('',*,*,#365,.T.);
#574=ORIENTED_EDGE('',*,*,#369,.T.);
#575=ORIENTED_EDGE('',*,*,#361,.T.);
#576=ORIENTED_EDGE('',*,*,#355,.T.);
#577=ORIENTED_EDGE('',*,*,#435,.F.);
#578=ORIENTED_EDGE('',*,*,#425,.F.);
#579=ORIENTED_EDGE('',*,*,#429,.F.);
#580=ORIENTED_EDGE('',*,*,#432,.F.);
#581=ORIENTED_EDGE('',*,*,#356,.T.);
#582=ORIENTED_EDGE('',*,*,#362,.T.);
#583=ORIENTED_EDGE('',*,*,#421,.T.);
#584=ORIENTED_EDGE('',*,*,#418,.T.);
#585=ORIENTED_EDGE('',*,*,#415,.T.);
#586=ORIENTED_EDGE('',*,*,#424,.T.);
#587=ORIENTED_EDGE('',*,*,#410,.T.);
#588=ORIENTED_EDGE('',*,*,#407,.T.);
#589=ORIENTED_EDGE('',*,*,#404,.T.);
#590=ORIENTED_EDGE('',*,*,#401,.T.);
#591=ORIENTED_EDGE('',*,*,#397,.T.);
#592=ORIENTED_EDGE('',*,*,#394,.T.);
#593=ORIENTED_EDGE('',*,*,#391,.T.);
#594=ORIENTED_EDGE('',*,*,#400,.T.);
#595=ORIENTED_EDGE('',*,*,#385,.T.);
#596=ORIENTED_EDGE('',*,*,#382,.T.);
#597=ORIENTED_EDGE('',*,*,#379,.T.);
#598=ORIENTED_EDGE('',*,*,#388,.T.);
#599=ORIENTED_EDGE('',*,*,#373,.T.);
#600=ORIENTED_EDGE('',*,*,#370,.T.);
#601=ORIENTED_EDGE('',*,*,#367,.T.);
#602=ORIENTED_EDGE('',*,*,#376,.T.);
#603=ORIENTED_EDGE('',*,*,#359,.T.);
#604=ORIENTED_EDGE('',*,*,#353,.T.);
#605=CYLINDRICAL_SURFACE('',#657,1.6);
#606=CYLINDRICAL_SURFACE('',#660,1.6);
#607=CYLINDRICAL_SURFACE('',#663,1.6);
#608=CYLINDRICAL_SURFACE('',#666,1.6);
#609=CYLINDRICAL_SURFACE('',#681,6.);
#610=CYLINDRICAL_SURFACE('',#684,6.);
#611=CYLINDRICAL_SURFACE('',#687,6.);
#612=CYLINDRICAL_SURFACE('',#690,6.);
#613=ADVANCED_FACE('',(#61),#605,.F.);
#614=ADVANCED_FACE('',(#62),#606,.F.);
#615=ADVANCED_FACE('',(#63),#607,.F.);
#616=ADVANCED_FACE('',(#64),#608,.F.);
#617=ADVANCED_FACE('',(#65),#39,.F.);
#618=ADVANCED_FACE('',(#66),#40,.F.);
#619=ADVANCED_FACE('',(#67),#41,.F.);
#620=ADVANCED_FACE('',(#68),#42,.F.);
#621=ADVANCED_FACE('',(#69),#43,.F.);
#622=ADVANCED_FACE('',(#70),#44,.F.);
#623=ADVANCED_FACE('',(#71),#45,.F.);
#624=ADVANCED_FACE('',(#72),#46,.F.);
#625=ADVANCED_FACE('',(#73),#47,.F.);
#626=ADVANCED_FACE('',(#74),#48,.F.);
#627=ADVANCED_FACE('',(#75),#49,.F.);
#628=ADVANCED_FACE('',(#76),#50,.F.);
#629=ADVANCED_FACE('',(#77),#609,.F.);
#630=ADVANCED_FACE('',(#78),#610,.F.);
#631=ADVANCED_FACE('',(#79),#611,.F.);
#632=ADVANCED_FACE('',(#80),#612,.F.);
#633=ADVANCED_FACE('',(#81),#51,.F.);
#634=ADVANCED_FACE('',(#82),#52,.F.);
#635=ADVANCED_FACE('',(#83),#53,.F.);
#636=ADVANCED_FACE('',(#84),#54,.F.);
#637=ADVANCED_FACE('',(#85),#55,.T.);
#638=ADVANCED_FACE('',(#86),#56,.T.);
#639=ADVANCED_FACE('',(#87),#57,.T.);
#640=ADVANCED_FACE('',(#88),#58,.T.);
#641=ADVANCED_FACE('',(#89,#15,#16,#17,#18,#19,#20,#21,#22,#23,#24,#25,
#26),#59,.T.);
#642=ADVANCED_FACE('',(#90,#27,#28,#29,#30,#31,#32,#33,#34,#35,#36,#37,
#38),#60,.F.);
#643=CLOSED_SHELL('',(#613,#614,#615,#616,#617,#618,#619,#620,#621,#622,
#623,#624,#625,#626,#627,#628,#629,#630,#631,#632,#633,#634,#635,#636,#637,
#638,#639,#640,#641,#642));
#644=DERIVED_UNIT_ELEMENT(#646,1.);
#645=DERIVED_UNIT_ELEMENT(#1041,-3.);
#646=(
MASS_UNIT()
NAMED_UNIT(*)
SI_UNIT(.KILO.,.GRAM.)
);
#647=DERIVED_UNIT((#644,#645));
#648=MEASURE_REPRESENTATION_ITEM('density measure',
POSITIVE_RATIO_MEASURE(7850.),#647);
#649=PROPERTY_DEFINITION_REPRESENTATION(#654,#651);
#650=PROPERTY_DEFINITION_REPRESENTATION(#655,#652);
#651=REPRESENTATION('material name',(#653),#1038);
#652=REPRESENTATION('density',(#648),#1038);
#653=DESCRIPTIVE_REPRESENTATION_ITEM('A\X\E7o','A\X\E7o');
#654=PROPERTY_DEFINITION('material property','material name',#1048);
#655=PROPERTY_DEFINITION('material property','density of part',#1048);
#656=AXIS2_PLACEMENT_3D('',#865,#703,#704);
#657=AXIS2_PLACEMENT_3D('',#866,#705,#706);
#658=AXIS2_PLACEMENT_3D('',#868,#707,#708);
#659=AXIS2_PLACEMENT_3D('',#871,#710,#711);
#660=AXIS2_PLACEMENT_3D('',#872,#712,#713);
#661=AXIS2_PLACEMENT_3D('',#874,#714,#715);
#662=AXIS2_PLACEMENT_3D('',#877,#717,#718);
#663=AXIS2_PLACEMENT_3D('',#878,#719,#720);
#664=AXIS2_PLACEMENT_3D('',#880,#721,#722);
#665=AXIS2_PLACEMENT_3D('',#883,#724,#725);
#666=AXIS2_PLACEMENT_3D('',#884,#726,#727);
#667=AXIS2_PLACEMENT_3D('',#886,#728,#729);
#668=AXIS2_PLACEMENT_3D('',#889,#731,#732);
#669=AXIS2_PLACEMENT_3D('',#890,#733,#734);
#670=AXIS2_PLACEMENT_3D('',#899,#739,#740);
#671=AXIS2_PLACEMENT_3D('',#905,#744,#745);
#672=AXIS2_PLACEMENT_3D('',#911,#749,#750);
#673=AXIS2_PLACEMENT_3D('',#914,#753,#754);
#674=AXIS2_PLACEMENT_3D('',#923,#759,#760);
#675=AXIS2_PLACEMENT_3D('',#929,#764,#765);
#676=AXIS2_PLACEMENT_3D('',#935,#769,#770);
#677=AXIS2_PLACEMENT_3D('',#938,#773,#774);
#678=AXIS2_PLACEMENT_3D('',#947,#779,#780);
#679=AXIS2_PLACEMENT_3D('',#953,#784,#785);
#680=AXIS2_PLACEMENT_3D('',#959,#789,#790);
#681=AXIS2_PLACEMENT_3D('',#962,#793,#794);
#682=AXIS2_PLACEMENT_3D('',#964,#795,#796);
#683=AXIS2_PLACEMENT_3D('',#967,#798,#799);
#684=AXIS2_PLACEMENT_3D('',#968,#800,#801);
#685=AXIS2_PLACEMENT_3D('',#970,#802,#803);
#686=AXIS2_PLACEMENT_3D('',#973,#805,#806);
#687=AXIS2_PLACEMENT_3D('',#974,#807,#808);
#688=AXIS2_PLACEMENT_3D('',#976,#809,#810);
#689=AXIS2_PLACEMENT_3D('',#979,#812,#813);
#690=AXIS2_PLACEMENT_3D('',#980,#814,#815);
#691=AXIS2_PLACEMENT_3D('',#982,#816,#817);
#692=AXIS2_PLACEMENT_3D('',#985,#819,#820);
#693=AXIS2_PLACEMENT_3D('',#986,#821,#822);
#694=AXIS2_PLACEMENT_3D('',#995,#827,#828);
#695=AXIS2_PLACEMENT_3D('',#1001,#832,#833);
#696=AXIS2_PLACEMENT_3D('',#1007,#837,#838);
#697=AXIS2_PLACEMENT_3D('',#1010,#841,#842);
#698=AXIS2_PLACEMENT_3D('',#1019,#847,#848);
#699=AXIS2_PLACEMENT_3D('',#1025,#852,#853);
#700=AXIS2_PLACEMENT_3D('',#1031,#857,#858);
#701=AXIS2_PLACEMENT_3D('',#1034,#861,#862);
#702=AXIS2_PLACEMENT_3D('',#1035,#863,#864);
#703=DIRECTION('axis',(0.,0.,1.));
#704=DIRECTION('refdir',(1.,0.,0.));
#705=DIRECTION('center_axis',(0.,0.,1.));
#706=DIRECTION('ref_axis',(1.,0.,0.));
#707=DIRECTION('center_axis',(0.,0.,1.));
#708=DIRECTION('ref_axis',(1.,0.,0.));
#709=DIRECTION('',(0.,0.,1.));
#710=DIRECTION('center_axis',(0.,0.,-1.));
#711=DIRECTION('ref_axis',(1.,0.,0.));
#712=DIRECTION('center_axis',(0.,0.,1.));
#713=DIRECTION('ref_axis',(1.,0.,0.));
#714=DIRECTION('center_axis',(0.,0.,1.));
#715=DIRECTION('ref_axis',(1.,0.,0.));
#716=DIRECTION('',(0.,0.,1.));
#717=DIRECTION('center_axis',(0.,0.,-1.));
#718=DIRECTION('ref_axis',(1.,0.,0.));
#719=DIRECTION('center_axis',(0.,0.,1.));
#720=DIRECTION('ref_axis',(1.,0.,0.));
#721=DIRECTION('center_axis',(0.,0.,1.));
#722=DIRECTION('ref_axis',(1.,0.,0.));
#723=DIRECTION('',(0.,0.,1.));
#724=DIRECTION('center_axis',(0.,0.,-1.));
#725=DIRECTION('ref_axis',(1.,0.,0.));
#726=DIRECTION('center_axis',(0.,0.,1.));
#727=DIRECTION('ref_axis',(1.,0.,0.));
#728=DIRECTION('center_axis',(0.,0.,1.));
#729=DIRECTION('ref_axis',(1.,0.,0.));
#730=DIRECTION('',(0.,0.,1.));
#731=DIRECTION('center_axis',(0.,0.,-1.));
#732=DIRECTION('ref_axis',(1.,0.,0.));
#733=DIRECTION('center_axis',(0.,-1.,0.));
#734=DIRECTION('ref_axis',(1.,0.,0.));
#735=DIRECTION('',(-1.,0.,0.));
#736=DIRECTION('',(0.,0.,1.));
#737=DIRECTION('',(1.,0.,0.));
#738=DIRECTION('',(0.,0.,1.));
#739=DIRECTION('center_axis',(-1.,0.,0.));
#740=DIRECTION('ref_axis',(0.,-1.,0.));
#741=DIRECTION('',(0.,1.,0.));
#742=DIRECTION('',(0.,-1.,0.));
#743=DIRECTION('',(0.,0.,1.));
#744=DIRECTION('center_axis',(0.,1.,0.));
#745=DIRECTION('ref_axis',(-1.,0.,0.));
#746=DIRECTION('',(1.,0.,0.));
#747=DIRECTION('',(-1.,0.,0.));
#748=DIRECTION('',(0.,0.,1.));
#749=DIRECTION('center_axis',(1.,0.,0.));
#750=DIRECTION('ref_axis',(0.,1.,0.));
#751=DIRECTION('',(0.,-1.,0.));
#752=DIRECTION('',(0.,1.,0.));
#753=DIRECTION('center_axis',(0.,-1.,0.));
#754=DIRECTION('ref_axis',(1.,0.,0.));
#755=DIRECTION('',(-1.,0.,0.));
#756=DIRECTION('',(0.,0.,1.));
#757=DIRECTION('',(1.,0.,0.));
#758=DIRECTION('',(0.,0.,1.));
#759=DIRECTION('center_axis',(-1.,0.,0.));
#760=DIRECTION('ref_axis',(0.,-1.,0.));
#761=DIRECTION('',(0.,1.,0.));
#762=DIRECTION('',(0.,-1.,0.));
#763=DIRECTION('',(0.,0.,1.));
#764=DIRECTION('center_axis',(0.,1.,0.));
#765=DIRECTION('ref_axis',(-1.,0.,0.));
#766=DIRECTION('',(1.,0.,0.));
#767=DIRECTION('',(-1.,0.,0.));
#768=DIRECTION('',(0.,0.,1.));
#769=DIRECTION('center_axis',(1.,0.,0.));
#770=DIRECTION('ref_axis',(0.,1.,0.));
#771=DIRECTION('',(0.,-1.,0.));
#772=DIRECTION('',(0.,1.,0.));
#773=DIRECTION('center_axis',(0.,-1.,0.));
#774=DIRECTION('ref_axis',(1.,0.,0.));
#775=DIRECTION('',(-1.,0.,0.));
#776=DIRECTION('',(0.,0.,1.));
#777=DIRECTION('',(1.,0.,0.));
#778=DIRECTION('',(0.,0.,1.));
#779=DIRECTION('center_axis',(-1.,0.,0.));
#780=DIRECTION('ref_axis',(0.,-1.,0.));
#781=DIRECTION('',(0.,1.,0.));
#782=DIRECTION('',(0.,-1.,0.));
#783=DIRECTION('',(0.,0.,1.));
#784=DIRECTION('center_axis',(0.,1.,0.));
#785=DIRECTION('ref_axis',(-1.,0.,0.));
#786=DIRECTION('',(1.,0.,0.));
#787=DIRECTION('',(-1.,0.,0.));
#788=DIRECTION('',(0.,0.,1.));
#789=DIRECTION('center_axis',(1.,0.,0.));
#790=DIRECTION('ref_axis',(0.,1.,0.));
#791=DIRECTION('',(0.,-1.,0.));
#792=DIRECTION('',(0.,1.,0.));
#793=DIRECTION('center_axis',(0.,0.,1.));
#794=DIRECTION('ref_axis',(1.,0.,0.));
#795=DIRECTION('center_axis',(0.,0.,1.));
#796=DIRECTION('ref_axis',(1.,0.,0.));
#797=DIRECTION('',(0.,0.,1.));
#798=DIRECTION('center_axis',(0.,0.,-1.));
#799=DIRECTION('ref_axis',(1.,0.,0.));
#800=DIRECTION('center_axis',(0.,0.,1.));
#801=DIRECTION('ref_axis',(1.,0.,0.));
#802=DIRECTION('center_axis',(0.,0.,1.));
#803=DIRECTION('ref_axis',(1.,0.,0.));
#804=DIRECTION('',(0.,0.,1.));
#805=DIRECTION('center_axis',(0.,0.,-1.));
#806=DIRECTION('ref_axis',(1.,0.,0.));
#807=DIRECTION('center_axis',(0.,0.,1.));
#808=DIRECTION('ref_axis',(1.,0.,0.));
#809=DIRECTION('center_axis',(0.,0.,1.));
#810=DIRECTION('ref_axis',(1.,0.,0.));
#811=DIRECTION('',(0.,0.,1.));
#812=DIRECTION('center_axis',(0.,0.,-1.));
#813=DIRECTION('ref_axis',(1.,0.,0.));
#814=DIRECTION('center_axis',(0.,0.,1.));
#815=DIRECTION('ref_axis',(1.,0.,0.));
#816=DIRECTION('center_axis',(0.,0.,1.));
#817=DIRECTION('ref_axis',(1.,0.,0.));
#818=DIRECTION('',(0.,0.,1.));
#819=DIRECTION('center_axis',(0.,0.,-1.));
#820=DIRECTION('ref_axis',(1.,0.,0.));
#821=DIRECTION('center_axis',(0.,-1.,0.));
#822=DIRECTION('ref_axis',(1.,0.,0.));
#823=DIRECTION('',(-1.,0.,0.));
#824=DIRECTION('',(0.,0.,1.));
#825=DIRECTION('',(1.,0.,0.));
#826=DIRECTION('',(0.,0.,1.));
#827=DIRECTION('center_axis',(-1.,0.,0.));
#828=DIRECTION('ref_axis',(0.,-1.,0.));
#829=DIRECTION('',(0.,1.,0.));
#830=DIRECTION('',(0.,-1.,0.));
#831=DIRECTION('',(0.,0.,1.));
#832=DIRECTION('center_axis',(0.,1.,0.));
#833=DIRECTION('ref_axis',(-1.,0.,0.));
#834=DIRECTION('',(1.,0.,0.));
#835=DIRECTION('',(-1.,0.,0.));
#836=DIRECTION('',(0.,0.,1.));
#837=DIRECTION('center_axis',(1.,2.77555756156289E-16,0.));
#838=DIRECTION('ref_axis',(-2.77555756156289E-16,1.,0.));
#839=DIRECTION('',(2.77555756156289E-16,-1.,0.));
#840=DIRECTION('',(-2.77555756156289E-16,1.,0.));
#841=DIRECTION('center_axis',(0.,1.,0.));
#842=DIRECTION('ref_axis',(-1.,0.,0.));
#843=DIRECTION('',(-1.,0.,0.));
#844=DIRECTION('',(0.,0.,1.));
#845=DIRECTION('',(-1.,0.,0.));
#846=DIRECTION('',(0.,0.,1.));
#847=DIRECTION('center_axis',(1.,0.,0.));
#848=DIRECTION('ref_axis',(0.,1.,0.));
#849=DIRECTION('',(0.,1.,0.));
#850=DIRECTION('',(0.,1.,0.));
#851=DIRECTION('',(0.,0.,1.));
#852=DIRECTION('center_axis',(0.,-1.,0.));
#853=DIRECTION('ref_axis',(1.,0.,0.));
#854=DIRECTION('',(1.,0.,0.));
#855=DIRECTION('',(1.,0.,0.));
#856=DIRECTION('',(0.,0.,1.));
#857=DIRECTION('center_axis',(-1.,0.,0.));
#858=DIRECTION('ref_axis',(0.,-1.,0.));
#859=DIRECTION('',(0.,-1.,0.));
#860=DIRECTION('',(0.,-1.,0.));
#861=DIRECTION('center_axis',(0.,0.,1.));
#862=DIRECTION('ref_axis',(1.,0.,0.));
#863=DIRECTION('center_axis',(0.,0.,1.));
#864=DIRECTION('ref_axis',(1.,0.,0.));
#865=CARTESIAN_POINT('',(0.,0.,0.));
#866=CARTESIAN_POINT('Origin',(96.,58.5,0.));
#867=CARTESIAN_POINT('',(94.4,58.5,0.));
#868=CARTESIAN_POINT('Origin',(96.,58.5,0.));
#869=CARTESIAN_POINT('',(94.4,58.5,3.));
#870=CARTESIAN_POINT('',(94.4,58.5,0.));
#871=CARTESIAN_POINT('Origin',(96.,58.5,3.));
#872=CARTESIAN_POINT('Origin',(96.,-58.5,0.));
#873=CARTESIAN_POINT('',(94.4,-58.5,0.));
#874=CARTESIAN_POINT('Origin',(96.,-58.5,0.));
#875=CARTESIAN_POINT('',(94.4,-58.5,3.));
#876=CARTESIAN_POINT('',(94.4,-58.5,0.));
#877=CARTESIAN_POINT('Origin',(96.,-58.5,3.));
#878=CARTESIAN_POINT('Origin',(-96.,58.5,0.));
#879=CARTESIAN_POINT('',(-97.6,58.5,0.));
#880=CARTESIAN_POINT('Origin',(-96.,58.5,0.));
#881=CARTESIAN_POINT('',(-97.6,58.5,3.));
#882=CARTESIAN_POINT('',(-97.6,58.5,0.));
#883=CARTESIAN_POINT('Origin',(-96.,58.5,3.));
#884=CARTESIAN_POINT('Origin',(-96.,-58.5,0.));
#885=CARTESIAN_POINT('',(-97.6,-58.5,0.));
#886=CARTESIAN_POINT('Origin',(-96.,-58.5,0.));
#887=CARTESIAN_POINT('',(-97.6,-58.5,3.));
#888=CARTESIAN_POINT('',(-97.6,-58.5,0.));
#889=CARTESIAN_POINT('Origin',(-96.,-58.5,3.));
#890=CARTESIAN_POINT('Origin',(57.,-30.25,0.));
#891=CARTESIAN_POINT('',(67.,-30.25,3.));
#892=CARTESIAN_POINT('',(57.,-30.25,3.));
#893=CARTESIAN_POINT('',(28.5,-30.25,3.));
#894=CARTESIAN_POINT('',(67.,-30.25,0.));
#895=CARTESIAN_POINT('',(67.,-30.25,0.));
#896=CARTESIAN_POINT('',(57.,-30.25,0.));
#897=CARTESIAN_POINT('',(28.5,-30.25,0.));
#898=CARTESIAN_POINT('',(57.,-30.25,0.));
#899=CARTESIAN_POINT('Origin',(57.,-25.75,0.));
#900=CARTESIAN_POINT('',(57.,-25.75,3.));
#901=CARTESIAN_POINT('',(57.,-12.875,3.));
#902=CARTESIAN_POINT('',(57.,-25.75,0.));
#903=CARTESIAN_POINT('',(57.,-12.875,0.));
#904=CARTESIAN_POINT('',(57.,-25.75,0.));
#905=CARTESIAN_POINT('Origin',(67.,-25.75,0.));
#906=CARTESIAN_POINT('',(67.,-25.75,3.));
#907=CARTESIAN_POINT('',(33.5,-25.75,3.));
#908=CARTESIAN_POINT('',(67.,-25.75,0.));
#909=CARTESIAN_POINT('',(33.5,-25.75,0.));
#910=CARTESIAN_POINT('',(67.,-25.75,0.));
#911=CARTESIAN_POINT('Origin',(67.,-30.25,0.));
#912=CARTESIAN_POINT('',(67.,-15.125,3.));
#913=CARTESIAN_POINT('',(67.,-15.125,0.));
#914=CARTESIAN_POINT('Origin',(50.,-2.,0.));
#915=CARTESIAN_POINT('',(74.,-2.,3.));
#916=CARTESIAN_POINT('',(50.,-2.,3.));
#917=CARTESIAN_POINT('',(25.,-2.,3.));
#918=CARTESIAN_POINT('',(74.,-2.,0.));
#919=CARTESIAN_POINT('',(74.,-2.,0.));
#920=CARTESIAN_POINT('',(50.,-2.,0.));
#921=CARTESIAN_POINT('',(25.,-2.,0.));
#922=CARTESIAN_POINT('',(50.,-2.,0.));
#923=CARTESIAN_POINT('Origin',(50.,10.,0.));
#924=CARTESIAN_POINT('',(50.,10.,3.));
#925=CARTESIAN_POINT('',(50.,5.,3.));
#926=CARTESIAN_POINT('',(50.,10.,0.));
#927=CARTESIAN_POINT('',(50.,5.,0.));
#928=CARTESIAN_POINT('',(50.,10.,0.));
#929=CARTESIAN_POINT('Origin',(74.,10.,0.));
#930=CARTESIAN_POINT('',(74.,10.,3.));
#931=CARTESIAN_POINT('',(37.,10.,3.));
#932=CARTESIAN_POINT('',(74.,10.,0.));
#933=CARTESIAN_POINT('',(37.,10.,0.));
#934=CARTESIAN_POINT('',(74.,10.,0.));
#935=CARTESIAN_POINT('Origin',(74.,-2.,0.));
#936=CARTESIAN_POINT('',(74.,-1.,3.));
#937=CARTESIAN_POINT('',(74.,-1.,0.));
#938=CARTESIAN_POINT('Origin',(54.,27.,0.));
#939=CARTESIAN_POINT('',(70.,27.,3.));
#940=CARTESIAN_POINT('',(54.,27.,3.));
#941=CARTESIAN_POINT('',(27.,27.,3.));
#942=CARTESIAN_POINT('',(70.,27.,0.));
#943=CARTESIAN_POINT('',(70.,27.,0.));
#944=CARTESIAN_POINT('',(54.,27.,0.));
#945=CARTESIAN_POINT('',(27.,27.,0.));
#946=CARTESIAN_POINT('',(54.,27.,0.));
#947=CARTESIAN_POINT('Origin',(54.,41.,0.));
#948=CARTESIAN_POINT('',(54.,41.,3.));
#949=CARTESIAN_POINT('',(54.,20.5,3.));
#950=CARTESIAN_POINT('',(54.,41.,0.));
#951=CARTESIAN_POINT('',(54.,20.5,0.));
#952=CARTESIAN_POINT('',(54.,41.,0.));
#953=CARTESIAN_POINT('Origin',(70.,41.,0.));
#954=CARTESIAN_POINT('',(70.,41.,3.));
#955=CARTESIAN_POINT('',(35.,41.,3.));
#956=CARTESIAN_POINT('',(70.,41.,0.));
#957=CARTESIAN_POINT('',(35.,41.,0.));
#958=CARTESIAN_POINT('',(70.,41.,0.));
#959=CARTESIAN_POINT('Origin',(70.,27.,0.));
#960=CARTESIAN_POINT('',(70.,13.5,3.));
#961=CARTESIAN_POINT('',(70.,13.5,0.));
#962=CARTESIAN_POINT('Origin',(-22.,5.,0.));
#963=CARTESIAN_POINT('',(-28.,5.,0.));
#964=CARTESIAN_POINT('Origin',(-22.,5.,0.));
#965=CARTESIAN_POINT('',(-28.,5.,3.));
#966=CARTESIAN_POINT('',(-28.,5.,0.));
#967=CARTESIAN_POINT('Origin',(-22.,5.,3.));
#968=CARTESIAN_POINT('Origin',(-44.,5.,0.));
#969=CARTESIAN_POINT('',(-50.,5.,0.));
#970=CARTESIAN_POINT('Origin',(-44.,5.,0.));
#971=CARTESIAN_POINT('',(-50.,5.,3.));
#972=CARTESIAN_POINT('',(-50.,5.,0.));
#973=CARTESIAN_POINT('Origin',(-44.,5.,3.));
#974=CARTESIAN_POINT('Origin',(-66.,5.,0.));
#975=CARTESIAN_POINT('',(-72.,5.,0.));
#976=CARTESIAN_POINT('Origin',(-66.,5.,0.));
#977=CARTESIAN_POINT('',(-72.,5.,3.));
#978=CARTESIAN_POINT('',(-72.,5.,0.));
#979=CARTESIAN_POINT('Origin',(-66.,5.,3.));
#980=CARTESIAN_POINT('Origin',(-88.,5.,0.));
#981=CARTESIAN_POINT('',(-94.,5.,0.));
#982=CARTESIAN_POINT('Origin',(-88.,5.,0.));
#983=CARTESIAN_POINT('',(-94.,5.,3.));
#984=CARTESIAN_POINT('',(-94.,5.,0.));
#985=CARTESIAN_POINT('Origin',(-88.,5.,3.));
#986=CARTESIAN_POINT('Origin',(-94.,-50.,0.));
#987=CARTESIAN_POINT('',(-16.,-50.,3.));
#988=CARTESIAN_POINT('',(-94.,-50.,3.));
#989=CARTESIAN_POINT('',(-47.,-50.,3.));
#990=CARTESIAN_POINT('',(-16.,-50.,0.));
#991=CARTESIAN_POINT('',(-16.,-50.,0.));
#992=CARTESIAN_POINT('',(-94.,-50.,0.));
#993=CARTESIAN_POINT('',(-47.,-50.,0.));
#994=CARTESIAN_POINT('',(-94.,-50.,0.));
#995=CARTESIAN_POINT('Origin',(-94.,-34.,0.));
#996=CARTESIAN_POINT('',(-94.,-34.,3.));
#997=CARTESIAN_POINT('',(-94.,-17.,3.));
#998=CARTESIAN_POINT('',(-94.,-34.,0.));
#999=CARTESIAN_POINT('',(-94.,-17.,0.));
#1000=CARTESIAN_POINT('',(-94.,-34.,0.));
#1001=CARTESIAN_POINT('Origin',(-16.,-34.,0.));
#1002=CARTESIAN_POINT('',(-16.,-34.,3.));
#1003=CARTESIAN_POINT('',(-8.,-34.,3.));
#1004=CARTESIAN_POINT('',(-16.,-34.,0.));
#1005=CARTESIAN_POINT('',(-8.,-34.,0.));
#1006=CARTESIAN_POINT('',(-16.,-34.,0.));
#1007=CARTESIAN_POINT('Origin',(-16.,-50.,0.));
#1008=CARTESIAN_POINT('',(-16.,-25.,3.));
#1009=CARTESIAN_POINT('',(-16.,-25.,0.));
#1010=CARTESIAN_POINT('Origin',(104.,66.5,0.));
#1011=CARTESIAN_POINT('',(104.,66.5,0.));
#1012=CARTESIAN_POINT('',(-104.,66.5,0.));
#1013=CARTESIAN_POINT('',(104.,66.5,0.));
#1014=CARTESIAN_POINT('',(-104.,66.5,3.));
#1015=CARTESIAN_POINT('',(-104.,66.5,0.));
#1016=CARTESIAN_POINT('',(104.,66.5,3.));
#1017=CARTESIAN_POINT('',(104.,66.5,3.));
#1018=CARTESIAN_POINT('',(104.,66.5,0.));
#1019=CARTESIAN_POINT('Origin',(104.,-66.5,0.));
#1020=CARTESIAN_POINT('',(104.,-66.5,0.));
#1021=CARTESIAN_POINT('',(104.,-66.5,0.));
#1022=CARTESIAN_POINT('',(104.,-66.5,3.));
#1023=CARTESIAN_POINT('',(104.,-66.5,3.));
#1024=CARTESIAN_POINT('',(104.,-66.5,0.));
#1025=CARTESIAN_POINT('Origin',(-104.,-66.5,0.));
#1026=CARTESIAN_POINT('',(-104.,-66.5,0.));
#1027=CARTESIAN_POINT('',(-104.,-66.5,0.));
#1028=CARTESIAN_POINT('',(-104.,-66.5,3.));
#1029=CARTESIAN_POINT('',(-104.,-66.5,3.));
#1030=CARTESIAN_POINT('',(-104.,-66.5,0.));
#1031=CARTESIAN_POINT('Origin',(-104.,66.5,0.));
#1032=CARTESIAN_POINT('',(-104.,66.5,0.));
#1033=CARTESIAN_POINT('',(-104.,66.5,3.));
#1034=CARTESIAN_POINT('Origin',(0.,0.,3.));
#1035=CARTESIAN_POINT('Origin',(0.,0.,0.));
#1036=UNCERTAINTY_MEASURE_WITH_UNIT(LENGTH_MEASURE(0.01),#1040,
'DISTANCE_ACCURACY_VALUE',
'Maximum model space distance between geometric entities at asserted c
onnectivities');
#1037=UNCERTAINTY_MEASURE_WITH_UNIT(LENGTH_MEASURE(0.01),#1040,
'DISTANCE_ACCURACY_VALUE',
'Maximum model space distance between geometric entities at asserted c
onnectivities');
#1038=(
GEOMETRIC_REPRESENTATION_CONTEXT(3)
GLOBAL_UNCERTAINTY_ASSIGNED_CONTEXT((#1036))
GLOBAL_UNIT_ASSIGNED_CONTEXT((#1040,#1042,#1043))
REPRESENTATION_CONTEXT('','3D')
);
#1039=(
GEOMETRIC_REPRESENTATION_CONTEXT(3)
GLOBAL_UNCERTAINTY_ASSIGNED_CONTEXT((#1037))
GLOBAL_UNIT_ASSIGNED_CONTEXT((#1040,#1042,#1043))
REPRESENTATION_CONTEXT('','3D')
);
#1040=(
LENGTH_UNIT()
NAMED_UNIT(*)
SI_UNIT(.MILLI.,.METRE.)
);
#1041=(
LENGTH_UNIT()
NAMED_UNIT(*)
SI_UNIT($,.METRE.)
);
#1042=(
NAMED_UNIT(*)
PLANE_ANGLE_UNIT()
SI_UNIT($,.RADIAN.)
);
#1043=(
NAMED_UNIT(*)
SI_UNIT($,.STERADIAN.)
SOLID_ANGLE_UNIT()
);
#1044=SHAPE_DEFINITION_REPRESENTATION(#1045,#1046);
#1045=PRODUCT_DEFINITION_SHAPE('',$,#1048);
#1046=SHAPE_REPRESENTATION('',(#656),#1038);
#1047=PRODUCT_DEFINITION_CONTEXT('part definition',#1052,'design');
#1048=PRODUCT_DEFINITION('SmartMeter_RearPanel','SmartMeter_RearPanel',
#1049,#1047);
#1049=PRODUCT_DEFINITION_FORMATION('',$,#1054);
#1050=PRODUCT_RELATED_PRODUCT_CATEGORY('SmartMeter_RearPanel',
'SmartMeter_RearPanel',(#1054));
#1051=APPLICATION_PROTOCOL_DEFINITION('international standard',
'automotive_design',2009,#1052);
#1052=APPLICATION_CONTEXT(
'Core Data for Automotive Mechanical Design Process');
#1053=PRODUCT_CONTEXT('part definition',#1052,'mechanical');
#1054=PRODUCT('SmartMeter_RearPanel','SmartMeter_RearPanel',$,(#1053));
#1055=PRESENTATION_STYLE_ASSIGNMENT((#1056));
#1056=SURFACE_STYLE_USAGE(.BOTH.,#1057);
#1057=SURFACE_SIDE_STYLE('',(#1058));
#1058=SURFACE_STYLE_FILL_AREA(#1059);
#1059=FILL_AREA_STYLE('A\X\E7o - Acetinado',(#1060));
#1060=FILL_AREA_STYLE_COLOUR('A\X\E7o - Acetinado',#1061);
#1061=COLOUR_RGB('A\X\E7o - Acetinado',0.627450980392157,0.627450980392157,
0.627450980392157);
ENDSEC;
END-ISO-10303-21;
