ISO-10303-21;
HEADER;
/* Generated by software containing ST-Developer
 * from STEP Tools, Inc. (www.steptools.com) 
 */

FILE_DESCRIPTION(
/* description */ (''),
/* implementation_level */ '2;1');

FILE_NAME(
/* name */ 'SmartMeter_FrontPanel.step',
/* time_stamp */ '2026-10-03T14:46:54-03:00',
/* author */ (''),
/* organization */ (''),
/* preprocessor_version */ 'ST-DEVELOPER v20.1',
/* originating_system */ 'Autodesk Translation Framework v15.8.0.0',
/* authorisation */ '');

FILE_SCHEMA (('AUTOMOTIVE_DESIGN { 1 0 10303 214 3 1 1 }'));
ENDSEC;

DATA;
#10=MECHANICAL_DESIGN_GEOMETRIC_PRESENTATION_REPRESENTATION('',(#13),#757);
#11=SHAPE_REPRESENTATION_RELATIONSHIP('SRR','None',#764,#12);
#12=ADVANCED_BREP_SHAPE_REPRESENTATION('',(#14),#756);
#13=STYLED_ITEM('',(#773),#14);
#14=MANIFOLD_SOLID_BREP('Corpo1',#453);
#15=FACE_BOUND('',#73,.T.);
#16=FACE_BOUND('',#87,.T.);
#17=FACE_BOUND('',#88,.T.);
#18=FACE_BOUND('',#89,.T.);
#19=FACE_BOUND('',#90,.T.);
#20=FACE_BOUND('',#91,.T.);
#21=FACE_BOUND('',#93,.T.);
#22=FACE_BOUND('',#94,.T.);
#23=FACE_BOUND('',#95,.T.);
#24=FACE_BOUND('',#96,.T.);
#25=FACE_BOUND('',#97,.T.);
#26=PLANE('',#479);
#27=PLANE('',#480);
#28=PLANE('',#481);
#29=PLANE('',#482);
#30=PLANE('',#483);
#31=PLANE('',#484);
#32=PLANE('',#485);
#33=PLANE('',#486);
#34=PLANE('',#487);
#35=PLANE('',#488);
#36=PLANE('',#492);
#37=PLANE('',#496);
#38=PLANE('',#500);
#39=PLANE('',#504);
#40=PLANE('',#505);
#41=FACE_OUTER_BOUND('',#64,.T.);
#42=FACE_OUTER_BOUND('',#65,.T.);
#43=FACE_OUTER_BOUND('',#66,.T.);
#44=FACE_OUTER_BOUND('',#67,.T.);
#45=FACE_OUTER_BOUND('',#68,.T.);
#46=FACE_OUTER_BOUND('',#69,.T.);
#47=FACE_OUTER_BOUND('',#70,.T.);
#48=FACE_OUTER_BOUND('',#71,.T.);
#49=FACE_OUTER_BOUND('',#72,.T.);
#50=FACE_OUTER_BOUND('',#74,.T.);
#51=FACE_OUTER_BOUND('',#75,.T.);
#52=FACE_OUTER_BOUND('',#76,.T.);
#53=FACE_OUTER_BOUND('',#77,.T.);
#54=FACE_OUTER_BOUND('',#78,.T.);
#55=FACE_OUTER_BOUND('',#79,.T.);
#56=FACE_OUTER_BOUND('',#80,.T.);
#57=FACE_OUTER_BOUND('',#81,.T.);
#58=FACE_OUTER_BOUND('',#82,.T.);
#59=FACE_OUTER_BOUND('',#83,.T.);
#60=FACE_OUTER_BOUND('',#84,.T.);
#61=FACE_OUTER_BOUND('',#85,.T.);
#62=FACE_OUTER_BOUND('',#86,.T.);
#63=FACE_OUTER_BOUND('',#92,.T.);
#64=EDGE_LOOP('',(#302,#303,#304,#305));
#65=EDGE_LOOP('',(#306,#307,#308,#309));
#66=EDGE_LOOP('',(#310,#311,#312,#313));
#67=EDGE_LOOP('',(#314,#315,#316,#317));
#68=EDGE_LOOP('',(#318,#319,#320,#321));
#69=EDGE_LOOP('',(#322,#323,#324,#325));
#70=EDGE_LOOP('',(#326,#327,#328,#329));
#71=EDGE_LOOP('',(#330,#331,#332,#333));
#72=EDGE_LOOP('',(#334,#335,#336,#337));
#73=EDGE_LOOP('',(#338,#339,#340,#341));
#74=EDGE_LOOP('',(#342,#343,#344,#345));
#75=EDGE_LOOP('',(#346,#347,#348,#349));
#76=EDGE_LOOP('',(#350,#351,#352,#353));
#77=EDGE_LOOP('',(#354,#355,#356,#357));
#78=EDGE_LOOP('',(#358,#359,#360,#361));
#79=EDGE_LOOP('',(#362,#363,#364,#365));
#80=EDGE_LOOP('',(#366,#367,#368,#369));
#81=EDGE_LOOP('',(#370,#371,#372,#373));
#82=EDGE_LOOP('',(#374,#375,#376,#377));
#83=EDGE_LOOP('',(#378,#379,#380,#381));
#84=EDGE_LOOP('',(#382,#383,#384,#385));
#85=EDGE_LOOP('',(#386,#387,#388,#389));
#86=EDGE_LOOP('',(#390,#391,#392,#393,#394,#395,#396,#397));
#87=EDGE_LOOP('',(#398));
#88=EDGE_LOOP('',(#399));
#89=EDGE_LOOP('',(#400));
#90=EDGE_LOOP('',(#401));
#91=EDGE_LOOP('',(#402,#403,#404,#405));
#92=EDGE_LOOP('',(#406,#407,#408,#409,#410,#411,#412,#413));
#93=EDGE_LOOP('',(#414));
#94=EDGE_LOOP('',(#415));
#95=EDGE_LOOP('',(#416));
#96=EDGE_LOOP('',(#417));
#97=EDGE_LOOP('',(#418,#419,#420,#421));
#98=LINE('',#635,#142);
#99=LINE('',#641,#143);
#100=LINE('',#647,#144);
#101=LINE('',#653,#145);
#102=LINE('',#658,#146);
#103=LINE('',#660,#147);
#104=LINE('',#662,#148);
#105=LINE('',#663,#149);
#106=LINE('',#666,#150);
#107=LINE('',#668,#151);
#108=LINE('',#669,#152);
#109=LINE('',#672,#153);
#110=LINE('',#674,#154);
#111=LINE('',#675,#155);
#112=LINE('',#677,#156);
#113=LINE('',#678,#157);
#114=LINE('',#682,#158);
#115=LINE('',#684,#159);
#116=LINE('',#686,#160);
#117=LINE('',#687,#161);
#118=LINE('',#690,#162);
#119=LINE('',#692,#163);
#120=LINE('',#693,#164);
#121=LINE('',#696,#165);
#122=LINE('',#697,#166);
#123=LINE('',#700,#167);
#124=LINE('',#701,#168);
#125=LINE('',#703,#169);
#126=LINE('',#707,#170);
#127=LINE('',#709,#171);
#128=LINE('',#711,#172);
#129=LINE('',#712,#173);
#130=LINE('',#718,#174);
#131=LINE('',#721,#175);
#132=LINE('',#723,#176);
#133=LINE('',#724,#177);
#134=LINE('',#730,#178);
#135=LINE('',#733,#179);
#136=LINE('',#735,#180);
#137=LINE('',#736,#181);
#138=LINE('',#742,#182);
#139=LINE('',#745,#183);
#140=LINE('',#747,#184);
#141=LINE('',#748,#185);
#142=VECTOR('',#512,1.6);
#143=VECTOR('',#519,1.6);
#144=VECTOR('',#526,1.6);
#145=VECTOR('',#533,1.6);
#146=VECTOR('',#538,10.);
#147=VECTOR('',#539,10.);
#148=VECTOR('',#540,10.);
#149=VECTOR('',#541,10.);
#150=VECTOR('',#544,10.);
#151=VECTOR('',#545,10.);
#152=VECTOR('',#546,10.);
#153=VECTOR('',#549,10.);
#154=VECTOR('',#550,10.);
#155=VECTOR('',#551,10.);
#156=VECTOR('',#554,10.);
#157=VECTOR('',#555,10.);
#158=VECTOR('',#558,10.);
#159=VECTOR('',#559,10.);
#160=VECTOR('',#560,10.);
#161=VECTOR('',#561,10.);
#162=VECTOR('',#564,10.);
#163=VECTOR('',#565,10.);
#164=VECTOR('',#566,10.);
#165=VECTOR('',#569,10.);
#166=VECTOR('',#570,10.);
#167=VECTOR('',#573,10.);
#168=VECTOR('',#574,10.);
#169=VECTOR('',#577,10.);
#170=VECTOR('',#580,10.);
#171=VECTOR('',#581,10.);
#172=VECTOR('',#582,10.);
#173=VECTOR('',#583,10.);
#174=VECTOR('',#590,10.);
#175=VECTOR('',#593,10.);
#176=VECTOR('',#594,10.);
#177=VECTOR('',#595,10.);
#178=VECTOR('',#602,10.);
#179=VECTOR('',#605,10.);
#180=VECTOR('',#606,10.);
#181=VECTOR('',#607,10.);
#182=VECTOR('',#614,10.);
#183=VECTOR('',#617,10.);
#184=VECTOR('',#618,10.);
#185=VECTOR('',#619,10.);
#186=CIRCLE('',#468,1.6);
#187=CIRCLE('',#469,1.6);
#188=CIRCLE('',#471,1.6);
#189=CIRCLE('',#472,1.6);
#190=CIRCLE('',#474,1.6);
#191=CIRCLE('',#475,1.6);
#192=CIRCLE('',#477,1.6);
#193=CIRCLE('',#478,1.6);
#194=CIRCLE('',#490,8.00000000000001);
#195=CIRCLE('',#491,8.00000000000001);
#196=CIRCLE('',#494,8.00000000000001);
#197=CIRCLE('',#495,8.00000000000001);
#198=CIRCLE('',#498,8.00000000000001);
#199=CIRCLE('',#499,8.00000000000001);
#200=CIRCLE('',#502,8.00000000000001);
#201=CIRCLE('',#503,8.00000000000001);
#202=VERTEX_POINT('',#632);
#203=VERTEX_POINT('',#634);
#204=VERTEX_POINT('',#638);
#205=VERTEX_POINT('',#640);
#206=VERTEX_POINT('',#644);
#207=VERTEX_POINT('',#646);
#208=VERTEX_POINT('',#650);
#209=VERTEX_POINT('',#652);
#210=VERTEX_POINT('',#656);
#211=VERTEX_POINT('',#657);
#212=VERTEX_POINT('',#659);
#213=VERTEX_POINT('',#661);
#214=VERTEX_POINT('',#665);
#215=VERTEX_POINT('',#667);
#216=VERTEX_POINT('',#671);
#217=VERTEX_POINT('',#673);
#218=VERTEX_POINT('',#680);
#219=VERTEX_POINT('',#681);
#220=VERTEX_POINT('',#683);
#221=VERTEX_POINT('',#685);
#222=VERTEX_POINT('',#689);
#223=VERTEX_POINT('',#691);
#224=VERTEX_POINT('',#695);
#225=VERTEX_POINT('',#699);
#226=VERTEX_POINT('',#705);
#227=VERTEX_POINT('',#706);
#228=VERTEX_POINT('',#708);
#229=VERTEX_POINT('',#710);
#230=VERTEX_POINT('',#714);
#231=VERTEX_POINT('',#716);
#232=VERTEX_POINT('',#720);
#233=VERTEX_POINT('',#722);
#234=VERTEX_POINT('',#726);
#235=VERTEX_POINT('',#728);
#236=VERTEX_POINT('',#732);
#237=VERTEX_POINT('',#734);
#238=VERTEX_POINT('',#738);
#239=VERTEX_POINT('',#740);
#240=VERTEX_POINT('',#744);
#241=VERTEX_POINT('',#746);
#242=EDGE_CURVE('',#202,#202,#186,.T.);
#243=EDGE_CURVE('',#202,#203,#98,.T.);
#244=EDGE_CURVE('',#203,#203,#187,.T.);
#245=EDGE_CURVE('',#204,#204,#188,.T.);
#246=EDGE_CURVE('',#204,#205,#99,.T.);
#247=EDGE_CURVE('',#205,#205,#189,.T.);
#248=EDGE_CURVE('',#206,#206,#190,.T.);
#249=EDGE_CURVE('',#206,#207,#100,.T.);
#250=EDGE_CURVE('',#207,#207,#191,.T.);
#251=EDGE_CURVE('',#208,#208,#192,.T.);
#252=EDGE_CURVE('',#208,#209,#101,.T.);
#253=EDGE_CURVE('',#209,#209,#193,.T.);
#254=EDGE_CURVE('',#210,#211,#102,.T.);
#255=EDGE_CURVE('',#212,#210,#103,.T.);
#256=EDGE_CURVE('',#213,#212,#104,.T.);
#257=EDGE_CURVE('',#213,#211,#105,.T.);
#258=EDGE_CURVE('',#211,#214,#106,.T.);
#259=EDGE_CURVE('',#215,#213,#107,.T.);
#260=EDGE_CURVE('',#215,#214,#108,.T.);
#261=EDGE_CURVE('',#214,#216,#109,.T.);
#262=EDGE_CURVE('',#217,#215,#110,.T.);
#263=EDGE_CURVE('',#217,#216,#111,.T.);
#264=EDGE_CURVE('',#216,#210,#112,.T.);
#265=EDGE_CURVE('',#212,#217,#113,.T.);
#266=EDGE_CURVE('',#218,#219,#114,.T.);
#267=EDGE_CURVE('',#220,#218,#115,.T.);
#268=EDGE_CURVE('',#221,#220,#116,.T.);
#269=EDGE_CURVE('',#219,#221,#117,.T.);
#270=EDGE_CURVE('',#222,#220,#118,.T.);
#271=EDGE_CURVE('',#223,#222,#119,.T.);
#272=EDGE_CURVE('',#223,#221,#120,.T.);
#273=EDGE_CURVE('',#224,#218,#121,.T.);
#274=EDGE_CURVE('',#222,#224,#122,.T.);
#275=EDGE_CURVE('',#225,#219,#123,.T.);
#276=EDGE_CURVE('',#224,#225,#124,.T.);
#277=EDGE_CURVE('',#225,#223,#125,.T.);
#278=EDGE_CURVE('',#226,#227,#126,.T.);
#279=EDGE_CURVE('',#226,#228,#127,.T.);
#280=EDGE_CURVE('',#229,#228,#128,.T.);
#281=EDGE_CURVE('',#227,#229,#129,.T.);
#282=EDGE_CURVE('',#230,#227,#194,.T.);
#283=EDGE_CURVE('',#231,#229,#195,.T.);
#284=EDGE_CURVE('',#230,#231,#130,.T.);
#285=EDGE_CURVE('',#230,#232,#131,.T.);
#286=EDGE_CURVE('',#233,#231,#132,.T.);
#287=EDGE_CURVE('',#232,#233,#133,.T.);
#288=EDGE_CURVE('',#234,#232,#196,.T.);
#289=EDGE_CURVE('',#235,#233,#197,.T.);
#290=EDGE_CURVE('',#234,#235,#134,.T.);
#291=EDGE_CURVE('',#234,#236,#135,.T.);
#292=EDGE_CURVE('',#237,#235,#136,.T.);
#293=EDGE_CURVE('',#236,#237,#137,.T.);
#294=EDGE_CURVE('',#238,#236,#198,.T.);
#295=EDGE_CURVE('',#239,#237,#199,.T.);
#296=EDGE_CURVE('',#238,#239,#138,.T.);
#297=EDGE_CURVE('',#238,#240,#139,.T.);
#298=EDGE_CURVE('',#241,#239,#140,.T.);
#299=EDGE_CURVE('',#240,#241,#141,.T.);
#300=EDGE_CURVE('',#226,#240,#200,.T.);
#301=EDGE_CURVE('',#228,#241,#201,.T.);
#302=ORIENTED_EDGE('',*,*,#242,.F.);
#303=ORIENTED_EDGE('',*,*,#243,.T.);
#304=ORIENTED_EDGE('',*,*,#244,.F.);
#305=ORIENTED_EDGE('',*,*,#243,.F.);
#306=ORIENTED_EDGE('',*,*,#245,.F.);
#307=ORIENTED_EDGE('',*,*,#246,.T.);
#308=ORIENTED_EDGE('',*,*,#247,.F.);
#309=ORIENTED_EDGE('',*,*,#246,.F.);
#310=ORIENTED_EDGE('',*,*,#248,.F.);
#311=ORIENTED_EDGE('',*,*,#249,.T.);
#312=ORIENTED_EDGE('',*,*,#250,.F.);
#313=ORIENTED_EDGE('',*,*,#249,.F.);
#314=ORIENTED_EDGE('',*,*,#251,.F.);
#315=ORIENTED_EDGE('',*,*,#252,.T.);
#316=ORIENTED_EDGE('',*,*,#253,.F.);
#317=ORIENTED_EDGE('',*,*,#252,.F.);
#318=ORIENTED_EDGE('',*,*,#254,.F.);
#319=ORIENTED_EDGE('',*,*,#255,.F.);
#320=ORIENTED_EDGE('',*,*,#256,.F.);
#321=ORIENTED_EDGE('',*,*,#257,.T.);
#322=ORIENTED_EDGE('',*,*,#258,.F.);
#323=ORIENTED_EDGE('',*,*,#257,.F.);
#324=ORIENTED_EDGE('',*,*,#259,.F.);
#325=ORIENTED_EDGE('',*,*,#260,.T.);
#326=ORIENTED_EDGE('',*,*,#261,.F.);
#327=ORIENTED_EDGE('',*,*,#260,.F.);
#328=ORIENTED_EDGE('',*,*,#262,.F.);
#329=ORIENTED_EDGE('',*,*,#263,.T.);
#330=ORIENTED_EDGE('',*,*,#264,.F.);
#331=ORIENTED_EDGE('',*,*,#263,.F.);
#332=ORIENTED_EDGE('',*,*,#265,.F.);
#333=ORIENTED_EDGE('',*,*,#255,.T.);
#334=ORIENTED_EDGE('',*,*,#259,.T.);
#335=ORIENTED_EDGE('',*,*,#256,.T.);
#336=ORIENTED_EDGE('',*,*,#265,.T.);
#337=ORIENTED_EDGE('',*,*,#262,.T.);
#338=ORIENTED_EDGE('',*,*,#266,.F.);
#339=ORIENTED_EDGE('',*,*,#267,.F.);
#340=ORIENTED_EDGE('',*,*,#268,.F.);
#341=ORIENTED_EDGE('',*,*,#269,.F.);
#342=ORIENTED_EDGE('',*,*,#268,.T.);
#343=ORIENTED_EDGE('',*,*,#270,.F.);
#344=ORIENTED_EDGE('',*,*,#271,.F.);
#345=ORIENTED_EDGE('',*,*,#272,.T.);
#346=ORIENTED_EDGE('',*,*,#267,.T.);
#347=ORIENTED_EDGE('',*,*,#273,.F.);
#348=ORIENTED_EDGE('',*,*,#274,.F.);
#349=ORIENTED_EDGE('',*,*,#270,.T.);
#350=ORIENTED_EDGE('',*,*,#266,.T.);
#351=ORIENTED_EDGE('',*,*,#275,.F.);
#352=ORIENTED_EDGE('',*,*,#276,.F.);
#353=ORIENTED_EDGE('',*,*,#273,.T.);
#354=ORIENTED_EDGE('',*,*,#269,.T.);
#355=ORIENTED_EDGE('',*,*,#272,.F.);
#356=ORIENTED_EDGE('',*,*,#277,.F.);
#357=ORIENTED_EDGE('',*,*,#275,.T.);
#358=ORIENTED_EDGE('',*,*,#278,.F.);
#359=ORIENTED_EDGE('',*,*,#279,.T.);
#360=ORIENTED_EDGE('',*,*,#280,.F.);
#361=ORIENTED_EDGE('',*,*,#281,.F.);
#362=ORIENTED_EDGE('',*,*,#282,.T.);
#363=ORIENTED_EDGE('',*,*,#281,.T.);
#364=ORIENTED_EDGE('',*,*,#283,.F.);
#365=ORIENTED_EDGE('',*,*,#284,.F.);
#366=ORIENTED_EDGE('',*,*,#285,.F.);
#367=ORIENTED_EDGE('',*,*,#284,.T.);
#368=ORIENTED_EDGE('',*,*,#286,.F.);
#369=ORIENTED_EDGE('',*,*,#287,.F.);
#370=ORIENTED_EDGE('',*,*,#288,.T.);
#371=ORIENTED_EDGE('',*,*,#287,.T.);
#372=ORIENTED_EDGE('',*,*,#289,.F.);
#373=ORIENTED_EDGE('',*,*,#290,.F.);
#374=ORIENTED_EDGE('',*,*,#291,.F.);
#375=ORIENTED_EDGE('',*,*,#290,.T.);
#376=ORIENTED_EDGE('',*,*,#292,.F.);
#377=ORIENTED_EDGE('',*,*,#293,.F.);
#378=ORIENTED_EDGE('',*,*,#294,.T.);
#379=ORIENTED_EDGE('',*,*,#293,.T.);
#380=ORIENTED_EDGE('',*,*,#295,.F.);
#381=ORIENTED_EDGE('',*,*,#296,.F.);
#382=ORIENTED_EDGE('',*,*,#297,.F.);
#383=ORIENTED_EDGE('',*,*,#296,.T.);
#384=ORIENTED_EDGE('',*,*,#298,.F.);
#385=ORIENTED_EDGE('',*,*,#299,.F.);
#386=ORIENTED_EDGE('',*,*,#300,.T.);
#387=ORIENTED_EDGE('',*,*,#299,.T.);
#388=ORIENTED_EDGE('',*,*,#301,.F.);
#389=ORIENTED_EDGE('',*,*,#279,.F.);
#390=ORIENTED_EDGE('',*,*,#301,.T.);
#391=ORIENTED_EDGE('',*,*,#298,.T.);
#392=ORIENTED_EDGE('',*,*,#295,.T.);
#393=ORIENTED_EDGE('',*,*,#292,.T.);
#394=ORIENTED_EDGE('',*,*,#289,.T.);
#395=ORIENTED_EDGE('',*,*,#286,.T.);
#396=ORIENTED_EDGE('',*,*,#283,.T.);
#397=ORIENTED_EDGE('',*,*,#280,.T.);
#398=ORIENTED_EDGE('',*,*,#244,.T.);
#399=ORIENTED_EDGE('',*,*,#247,.T.);
#400=ORIENTED_EDGE('',*,*,#250,.T.);
#401=ORIENTED_EDGE('',*,*,#253,.T.);
#402=ORIENTED_EDGE('',*,*,#261,.T.);
#403=ORIENTED_EDGE('',*,*,#264,.T.);
#404=ORIENTED_EDGE('',*,*,#254,.T.);
#405=ORIENTED_EDGE('',*,*,#258,.T.);
#406=ORIENTED_EDGE('',*,*,#300,.F.);
#407=ORIENTED_EDGE('',*,*,#278,.T.);
#408=ORIENTED_EDGE('',*,*,#282,.F.);
#409=ORIENTED_EDGE('',*,*,#285,.T.);
#410=ORIENTED_EDGE('',*,*,#288,.F.);
#411=ORIENTED_EDGE('',*,*,#291,.T.);
#412=ORIENTED_EDGE('',*,*,#294,.F.);
#413=ORIENTED_EDGE('',*,*,#297,.T.);
#414=ORIENTED_EDGE('',*,*,#242,.T.);
#415=ORIENTED_EDGE('',*,*,#245,.T.);
#416=ORIENTED_EDGE('',*,*,#248,.T.);
#417=ORIENTED_EDGE('',*,*,#251,.T.);
#418=ORIENTED_EDGE('',*,*,#271,.T.);
#419=ORIENTED_EDGE('',*,*,#274,.T.);
#420=ORIENTED_EDGE('',*,*,#276,.T.);
#421=ORIENTED_EDGE('',*,*,#277,.T.);
#422=CYLINDRICAL_SURFACE('',#467,1.6);
#423=CYLINDRICAL_SURFACE('',#470,1.6);
#424=CYLINDRICAL_SURFACE('',#473,1.6);
#425=CYLINDRICAL_SURFACE('',#476,1.6);
#426=CYLINDRICAL_SURFACE('',#489,8.00000000000001);
#427=CYLINDRICAL_SURFACE('',#493,8.00000000000001);
#428=CYLINDRICAL_SURFACE('',#497,8.00000000000001);
#429=CYLINDRICAL_SURFACE('',#501,8.00000000000001);
#430=ADVANCED_FACE('',(#41),#422,.F.);
#431=ADVANCED_FACE('',(#42),#423,.F.);
#432=ADVANCED_FACE('',(#43),#424,.F.);
#433=ADVANCED_FACE('',(#44),#425,.F.);
#434=ADVANCED_FACE('',(#45),#26,.F.);
#435=ADVANCED_FACE('',(#46),#27,.F.);
#436=ADVANCED_FACE('',(#47),#28,.F.);
#437=ADVANCED_FACE('',(#48),#29,.F.);
#438=ADVANCED_FACE('',(#49,#15),#30,.T.);
#439=ADVANCED_FACE('',(#50),#31,.F.);
#440=ADVANCED_FACE('',(#51),#32,.F.);
#441=ADVANCED_FACE('',(#52),#33,.F.);
#442=ADVANCED_FACE('',(#53),#34,.F.);
#443=ADVANCED_FACE('',(#54),#35,.T.);
#444=ADVANCED_FACE('',(#55),#426,.T.);
#445=ADVANCED_FACE('',(#56),#36,.T.);
#446=ADVANCED_FACE('',(#57),#427,.T.);
#447=ADVANCED_FACE('',(#58),#37,.T.);
#448=ADVANCED_FACE('',(#59),#428,.T.);
#449=ADVANCED_FACE('',(#60),#38,.T.);
#450=ADVANCED_FACE('',(#61),#429,.T.);
#451=ADVANCED_FACE('',(#62,#16,#17,#18,#19,#20),#39,.T.);
#452=ADVANCED_FACE('',(#63,#21,#22,#23,#24,#25),#40,.F.);
#453=CLOSED_SHELL('',(#430,#431,#432,#433,#434,#435,#436,#437,#438,#439,
#440,#441,#442,#443,#444,#445,#446,#447,#448,#449,#450,#451,#452));
#454=DERIVED_UNIT_ELEMENT(#456,1.);
#455=DERIVED_UNIT_ELEMENT(#759,-3.);
#456=(
MASS_UNIT()
NAMED_UNIT(*)
SI_UNIT(.KILO.,.GRAM.)
);
#457=DERIVED_UNIT((#454,#455));
#458=MEASURE_REPRESENTATION_ITEM('density measure',
POSITIVE_RATIO_MEASURE(7850.),#457);
#459=PROPERTY_DEFINITION_REPRESENTATION(#464,#461);
#460=PROPERTY_DEFINITION_REPRESENTATION(#465,#462);
#461=REPRESENTATION('material name',(#463),#756);
#462=REPRESENTATION('density',(#458),#756);
#463=DESCRIPTIVE_REPRESENTATION_ITEM('A\X\E7o','A\X\E7o');
#464=PROPERTY_DEFINITION('material property','material name',#766);
#465=PROPERTY_DEFINITION('material property','density of part',#766);
#466=AXIS2_PLACEMENT_3D('',#630,#506,#507);
#467=AXIS2_PLACEMENT_3D('',#631,#508,#509);
#468=AXIS2_PLACEMENT_3D('',#633,#510,#511);
#469=AXIS2_PLACEMENT_3D('',#636,#513,#514);
#470=AXIS2_PLACEMENT_3D('',#637,#515,#516);
#471=AXIS2_PLACEMENT_3D('',#639,#517,#518);
#472=AXIS2_PLACEMENT_3D('',#642,#520,#521);
#473=AXIS2_PLACEMENT_3D('',#643,#522,#523);
#474=AXIS2_PLACEMENT_3D('',#645,#524,#525);
#475=AXIS2_PLACEMENT_3D('',#648,#527,#528);
#476=AXIS2_PLACEMENT_3D('',#649,#529,#530);
#477=AXIS2_PLACEMENT_3D('',#651,#531,#532);
#478=AXIS2_PLACEMENT_3D('',#654,#534,#535);
#479=AXIS2_PLACEMENT_3D('',#655,#536,#537);
#480=AXIS2_PLACEMENT_3D('',#664,#542,#543);
#481=AXIS2_PLACEMENT_3D('',#670,#547,#548);
#482=AXIS2_PLACEMENT_3D('',#676,#552,#553);
#483=AXIS2_PLACEMENT_3D('',#679,#556,#557);
#484=AXIS2_PLACEMENT_3D('',#688,#562,#563);
#485=AXIS2_PLACEMENT_3D('',#694,#567,#568);
#486=AXIS2_PLACEMENT_3D('',#698,#571,#572);
#487=AXIS2_PLACEMENT_3D('',#702,#575,#576);
#488=AXIS2_PLACEMENT_3D('',#704,#578,#579);
#489=AXIS2_PLACEMENT_3D('',#713,#584,#585);
#490=AXIS2_PLACEMENT_3D('',#715,#586,#587);
#491=AXIS2_PLACEMENT_3D('',#717,#588,#589);
#492=AXIS2_PLACEMENT_3D('',#719,#591,#592);
#493=AXIS2_PLACEMENT_3D('',#725,#596,#597);
#494=AXIS2_PLACEMENT_3D('',#727,#598,#599);
#495=AXIS2_PLACEMENT_3D('',#729,#600,#601);
#496=AXIS2_PLACEMENT_3D('',#731,#603,#604);
#497=AXIS2_PLACEMENT_3D('',#737,#608,#609);
#498=AXIS2_PLACEMENT_3D('',#739,#610,#611);
#499=AXIS2_PLACEMENT_3D('',#741,#612,#613);
#500=AXIS2_PLACEMENT_3D('',#743,#615,#616);
#501=AXIS2_PLACEMENT_3D('',#749,#620,#621);
#502=AXIS2_PLACEMENT_3D('',#750,#622,#623);
#503=AXIS2_PLACEMENT_3D('',#751,#624,#625);
#504=AXIS2_PLACEMENT_3D('',#752,#626,#627);
#505=AXIS2_PLACEMENT_3D('',#753,#628,#629);
#506=DIRECTION('axis',(0.,0.,1.));
#507=DIRECTION('refdir',(1.,0.,0.));
#508=DIRECTION('center_axis',(0.,0.,1.));
#509=DIRECTION('ref_axis',(1.,0.,0.));
#510=DIRECTION('center_axis',(0.,0.,1.));
#511=DIRECTION('ref_axis',(1.,0.,0.));
#512=DIRECTION('',(0.,0.,1.));
#513=DIRECTION('center_axis',(0.,0.,-1.));
#514=DIRECTION('ref_axis',(1.,0.,0.));
#515=DIRECTION('center_axis',(0.,0.,1.));
#516=DIRECTION('ref_axis',(1.,0.,0.));
#517=DIRECTION('center_axis',(0.,0.,1.));
#518=DIRECTION('ref_axis',(1.,0.,0.));
#519=DIRECTION('',(0.,0.,1.));
#520=DIRECTION('center_axis',(0.,0.,-1.));
#521=DIRECTION('ref_axis',(1.,0.,0.));
#522=DIRECTION('center_axis',(0.,0.,1.));
#523=DIRECTION('ref_axis',(1.,0.,0.));
#524=DIRECTION('center_axis',(0.,0.,1.));
#525=DIRECTION('ref_axis',(1.,0.,0.));
#526=DIRECTION('',(0.,0.,1.));
#527=DIRECTION('center_axis',(0.,0.,-1.));
#528=DIRECTION('ref_axis',(1.,0.,0.));
#529=DIRECTION('center_axis',(0.,0.,1.));
#530=DIRECTION('ref_axis',(1.,0.,0.));
#531=DIRECTION('center_axis',(0.,0.,1.));
#532=DIRECTION('ref_axis',(1.,0.,0.));
#533=DIRECTION('',(0.,0.,1.));
#534=DIRECTION('center_axis',(0.,0.,-1.));
#535=DIRECTION('ref_axis',(1.,0.,0.));
#536=DIRECTION('center_axis',(0.,-1.,0.));
#537=DIRECTION('ref_axis',(1.,0.,0.));
#538=DIRECTION('',(-1.,0.,0.));
#539=DIRECTION('',(0.,0.,1.));
#540=DIRECTION('',(1.,0.,0.));
#541=DIRECTION('',(0.,0.,1.));
#542=DIRECTION('center_axis',(-1.,0.,0.));
#543=DIRECTION('ref_axis',(0.,-1.,0.));
#544=DIRECTION('',(0.,1.,0.));
#545=DIRECTION('',(0.,-1.,0.));
#546=DIRECTION('',(0.,0.,1.));
#547=DIRECTION('center_axis',(0.,1.,0.));
#548=DIRECTION('ref_axis',(-1.,0.,0.));
#549=DIRECTION('',(1.,0.,0.));
#550=DIRECTION('',(-1.,0.,0.));
#551=DIRECTION('',(0.,0.,1.));
#552=DIRECTION('center_axis',(1.,0.,0.));
#553=DIRECTION('ref_axis',(0.,1.,0.));
#554=DIRECTION('',(0.,-1.,0.));
#555=DIRECTION('',(0.,1.,0.));
#556=DIRECTION('center_axis',(0.,0.,1.));
#557=DIRECTION('ref_axis',(1.,0.,0.));
#558=DIRECTION('',(1.,0.,0.));
#559=DIRECTION('',(0.,-1.,0.));
#560=DIRECTION('',(-1.,0.,0.));
#561=DIRECTION('',(0.,1.,0.));
#562=DIRECTION('center_axis',(0.,1.,0.));
#563=DIRECTION('ref_axis',(-1.,0.,0.));
#564=DIRECTION('',(0.,0.,1.));
#565=DIRECTION('',(-1.,0.,0.));
#566=DIRECTION('',(0.,0.,1.));
#567=DIRECTION('center_axis',(-1.,0.,0.));
#568=DIRECTION('ref_axis',(0.,-1.,0.));
#569=DIRECTION('',(0.,0.,1.));
#570=DIRECTION('',(0.,-1.,0.));
#571=DIRECTION('center_axis',(0.,-1.,0.));
#572=DIRECTION('ref_axis',(1.,0.,0.));
#573=DIRECTION('',(0.,0.,1.));
#574=DIRECTION('',(1.,0.,0.));
#575=DIRECTION('center_axis',(1.,0.,0.));
#576=DIRECTION('ref_axis',(0.,1.,0.));
#577=DIRECTION('',(0.,1.,0.));
#578=DIRECTION('center_axis',(1.,0.,0.));
#579=DIRECTION('ref_axis',(0.,1.,0.));
#580=DIRECTION('',(0.,-1.,0.));
#581=DIRECTION('',(0.,0.,1.));
#582=DIRECTION('',(0.,1.,0.));
#583=DIRECTION('',(0.,0.,1.));
#584=DIRECTION('center_axis',(0.,0.,1.));
#585=DIRECTION('ref_axis',(0.,-1.,0.));
#586=DIRECTION('center_axis',(0.,0.,1.));
#587=DIRECTION('ref_axis',(0.,-1.,0.));
#588=DIRECTION('center_axis',(0.,0.,1.));
#589=DIRECTION('ref_axis',(0.,-1.,0.));
#590=DIRECTION('',(0.,0.,1.));
#591=DIRECTION('center_axis',(0.,-1.,0.));
#592=DIRECTION('ref_axis',(1.,0.,0.));
#593=DIRECTION('',(-1.,0.,0.));
#594=DIRECTION('',(1.,0.,0.));
#595=DIRECTION('',(0.,0.,1.));
#596=DIRECTION('center_axis',(0.,0.,1.));
#597=DIRECTION('ref_axis',(-1.,-1.11022302462516E-15,0.));
#598=DIRECTION('center_axis',(0.,0.,1.));
#599=DIRECTION('ref_axis',(-1.,-1.11022302462516E-15,0.));
#600=DIRECTION('center_axis',(0.,0.,1.));
#601=DIRECTION('ref_axis',(-1.,-1.11022302462516E-15,0.));
#602=DIRECTION('',(0.,0.,1.));
#603=DIRECTION('center_axis',(-1.,0.,0.));
#604=DIRECTION('ref_axis',(0.,-1.,0.));
#605=DIRECTION('',(0.,1.,0.));
#606=DIRECTION('',(0.,-1.,0.));
#607=DIRECTION('',(0.,0.,1.));
#608=DIRECTION('center_axis',(0.,0.,1.));
#609=DIRECTION('ref_axis',(0.,1.,0.));
#610=DIRECTION('center_axis',(0.,0.,1.));
#611=DIRECTION('ref_axis',(0.,1.,0.));
#612=DIRECTION('center_axis',(0.,0.,1.));
#613=DIRECTION('ref_axis',(0.,1.,0.));
#614=DIRECTION('',(0.,0.,1.));
#615=DIRECTION('center_axis',(0.,1.,0.));
#616=DIRECTION('ref_axis',(-1.,0.,0.));
#617=DIRECTION('',(1.,0.,0.));
#618=DIRECTION('',(-1.,0.,0.));
#619=DIRECTION('',(0.,0.,1.));
#620=DIRECTION('center_axis',(0.,0.,1.));
#621=DIRECTION('ref_axis',(1.,1.11022302462516E-15,0.));
#622=DIRECTION('center_axis',(0.,0.,1.));
#623=DIRECTION('ref_axis',(1.,1.11022302462516E-15,0.));
#624=DIRECTION('center_axis',(0.,0.,1.));
#625=DIRECTION('ref_axis',(1.,1.11022302462516E-15,0.));
#626=DIRECTION('center_axis',(0.,0.,1.));
#627=DIRECTION('ref_axis',(1.,0.,0.));
#628=DIRECTION('center_axis',(0.,0.,1.));
#629=DIRECTION('ref_axis',(1.,0.,0.));
#630=CARTESIAN_POINT('',(0.,0.,0.));
#631=CARTESIAN_POINT('Origin',(90.,57.5,0.));
#632=CARTESIAN_POINT('',(88.4,57.5,0.));
#633=CARTESIAN_POINT('Origin',(90.,57.5,0.));
#634=CARTESIAN_POINT('',(88.4,57.5,4.));
#635=CARTESIAN_POINT('',(88.4,57.5,0.));
#636=CARTESIAN_POINT('Origin',(90.,57.5,4.));
#637=CARTESIAN_POINT('Origin',(90.,-57.5,0.));
#638=CARTESIAN_POINT('',(88.4,-57.5,0.));
#639=CARTESIAN_POINT('Origin',(90.,-57.5,0.));
#640=CARTESIAN_POINT('',(88.4,-57.5,4.));
#641=CARTESIAN_POINT('',(88.4,-57.5,0.));
#642=CARTESIAN_POINT('Origin',(90.,-57.5,4.));
#643=CARTESIAN_POINT('Origin',(-90.,57.5,0.));
#644=CARTESIAN_POINT('',(-91.6,57.5,0.));
#645=CARTESIAN_POINT('Origin',(-90.,57.5,0.));
#646=CARTESIAN_POINT('',(-91.6,57.5,4.));
#647=CARTESIAN_POINT('',(-91.6,57.5,0.));
#648=CARTESIAN_POINT('Origin',(-90.,57.5,4.));
#649=CARTESIAN_POINT('Origin',(-90.,-57.5,0.));
#650=CARTESIAN_POINT('',(-91.6,-57.5,0.));
#651=CARTESIAN_POINT('Origin',(-90.,-57.5,0.));
#652=CARTESIAN_POINT('',(-91.6,-57.5,4.));
#653=CARTESIAN_POINT('',(-91.6,-57.5,0.));
#654=CARTESIAN_POINT('Origin',(-90.,-57.5,4.));
#655=CARTESIAN_POINT('Origin',(-83.5,-51.,1.5));
#656=CARTESIAN_POINT('',(83.5,-51.,4.));
#657=CARTESIAN_POINT('',(-83.5,-51.,4.));
#658=CARTESIAN_POINT('',(-41.75,-51.,4.));
#659=CARTESIAN_POINT('',(83.5,-51.,1.5));
#660=CARTESIAN_POINT('',(83.5,-51.,1.5));
#661=CARTESIAN_POINT('',(-83.5,-51.,1.5));
#662=CARTESIAN_POINT('',(-83.5,-51.,1.5));
#663=CARTESIAN_POINT('',(-83.5,-51.,1.5));
#664=CARTESIAN_POINT('Origin',(-83.5,51.,1.5));
#665=CARTESIAN_POINT('',(-83.5,51.,4.));
#666=CARTESIAN_POINT('',(-83.5,25.5,4.));
#667=CARTESIAN_POINT('',(-83.5,51.,1.5));
#668=CARTESIAN_POINT('',(-83.5,51.,1.5));
#669=CARTESIAN_POINT('',(-83.5,51.,1.5));
#670=CARTESIAN_POINT('Origin',(83.5,51.,1.5));
#671=CARTESIAN_POINT('',(83.5,51.,4.));
#672=CARTESIAN_POINT('',(41.75,51.,4.));
#673=CARTESIAN_POINT('',(83.5,51.,1.5));
#674=CARTESIAN_POINT('',(83.5,51.,1.5));
#675=CARTESIAN_POINT('',(83.5,51.,1.5));
#676=CARTESIAN_POINT('Origin',(83.5,-51.,1.5));
#677=CARTESIAN_POINT('',(83.5,-25.5,4.));
#678=CARTESIAN_POINT('',(83.5,-51.,1.5));
#679=CARTESIAN_POINT('Origin',(0.,0.,1.5));
#680=CARTESIAN_POINT('',(-77.5,-43.5,1.5));
#681=CARTESIAN_POINT('',(77.5,-43.5,1.5));
#682=CARTESIAN_POINT('',(-38.75,-43.5,1.5));
#683=CARTESIAN_POINT('',(-77.5,43.5,1.5));
#684=CARTESIAN_POINT('',(-77.5,21.75,1.5));
#685=CARTESIAN_POINT('',(77.5,43.5,1.5));
#686=CARTESIAN_POINT('',(38.75,43.5,1.5));
#687=CARTESIAN_POINT('',(77.5,-21.75,1.5));
#688=CARTESIAN_POINT('Origin',(77.5,43.5,0.));
#689=CARTESIAN_POINT('',(-77.5,43.5,0.));
#690=CARTESIAN_POINT('',(-77.5,43.5,0.));
#691=CARTESIAN_POINT('',(77.5,43.5,0.));
#692=CARTESIAN_POINT('',(38.75,43.5,0.));
#693=CARTESIAN_POINT('',(77.5,43.5,0.));
#694=CARTESIAN_POINT('Origin',(-77.5,43.5,0.));
#695=CARTESIAN_POINT('',(-77.5,-43.5,0.));
#696=CARTESIAN_POINT('',(-77.5,-43.5,0.));
#697=CARTESIAN_POINT('',(-77.5,21.75,0.));
#698=CARTESIAN_POINT('Origin',(-77.5,-43.5,0.));
#699=CARTESIAN_POINT('',(77.5,-43.5,0.));
#700=CARTESIAN_POINT('',(77.5,-43.5,0.));
#701=CARTESIAN_POINT('',(-38.75,-43.5,0.));
#702=CARTESIAN_POINT('Origin',(77.5,-43.5,0.));
#703=CARTESIAN_POINT('',(77.5,-21.75,0.));
#704=CARTESIAN_POINT('Origin',(110.,-64.5,0.));
#705=CARTESIAN_POINT('',(110.,64.5,0.));
#706=CARTESIAN_POINT('',(110.,-64.5,0.));
#707=CARTESIAN_POINT('',(110.,64.5,0.));
#708=CARTESIAN_POINT('',(110.,64.5,4.));
#709=CARTESIAN_POINT('',(110.,64.5,0.));
#710=CARTESIAN_POINT('',(110.,-64.5,4.));
#711=CARTESIAN_POINT('',(110.,64.5,4.));
#712=CARTESIAN_POINT('',(110.,-64.5,0.));
#713=CARTESIAN_POINT('Origin',(102.,-64.5,0.));
#714=CARTESIAN_POINT('',(102.,-72.5,0.));
#715=CARTESIAN_POINT('Origin',(102.,-64.5,0.));
#716=CARTESIAN_POINT('',(102.,-72.5,4.));
#717=CARTESIAN_POINT('Origin',(102.,-64.5,4.));
#718=CARTESIAN_POINT('',(102.,-72.5,0.));
#719=CARTESIAN_POINT('Origin',(-102.,-72.5,0.));
#720=CARTESIAN_POINT('',(-102.,-72.5,0.));
#721=CARTESIAN_POINT('',(102.,-72.5,0.));
#722=CARTESIAN_POINT('',(-102.,-72.5,4.));
#723=CARTESIAN_POINT('',(102.,-72.5,4.));
#724=CARTESIAN_POINT('',(-102.,-72.5,0.));
#725=CARTESIAN_POINT('Origin',(-102.,-64.5,0.));
#726=CARTESIAN_POINT('',(-110.,-64.5,0.));
#727=CARTESIAN_POINT('Origin',(-102.,-64.5,0.));
#728=CARTESIAN_POINT('',(-110.,-64.5,4.));
#729=CARTESIAN_POINT('Origin',(-102.,-64.5,4.));
#730=CARTESIAN_POINT('',(-110.,-64.5,0.));
#731=CARTESIAN_POINT('Origin',(-110.,64.5,0.));
#732=CARTESIAN_POINT('',(-110.,64.5,0.));
#733=CARTESIAN_POINT('',(-110.,-64.5,0.));
#734=CARTESIAN_POINT('',(-110.,64.5,4.));
#735=CARTESIAN_POINT('',(-110.,-64.5,4.));
#736=CARTESIAN_POINT('',(-110.,64.5,0.));
#737=CARTESIAN_POINT('Origin',(-102.,64.5,0.));
#738=CARTESIAN_POINT('',(-102.,72.5,0.));
#739=CARTESIAN_POINT('Origin',(-102.,64.5,0.));
#740=CARTESIAN_POINT('',(-102.,72.5,4.));
#741=CARTESIAN_POINT('Origin',(-102.,64.5,4.));
#742=CARTESIAN_POINT('',(-102.,72.5,0.));
#743=CARTESIAN_POINT('Origin',(102.,72.5,0.));
#744=CARTESIAN_POINT('',(102.,72.5,0.));
#745=CARTESIAN_POINT('',(-102.,72.5,0.));
#746=CARTESIAN_POINT('',(102.,72.5,4.));
#747=CARTESIAN_POINT('',(-102.,72.5,4.));
#748=CARTESIAN_POINT('',(102.,72.5,0.));
#749=CARTESIAN_POINT('Origin',(102.,64.5,0.));
#750=CARTESIAN_POINT('Origin',(102.,64.5,0.));
#751=CARTESIAN_POINT('Origin',(102.,64.5,4.));
#752=CARTESIAN_POINT('Origin',(0.,0.,4.));
#753=CARTESIAN_POINT('Origin',(0.,0.,0.));
#754=UNCERTAINTY_MEASURE_WITH_UNIT(LENGTH_MEASURE(0.01),#758,
'DISTANCE_ACCURACY_VALUE',
'Maximum model space distance between geometric entities at asserted c
onnectivities');
#755=UNCERTAINTY_MEASURE_WITH_UNIT(LENGTH_MEASURE(0.01),#758,
'DISTANCE_ACCURACY_VALUE',
'Maximum model space distance between geometric entities at asserted c
onnectivities');
#756=(
GEOMETRIC_REPRESENTATION_CONTEXT(3)
GLOBAL_UNCERTAINTY_ASSIGNED_CONTEXT((#754))
GLOBAL_UNIT_ASSIGNED_CONTEXT((#758,#760,#761))
REPRESENTATION_CONTEXT('','3D')
);
#757=(
GEOMETRIC_REPRESENTATION_CONTEXT(3)
GLOBAL_UNCERTAINTY_ASSIGNED_CONTEXT((#755))
GLOBAL_UNIT_ASSIGNED_CONTEXT((#758,#760,#761))
REPRESENTATION_CONTEXT('','3D')
);
#758=(
LENGTH_UNIT()
NAMED_UNIT(*)
SI_UNIT(.MILLI.,.METRE.)
);
#759=(
LENGTH_UNIT()
NAMED_UNIT(*)
SI_UNIT($,.METRE.)
);
#760=(
NAMED_UNIT(*)
PLANE_ANGLE_UNIT()
SI_UNIT($,.RADIAN.)
);
#761=(
NAMED_UNIT(*)
SI_UNIT($,.STERADIAN.)
SOLID_ANGLE_UNIT()
);
#762=SHAPE_DEFINITION_REPRESENTATION(#763,#764);
#763=PRODUCT_DEFINITION_SHAPE('',$,#766);
#764=SHAPE_REPRESENTATION('',(#466),#756);
#765=PRODUCT_DEFINITION_CONTEXT('part definition',#770,'design');
#766=PRODUCT_DEFINITION('SmartMeter_FrontPanel','SmartMeter_FrontPanel',
#767,#765);
#767=PRODUCT_DEFINITION_FORMATION('',$,#772);
#768=PRODUCT_RELATED_PRODUCT_CATEGORY('SmartMeter_FrontPanel',
'SmartMeter_FrontPanel',(#772));
#769=APPLICATION_PROTOCOL_DEFINITION('international standard',
'automotive_design',2009,#770);
#770=APPLICATION_CONTEXT(
'Core Data for Automotive Mechanical Design Process');
#771=PRODUCT_CONTEXT('part definition',#770,'mechanical');
#772=PRODUCT('SmartMeter_FrontPanel','SmartMeter_FrontPanel',$,(#771));
#773=PRESENTATION_STYLE_ASSIGNMENT((#774));
#774=SURFACE_STYLE_USAGE(.BOTH.,#775);
#775=SURFACE_SIDE_STYLE('',(#776));
#776=SURFACE_STYLE_FILL_AREA(#777);
#777=FILL_AREA_STYLE('A\X\E7o - Acetinado',(#778));
#778=FILL_AREA_STYLE_COLOUR('A\X\E7o - Acetinado',#779);
#779=COLOUR_RGB('A\X\E7o - Acetinado',0.627450980392157,0.627450980392157,
0.627450980392157);
ENDSEC;
END-ISO-10303-21;
