ISO-10303-21;
HEADER;
/* Generated by software containing ST-Developer
 * from STEP Tools, Inc. (www.steptools.com) 
 */

FILE_DESCRIPTION(
/* description */ (''),
/* implementation_level */ '2;1');

FILE_NAME(
/* name */ 'SmartMeter_HmiCarrier.step',
/* time_stamp */ '2026-10-03T15:16:22-03:00',
/* author */ (''),
/* organization */ (''),
/* preprocessor_version */ 'ST-DEVELOPER v20.1',
/* originating_system */ 'Autodesk Translation Framework v15.8.0.0',
/* authorisation */ '');

FILE_SCHEMA (('AUTOMOTIVE_DESIGN { 1 0 10303 214 3 1 1 }'));
ENDSEC;

DATA;
#10=MECHANICAL_DESIGN_GEOMETRIC_PRESENTATION_REPRESENTATION('',(#13),#855);
#11=SHAPE_REPRESENTATION_RELATIONSHIP('SRR','None',#862,#12);
#12=ADVANCED_BREP_SHAPE_REPRESENTATION('',(#14),#854);
#13=STYLED_ITEM('',(#871),#14);
#14=MANIFOLD_SOLID_BREP('Corpo1',#491);
#15=FACE_BOUND('',#93,.T.);
#16=FACE_BOUND('',#96,.T.);
#17=FACE_BOUND('',#99,.T.);
#18=FACE_BOUND('',#102,.T.);
#19=FACE_BOUND('',#116,.T.);
#20=FACE_BOUND('',#117,.T.);
#21=FACE_BOUND('',#118,.T.);
#22=FACE_BOUND('',#119,.T.);
#23=FACE_BOUND('',#120,.T.);
#24=FACE_BOUND('',#121,.T.);
#25=FACE_BOUND('',#122,.T.);
#26=FACE_BOUND('',#123,.T.);
#27=FACE_BOUND('',#124,.T.);
#28=FACE_BOUND('',#125,.T.);
#29=FACE_BOUND('',#126,.T.);
#30=FACE_BOUND('',#127,.T.);
#31=FACE_BOUND('',#129,.T.);
#32=FACE_BOUND('',#130,.T.);
#33=FACE_BOUND('',#131,.T.);
#34=FACE_BOUND('',#132,.T.);
#35=FACE_BOUND('',#133,.T.);
#36=FACE_BOUND('',#134,.T.);
#37=FACE_BOUND('',#135,.T.);
#38=FACE_BOUND('',#136,.T.);
#39=PLANE('',#508);
#40=PLANE('',#512);
#41=PLANE('',#516);
#42=PLANE('',#520);
#43=PLANE('',#524);
#44=PLANE('',#528);
#45=PLANE('',#532);
#46=PLANE('',#536);
#47=PLANE('',#561);
#48=PLANE('',#562);
#49=PLANE('',#563);
#50=PLANE('',#564);
#51=PLANE('',#565);
#52=PLANE('',#566);
#53=FACE_OUTER_BOUND('',#83,.T.);
#54=FACE_OUTER_BOUND('',#84,.T.);
#55=FACE_OUTER_BOUND('',#85,.T.);
#56=FACE_OUTER_BOUND('',#86,.T.);
#57=FACE_OUTER_BOUND('',#87,.T.);
#58=FACE_OUTER_BOUND('',#88,.T.);
#59=FACE_OUTER_BOUND('',#89,.T.);
#60=FACE_OUTER_BOUND('',#90,.T.);
#61=FACE_OUTER_BOUND('',#91,.T.);
#62=FACE_OUTER_BOUND('',#92,.T.);
#63=FACE_OUTER_BOUND('',#94,.T.);
#64=FACE_OUTER_BOUND('',#95,.T.);
#65=FACE_OUTER_BOUND('',#97,.T.);
#66=FACE_OUTER_BOUND('',#98,.T.);
#67=FACE_OUTER_BOUND('',#100,.T.);
#68=FACE_OUTER_BOUND('',#101,.T.);
#69=FACE_OUTER_BOUND('',#103,.T.);
#70=FACE_OUTER_BOUND('',#104,.T.);
#71=FACE_OUTER_BOUND('',#105,.T.);
#72=FACE_OUTER_BOUND('',#106,.T.);
#73=FACE_OUTER_BOUND('',#107,.T.);
#74=FACE_OUTER_BOUND('',#108,.T.);
#75=FACE_OUTER_BOUND('',#109,.T.);
#76=FACE_OUTER_BOUND('',#110,.T.);
#77=FACE_OUTER_BOUND('',#111,.T.);
#78=FACE_OUTER_BOUND('',#112,.T.);
#79=FACE_OUTER_BOUND('',#113,.T.);
#80=FACE_OUTER_BOUND('',#114,.T.);
#81=FACE_OUTER_BOUND('',#115,.T.);
#82=FACE_OUTER_BOUND('',#128,.T.);
#83=EDGE_LOOP('',(#325,#326,#327,#328));
#84=EDGE_LOOP('',(#329));
#85=EDGE_LOOP('',(#330,#331,#332,#333));
#86=EDGE_LOOP('',(#334));
#87=EDGE_LOOP('',(#335,#336,#337,#338));
#88=EDGE_LOOP('',(#339));
#89=EDGE_LOOP('',(#340,#341,#342,#343));
#90=EDGE_LOOP('',(#344));
#91=EDGE_LOOP('',(#345,#346,#347,#348));
#92=EDGE_LOOP('',(#349));
#93=EDGE_LOOP('',(#350));
#94=EDGE_LOOP('',(#351,#352,#353,#354));
#95=EDGE_LOOP('',(#355));
#96=EDGE_LOOP('',(#356));
#97=EDGE_LOOP('',(#357,#358,#359,#360));
#98=EDGE_LOOP('',(#361));
#99=EDGE_LOOP('',(#362));
#100=EDGE_LOOP('',(#363,#364,#365,#366));
#101=EDGE_LOOP('',(#367));
#102=EDGE_LOOP('',(#368));
#103=EDGE_LOOP('',(#369,#370,#371,#372));
#104=EDGE_LOOP('',(#373,#374,#375,#376));
#105=EDGE_LOOP('',(#377,#378,#379,#380));
#106=EDGE_LOOP('',(#381,#382,#383,#384));
#107=EDGE_LOOP('',(#385,#386,#387,#388));
#108=EDGE_LOOP('',(#389,#390,#391,#392));
#109=EDGE_LOOP('',(#393,#394,#395,#396));
#110=EDGE_LOOP('',(#397,#398,#399,#400));
#111=EDGE_LOOP('',(#401,#402,#403,#404));
#112=EDGE_LOOP('',(#405,#406,#407,#408));
#113=EDGE_LOOP('',(#409,#410,#411,#412));
#114=EDGE_LOOP('',(#413,#414,#415,#416));
#115=EDGE_LOOP('',(#417,#418,#419,#420));
#116=EDGE_LOOP('',(#421));
#117=EDGE_LOOP('',(#422));
#118=EDGE_LOOP('',(#423));
#119=EDGE_LOOP('',(#424));
#120=EDGE_LOOP('',(#425));
#121=EDGE_LOOP('',(#426));
#122=EDGE_LOOP('',(#427));
#123=EDGE_LOOP('',(#428));
#124=EDGE_LOOP('',(#429));
#125=EDGE_LOOP('',(#430));
#126=EDGE_LOOP('',(#431));
#127=EDGE_LOOP('',(#432));
#128=EDGE_LOOP('',(#433,#434,#435,#436));
#129=EDGE_LOOP('',(#437));
#130=EDGE_LOOP('',(#438));
#131=EDGE_LOOP('',(#439));
#132=EDGE_LOOP('',(#440));
#133=EDGE_LOOP('',(#441));
#134=EDGE_LOOP('',(#442));
#135=EDGE_LOOP('',(#443));
#136=EDGE_LOOP('',(#444));
#137=LINE('',#726,#165);
#138=LINE('',#733,#166);
#139=LINE('',#740,#167);
#140=LINE('',#747,#168);
#141=LINE('',#754,#169);
#142=LINE('',#761,#170);
#143=LINE('',#768,#171);
#144=LINE('',#775,#172);
#145=LINE('',#782,#173);
#146=LINE('',#788,#174);
#147=LINE('',#794,#175);
#148=LINE('',#800,#176);
#149=LINE('',#806,#177);
#150=LINE('',#812,#178);
#151=LINE('',#818,#179);
#152=LINE('',#824,#180);
#153=LINE('',#829,#181);
#154=LINE('',#831,#182);
#155=LINE('',#833,#183);
#156=LINE('',#834,#184);
#157=LINE('',#837,#185);
#158=LINE('',#839,#186);
#159=LINE('',#840,#187);
#160=LINE('',#843,#188);
#161=LINE('',#845,#189);
#162=LINE('',#846,#190);
#163=LINE('',#848,#191);
#164=LINE('',#849,#192);
#165=VECTOR('',#573,1.6);
#166=VECTOR('',#582,1.6);
#167=VECTOR('',#591,1.6);
#168=VECTOR('',#600,1.6);
#169=VECTOR('',#609,5.);
#170=VECTOR('',#618,5.);
#171=VECTOR('',#627,5.);
#172=VECTOR('',#636,5.);
#173=VECTOR('',#645,1.6);
#174=VECTOR('',#652,1.6);
#175=VECTOR('',#659,1.6);
#176=VECTOR('',#666,1.6);
#177=VECTOR('',#673,1.6);
#178=VECTOR('',#680,1.6);
#179=VECTOR('',#687,1.6);
#180=VECTOR('',#694,1.6);
#181=VECTOR('',#699,10.);
#182=VECTOR('',#700,10.);
#183=VECTOR('',#701,10.);
#184=VECTOR('',#702,10.);
#185=VECTOR('',#705,10.);
#186=VECTOR('',#706,10.);
#187=VECTOR('',#707,10.);
#188=VECTOR('',#710,10.);
#189=VECTOR('',#711,10.);
#190=VECTOR('',#712,10.);
#191=VECTOR('',#715,10.);
#192=VECTOR('',#716,10.);
#193=CIRCLE('',#506,1.6);
#194=CIRCLE('',#507,1.6);
#195=CIRCLE('',#510,1.6);
#196=CIRCLE('',#511,1.6);
#197=CIRCLE('',#514,1.6);
#198=CIRCLE('',#515,1.6);
#199=CIRCLE('',#518,1.6);
#200=CIRCLE('',#519,1.6);
#201=CIRCLE('',#522,5.);
#202=CIRCLE('',#523,5.);
#203=CIRCLE('',#526,5.);
#204=CIRCLE('',#527,5.);
#205=CIRCLE('',#530,5.);
#206=CIRCLE('',#531,5.);
#207=CIRCLE('',#534,5.);
#208=CIRCLE('',#535,5.);
#209=CIRCLE('',#538,1.6);
#210=CIRCLE('',#539,1.6);
#211=CIRCLE('',#541,1.6);
#212=CIRCLE('',#542,1.6);
#213=CIRCLE('',#544,1.6);
#214=CIRCLE('',#545,1.6);
#215=CIRCLE('',#547,1.6);
#216=CIRCLE('',#548,1.6);
#217=CIRCLE('',#550,1.6);
#218=CIRCLE('',#551,1.6);
#219=CIRCLE('',#553,1.6);
#220=CIRCLE('',#554,1.6);
#221=CIRCLE('',#556,1.6);
#222=CIRCLE('',#557,1.6);
#223=CIRCLE('',#559,1.6);
#224=CIRCLE('',#560,1.6);
#225=VERTEX_POINT('',#723);
#226=VERTEX_POINT('',#725);
#227=VERTEX_POINT('',#730);
#228=VERTEX_POINT('',#732);
#229=VERTEX_POINT('',#737);
#230=VERTEX_POINT('',#739);
#231=VERTEX_POINT('',#744);
#232=VERTEX_POINT('',#746);
#233=VERTEX_POINT('',#751);
#234=VERTEX_POINT('',#753);
#235=VERTEX_POINT('',#758);
#236=VERTEX_POINT('',#760);
#237=VERTEX_POINT('',#765);
#238=VERTEX_POINT('',#767);
#239=VERTEX_POINT('',#772);
#240=VERTEX_POINT('',#774);
#241=VERTEX_POINT('',#779);
#242=VERTEX_POINT('',#781);
#243=VERTEX_POINT('',#785);
#244=VERTEX_POINT('',#787);
#245=VERTEX_POINT('',#791);
#246=VERTEX_POINT('',#793);
#247=VERTEX_POINT('',#797);
#248=VERTEX_POINT('',#799);
#249=VERTEX_POINT('',#803);
#250=VERTEX_POINT('',#805);
#251=VERTEX_POINT('',#809);
#252=VERTEX_POINT('',#811);
#253=VERTEX_POINT('',#815);
#254=VERTEX_POINT('',#817);
#255=VERTEX_POINT('',#821);
#256=VERTEX_POINT('',#823);
#257=VERTEX_POINT('',#827);
#258=VERTEX_POINT('',#828);
#259=VERTEX_POINT('',#830);
#260=VERTEX_POINT('',#832);
#261=VERTEX_POINT('',#836);
#262=VERTEX_POINT('',#838);
#263=VERTEX_POINT('',#842);
#264=VERTEX_POINT('',#844);
#265=EDGE_CURVE('',#225,#225,#193,.T.);
#266=EDGE_CURVE('',#225,#226,#137,.T.);
#267=EDGE_CURVE('',#226,#226,#194,.T.);
#268=EDGE_CURVE('',#227,#227,#195,.T.);
#269=EDGE_CURVE('',#227,#228,#138,.T.);
#270=EDGE_CURVE('',#228,#228,#196,.T.);
#271=EDGE_CURVE('',#229,#229,#197,.T.);
#272=EDGE_CURVE('',#229,#230,#139,.T.);
#273=EDGE_CURVE('',#230,#230,#198,.T.);
#274=EDGE_CURVE('',#231,#231,#199,.T.);
#275=EDGE_CURVE('',#231,#232,#140,.T.);
#276=EDGE_CURVE('',#232,#232,#200,.T.);
#277=EDGE_CURVE('',#233,#233,#201,.T.);
#278=EDGE_CURVE('',#233,#234,#141,.T.);
#279=EDGE_CURVE('',#234,#234,#202,.T.);
#280=EDGE_CURVE('',#235,#235,#203,.T.);
#281=EDGE_CURVE('',#235,#236,#142,.T.);
#282=EDGE_CURVE('',#236,#236,#204,.T.);
#283=EDGE_CURVE('',#237,#237,#205,.T.);
#284=EDGE_CURVE('',#237,#238,#143,.T.);
#285=EDGE_CURVE('',#238,#238,#206,.T.);
#286=EDGE_CURVE('',#239,#239,#207,.T.);
#287=EDGE_CURVE('',#239,#240,#144,.T.);
#288=EDGE_CURVE('',#240,#240,#208,.T.);
#289=EDGE_CURVE('',#241,#241,#209,.T.);
#290=EDGE_CURVE('',#241,#242,#145,.T.);
#291=EDGE_CURVE('',#242,#242,#210,.T.);
#292=EDGE_CURVE('',#243,#243,#211,.T.);
#293=EDGE_CURVE('',#243,#244,#146,.T.);
#294=EDGE_CURVE('',#244,#244,#212,.T.);
#295=EDGE_CURVE('',#245,#245,#213,.T.);
#296=EDGE_CURVE('',#245,#246,#147,.T.);
#297=EDGE_CURVE('',#246,#246,#214,.T.);
#298=EDGE_CURVE('',#247,#247,#215,.T.);
#299=EDGE_CURVE('',#247,#248,#148,.T.);
#300=EDGE_CURVE('',#248,#248,#216,.T.);
#301=EDGE_CURVE('',#249,#249,#217,.T.);
#302=EDGE_CURVE('',#249,#250,#149,.T.);
#303=EDGE_CURVE('',#250,#250,#218,.T.);
#304=EDGE_CURVE('',#251,#251,#219,.T.);
#305=EDGE_CURVE('',#251,#252,#150,.T.);
#306=EDGE_CURVE('',#252,#252,#220,.T.);
#307=EDGE_CURVE('',#253,#253,#221,.T.);
#308=EDGE_CURVE('',#253,#254,#151,.T.);
#309=EDGE_CURVE('',#254,#254,#222,.T.);
#310=EDGE_CURVE('',#255,#255,#223,.T.);
#311=EDGE_CURVE('',#255,#256,#152,.T.);
#312=EDGE_CURVE('',#256,#256,#224,.T.);
#313=EDGE_CURVE('',#257,#258,#153,.T.);
#314=EDGE_CURVE('',#258,#259,#154,.T.);
#315=EDGE_CURVE('',#260,#259,#155,.T.);
#316=EDGE_CURVE('',#257,#260,#156,.T.);
#317=EDGE_CURVE('',#261,#257,#157,.T.);
#318=EDGE_CURVE('',#262,#260,#158,.T.);
#319=EDGE_CURVE('',#261,#262,#159,.T.);
#320=EDGE_CURVE('',#263,#261,#160,.T.);
#321=EDGE_CURVE('',#264,#262,#161,.T.);
#322=EDGE_CURVE('',#263,#264,#162,.T.);
#323=EDGE_CURVE('',#258,#263,#163,.T.);
#324=EDGE_CURVE('',#259,#264,#164,.T.);
#325=ORIENTED_EDGE('',*,*,#265,.F.);
#326=ORIENTED_EDGE('',*,*,#266,.T.);
#327=ORIENTED_EDGE('',*,*,#267,.F.);
#328=ORIENTED_EDGE('',*,*,#266,.F.);
#329=ORIENTED_EDGE('',*,*,#265,.T.);
#330=ORIENTED_EDGE('',*,*,#268,.F.);
#331=ORIENTED_EDGE('',*,*,#269,.T.);
#332=ORIENTED_EDGE('',*,*,#270,.F.);
#333=ORIENTED_EDGE('',*,*,#269,.F.);
#334=ORIENTED_EDGE('',*,*,#268,.T.);
#335=ORIENTED_EDGE('',*,*,#271,.F.);
#336=ORIENTED_EDGE('',*,*,#272,.T.);
#337=ORIENTED_EDGE('',*,*,#273,.F.);
#338=ORIENTED_EDGE('',*,*,#272,.F.);
#339=ORIENTED_EDGE('',*,*,#271,.T.);
#340=ORIENTED_EDGE('',*,*,#274,.F.);
#341=ORIENTED_EDGE('',*,*,#275,.T.);
#342=ORIENTED_EDGE('',*,*,#276,.F.);
#343=ORIENTED_EDGE('',*,*,#275,.F.);
#344=ORIENTED_EDGE('',*,*,#274,.T.);
#345=ORIENTED_EDGE('',*,*,#277,.F.);
#346=ORIENTED_EDGE('',*,*,#278,.T.);
#347=ORIENTED_EDGE('',*,*,#279,.F.);
#348=ORIENTED_EDGE('',*,*,#278,.F.);
#349=ORIENTED_EDGE('',*,*,#277,.T.);
#350=ORIENTED_EDGE('',*,*,#267,.T.);
#351=ORIENTED_EDGE('',*,*,#280,.F.);
#352=ORIENTED_EDGE('',*,*,#281,.T.);
#353=ORIENTED_EDGE('',*,*,#282,.F.);
#354=ORIENTED_EDGE('',*,*,#281,.F.);
#355=ORIENTED_EDGE('',*,*,#280,.T.);
#356=ORIENTED_EDGE('',*,*,#270,.T.);
#357=ORIENTED_EDGE('',*,*,#283,.F.);
#358=ORIENTED_EDGE('',*,*,#284,.T.);
#359=ORIENTED_EDGE('',*,*,#285,.F.);
#360=ORIENTED_EDGE('',*,*,#284,.F.);
#361=ORIENTED_EDGE('',*,*,#283,.T.);
#362=ORIENTED_EDGE('',*,*,#273,.T.);
#363=ORIENTED_EDGE('',*,*,#286,.F.);
#364=ORIENTED_EDGE('',*,*,#287,.T.);
#365=ORIENTED_EDGE('',*,*,#288,.F.);
#366=ORIENTED_EDGE('',*,*,#287,.F.);
#367=ORIENTED_EDGE('',*,*,#286,.T.);
#368=ORIENTED_EDGE('',*,*,#276,.T.);
#369=ORIENTED_EDGE('',*,*,#289,.F.);
#370=ORIENTED_EDGE('',*,*,#290,.T.);
#371=ORIENTED_EDGE('',*,*,#291,.F.);
#372=ORIENTED_EDGE('',*,*,#290,.F.);
#373=ORIENTED_EDGE('',*,*,#292,.F.);
#374=ORIENTED_EDGE('',*,*,#293,.T.);
#375=ORIENTED_EDGE('',*,*,#294,.F.);
#376=ORIENTED_EDGE('',*,*,#293,.F.);
#377=ORIENTED_EDGE('',*,*,#295,.F.);
#378=ORIENTED_EDGE('',*,*,#296,.T.);
#379=ORIENTED_EDGE('',*,*,#297,.F.);
#380=ORIENTED_EDGE('',*,*,#296,.F.);
#381=ORIENTED_EDGE('',*,*,#298,.F.);
#382=ORIENTED_EDGE('',*,*,#299,.T.);
#383=ORIENTED_EDGE('',*,*,#300,.F.);
#384=ORIENTED_EDGE('',*,*,#299,.F.);
#385=ORIENTED_EDGE('',*,*,#301,.F.);
#386=ORIENTED_EDGE('',*,*,#302,.T.);
#387=ORIENTED_EDGE('',*,*,#303,.F.);
#388=ORIENTED_EDGE('',*,*,#302,.F.);
#389=ORIENTED_EDGE('',*,*,#304,.F.);
#390=ORIENTED_EDGE('',*,*,#305,.T.);
#391=ORIENTED_EDGE('',*,*,#306,.F.);
#392=ORIENTED_EDGE('',*,*,#305,.F.);
#393=ORIENTED_EDGE('',*,*,#307,.F.);
#394=ORIENTED_EDGE('',*,*,#308,.T.);
#395=ORIENTED_EDGE('',*,*,#309,.F.);
#396=ORIENTED_EDGE('',*,*,#308,.F.);
#397=ORIENTED_EDGE('',*,*,#310,.F.);
#398=ORIENTED_EDGE('',*,*,#311,.T.);
#399=ORIENTED_EDGE('',*,*,#312,.F.);
#400=ORIENTED_EDGE('',*,*,#311,.F.);
#401=ORIENTED_EDGE('',*,*,#313,.T.);
#402=ORIENTED_EDGE('',*,*,#314,.T.);
#403=ORIENTED_EDGE('',*,*,#315,.F.);
#404=ORIENTED_EDGE('',*,*,#316,.F.);
#405=ORIENTED_EDGE('',*,*,#317,.T.);
#406=ORIENTED_EDGE('',*,*,#316,.T.);
#407=ORIENTED_EDGE('',*,*,#318,.F.);
#408=ORIENTED_EDGE('',*,*,#319,.F.);
#409=ORIENTED_EDGE('',*,*,#320,.T.);
#410=ORIENTED_EDGE('',*,*,#319,.T.);
#411=ORIENTED_EDGE('',*,*,#321,.F.);
#412=ORIENTED_EDGE('',*,*,#322,.F.);
#413=ORIENTED_EDGE('',*,*,#323,.T.);
#414=ORIENTED_EDGE('',*,*,#322,.T.);
#415=ORIENTED_EDGE('',*,*,#324,.F.);
#416=ORIENTED_EDGE('',*,*,#314,.F.);
#417=ORIENTED_EDGE('',*,*,#324,.T.);
#418=ORIENTED_EDGE('',*,*,#321,.T.);
#419=ORIENTED_EDGE('',*,*,#318,.T.);
#420=ORIENTED_EDGE('',*,*,#315,.T.);
#421=ORIENTED_EDGE('',*,*,#282,.T.);
#422=ORIENTED_EDGE('',*,*,#288,.T.);
#423=ORIENTED_EDGE('',*,*,#312,.T.);
#424=ORIENTED_EDGE('',*,*,#309,.T.);
#425=ORIENTED_EDGE('',*,*,#306,.T.);
#426=ORIENTED_EDGE('',*,*,#303,.T.);
#427=ORIENTED_EDGE('',*,*,#300,.T.);
#428=ORIENTED_EDGE('',*,*,#297,.T.);
#429=ORIENTED_EDGE('',*,*,#294,.T.);
#430=ORIENTED_EDGE('',*,*,#291,.T.);
#431=ORIENTED_EDGE('',*,*,#285,.T.);
#432=ORIENTED_EDGE('',*,*,#279,.T.);
#433=ORIENTED_EDGE('',*,*,#323,.F.);
#434=ORIENTED_EDGE('',*,*,#313,.F.);
#435=ORIENTED_EDGE('',*,*,#317,.F.);
#436=ORIENTED_EDGE('',*,*,#320,.F.);
#437=ORIENTED_EDGE('',*,*,#310,.T.);
#438=ORIENTED_EDGE('',*,*,#307,.T.);
#439=ORIENTED_EDGE('',*,*,#304,.T.);
#440=ORIENTED_EDGE('',*,*,#301,.T.);
#441=ORIENTED_EDGE('',*,*,#298,.T.);
#442=ORIENTED_EDGE('',*,*,#295,.T.);
#443=ORIENTED_EDGE('',*,*,#292,.T.);
#444=ORIENTED_EDGE('',*,*,#289,.T.);
#445=CYLINDRICAL_SURFACE('',#505,1.6);
#446=CYLINDRICAL_SURFACE('',#509,1.6);
#447=CYLINDRICAL_SURFACE('',#513,1.6);
#448=CYLINDRICAL_SURFACE('',#517,1.6);
#449=CYLINDRICAL_SURFACE('',#521,5.);
#450=CYLINDRICAL_SURFACE('',#525,5.);
#451=CYLINDRICAL_SURFACE('',#529,5.);
#452=CYLINDRICAL_SURFACE('',#533,5.);
#453=CYLINDRICAL_SURFACE('',#537,1.6);
#454=CYLINDRICAL_SURFACE('',#540,1.6);
#455=CYLINDRICAL_SURFACE('',#543,1.6);
#456=CYLINDRICAL_SURFACE('',#546,1.6);
#457=CYLINDRICAL_SURFACE('',#549,1.6);
#458=CYLINDRICAL_SURFACE('',#552,1.6);
#459=CYLINDRICAL_SURFACE('',#555,1.6);
#460=CYLINDRICAL_SURFACE('',#558,1.6);
#461=ADVANCED_FACE('',(#53),#445,.F.);
#462=ADVANCED_FACE('',(#54),#39,.T.);
#463=ADVANCED_FACE('',(#55),#446,.F.);
#464=ADVANCED_FACE('',(#56),#40,.T.);
#465=ADVANCED_FACE('',(#57),#447,.F.);
#466=ADVANCED_FACE('',(#58),#41,.T.);
#467=ADVANCED_FACE('',(#59),#448,.F.);
#468=ADVANCED_FACE('',(#60),#42,.T.);
#469=ADVANCED_FACE('',(#61),#449,.T.);
#470=ADVANCED_FACE('',(#62,#15),#43,.T.);
#471=ADVANCED_FACE('',(#63),#450,.T.);
#472=ADVANCED_FACE('',(#64,#16),#44,.T.);
#473=ADVANCED_FACE('',(#65),#451,.T.);
#474=ADVANCED_FACE('',(#66,#17),#45,.T.);
#475=ADVANCED_FACE('',(#67),#452,.T.);
#476=ADVANCED_FACE('',(#68,#18),#46,.T.);
#477=ADVANCED_FACE('',(#69),#453,.F.);
#478=ADVANCED_FACE('',(#70),#454,.F.);
#479=ADVANCED_FACE('',(#71),#455,.F.);
#480=ADVANCED_FACE('',(#72),#456,.F.);
#481=ADVANCED_FACE('',(#73),#457,.F.);
#482=ADVANCED_FACE('',(#74),#458,.F.);
#483=ADVANCED_FACE('',(#75),#459,.F.);
#484=ADVANCED_FACE('',(#76),#460,.F.);
#485=ADVANCED_FACE('',(#77),#47,.T.);
#486=ADVANCED_FACE('',(#78),#48,.T.);
#487=ADVANCED_FACE('',(#79),#49,.T.);
#488=ADVANCED_FACE('',(#80),#50,.T.);
#489=ADVANCED_FACE('',(#81,#19,#20,#21,#22,#23,#24,#25,#26,#27,#28,#29,
#30),#51,.T.);
#490=ADVANCED_FACE('',(#82,#31,#32,#33,#34,#35,#36,#37,#38),#52,.F.);
#491=CLOSED_SHELL('',(#461,#462,#463,#464,#465,#466,#467,#468,#469,#470,
#471,#472,#473,#474,#475,#476,#477,#478,#479,#480,#481,#482,#483,#484,#485,
#486,#487,#488,#489,#490));
#492=DERIVED_UNIT_ELEMENT(#494,1.);
#493=DERIVED_UNIT_ELEMENT(#857,-3.);
#494=(
MASS_UNIT()
NAMED_UNIT(*)
SI_UNIT(.KILO.,.GRAM.)
);
#495=DERIVED_UNIT((#492,#493));
#496=MEASURE_REPRESENTATION_ITEM('density measure',
POSITIVE_RATIO_MEASURE(7850.),#495);
#497=PROPERTY_DEFINITION_REPRESENTATION(#502,#499);
#498=PROPERTY_DEFINITION_REPRESENTATION(#503,#500);
#499=REPRESENTATION('material name',(#501),#854);
#500=REPRESENTATION('density',(#496),#854);
#501=DESCRIPTIVE_REPRESENTATION_ITEM('A\X\E7o','A\X\E7o');
#502=PROPERTY_DEFINITION('material property','material name',#864);
#503=PROPERTY_DEFINITION('material property','density of part',#864);
#504=AXIS2_PLACEMENT_3D('',#721,#567,#568);
#505=AXIS2_PLACEMENT_3D('',#722,#569,#570);
#506=AXIS2_PLACEMENT_3D('',#724,#571,#572);
#507=AXIS2_PLACEMENT_3D('',#727,#574,#575);
#508=AXIS2_PLACEMENT_3D('',#728,#576,#577);
#509=AXIS2_PLACEMENT_3D('',#729,#578,#579);
#510=AXIS2_PLACEMENT_3D('',#731,#580,#581);
#511=AXIS2_PLACEMENT_3D('',#734,#583,#584);
#512=AXIS2_PLACEMENT_3D('',#735,#585,#586);
#513=AXIS2_PLACEMENT_3D('',#736,#587,#588);
#514=AXIS2_PLACEMENT_3D('',#738,#589,#590);
#515=AXIS2_PLACEMENT_3D('',#741,#592,#593);
#516=AXIS2_PLACEMENT_3D('',#742,#594,#595);
#517=AXIS2_PLACEMENT_3D('',#743,#596,#597);
#518=AXIS2_PLACEMENT_3D('',#745,#598,#599);
#519=AXIS2_PLACEMENT_3D('',#748,#601,#602);
#520=AXIS2_PLACEMENT_3D('',#749,#603,#604);
#521=AXIS2_PLACEMENT_3D('',#750,#605,#606);
#522=AXIS2_PLACEMENT_3D('',#752,#607,#608);
#523=AXIS2_PLACEMENT_3D('',#755,#610,#611);
#524=AXIS2_PLACEMENT_3D('',#756,#612,#613);
#525=AXIS2_PLACEMENT_3D('',#757,#614,#615);
#526=AXIS2_PLACEMENT_3D('',#759,#616,#617);
#527=AXIS2_PLACEMENT_3D('',#762,#619,#620);
#528=AXIS2_PLACEMENT_3D('',#763,#621,#622);
#529=AXIS2_PLACEMENT_3D('',#764,#623,#624);
#530=AXIS2_PLACEMENT_3D('',#766,#625,#626);
#531=AXIS2_PLACEMENT_3D('',#769,#628,#629);
#532=AXIS2_PLACEMENT_3D('',#770,#630,#631);
#533=AXIS2_PLACEMENT_3D('',#771,#632,#633);
#534=AXIS2_PLACEMENT_3D('',#773,#634,#635);
#535=AXIS2_PLACEMENT_3D('',#776,#637,#638);
#536=AXIS2_PLACEMENT_3D('',#777,#639,#640);
#537=AXIS2_PLACEMENT_3D('',#778,#641,#642);
#538=AXIS2_PLACEMENT_3D('',#780,#643,#644);
#539=AXIS2_PLACEMENT_3D('',#783,#646,#647);
#540=AXIS2_PLACEMENT_3D('',#784,#648,#649);
#541=AXIS2_PLACEMENT_3D('',#786,#650,#651);
#542=AXIS2_PLACEMENT_3D('',#789,#653,#654);
#543=AXIS2_PLACEMENT_3D('',#790,#655,#656);
#544=AXIS2_PLACEMENT_3D('',#792,#657,#658);
#545=AXIS2_PLACEMENT_3D('',#795,#660,#661);
#546=AXIS2_PLACEMENT_3D('',#796,#662,#663);
#547=AXIS2_PLACEMENT_3D('',#798,#664,#665);
#548=AXIS2_PLACEMENT_3D('',#801,#667,#668);
#549=AXIS2_PLACEMENT_3D('',#802,#669,#670);
#550=AXIS2_PLACEMENT_3D('',#804,#671,#672);
#551=AXIS2_PLACEMENT_3D('',#807,#674,#675);
#552=AXIS2_PLACEMENT_3D('',#808,#676,#677);
#553=AXIS2_PLACEMENT_3D('',#810,#678,#679);
#554=AXIS2_PLACEMENT_3D('',#813,#681,#682);
#555=AXIS2_PLACEMENT_3D('',#814,#683,#684);
#556=AXIS2_PLACEMENT_3D('',#816,#685,#686);
#557=AXIS2_PLACEMENT_3D('',#819,#688,#689);
#558=AXIS2_PLACEMENT_3D('',#820,#690,#691);
#559=AXIS2_PLACEMENT_3D('',#822,#692,#693);
#560=AXIS2_PLACEMENT_3D('',#825,#695,#696);
#561=AXIS2_PLACEMENT_3D('',#826,#697,#698);
#562=AXIS2_PLACEMENT_3D('',#835,#703,#704);
#563=AXIS2_PLACEMENT_3D('',#841,#708,#709);
#564=AXIS2_PLACEMENT_3D('',#847,#713,#714);
#565=AXIS2_PLACEMENT_3D('',#850,#717,#718);
#566=AXIS2_PLACEMENT_3D('',#851,#719,#720);
#567=DIRECTION('axis',(0.,0.,1.));
#568=DIRECTION('refdir',(1.,0.,0.));
#569=DIRECTION('center_axis',(0.,0.,1.));
#570=DIRECTION('ref_axis',(1.,0.,0.));
#571=DIRECTION('center_axis',(0.,0.,1.));
#572=DIRECTION('ref_axis',(1.,0.,0.));
#573=DIRECTION('',(0.,0.,1.));
#574=DIRECTION('center_axis',(0.,0.,-1.));
#575=DIRECTION('ref_axis',(1.,0.,0.));
#576=DIRECTION('center_axis',(0.,0.,1.));
#577=DIRECTION('ref_axis',(1.,0.,0.));
#578=DIRECTION('center_axis',(0.,0.,1.));
#579=DIRECTION('ref_axis',(1.,0.,0.));
#580=DIRECTION('center_axis',(0.,0.,1.));
#581=DIRECTION('ref_axis',(1.,0.,0.));
#582=DIRECTION('',(0.,0.,1.));
#583=DIRECTION('center_axis',(0.,0.,-1.));
#584=DIRECTION('ref_axis',(1.,0.,0.));
#585=DIRECTION('center_axis',(0.,0.,1.));
#586=DIRECTION('ref_axis',(1.,0.,0.));
#587=DIRECTION('center_axis',(0.,0.,1.));
#588=DIRECTION('ref_axis',(1.,0.,0.));
#589=DIRECTION('center_axis',(0.,0.,1.));
#590=DIRECTION('ref_axis',(1.,0.,0.));
#591=DIRECTION('',(0.,0.,1.));
#592=DIRECTION('center_axis',(0.,0.,-1.));
#593=DIRECTION('ref_axis',(1.,0.,0.));
#594=DIRECTION('center_axis',(0.,0.,1.));
#595=DIRECTION('ref_axis',(1.,0.,0.));
#596=DIRECTION('center_axis',(0.,0.,1.));
#597=DIRECTION('ref_axis',(1.,0.,0.));
#598=DIRECTION('center_axis',(0.,0.,1.));
#599=DIRECTION('ref_axis',(1.,0.,0.));
#600=DIRECTION('',(0.,0.,1.));
#601=DIRECTION('center_axis',(0.,0.,-1.));
#602=DIRECTION('ref_axis',(1.,0.,0.));
#603=DIRECTION('center_axis',(0.,0.,1.));
#604=DIRECTION('ref_axis',(1.,0.,0.));
#605=DIRECTION('center_axis',(0.,0.,1.));
#606=DIRECTION('ref_axis',(1.,0.,0.));
#607=DIRECTION('center_axis',(0.,0.,1.));
#608=DIRECTION('ref_axis',(1.,0.,0.));
#609=DIRECTION('',(0.,0.,-1.));
#610=DIRECTION('center_axis',(0.,0.,-1.));
#611=DIRECTION('ref_axis',(1.,0.,0.));
#612=DIRECTION('center_axis',(0.,0.,1.));
#613=DIRECTION('ref_axis',(1.,0.,0.));
#614=DIRECTION('center_axis',(0.,0.,1.));
#615=DIRECTION('ref_axis',(1.,0.,0.));
#616=DIRECTION('center_axis',(0.,0.,1.));
#617=DIRECTION('ref_axis',(1.,0.,0.));
#618=DIRECTION('',(0.,0.,-1.));
#619=DIRECTION('center_axis',(0.,0.,-1.));
#620=DIRECTION('ref_axis',(1.,0.,0.));
#621=DIRECTION('center_axis',(0.,0.,1.));
#622=DIRECTION('ref_axis',(1.,0.,0.));
#623=DIRECTION('center_axis',(0.,0.,1.));
#624=DIRECTION('ref_axis',(1.,0.,0.));
#625=DIRECTION('center_axis',(0.,0.,1.));
#626=DIRECTION('ref_axis',(1.,0.,0.));
#627=DIRECTION('',(0.,0.,-1.));
#628=DIRECTION('center_axis',(0.,0.,-1.));
#629=DIRECTION('ref_axis',(1.,0.,0.));
#630=DIRECTION('center_axis',(0.,0.,1.));
#631=DIRECTION('ref_axis',(1.,0.,0.));
#632=DIRECTION('center_axis',(0.,0.,1.));
#633=DIRECTION('ref_axis',(1.,0.,0.));
#634=DIRECTION('center_axis',(0.,0.,1.));
#635=DIRECTION('ref_axis',(1.,0.,0.));
#636=DIRECTION('',(0.,0.,-1.));
#637=DIRECTION('center_axis',(0.,0.,-1.));
#638=DIRECTION('ref_axis',(1.,0.,0.));
#639=DIRECTION('center_axis',(0.,0.,1.));
#640=DIRECTION('ref_axis',(1.,0.,0.));
#641=DIRECTION('center_axis',(0.,0.,1.));
#642=DIRECTION('ref_axis',(1.,0.,0.));
#643=DIRECTION('center_axis',(0.,0.,1.));
#644=DIRECTION('ref_axis',(1.,0.,0.));
#645=DIRECTION('',(0.,0.,1.));
#646=DIRECTION('center_axis',(0.,0.,-1.));
#647=DIRECTION('ref_axis',(1.,0.,0.));
#648=DIRECTION('center_axis',(0.,0.,1.));
#649=DIRECTION('ref_axis',(1.,0.,0.));
#650=DIRECTION('center_axis',(0.,0.,1.));
#651=DIRECTION('ref_axis',(1.,0.,0.));
#652=DIRECTION('',(0.,0.,1.));
#653=DIRECTION('center_axis',(0.,0.,-1.));
#654=DIRECTION('ref_axis',(1.,0.,0.));
#655=DIRECTION('center_axis',(0.,0.,1.));
#656=DIRECTION('ref_axis',(1.,0.,0.));
#657=DIRECTION('center_axis',(0.,0.,1.));
#658=DIRECTION('ref_axis',(1.,0.,0.));
#659=DIRECTION('',(0.,0.,1.));
#660=DIRECTION('center_axis',(0.,0.,-1.));
#661=DIRECTION('ref_axis',(1.,0.,0.));
#662=DIRECTION('center_axis',(0.,0.,1.));
#663=DIRECTION('ref_axis',(1.,0.,0.));
#664=DIRECTION('center_axis',(0.,0.,1.));
#665=DIRECTION('ref_axis',(1.,0.,0.));
#666=DIRECTION('',(0.,0.,1.));
#667=DIRECTION('center_axis',(0.,0.,-1.));
#668=DIRECTION('ref_axis',(1.,0.,0.));
#669=DIRECTION('center_axis',(0.,0.,1.));
#670=DIRECTION('ref_axis',(1.,0.,0.));
#671=DIRECTION('center_axis',(0.,0.,1.));
#672=DIRECTION('ref_axis',(1.,0.,0.));
#673=DIRECTION('',(0.,0.,1.));
#674=DIRECTION('center_axis',(0.,0.,-1.));
#675=DIRECTION('ref_axis',(1.,0.,0.));
#676=DIRECTION('center_axis',(0.,0.,1.));
#677=DIRECTION('ref_axis',(1.,0.,0.));
#678=DIRECTION('center_axis',(0.,0.,1.));
#679=DIRECTION('ref_axis',(1.,0.,0.));
#680=DIRECTION('',(0.,0.,1.));
#681=DIRECTION('center_axis',(0.,0.,-1.));
#682=DIRECTION('ref_axis',(1.,0.,0.));
#683=DIRECTION('center_axis',(0.,0.,1.));
#684=DIRECTION('ref_axis',(1.,0.,0.));
#685=DIRECTION('center_axis',(0.,0.,1.));
#686=DIRECTION('ref_axis',(1.,0.,0.));
#687=DIRECTION('',(0.,0.,1.));
#688=DIRECTION('center_axis',(0.,0.,-1.));
#689=DIRECTION('ref_axis',(1.,0.,0.));
#690=DIRECTION('center_axis',(0.,0.,1.));
#691=DIRECTION('ref_axis',(1.,0.,0.));
#692=DIRECTION('center_axis',(0.,0.,1.));
#693=DIRECTION('ref_axis',(1.,0.,0.));
#694=DIRECTION('',(0.,0.,1.));
#695=DIRECTION('center_axis',(0.,0.,-1.));
#696=DIRECTION('ref_axis',(1.,0.,0.));
#697=DIRECTION('center_axis',(0.,1.,0.));
#698=DIRECTION('ref_axis',(-1.,0.,0.));
#699=DIRECTION('',(-1.,0.,0.));
#700=DIRECTION('',(0.,0.,1.));
#701=DIRECTION('',(-1.,0.,0.));
#702=DIRECTION('',(0.,0.,1.));
#703=DIRECTION('center_axis',(1.,0.,0.));
#704=DIRECTION('ref_axis',(0.,1.,0.));
#705=DIRECTION('',(0.,1.,0.));
#706=DIRECTION('',(0.,1.,0.));
#707=DIRECTION('',(0.,0.,1.));
#708=DIRECTION('center_axis',(0.,-1.,0.));
#709=DIRECTION('ref_axis',(1.,0.,0.));
#710=DIRECTION('',(1.,0.,0.));
#711=DIRECTION('',(1.,0.,0.));
#712=DIRECTION('',(0.,0.,1.));
#713=DIRECTION('center_axis',(-1.,0.,0.));
#714=DIRECTION('ref_axis',(0.,-1.,0.));
#715=DIRECTION('',(0.,-1.,0.));
#716=DIRECTION('',(0.,-1.,0.));
#717=DIRECTION('center_axis',(0.,0.,1.));
#718=DIRECTION('ref_axis',(1.,0.,0.));
#719=DIRECTION('center_axis',(0.,0.,1.));
#720=DIRECTION('ref_axis',(1.,0.,0.));
#721=CARTESIAN_POINT('',(0.,0.,0.));
#722=CARTESIAN_POINT('Origin',(27.5,17.5,3.));
#723=CARTESIAN_POINT('',(25.9,17.5,3.));
#724=CARTESIAN_POINT('Origin',(27.5,17.5,3.));
#725=CARTESIAN_POINT('',(25.9,17.5,12.));
#726=CARTESIAN_POINT('',(25.9,17.5,3.));
#727=CARTESIAN_POINT('Origin',(27.5,17.5,12.));
#728=CARTESIAN_POINT('Origin',(27.5,17.5,3.));
#729=CARTESIAN_POINT('Origin',(27.5,-17.5,3.));
#730=CARTESIAN_POINT('',(25.9,-17.5,3.));
#731=CARTESIAN_POINT('Origin',(27.5,-17.5,3.));
#732=CARTESIAN_POINT('',(25.9,-17.5,12.));
#733=CARTESIAN_POINT('',(25.9,-17.5,3.));
#734=CARTESIAN_POINT('Origin',(27.5,-17.5,12.));
#735=CARTESIAN_POINT('Origin',(27.5,-17.5,3.));
#736=CARTESIAN_POINT('Origin',(-27.5,17.5,3.));
#737=CARTESIAN_POINT('',(-29.1,17.5,3.));
#738=CARTESIAN_POINT('Origin',(-27.5,17.5,3.));
#739=CARTESIAN_POINT('',(-29.1,17.5,12.));
#740=CARTESIAN_POINT('',(-29.1,17.5,3.));
#741=CARTESIAN_POINT('Origin',(-27.5,17.5,12.));
#742=CARTESIAN_POINT('Origin',(-27.5,17.5,3.));
#743=CARTESIAN_POINT('Origin',(-27.5,-17.5,3.));
#744=CARTESIAN_POINT('',(-29.1,-17.5,3.));
#745=CARTESIAN_POINT('Origin',(-27.5,-17.5,3.));
#746=CARTESIAN_POINT('',(-29.1,-17.5,12.));
#747=CARTESIAN_POINT('',(-29.1,-17.5,3.));
#748=CARTESIAN_POINT('Origin',(-27.5,-17.5,12.));
#749=CARTESIAN_POINT('Origin',(-27.5,-17.5,3.));
#750=CARTESIAN_POINT('Origin',(27.5,17.5,0.));
#751=CARTESIAN_POINT('',(22.5,17.5,12.));
#752=CARTESIAN_POINT('Origin',(27.5,17.5,12.));
#753=CARTESIAN_POINT('',(22.5,17.5,3.));
#754=CARTESIAN_POINT('',(22.5,17.5,0.));
#755=CARTESIAN_POINT('Origin',(27.5,17.5,3.));
#756=CARTESIAN_POINT('Origin',(27.5,17.5,12.));
#757=CARTESIAN_POINT('Origin',(27.5,-17.5,0.));
#758=CARTESIAN_POINT('',(22.5,-17.5,12.));
#759=CARTESIAN_POINT('Origin',(27.5,-17.5,12.));
#760=CARTESIAN_POINT('',(22.5,-17.5,3.));
#761=CARTESIAN_POINT('',(22.5,-17.5,0.));
#762=CARTESIAN_POINT('Origin',(27.5,-17.5,3.));
#763=CARTESIAN_POINT('Origin',(27.5,-17.5,12.));
#764=CARTESIAN_POINT('Origin',(-27.5,17.5,0.));
#765=CARTESIAN_POINT('',(-32.5,17.5,12.));
#766=CARTESIAN_POINT('Origin',(-27.5,17.5,12.));
#767=CARTESIAN_POINT('',(-32.5,17.5,3.));
#768=CARTESIAN_POINT('',(-32.5,17.5,0.));
#769=CARTESIAN_POINT('Origin',(-27.5,17.5,3.));
#770=CARTESIAN_POINT('Origin',(-27.5,17.5,12.));
#771=CARTESIAN_POINT('Origin',(-27.5,-17.5,0.));
#772=CARTESIAN_POINT('',(-32.5,-17.5,12.));
#773=CARTESIAN_POINT('Origin',(-27.5,-17.5,12.));
#774=CARTESIAN_POINT('',(-32.5,-17.5,3.));
#775=CARTESIAN_POINT('',(-32.5,-17.5,0.));
#776=CARTESIAN_POINT('Origin',(-27.5,-17.5,3.));
#777=CARTESIAN_POINT('Origin',(-27.5,-17.5,12.));
#778=CARTESIAN_POINT('Origin',(35.,25.,0.));
#779=CARTESIAN_POINT('',(33.4,25.,0.));
#780=CARTESIAN_POINT('Origin',(35.,25.,0.));
#781=CARTESIAN_POINT('',(33.4,25.,3.));
#782=CARTESIAN_POINT('',(33.4,25.,0.));
#783=CARTESIAN_POINT('Origin',(35.,25.,3.));
#784=CARTESIAN_POINT('Origin',(35.,-25.,0.));
#785=CARTESIAN_POINT('',(33.4,-25.,0.));
#786=CARTESIAN_POINT('Origin',(35.,-25.,0.));
#787=CARTESIAN_POINT('',(33.4,-25.,3.));
#788=CARTESIAN_POINT('',(33.4,-25.,0.));
#789=CARTESIAN_POINT('Origin',(35.,-25.,3.));
#790=CARTESIAN_POINT('Origin',(-35.,25.,0.));
#791=CARTESIAN_POINT('',(-36.6,25.,0.));
#792=CARTESIAN_POINT('Origin',(-35.,25.,0.));
#793=CARTESIAN_POINT('',(-36.6,25.,3.));
#794=CARTESIAN_POINT('',(-36.6,25.,0.));
#795=CARTESIAN_POINT('Origin',(-35.,25.,3.));
#796=CARTESIAN_POINT('Origin',(-35.,-25.,0.));
#797=CARTESIAN_POINT('',(-36.6,-25.,0.));
#798=CARTESIAN_POINT('Origin',(-35.,-25.,0.));
#799=CARTESIAN_POINT('',(-36.6,-25.,3.));
#800=CARTESIAN_POINT('',(-36.6,-25.,0.));
#801=CARTESIAN_POINT('Origin',(-35.,-25.,3.));
#802=CARTESIAN_POINT('Origin',(42.5,27.5,0.));
#803=CARTESIAN_POINT('',(40.9,27.5,0.));
#804=CARTESIAN_POINT('Origin',(42.5,27.5,0.));
#805=CARTESIAN_POINT('',(40.9,27.5,3.));
#806=CARTESIAN_POINT('',(40.9,27.5,0.));
#807=CARTESIAN_POINT('Origin',(42.5,27.5,3.));
#808=CARTESIAN_POINT('Origin',(42.5,-27.5,0.));
#809=CARTESIAN_POINT('',(40.9,-27.5,0.));
#810=CARTESIAN_POINT('Origin',(42.5,-27.5,0.));
#811=CARTESIAN_POINT('',(40.9,-27.5,3.));
#812=CARTESIAN_POINT('',(40.9,-27.5,0.));
#813=CARTESIAN_POINT('Origin',(42.5,-27.5,3.));
#814=CARTESIAN_POINT('Origin',(-42.5,27.5,0.));
#815=CARTESIAN_POINT('',(-44.1,27.5,0.));
#816=CARTESIAN_POINT('Origin',(-42.5,27.5,0.));
#817=CARTESIAN_POINT('',(-44.1,27.5,3.));
#818=CARTESIAN_POINT('',(-44.1,27.5,0.));
#819=CARTESIAN_POINT('Origin',(-42.5,27.5,3.));
#820=CARTESIAN_POINT('Origin',(-42.5,-27.5,0.));
#821=CARTESIAN_POINT('',(-44.1,-27.5,0.));
#822=CARTESIAN_POINT('Origin',(-42.5,-27.5,0.));
#823=CARTESIAN_POINT('',(-44.1,-27.5,3.));
#824=CARTESIAN_POINT('',(-44.1,-27.5,0.));
#825=CARTESIAN_POINT('Origin',(-42.5,-27.5,3.));
#826=CARTESIAN_POINT('Origin',(52.5,37.5,0.));
#827=CARTESIAN_POINT('',(52.5,37.5,0.));
#828=CARTESIAN_POINT('',(-52.5,37.5,0.));
#829=CARTESIAN_POINT('',(52.5,37.5,0.));
#830=CARTESIAN_POINT('',(-52.5,37.5,3.));
#831=CARTESIAN_POINT('',(-52.5,37.5,0.));
#832=CARTESIAN_POINT('',(52.5,37.5,3.));
#833=CARTESIAN_POINT('',(52.5,37.5,3.));
#834=CARTESIAN_POINT('',(52.5,37.5,0.));
#835=CARTESIAN_POINT('Origin',(52.5,-37.5,0.));
#836=CARTESIAN_POINT('',(52.5,-37.5,0.));
#837=CARTESIAN_POINT('',(52.5,-37.5,0.));
#838=CARTESIAN_POINT('',(52.5,-37.5,3.));
#839=CARTESIAN_POINT('',(52.5,-37.5,3.));
#840=CARTESIAN_POINT('',(52.5,-37.5,0.));
#841=CARTESIAN_POINT('Origin',(-52.5,-37.5,0.));
#842=CARTESIAN_POINT('',(-52.5,-37.5,0.));
#843=CARTESIAN_POINT('',(-52.5,-37.5,0.));
#844=CARTESIAN_POINT('',(-52.5,-37.5,3.));
#845=CARTESIAN_POINT('',(-52.5,-37.5,3.));
#846=CARTESIAN_POINT('',(-52.5,-37.5,0.));
#847=CARTESIAN_POINT('Origin',(-52.5,37.5,0.));
#848=CARTESIAN_POINT('',(-52.5,37.5,0.));
#849=CARTESIAN_POINT('',(-52.5,37.5,3.));
#850=CARTESIAN_POINT('Origin',(0.,0.,3.));
#851=CARTESIAN_POINT('Origin',(0.,0.,0.));
#852=UNCERTAINTY_MEASURE_WITH_UNIT(LENGTH_MEASURE(0.01),#856,
'DISTANCE_ACCURACY_VALUE',
'Maximum model space distance between geometric entities at asserted c
onnectivities');
#853=UNCERTAINTY_MEASURE_WITH_UNIT(LENGTH_MEASURE(0.01),#856,
'DISTANCE_ACCURACY_VALUE',
'Maximum model space distance between geometric entities at asserted c
onnectivities');
#854=(
GEOMETRIC_REPRESENTATION_CONTEXT(3)
GLOBAL_UNCERTAINTY_ASSIGNED_CONTEXT((#852))
GLOBAL_UNIT_ASSIGNED_CONTEXT((#856,#858,#859))
REPRESENTATION_CONTEXT('','3D')
);
#855=(
GEOMETRIC_REPRESENTATION_CONTEXT(3)
GLOBAL_UNCERTAINTY_ASSIGNED_CONTEXT((#853))
GLOBAL_UNIT_ASSIGNED_CONTEXT((#856,#858,#859))
REPRESENTATION_CONTEXT('','3D')
);
#856=(
LENGTH_UNIT()
NAMED_UNIT(*)
SI_UNIT(.MILLI.,.METRE.)
);
#857=(
LENGTH_UNIT()
NAMED_UNIT(*)
SI_UNIT($,.METRE.)
);
#858=(
NAMED_UNIT(*)
PLANE_ANGLE_UNIT()
SI_UNIT($,.RADIAN.)
);
#859=(
NAMED_UNIT(*)
SI_UNIT($,.STERADIAN.)
SOLID_ANGLE_UNIT()
);
#860=SHAPE_DEFINITION_REPRESENTATION(#861,#862);
#861=PRODUCT_DEFINITION_SHAPE('',$,#864);
#862=SHAPE_REPRESENTATION('',(#504),#854);
#863=PRODUCT_DEFINITION_CONTEXT('part definition',#868,'design');
#864=PRODUCT_DEFINITION('SmartMeter_HmiCarrier','SmartMeter_HmiCarrier',
#865,#863);
#865=PRODUCT_DEFINITION_FORMATION('',$,#870);
#866=PRODUCT_RELATED_PRODUCT_CATEGORY('SmartMeter_HmiCarrier',
'SmartMeter_HmiCarrier',(#870));
#867=APPLICATION_PROTOCOL_DEFINITION('international standard',
'automotive_design',2009,#868);
#868=APPLICATION_CONTEXT(
'Core Data for Automotive Mechanical Design Process');
#869=PRODUCT_CONTEXT('part definition',#868,'mechanical');
#870=PRODUCT('SmartMeter_HmiCarrier','SmartMeter_HmiCarrier',$,(#869));
#871=PRESENTATION_STYLE_ASSIGNMENT((#872));
#872=SURFACE_STYLE_USAGE(.BOTH.,#873);
#873=SURFACE_SIDE_STYLE('',(#874));
#874=SURFACE_STYLE_FILL_AREA(#875);
#875=FILL_AREA_STYLE('A\X\E7o - Acetinado',(#876));
#876=FILL_AREA_STYLE_COLOUR('A\X\E7o - Acetinado',#877);
#877=COLOUR_RGB('A\X\E7o - Acetinado',0.627450980392157,0.627450980392157,
0.627450980392157);
ENDSEC;
END-ISO-10303-21;
