ISO-10303-21;
HEADER;
/* Generated by software containing ST-Developer
 * from STEP Tools, Inc. (www.steptools.com) 
 */

FILE_DESCRIPTION(
/* description */ (''),
/* implementation_level */ '2;1');

FILE_NAME(
/* name */ 'SmartMeter_InternalTray.step',
/* time_stamp */ '2026-10-03T15:16:21-03:00',
/* author */ (''),
/* organization */ (''),
/* preprocessor_version */ 'ST-DEVELOPER v20.1',
/* originating_system */ 'Autodesk Translation Framework v15.8.0.0',
/* authorisation */ '');

FILE_SCHEMA (('AUTOMOTIVE_DESIGN { 1 0 10303 214 3 1 1 }'));
ENDSEC;

DATA;
#10=MECHANICAL_DESIGN_GEOMETRIC_PRESENTATION_REPRESENTATION('',(#13),#1727);
#11=SHAPE_REPRESENTATION_RELATIONSHIP('SRR','None',#1734,#12);
#12=ADVANCED_BREP_SHAPE_REPRESENTATION('',(#14),#1726);
#13=STYLED_ITEM('',(#1743),#14);
#14=MANIFOLD_SOLID_BREP('Corpo1',#1027);
#15=FACE_BOUND('',#154,.T.);
#16=FACE_BOUND('',#155,.T.);
#17=FACE_BOUND('',#156,.T.);
#18=FACE_BOUND('',#157,.T.);
#19=FACE_BOUND('',#158,.T.);
#20=FACE_BOUND('',#159,.T.);
#21=FACE_BOUND('',#160,.T.);
#22=FACE_BOUND('',#169,.T.);
#23=FACE_BOUND('',#170,.T.);
#24=FACE_BOUND('',#171,.T.);
#25=FACE_BOUND('',#172,.T.);
#26=FACE_BOUND('',#173,.T.);
#27=FACE_BOUND('',#174,.T.);
#28=FACE_BOUND('',#203,.T.);
#29=FACE_BOUND('',#206,.T.);
#30=FACE_BOUND('',#209,.T.);
#31=FACE_BOUND('',#212,.T.);
#32=FACE_BOUND('',#215,.T.);
#33=FACE_BOUND('',#218,.T.);
#34=FACE_BOUND('',#221,.T.);
#35=FACE_BOUND('',#224,.T.);
#36=FACE_BOUND('',#230,.T.);
#37=FACE_BOUND('',#231,.T.);
#38=FACE_BOUND('',#232,.T.);
#39=FACE_BOUND('',#233,.T.);
#40=FACE_BOUND('',#234,.T.);
#41=FACE_BOUND('',#235,.T.);
#42=FACE_BOUND('',#236,.T.);
#43=PLANE('',#1053);
#44=PLANE('',#1054);
#45=PLANE('',#1055);
#46=PLANE('',#1060);
#47=PLANE('',#1061);
#48=PLANE('',#1062);
#49=PLANE('',#1063);
#50=PLANE('',#1064);
#51=PLANE('',#1065);
#52=PLANE('',#1066);
#53=PLANE('',#1067);
#54=PLANE('',#1068);
#55=PLANE('',#1069);
#56=PLANE('',#1073);
#57=PLANE('',#1077);
#58=PLANE('',#1081);
#59=PLANE('',#1085);
#60=PLANE('',#1089);
#61=PLANE('',#1093);
#62=PLANE('',#1097);
#63=PLANE('',#1101);
#64=PLANE('',#1102);
#65=PLANE('',#1103);
#66=PLANE('',#1104);
#67=PLANE('',#1105);
#68=PLANE('',#1106);
#69=PLANE('',#1107);
#70=PLANE('',#1108);
#71=PLANE('',#1109);
#72=PLANE('',#1112);
#73=PLANE('',#1115);
#74=PLANE('',#1118);
#75=PLANE('',#1121);
#76=PLANE('',#1125);
#77=PLANE('',#1129);
#78=PLANE('',#1133);
#79=PLANE('',#1137);
#80=PLANE('',#1138);
#81=PLANE('',#1139);
#82=PLANE('',#1140);
#83=PLANE('',#1141);
#84=PLANE('',#1142);
#85=FACE_OUTER_BOUND('',#147,.T.);
#86=FACE_OUTER_BOUND('',#148,.T.);
#87=FACE_OUTER_BOUND('',#149,.T.);
#88=FACE_OUTER_BOUND('',#150,.T.);
#89=FACE_OUTER_BOUND('',#151,.T.);
#90=FACE_OUTER_BOUND('',#152,.T.);
#91=FACE_OUTER_BOUND('',#153,.T.);
#92=FACE_OUTER_BOUND('',#161,.T.);
#93=FACE_OUTER_BOUND('',#162,.T.);
#94=FACE_OUTER_BOUND('',#163,.T.);
#95=FACE_OUTER_BOUND('',#164,.T.);
#96=FACE_OUTER_BOUND('',#165,.T.);
#97=FACE_OUTER_BOUND('',#166,.T.);
#98=FACE_OUTER_BOUND('',#167,.T.);
#99=FACE_OUTER_BOUND('',#168,.T.);
#100=FACE_OUTER_BOUND('',#175,.T.);
#101=FACE_OUTER_BOUND('',#176,.T.);
#102=FACE_OUTER_BOUND('',#177,.T.);
#103=FACE_OUTER_BOUND('',#178,.T.);
#104=FACE_OUTER_BOUND('',#179,.T.);
#105=FACE_OUTER_BOUND('',#180,.T.);
#106=FACE_OUTER_BOUND('',#181,.T.);
#107=FACE_OUTER_BOUND('',#182,.T.);
#108=FACE_OUTER_BOUND('',#183,.T.);
#109=FACE_OUTER_BOUND('',#184,.T.);
#110=FACE_OUTER_BOUND('',#185,.T.);
#111=FACE_OUTER_BOUND('',#186,.T.);
#112=FACE_OUTER_BOUND('',#187,.T.);
#113=FACE_OUTER_BOUND('',#188,.T.);
#114=FACE_OUTER_BOUND('',#189,.T.);
#115=FACE_OUTER_BOUND('',#190,.T.);
#116=FACE_OUTER_BOUND('',#191,.T.);
#117=FACE_OUTER_BOUND('',#192,.T.);
#118=FACE_OUTER_BOUND('',#193,.T.);
#119=FACE_OUTER_BOUND('',#194,.T.);
#120=FACE_OUTER_BOUND('',#195,.T.);
#121=FACE_OUTER_BOUND('',#196,.T.);
#122=FACE_OUTER_BOUND('',#197,.T.);
#123=FACE_OUTER_BOUND('',#198,.T.);
#124=FACE_OUTER_BOUND('',#199,.T.);
#125=FACE_OUTER_BOUND('',#200,.T.);
#126=FACE_OUTER_BOUND('',#201,.T.);
#127=FACE_OUTER_BOUND('',#202,.T.);
#128=FACE_OUTER_BOUND('',#204,.T.);
#129=FACE_OUTER_BOUND('',#205,.T.);
#130=FACE_OUTER_BOUND('',#207,.T.);
#131=FACE_OUTER_BOUND('',#208,.T.);
#132=FACE_OUTER_BOUND('',#210,.T.);
#133=FACE_OUTER_BOUND('',#211,.T.);
#134=FACE_OUTER_BOUND('',#213,.T.);
#135=FACE_OUTER_BOUND('',#214,.T.);
#136=FACE_OUTER_BOUND('',#216,.T.);
#137=FACE_OUTER_BOUND('',#217,.T.);
#138=FACE_OUTER_BOUND('',#219,.T.);
#139=FACE_OUTER_BOUND('',#220,.T.);
#140=FACE_OUTER_BOUND('',#222,.T.);
#141=FACE_OUTER_BOUND('',#223,.T.);
#142=FACE_OUTER_BOUND('',#225,.T.);
#143=FACE_OUTER_BOUND('',#226,.T.);
#144=FACE_OUTER_BOUND('',#227,.T.);
#145=FACE_OUTER_BOUND('',#228,.T.);
#146=FACE_OUTER_BOUND('',#229,.T.);
#147=EDGE_LOOP('',(#681,#682,#683,#684));
#148=EDGE_LOOP('',(#685,#686,#687,#688));
#149=EDGE_LOOP('',(#689,#690,#691,#692));
#150=EDGE_LOOP('',(#693,#694,#695,#696));
#151=EDGE_LOOP('',(#697,#698,#699,#700));
#152=EDGE_LOOP('',(#701,#702,#703,#704));
#153=EDGE_LOOP('',(#705,#706,#707,#708,#709,#710,#711,#712));
#154=EDGE_LOOP('',(#713));
#155=EDGE_LOOP('',(#714));
#156=EDGE_LOOP('',(#715,#716,#717,#718));
#157=EDGE_LOOP('',(#719));
#158=EDGE_LOOP('',(#720));
#159=EDGE_LOOP('',(#721));
#160=EDGE_LOOP('',(#722));
#161=EDGE_LOOP('',(#723,#724,#725,#726,#727,#728,#729,#730));
#162=EDGE_LOOP('',(#731,#732,#733,#734));
#163=EDGE_LOOP('',(#735,#736,#737,#738));
#164=EDGE_LOOP('',(#739,#740,#741,#742,#743,#744,#745,#746));
#165=EDGE_LOOP('',(#747,#748,#749,#750));
#166=EDGE_LOOP('',(#751,#752,#753,#754));
#167=EDGE_LOOP('',(#755,#756,#757,#758));
#168=EDGE_LOOP('',(#759,#760,#761,#762,#763,#764,#765,#766,#767,#768,#769,
#770));
#169=EDGE_LOOP('',(#771));
#170=EDGE_LOOP('',(#772));
#171=EDGE_LOOP('',(#773));
#172=EDGE_LOOP('',(#774));
#173=EDGE_LOOP('',(#775,#776,#777,#778));
#174=EDGE_LOOP('',(#779,#780,#781,#782));
#175=EDGE_LOOP('',(#783,#784,#785,#786));
#176=EDGE_LOOP('',(#787,#788,#789,#790));
#177=EDGE_LOOP('',(#791,#792,#793,#794));
#178=EDGE_LOOP('',(#795));
#179=EDGE_LOOP('',(#796,#797,#798,#799));
#180=EDGE_LOOP('',(#800));
#181=EDGE_LOOP('',(#801,#802,#803,#804));
#182=EDGE_LOOP('',(#805));
#183=EDGE_LOOP('',(#806,#807,#808,#809));
#184=EDGE_LOOP('',(#810));
#185=EDGE_LOOP('',(#811,#812,#813,#814));
#186=EDGE_LOOP('',(#815));
#187=EDGE_LOOP('',(#816,#817,#818,#819));
#188=EDGE_LOOP('',(#820));
#189=EDGE_LOOP('',(#821,#822,#823,#824));
#190=EDGE_LOOP('',(#825));
#191=EDGE_LOOP('',(#826,#827,#828,#829));
#192=EDGE_LOOP('',(#830));
#193=EDGE_LOOP('',(#831,#832,#833,#834));
#194=EDGE_LOOP('',(#835,#836,#837,#838));
#195=EDGE_LOOP('',(#839,#840,#841,#842));
#196=EDGE_LOOP('',(#843,#844,#845,#846));
#197=EDGE_LOOP('',(#847,#848,#849,#850));
#198=EDGE_LOOP('',(#851,#852,#853,#854));
#199=EDGE_LOOP('',(#855,#856,#857,#858));
#200=EDGE_LOOP('',(#859,#860,#861,#862));
#201=EDGE_LOOP('',(#863,#864,#865,#866));
#202=EDGE_LOOP('',(#867));
#203=EDGE_LOOP('',(#868));
#204=EDGE_LOOP('',(#869,#870,#871,#872));
#205=EDGE_LOOP('',(#873));
#206=EDGE_LOOP('',(#874));
#207=EDGE_LOOP('',(#875,#876,#877,#878));
#208=EDGE_LOOP('',(#879));
#209=EDGE_LOOP('',(#880));
#210=EDGE_LOOP('',(#881,#882,#883,#884));
#211=EDGE_LOOP('',(#885));
#212=EDGE_LOOP('',(#886));
#213=EDGE_LOOP('',(#887,#888,#889,#890));
#214=EDGE_LOOP('',(#891));
#215=EDGE_LOOP('',(#892));
#216=EDGE_LOOP('',(#893,#894,#895,#896));
#217=EDGE_LOOP('',(#897));
#218=EDGE_LOOP('',(#898));
#219=EDGE_LOOP('',(#899,#900,#901,#902));
#220=EDGE_LOOP('',(#903));
#221=EDGE_LOOP('',(#904));
#222=EDGE_LOOP('',(#905,#906,#907,#908));
#223=EDGE_LOOP('',(#909));
#224=EDGE_LOOP('',(#910));
#225=EDGE_LOOP('',(#911,#912,#913,#914));
#226=EDGE_LOOP('',(#915,#916,#917,#918));
#227=EDGE_LOOP('',(#919,#920,#921,#922));
#228=EDGE_LOOP('',(#923,#924,#925,#926));
#229=EDGE_LOOP('',(#927,#928,#929,#930,#931,#932,#933,#934));
#230=EDGE_LOOP('',(#935));
#231=EDGE_LOOP('',(#936));
#232=EDGE_LOOP('',(#937,#938,#939,#940));
#233=EDGE_LOOP('',(#941));
#234=EDGE_LOOP('',(#942));
#235=EDGE_LOOP('',(#943));
#236=EDGE_LOOP('',(#944));
#237=LINE('',#1446,#329);
#238=LINE('',#1452,#330);
#239=LINE('',#1458,#331);
#240=LINE('',#1464,#332);
#241=LINE('',#1469,#333);
#242=LINE('',#1471,#334);
#243=LINE('',#1473,#335);
#244=LINE('',#1474,#336);
#245=LINE('',#1477,#337);
#246=LINE('',#1479,#338);
#247=LINE('',#1480,#339);
#248=LINE('',#1483,#340);
#249=LINE('',#1485,#341);
#250=LINE('',#1487,#342);
#251=LINE('',#1489,#343);
#252=LINE('',#1491,#344);
#253=LINE('',#1492,#345);
#254=LINE('',#1495,#346);
#255=LINE('',#1497,#347);
#256=LINE('',#1499,#348);
#257=LINE('',#1500,#349);
#258=LINE('',#1511,#350);
#259=LINE('',#1513,#351);
#260=LINE('',#1515,#352);
#261=LINE('',#1517,#353);
#262=LINE('',#1519,#354);
#263=LINE('',#1520,#355);
#264=LINE('',#1524,#356);
#265=LINE('',#1525,#357);
#266=LINE('',#1526,#358);
#267=LINE('',#1529,#359);
#268=LINE('',#1530,#360);
#269=LINE('',#1533,#361);
#270=LINE('',#1535,#362);
#271=LINE('',#1537,#363);
#272=LINE('',#1539,#364);
#273=LINE('',#1541,#365);
#274=LINE('',#1542,#366);
#275=LINE('',#1545,#367);
#276=LINE('',#1547,#368);
#277=LINE('',#1548,#369);
#278=LINE('',#1551,#370);
#279=LINE('',#1553,#371);
#280=LINE('',#1554,#372);
#281=LINE('',#1557,#373);
#282=LINE('',#1559,#374);
#283=LINE('',#1560,#375);
#284=LINE('',#1562,#376);
#285=LINE('',#1564,#377);
#286=LINE('',#1565,#378);
#287=LINE('',#1568,#379);
#288=LINE('',#1570,#380);
#289=LINE('',#1572,#381);
#290=LINE('',#1573,#382);
#291=LINE('',#1576,#383);
#292=LINE('',#1578,#384);
#293=LINE('',#1580,#385);
#294=LINE('',#1581,#386);
#295=LINE('',#1584,#387);
#296=LINE('',#1585,#388);
#297=LINE('',#1587,#389);
#298=LINE('',#1592,#390);
#299=LINE('',#1599,#391);
#300=LINE('',#1606,#392);
#301=LINE('',#1613,#393);
#302=LINE('',#1620,#394);
#303=LINE('',#1627,#395);
#304=LINE('',#1634,#396);
#305=LINE('',#1641,#397);
#306=LINE('',#1645,#398);
#307=LINE('',#1646,#399);
#308=LINE('',#1648,#400);
#309=LINE('',#1650,#401);
#310=LINE('',#1654,#402);
#311=LINE('',#1656,#403);
#312=LINE('',#1657,#404);
#313=LINE('',#1660,#405);
#314=LINE('',#1661,#406);
#315=LINE('',#1664,#407);
#316=LINE('',#1665,#408);
#317=LINE('',#1667,#409);
#318=LINE('',#1671,#410);
#319=LINE('',#1676,#411);
#320=LINE('',#1681,#412);
#321=LINE('',#1686,#413);
#322=LINE('',#1692,#414);
#323=LINE('',#1699,#415);
#324=LINE('',#1706,#416);
#325=LINE('',#1713,#417);
#326=LINE('',#1717,#418);
#327=LINE('',#1718,#419);
#328=LINE('',#1720,#420);
#329=VECTOR('',#1149,1.6);
#330=VECTOR('',#1156,1.6);
#331=VECTOR('',#1163,1.6);
#332=VECTOR('',#1170,1.6);
#333=VECTOR('',#1175,10.);
#334=VECTOR('',#1176,10.);
#335=VECTOR('',#1177,10.);
#336=VECTOR('',#1178,10.);
#337=VECTOR('',#1181,10.);
#338=VECTOR('',#1182,10.);
#339=VECTOR('',#1183,10.);
#340=VECTOR('',#1186,10.);
#341=VECTOR('',#1187,10.);
#342=VECTOR('',#1188,10.);
#343=VECTOR('',#1189,10.);
#344=VECTOR('',#1190,10.);
#345=VECTOR('',#1191,10.);
#346=VECTOR('',#1192,10.);
#347=VECTOR('',#1193,10.);
#348=VECTOR('',#1194,10.);
#349=VECTOR('',#1195,10.);
#350=VECTOR('',#1206,10.);
#351=VECTOR('',#1207,10.);
#352=VECTOR('',#1208,10.);
#353=VECTOR('',#1209,10.);
#354=VECTOR('',#1210,10.);
#355=VECTOR('',#1211,10.);
#356=VECTOR('',#1214,10.);
#357=VECTOR('',#1215,10.);
#358=VECTOR('',#1216,10.);
#359=VECTOR('',#1219,10.);
#360=VECTOR('',#1220,10.);
#361=VECTOR('',#1223,10.);
#362=VECTOR('',#1224,10.);
#363=VECTOR('',#1225,10.);
#364=VECTOR('',#1226,10.);
#365=VECTOR('',#1227,10.);
#366=VECTOR('',#1228,10.);
#367=VECTOR('',#1231,10.);
#368=VECTOR('',#1232,10.);
#369=VECTOR('',#1233,10.);
#370=VECTOR('',#1236,10.);
#371=VECTOR('',#1237,10.);
#372=VECTOR('',#1238,10.);
#373=VECTOR('',#1241,10.);
#374=VECTOR('',#1242,10.);
#375=VECTOR('',#1243,10.);
#376=VECTOR('',#1246,10.);
#377=VECTOR('',#1247,10.);
#378=VECTOR('',#1248,10.);
#379=VECTOR('',#1249,10.);
#380=VECTOR('',#1250,10.);
#381=VECTOR('',#1251,10.);
#382=VECTOR('',#1252,10.);
#383=VECTOR('',#1253,10.);
#384=VECTOR('',#1254,10.);
#385=VECTOR('',#1255,10.);
#386=VECTOR('',#1256,10.);
#387=VECTOR('',#1259,10.);
#388=VECTOR('',#1260,10.);
#389=VECTOR('',#1263,10.);
#390=VECTOR('',#1268,1.6);
#391=VECTOR('',#1277,1.6);
#392=VECTOR('',#1286,1.6);
#393=VECTOR('',#1295,1.6);
#394=VECTOR('',#1304,1.6);
#395=VECTOR('',#1313,1.6);
#396=VECTOR('',#1322,1.6);
#397=VECTOR('',#1331,1.6);
#398=VECTOR('',#1338,10.);
#399=VECTOR('',#1339,10.);
#400=VECTOR('',#1342,10.);
#401=VECTOR('',#1345,10.);
#402=VECTOR('',#1350,10.);
#403=VECTOR('',#1351,10.);
#404=VECTOR('',#1352,10.);
#405=VECTOR('',#1355,10.);
#406=VECTOR('',#1356,10.);
#407=VECTOR('',#1359,10.);
#408=VECTOR('',#1360,10.);
#409=VECTOR('',#1363,10.);
#410=VECTOR('',#1368,5.);
#411=VECTOR('',#1375,5.);
#412=VECTOR('',#1382,5.);
#413=VECTOR('',#1389,5.);
#414=VECTOR('',#1396,5.);
#415=VECTOR('',#1405,5.);
#416=VECTOR('',#1414,5.);
#417=VECTOR('',#1423,5.);
#418=VECTOR('',#1430,10.);
#419=VECTOR('',#1431,10.);
#420=VECTOR('',#1434,10.);
#421=CIRCLE('',#1042,1.6);
#422=CIRCLE('',#1043,1.6);
#423=CIRCLE('',#1045,1.6);
#424=CIRCLE('',#1046,1.6);
#425=CIRCLE('',#1048,1.6);
#426=CIRCLE('',#1049,1.6);
#427=CIRCLE('',#1051,1.6);
#428=CIRCLE('',#1052,1.6);
#429=CIRCLE('',#1056,5.);
#430=CIRCLE('',#1057,5.);
#431=CIRCLE('',#1058,5.);
#432=CIRCLE('',#1059,5.);
#433=CIRCLE('',#1071,1.6);
#434=CIRCLE('',#1072,1.6);
#435=CIRCLE('',#1075,1.6);
#436=CIRCLE('',#1076,1.6);
#437=CIRCLE('',#1079,1.6);
#438=CIRCLE('',#1080,1.6);
#439=CIRCLE('',#1083,1.6);
#440=CIRCLE('',#1084,1.6);
#441=CIRCLE('',#1087,1.6);
#442=CIRCLE('',#1088,1.6);
#443=CIRCLE('',#1091,1.6);
#444=CIRCLE('',#1092,1.6);
#445=CIRCLE('',#1095,1.6);
#446=CIRCLE('',#1096,1.6);
#447=CIRCLE('',#1099,1.6);
#448=CIRCLE('',#1100,1.6);
#449=CIRCLE('',#1111,5.);
#450=CIRCLE('',#1114,5.);
#451=CIRCLE('',#1117,5.);
#452=CIRCLE('',#1120,5.);
#453=CIRCLE('',#1123,5.);
#454=CIRCLE('',#1124,5.);
#455=CIRCLE('',#1127,5.);
#456=CIRCLE('',#1128,5.);
#457=CIRCLE('',#1131,5.);
#458=CIRCLE('',#1132,5.);
#459=CIRCLE('',#1135,5.);
#460=CIRCLE('',#1136,5.);
#461=VERTEX_POINT('',#1443);
#462=VERTEX_POINT('',#1445);
#463=VERTEX_POINT('',#1449);
#464=VERTEX_POINT('',#1451);
#465=VERTEX_POINT('',#1455);
#466=VERTEX_POINT('',#1457);
#467=VERTEX_POINT('',#1461);
#468=VERTEX_POINT('',#1463);
#469=VERTEX_POINT('',#1467);
#470=VERTEX_POINT('',#1468);
#471=VERTEX_POINT('',#1470);
#472=VERTEX_POINT('',#1472);
#473=VERTEX_POINT('',#1476);
#474=VERTEX_POINT('',#1478);
#475=VERTEX_POINT('',#1482);
#476=VERTEX_POINT('',#1484);
#477=VERTEX_POINT('',#1486);
#478=VERTEX_POINT('',#1488);
#479=VERTEX_POINT('',#1490);
#480=VERTEX_POINT('',#1493);
#481=VERTEX_POINT('',#1494);
#482=VERTEX_POINT('',#1496);
#483=VERTEX_POINT('',#1498);
#484=VERTEX_POINT('',#1501);
#485=VERTEX_POINT('',#1503);
#486=VERTEX_POINT('',#1505);
#487=VERTEX_POINT('',#1507);
#488=VERTEX_POINT('',#1510);
#489=VERTEX_POINT('',#1512);
#490=VERTEX_POINT('',#1514);
#491=VERTEX_POINT('',#1516);
#492=VERTEX_POINT('',#1518);
#493=VERTEX_POINT('',#1522);
#494=VERTEX_POINT('',#1523);
#495=VERTEX_POINT('',#1528);
#496=VERTEX_POINT('',#1532);
#497=VERTEX_POINT('',#1534);
#498=VERTEX_POINT('',#1536);
#499=VERTEX_POINT('',#1538);
#500=VERTEX_POINT('',#1540);
#501=VERTEX_POINT('',#1544);
#502=VERTEX_POINT('',#1546);
#503=VERTEX_POINT('',#1550);
#504=VERTEX_POINT('',#1552);
#505=VERTEX_POINT('',#1556);
#506=VERTEX_POINT('',#1558);
#507=VERTEX_POINT('',#1563);
#508=VERTEX_POINT('',#1566);
#509=VERTEX_POINT('',#1567);
#510=VERTEX_POINT('',#1569);
#511=VERTEX_POINT('',#1571);
#512=VERTEX_POINT('',#1574);
#513=VERTEX_POINT('',#1575);
#514=VERTEX_POINT('',#1577);
#515=VERTEX_POINT('',#1579);
#516=VERTEX_POINT('',#1583);
#517=VERTEX_POINT('',#1589);
#518=VERTEX_POINT('',#1591);
#519=VERTEX_POINT('',#1596);
#520=VERTEX_POINT('',#1598);
#521=VERTEX_POINT('',#1603);
#522=VERTEX_POINT('',#1605);
#523=VERTEX_POINT('',#1610);
#524=VERTEX_POINT('',#1612);
#525=VERTEX_POINT('',#1617);
#526=VERTEX_POINT('',#1619);
#527=VERTEX_POINT('',#1624);
#528=VERTEX_POINT('',#1626);
#529=VERTEX_POINT('',#1631);
#530=VERTEX_POINT('',#1633);
#531=VERTEX_POINT('',#1638);
#532=VERTEX_POINT('',#1640);
#533=VERTEX_POINT('',#1653);
#534=VERTEX_POINT('',#1655);
#535=VERTEX_POINT('',#1659);
#536=VERTEX_POINT('',#1663);
#537=VERTEX_POINT('',#1669);
#538=VERTEX_POINT('',#1674);
#539=VERTEX_POINT('',#1679);
#540=VERTEX_POINT('',#1684);
#541=VERTEX_POINT('',#1689);
#542=VERTEX_POINT('',#1691);
#543=VERTEX_POINT('',#1696);
#544=VERTEX_POINT('',#1698);
#545=VERTEX_POINT('',#1703);
#546=VERTEX_POINT('',#1705);
#547=VERTEX_POINT('',#1710);
#548=VERTEX_POINT('',#1712);
#549=EDGE_CURVE('',#461,#461,#421,.T.);
#550=EDGE_CURVE('',#461,#462,#237,.T.);
#551=EDGE_CURVE('',#462,#462,#422,.T.);
#552=EDGE_CURVE('',#463,#463,#423,.T.);
#553=EDGE_CURVE('',#463,#464,#238,.T.);
#554=EDGE_CURVE('',#464,#464,#424,.T.);
#555=EDGE_CURVE('',#465,#465,#425,.T.);
#556=EDGE_CURVE('',#465,#466,#239,.T.);
#557=EDGE_CURVE('',#466,#466,#426,.T.);
#558=EDGE_CURVE('',#467,#467,#427,.T.);
#559=EDGE_CURVE('',#467,#468,#240,.T.);
#560=EDGE_CURVE('',#468,#468,#428,.T.);
#561=EDGE_CURVE('',#469,#470,#241,.T.);
#562=EDGE_CURVE('',#469,#471,#242,.T.);
#563=EDGE_CURVE('',#472,#471,#243,.T.);
#564=EDGE_CURVE('',#470,#472,#244,.T.);
#565=EDGE_CURVE('',#473,#469,#245,.T.);
#566=EDGE_CURVE('',#474,#473,#246,.T.);
#567=EDGE_CURVE('',#471,#474,#247,.T.);
#568=EDGE_CURVE('',#474,#475,#248,.T.);
#569=EDGE_CURVE('',#475,#476,#249,.T.);
#570=EDGE_CURVE('',#476,#477,#250,.T.);
#571=EDGE_CURVE('',#477,#478,#251,.T.);
#572=EDGE_CURVE('',#478,#479,#252,.T.);
#573=EDGE_CURVE('',#479,#472,#253,.T.);
#574=EDGE_CURVE('',#480,#481,#254,.T.);
#575=EDGE_CURVE('',#481,#482,#255,.T.);
#576=EDGE_CURVE('',#482,#483,#256,.T.);
#577=EDGE_CURVE('',#483,#480,#257,.T.);
#578=EDGE_CURVE('',#484,#484,#429,.T.);
#579=EDGE_CURVE('',#485,#485,#430,.T.);
#580=EDGE_CURVE('',#486,#486,#431,.T.);
#581=EDGE_CURVE('',#487,#487,#432,.T.);
#582=EDGE_CURVE('',#473,#488,#258,.T.);
#583=EDGE_CURVE('',#488,#489,#259,.T.);
#584=EDGE_CURVE('',#490,#489,#260,.T.);
#585=EDGE_CURVE('',#490,#491,#261,.T.);
#586=EDGE_CURVE('',#492,#491,#262,.T.);
#587=EDGE_CURVE('',#475,#492,#263,.T.);
#588=EDGE_CURVE('',#493,#494,#264,.T.);
#589=EDGE_CURVE('',#479,#493,#265,.T.);
#590=EDGE_CURVE('',#494,#478,#266,.T.);
#591=EDGE_CURVE('',#494,#495,#267,.T.);
#592=EDGE_CURVE('',#495,#477,#268,.T.);
#593=EDGE_CURVE('',#476,#496,#269,.T.);
#594=EDGE_CURVE('',#497,#496,#270,.T.);
#595=EDGE_CURVE('',#498,#497,#271,.T.);
#596=EDGE_CURVE('',#499,#498,#272,.T.);
#597=EDGE_CURVE('',#499,#500,#273,.T.);
#598=EDGE_CURVE('',#500,#495,#274,.T.);
#599=EDGE_CURVE('',#501,#488,#275,.T.);
#600=EDGE_CURVE('',#501,#502,#276,.T.);
#601=EDGE_CURVE('',#489,#502,#277,.T.);
#602=EDGE_CURVE('',#503,#501,#278,.T.);
#603=EDGE_CURVE('',#504,#503,#279,.T.);
#604=EDGE_CURVE('',#502,#504,#280,.T.);
#605=EDGE_CURVE('',#503,#505,#281,.T.);
#606=EDGE_CURVE('',#505,#506,#282,.T.);
#607=EDGE_CURVE('',#504,#506,#283,.T.);
#608=EDGE_CURVE('',#493,#470,#284,.T.);
#609=EDGE_CURVE('',#500,#507,#285,.T.);
#610=EDGE_CURVE('',#507,#505,#286,.T.);
#611=EDGE_CURVE('',#508,#509,#287,.T.);
#612=EDGE_CURVE('',#509,#510,#288,.T.);
#613=EDGE_CURVE('',#510,#511,#289,.T.);
#614=EDGE_CURVE('',#511,#508,#290,.T.);
#615=EDGE_CURVE('',#512,#513,#291,.T.);
#616=EDGE_CURVE('',#513,#514,#292,.T.);
#617=EDGE_CURVE('',#514,#515,#293,.T.);
#618=EDGE_CURVE('',#515,#512,#294,.T.);
#619=EDGE_CURVE('',#507,#516,#295,.T.);
#620=EDGE_CURVE('',#506,#516,#296,.T.);
#621=EDGE_CURVE('',#516,#499,#297,.T.);
#622=EDGE_CURVE('',#517,#517,#433,.T.);
#623=EDGE_CURVE('',#517,#518,#298,.T.);
#624=EDGE_CURVE('',#518,#518,#434,.T.);
#625=EDGE_CURVE('',#519,#519,#435,.T.);
#626=EDGE_CURVE('',#519,#520,#299,.T.);
#627=EDGE_CURVE('',#520,#520,#436,.T.);
#628=EDGE_CURVE('',#521,#521,#437,.T.);
#629=EDGE_CURVE('',#521,#522,#300,.T.);
#630=EDGE_CURVE('',#522,#522,#438,.T.);
#631=EDGE_CURVE('',#523,#523,#439,.T.);
#632=EDGE_CURVE('',#523,#524,#301,.T.);
#633=EDGE_CURVE('',#524,#524,#440,.T.);
#634=EDGE_CURVE('',#525,#525,#441,.T.);
#635=EDGE_CURVE('',#525,#526,#302,.T.);
#636=EDGE_CURVE('',#526,#526,#442,.T.);
#637=EDGE_CURVE('',#527,#527,#443,.T.);
#638=EDGE_CURVE('',#527,#528,#303,.T.);
#639=EDGE_CURVE('',#528,#528,#444,.T.);
#640=EDGE_CURVE('',#529,#529,#445,.T.);
#641=EDGE_CURVE('',#529,#530,#304,.T.);
#642=EDGE_CURVE('',#530,#530,#446,.T.);
#643=EDGE_CURVE('',#531,#531,#447,.T.);
#644=EDGE_CURVE('',#531,#532,#305,.T.);
#645=EDGE_CURVE('',#532,#532,#448,.T.);
#646=EDGE_CURVE('',#508,#481,#306,.T.);
#647=EDGE_CURVE('',#509,#480,#307,.T.);
#648=EDGE_CURVE('',#511,#482,#308,.T.);
#649=EDGE_CURVE('',#510,#483,#309,.T.);
#650=EDGE_CURVE('',#512,#533,#310,.T.);
#651=EDGE_CURVE('',#534,#533,#311,.T.);
#652=EDGE_CURVE('',#513,#534,#312,.T.);
#653=EDGE_CURVE('',#515,#535,#313,.T.);
#654=EDGE_CURVE('',#533,#535,#314,.T.);
#655=EDGE_CURVE('',#514,#536,#315,.T.);
#656=EDGE_CURVE('',#535,#536,#316,.T.);
#657=EDGE_CURVE('',#536,#534,#317,.T.);
#658=EDGE_CURVE('',#537,#537,#449,.T.);
#659=EDGE_CURVE('',#537,#484,#318,.T.);
#660=EDGE_CURVE('',#538,#538,#450,.T.);
#661=EDGE_CURVE('',#538,#485,#319,.T.);
#662=EDGE_CURVE('',#539,#539,#451,.T.);
#663=EDGE_CURVE('',#539,#486,#320,.T.);
#664=EDGE_CURVE('',#540,#540,#452,.T.);
#665=EDGE_CURVE('',#540,#487,#321,.T.);
#666=EDGE_CURVE('',#541,#541,#453,.T.);
#667=EDGE_CURVE('',#541,#542,#322,.T.);
#668=EDGE_CURVE('',#542,#542,#454,.T.);
#669=EDGE_CURVE('',#543,#543,#455,.T.);
#670=EDGE_CURVE('',#543,#544,#323,.T.);
#671=EDGE_CURVE('',#544,#544,#456,.T.);
#672=EDGE_CURVE('',#545,#545,#457,.T.);
#673=EDGE_CURVE('',#545,#546,#324,.T.);
#674=EDGE_CURVE('',#546,#546,#458,.T.);
#675=EDGE_CURVE('',#547,#547,#459,.T.);
#676=EDGE_CURVE('',#547,#548,#325,.T.);
#677=EDGE_CURVE('',#548,#548,#460,.T.);
#678=EDGE_CURVE('',#498,#490,#326,.T.);
#679=EDGE_CURVE('',#491,#497,#327,.T.);
#680=EDGE_CURVE('',#496,#492,#328,.T.);
#681=ORIENTED_EDGE('',*,*,#549,.F.);
#682=ORIENTED_EDGE('',*,*,#550,.T.);
#683=ORIENTED_EDGE('',*,*,#551,.F.);
#684=ORIENTED_EDGE('',*,*,#550,.F.);
#685=ORIENTED_EDGE('',*,*,#552,.F.);
#686=ORIENTED_EDGE('',*,*,#553,.T.);
#687=ORIENTED_EDGE('',*,*,#554,.F.);
#688=ORIENTED_EDGE('',*,*,#553,.F.);
#689=ORIENTED_EDGE('',*,*,#555,.F.);
#690=ORIENTED_EDGE('',*,*,#556,.T.);
#691=ORIENTED_EDGE('',*,*,#557,.F.);
#692=ORIENTED_EDGE('',*,*,#556,.F.);
#693=ORIENTED_EDGE('',*,*,#558,.F.);
#694=ORIENTED_EDGE('',*,*,#559,.T.);
#695=ORIENTED_EDGE('',*,*,#560,.F.);
#696=ORIENTED_EDGE('',*,*,#559,.F.);
#697=ORIENTED_EDGE('',*,*,#561,.F.);
#698=ORIENTED_EDGE('',*,*,#562,.T.);
#699=ORIENTED_EDGE('',*,*,#563,.F.);
#700=ORIENTED_EDGE('',*,*,#564,.F.);
#701=ORIENTED_EDGE('',*,*,#565,.F.);
#702=ORIENTED_EDGE('',*,*,#566,.F.);
#703=ORIENTED_EDGE('',*,*,#567,.F.);
#704=ORIENTED_EDGE('',*,*,#562,.F.);
#705=ORIENTED_EDGE('',*,*,#563,.T.);
#706=ORIENTED_EDGE('',*,*,#567,.T.);
#707=ORIENTED_EDGE('',*,*,#568,.T.);
#708=ORIENTED_EDGE('',*,*,#569,.T.);
#709=ORIENTED_EDGE('',*,*,#570,.T.);
#710=ORIENTED_EDGE('',*,*,#571,.T.);
#711=ORIENTED_EDGE('',*,*,#572,.T.);
#712=ORIENTED_EDGE('',*,*,#573,.T.);
#713=ORIENTED_EDGE('',*,*,#551,.T.);
#714=ORIENTED_EDGE('',*,*,#554,.T.);
#715=ORIENTED_EDGE('',*,*,#574,.T.);
#716=ORIENTED_EDGE('',*,*,#575,.T.);
#717=ORIENTED_EDGE('',*,*,#576,.T.);
#718=ORIENTED_EDGE('',*,*,#577,.T.);
#719=ORIENTED_EDGE('',*,*,#578,.T.);
#720=ORIENTED_EDGE('',*,*,#579,.T.);
#721=ORIENTED_EDGE('',*,*,#580,.T.);
#722=ORIENTED_EDGE('',*,*,#581,.T.);
#723=ORIENTED_EDGE('',*,*,#566,.T.);
#724=ORIENTED_EDGE('',*,*,#582,.T.);
#725=ORIENTED_EDGE('',*,*,#583,.T.);
#726=ORIENTED_EDGE('',*,*,#584,.F.);
#727=ORIENTED_EDGE('',*,*,#585,.T.);
#728=ORIENTED_EDGE('',*,*,#586,.F.);
#729=ORIENTED_EDGE('',*,*,#587,.F.);
#730=ORIENTED_EDGE('',*,*,#568,.F.);
#731=ORIENTED_EDGE('',*,*,#588,.F.);
#732=ORIENTED_EDGE('',*,*,#589,.F.);
#733=ORIENTED_EDGE('',*,*,#572,.F.);
#734=ORIENTED_EDGE('',*,*,#590,.F.);
#735=ORIENTED_EDGE('',*,*,#591,.F.);
#736=ORIENTED_EDGE('',*,*,#590,.T.);
#737=ORIENTED_EDGE('',*,*,#571,.F.);
#738=ORIENTED_EDGE('',*,*,#592,.F.);
#739=ORIENTED_EDGE('',*,*,#592,.T.);
#740=ORIENTED_EDGE('',*,*,#570,.F.);
#741=ORIENTED_EDGE('',*,*,#593,.T.);
#742=ORIENTED_EDGE('',*,*,#594,.F.);
#743=ORIENTED_EDGE('',*,*,#595,.F.);
#744=ORIENTED_EDGE('',*,*,#596,.F.);
#745=ORIENTED_EDGE('',*,*,#597,.T.);
#746=ORIENTED_EDGE('',*,*,#598,.T.);
#747=ORIENTED_EDGE('',*,*,#599,.F.);
#748=ORIENTED_EDGE('',*,*,#600,.T.);
#749=ORIENTED_EDGE('',*,*,#601,.F.);
#750=ORIENTED_EDGE('',*,*,#583,.F.);
#751=ORIENTED_EDGE('',*,*,#602,.F.);
#752=ORIENTED_EDGE('',*,*,#603,.F.);
#753=ORIENTED_EDGE('',*,*,#604,.F.);
#754=ORIENTED_EDGE('',*,*,#600,.F.);
#755=ORIENTED_EDGE('',*,*,#603,.T.);
#756=ORIENTED_EDGE('',*,*,#605,.T.);
#757=ORIENTED_EDGE('',*,*,#606,.T.);
#758=ORIENTED_EDGE('',*,*,#607,.F.);
#759=ORIENTED_EDGE('',*,*,#561,.T.);
#760=ORIENTED_EDGE('',*,*,#608,.F.);
#761=ORIENTED_EDGE('',*,*,#588,.T.);
#762=ORIENTED_EDGE('',*,*,#591,.T.);
#763=ORIENTED_EDGE('',*,*,#598,.F.);
#764=ORIENTED_EDGE('',*,*,#609,.T.);
#765=ORIENTED_EDGE('',*,*,#610,.T.);
#766=ORIENTED_EDGE('',*,*,#605,.F.);
#767=ORIENTED_EDGE('',*,*,#602,.T.);
#768=ORIENTED_EDGE('',*,*,#599,.T.);
#769=ORIENTED_EDGE('',*,*,#582,.F.);
#770=ORIENTED_EDGE('',*,*,#565,.T.);
#771=ORIENTED_EDGE('',*,*,#549,.T.);
#772=ORIENTED_EDGE('',*,*,#552,.T.);
#773=ORIENTED_EDGE('',*,*,#555,.T.);
#774=ORIENTED_EDGE('',*,*,#558,.T.);
#775=ORIENTED_EDGE('',*,*,#611,.T.);
#776=ORIENTED_EDGE('',*,*,#612,.T.);
#777=ORIENTED_EDGE('',*,*,#613,.T.);
#778=ORIENTED_EDGE('',*,*,#614,.T.);
#779=ORIENTED_EDGE('',*,*,#615,.T.);
#780=ORIENTED_EDGE('',*,*,#616,.T.);
#781=ORIENTED_EDGE('',*,*,#617,.T.);
#782=ORIENTED_EDGE('',*,*,#618,.T.);
#783=ORIENTED_EDGE('',*,*,#610,.F.);
#784=ORIENTED_EDGE('',*,*,#619,.T.);
#785=ORIENTED_EDGE('',*,*,#620,.F.);
#786=ORIENTED_EDGE('',*,*,#606,.F.);
#787=ORIENTED_EDGE('',*,*,#609,.F.);
#788=ORIENTED_EDGE('',*,*,#597,.F.);
#789=ORIENTED_EDGE('',*,*,#621,.F.);
#790=ORIENTED_EDGE('',*,*,#619,.F.);
#791=ORIENTED_EDGE('',*,*,#622,.F.);
#792=ORIENTED_EDGE('',*,*,#623,.T.);
#793=ORIENTED_EDGE('',*,*,#624,.F.);
#794=ORIENTED_EDGE('',*,*,#623,.F.);
#795=ORIENTED_EDGE('',*,*,#622,.T.);
#796=ORIENTED_EDGE('',*,*,#625,.F.);
#797=ORIENTED_EDGE('',*,*,#626,.T.);
#798=ORIENTED_EDGE('',*,*,#627,.F.);
#799=ORIENTED_EDGE('',*,*,#626,.F.);
#800=ORIENTED_EDGE('',*,*,#625,.T.);
#801=ORIENTED_EDGE('',*,*,#628,.F.);
#802=ORIENTED_EDGE('',*,*,#629,.T.);
#803=ORIENTED_EDGE('',*,*,#630,.F.);
#804=ORIENTED_EDGE('',*,*,#629,.F.);
#805=ORIENTED_EDGE('',*,*,#628,.T.);
#806=ORIENTED_EDGE('',*,*,#631,.F.);
#807=ORIENTED_EDGE('',*,*,#632,.T.);
#808=ORIENTED_EDGE('',*,*,#633,.F.);
#809=ORIENTED_EDGE('',*,*,#632,.F.);
#810=ORIENTED_EDGE('',*,*,#631,.T.);
#811=ORIENTED_EDGE('',*,*,#634,.F.);
#812=ORIENTED_EDGE('',*,*,#635,.T.);
#813=ORIENTED_EDGE('',*,*,#636,.F.);
#814=ORIENTED_EDGE('',*,*,#635,.F.);
#815=ORIENTED_EDGE('',*,*,#634,.T.);
#816=ORIENTED_EDGE('',*,*,#637,.F.);
#817=ORIENTED_EDGE('',*,*,#638,.T.);
#818=ORIENTED_EDGE('',*,*,#639,.F.);
#819=ORIENTED_EDGE('',*,*,#638,.F.);
#820=ORIENTED_EDGE('',*,*,#637,.T.);
#821=ORIENTED_EDGE('',*,*,#640,.F.);
#822=ORIENTED_EDGE('',*,*,#641,.T.);
#823=ORIENTED_EDGE('',*,*,#642,.F.);
#824=ORIENTED_EDGE('',*,*,#641,.F.);
#825=ORIENTED_EDGE('',*,*,#640,.T.);
#826=ORIENTED_EDGE('',*,*,#643,.F.);
#827=ORIENTED_EDGE('',*,*,#644,.T.);
#828=ORIENTED_EDGE('',*,*,#645,.F.);
#829=ORIENTED_EDGE('',*,*,#644,.F.);
#830=ORIENTED_EDGE('',*,*,#643,.T.);
#831=ORIENTED_EDGE('',*,*,#611,.F.);
#832=ORIENTED_EDGE('',*,*,#646,.T.);
#833=ORIENTED_EDGE('',*,*,#574,.F.);
#834=ORIENTED_EDGE('',*,*,#647,.F.);
#835=ORIENTED_EDGE('',*,*,#614,.F.);
#836=ORIENTED_EDGE('',*,*,#648,.T.);
#837=ORIENTED_EDGE('',*,*,#575,.F.);
#838=ORIENTED_EDGE('',*,*,#646,.F.);
#839=ORIENTED_EDGE('',*,*,#613,.F.);
#840=ORIENTED_EDGE('',*,*,#649,.T.);
#841=ORIENTED_EDGE('',*,*,#576,.F.);
#842=ORIENTED_EDGE('',*,*,#648,.F.);
#843=ORIENTED_EDGE('',*,*,#612,.F.);
#844=ORIENTED_EDGE('',*,*,#647,.T.);
#845=ORIENTED_EDGE('',*,*,#577,.F.);
#846=ORIENTED_EDGE('',*,*,#649,.F.);
#847=ORIENTED_EDGE('',*,*,#615,.F.);
#848=ORIENTED_EDGE('',*,*,#650,.T.);
#849=ORIENTED_EDGE('',*,*,#651,.F.);
#850=ORIENTED_EDGE('',*,*,#652,.F.);
#851=ORIENTED_EDGE('',*,*,#618,.F.);
#852=ORIENTED_EDGE('',*,*,#653,.T.);
#853=ORIENTED_EDGE('',*,*,#654,.F.);
#854=ORIENTED_EDGE('',*,*,#650,.F.);
#855=ORIENTED_EDGE('',*,*,#617,.F.);
#856=ORIENTED_EDGE('',*,*,#655,.T.);
#857=ORIENTED_EDGE('',*,*,#656,.F.);
#858=ORIENTED_EDGE('',*,*,#653,.F.);
#859=ORIENTED_EDGE('',*,*,#616,.F.);
#860=ORIENTED_EDGE('',*,*,#652,.T.);
#861=ORIENTED_EDGE('',*,*,#657,.F.);
#862=ORIENTED_EDGE('',*,*,#655,.F.);
#863=ORIENTED_EDGE('',*,*,#658,.F.);
#864=ORIENTED_EDGE('',*,*,#659,.T.);
#865=ORIENTED_EDGE('',*,*,#578,.F.);
#866=ORIENTED_EDGE('',*,*,#659,.F.);
#867=ORIENTED_EDGE('',*,*,#658,.T.);
#868=ORIENTED_EDGE('',*,*,#624,.T.);
#869=ORIENTED_EDGE('',*,*,#660,.F.);
#870=ORIENTED_EDGE('',*,*,#661,.T.);
#871=ORIENTED_EDGE('',*,*,#579,.F.);
#872=ORIENTED_EDGE('',*,*,#661,.F.);
#873=ORIENTED_EDGE('',*,*,#660,.T.);
#874=ORIENTED_EDGE('',*,*,#627,.T.);
#875=ORIENTED_EDGE('',*,*,#662,.F.);
#876=ORIENTED_EDGE('',*,*,#663,.T.);
#877=ORIENTED_EDGE('',*,*,#580,.F.);
#878=ORIENTED_EDGE('',*,*,#663,.F.);
#879=ORIENTED_EDGE('',*,*,#662,.T.);
#880=ORIENTED_EDGE('',*,*,#630,.T.);
#881=ORIENTED_EDGE('',*,*,#664,.F.);
#882=ORIENTED_EDGE('',*,*,#665,.T.);
#883=ORIENTED_EDGE('',*,*,#581,.F.);
#884=ORIENTED_EDGE('',*,*,#665,.F.);
#885=ORIENTED_EDGE('',*,*,#664,.T.);
#886=ORIENTED_EDGE('',*,*,#633,.T.);
#887=ORIENTED_EDGE('',*,*,#666,.F.);
#888=ORIENTED_EDGE('',*,*,#667,.T.);
#889=ORIENTED_EDGE('',*,*,#668,.F.);
#890=ORIENTED_EDGE('',*,*,#667,.F.);
#891=ORIENTED_EDGE('',*,*,#666,.T.);
#892=ORIENTED_EDGE('',*,*,#636,.T.);
#893=ORIENTED_EDGE('',*,*,#669,.F.);
#894=ORIENTED_EDGE('',*,*,#670,.T.);
#895=ORIENTED_EDGE('',*,*,#671,.F.);
#896=ORIENTED_EDGE('',*,*,#670,.F.);
#897=ORIENTED_EDGE('',*,*,#669,.T.);
#898=ORIENTED_EDGE('',*,*,#639,.T.);
#899=ORIENTED_EDGE('',*,*,#672,.F.);
#900=ORIENTED_EDGE('',*,*,#673,.T.);
#901=ORIENTED_EDGE('',*,*,#674,.F.);
#902=ORIENTED_EDGE('',*,*,#673,.F.);
#903=ORIENTED_EDGE('',*,*,#672,.T.);
#904=ORIENTED_EDGE('',*,*,#642,.T.);
#905=ORIENTED_EDGE('',*,*,#675,.F.);
#906=ORIENTED_EDGE('',*,*,#676,.T.);
#907=ORIENTED_EDGE('',*,*,#677,.F.);
#908=ORIENTED_EDGE('',*,*,#676,.F.);
#909=ORIENTED_EDGE('',*,*,#675,.T.);
#910=ORIENTED_EDGE('',*,*,#645,.T.);
#911=ORIENTED_EDGE('',*,*,#678,.F.);
#912=ORIENTED_EDGE('',*,*,#595,.T.);
#913=ORIENTED_EDGE('',*,*,#679,.F.);
#914=ORIENTED_EDGE('',*,*,#585,.F.);
#915=ORIENTED_EDGE('',*,*,#569,.F.);
#916=ORIENTED_EDGE('',*,*,#587,.T.);
#917=ORIENTED_EDGE('',*,*,#680,.F.);
#918=ORIENTED_EDGE('',*,*,#593,.F.);
#919=ORIENTED_EDGE('',*,*,#679,.T.);
#920=ORIENTED_EDGE('',*,*,#594,.T.);
#921=ORIENTED_EDGE('',*,*,#680,.T.);
#922=ORIENTED_EDGE('',*,*,#586,.T.);
#923=ORIENTED_EDGE('',*,*,#564,.T.);
#924=ORIENTED_EDGE('',*,*,#573,.F.);
#925=ORIENTED_EDGE('',*,*,#589,.T.);
#926=ORIENTED_EDGE('',*,*,#608,.T.);
#927=ORIENTED_EDGE('',*,*,#604,.T.);
#928=ORIENTED_EDGE('',*,*,#607,.T.);
#929=ORIENTED_EDGE('',*,*,#620,.T.);
#930=ORIENTED_EDGE('',*,*,#621,.T.);
#931=ORIENTED_EDGE('',*,*,#596,.T.);
#932=ORIENTED_EDGE('',*,*,#678,.T.);
#933=ORIENTED_EDGE('',*,*,#584,.T.);
#934=ORIENTED_EDGE('',*,*,#601,.T.);
#935=ORIENTED_EDGE('',*,*,#557,.T.);
#936=ORIENTED_EDGE('',*,*,#560,.T.);
#937=ORIENTED_EDGE('',*,*,#651,.T.);
#938=ORIENTED_EDGE('',*,*,#654,.T.);
#939=ORIENTED_EDGE('',*,*,#656,.T.);
#940=ORIENTED_EDGE('',*,*,#657,.T.);
#941=ORIENTED_EDGE('',*,*,#668,.T.);
#942=ORIENTED_EDGE('',*,*,#671,.T.);
#943=ORIENTED_EDGE('',*,*,#674,.T.);
#944=ORIENTED_EDGE('',*,*,#677,.T.);
#945=CYLINDRICAL_SURFACE('',#1041,1.6);
#946=CYLINDRICAL_SURFACE('',#1044,1.6);
#947=CYLINDRICAL_SURFACE('',#1047,1.6);
#948=CYLINDRICAL_SURFACE('',#1050,1.6);
#949=CYLINDRICAL_SURFACE('',#1070,1.6);
#950=CYLINDRICAL_SURFACE('',#1074,1.6);
#951=CYLINDRICAL_SURFACE('',#1078,1.6);
#952=CYLINDRICAL_SURFACE('',#1082,1.6);
#953=CYLINDRICAL_SURFACE('',#1086,1.6);
#954=CYLINDRICAL_SURFACE('',#1090,1.6);
#955=CYLINDRICAL_SURFACE('',#1094,1.6);
#956=CYLINDRICAL_SURFACE('',#1098,1.6);
#957=CYLINDRICAL_SURFACE('',#1110,5.);
#958=CYLINDRICAL_SURFACE('',#1113,5.);
#959=CYLINDRICAL_SURFACE('',#1116,5.);
#960=CYLINDRICAL_SURFACE('',#1119,5.);
#961=CYLINDRICAL_SURFACE('',#1122,5.);
#962=CYLINDRICAL_SURFACE('',#1126,5.);
#963=CYLINDRICAL_SURFACE('',#1130,5.);
#964=CYLINDRICAL_SURFACE('',#1134,5.);
#965=ADVANCED_FACE('',(#85),#945,.F.);
#966=ADVANCED_FACE('',(#86),#946,.F.);
#967=ADVANCED_FACE('',(#87),#947,.F.);
#968=ADVANCED_FACE('',(#88),#948,.F.);
#969=ADVANCED_FACE('',(#89),#43,.F.);
#970=ADVANCED_FACE('',(#90),#44,.F.);
#971=ADVANCED_FACE('',(#91,#15,#16,#17,#18,#19,#20,#21),#45,.T.);
#972=ADVANCED_FACE('',(#92),#46,.T.);
#973=ADVANCED_FACE('',(#93),#47,.F.);
#974=ADVANCED_FACE('',(#94),#48,.F.);
#975=ADVANCED_FACE('',(#95),#49,.T.);
#976=ADVANCED_FACE('',(#96),#50,.F.);
#977=ADVANCED_FACE('',(#97),#51,.F.);
#978=ADVANCED_FACE('',(#98),#52,.T.);
#979=ADVANCED_FACE('',(#99,#22,#23,#24,#25,#26,#27),#53,.F.);
#980=ADVANCED_FACE('',(#100),#54,.F.);
#981=ADVANCED_FACE('',(#101),#55,.F.);
#982=ADVANCED_FACE('',(#102),#949,.F.);
#983=ADVANCED_FACE('',(#103),#56,.T.);
#984=ADVANCED_FACE('',(#104),#950,.F.);
#985=ADVANCED_FACE('',(#105),#57,.T.);
#986=ADVANCED_FACE('',(#106),#951,.F.);
#987=ADVANCED_FACE('',(#107),#58,.T.);
#988=ADVANCED_FACE('',(#108),#952,.F.);
#989=ADVANCED_FACE('',(#109),#59,.T.);
#990=ADVANCED_FACE('',(#110),#953,.F.);
#991=ADVANCED_FACE('',(#111),#60,.T.);
#992=ADVANCED_FACE('',(#112),#954,.F.);
#993=ADVANCED_FACE('',(#113),#61,.T.);
#994=ADVANCED_FACE('',(#114),#955,.F.);
#995=ADVANCED_FACE('',(#115),#62,.T.);
#996=ADVANCED_FACE('',(#116),#956,.F.);
#997=ADVANCED_FACE('',(#117),#63,.T.);
#998=ADVANCED_FACE('',(#118),#64,.F.);
#999=ADVANCED_FACE('',(#119),#65,.F.);
#1000=ADVANCED_FACE('',(#120),#66,.F.);
#1001=ADVANCED_FACE('',(#121),#67,.F.);
#1002=ADVANCED_FACE('',(#122),#68,.F.);
#1003=ADVANCED_FACE('',(#123),#69,.F.);
#1004=ADVANCED_FACE('',(#124),#70,.F.);
#1005=ADVANCED_FACE('',(#125),#71,.F.);
#1006=ADVANCED_FACE('',(#126),#957,.T.);
#1007=ADVANCED_FACE('',(#127,#28),#72,.T.);
#1008=ADVANCED_FACE('',(#128),#958,.T.);
#1009=ADVANCED_FACE('',(#129,#29),#73,.T.);
#1010=ADVANCED_FACE('',(#130),#959,.T.);
#1011=ADVANCED_FACE('',(#131,#30),#74,.T.);
#1012=ADVANCED_FACE('',(#132),#960,.T.);
#1013=ADVANCED_FACE('',(#133,#31),#75,.T.);
#1014=ADVANCED_FACE('',(#134),#961,.T.);
#1015=ADVANCED_FACE('',(#135,#32),#76,.T.);
#1016=ADVANCED_FACE('',(#136),#962,.T.);
#1017=ADVANCED_FACE('',(#137,#33),#77,.T.);
#1018=ADVANCED_FACE('',(#138),#963,.T.);
#1019=ADVANCED_FACE('',(#139,#34),#78,.T.);
#1020=ADVANCED_FACE('',(#140),#964,.T.);
#1021=ADVANCED_FACE('',(#141,#35),#79,.T.);
#1022=ADVANCED_FACE('',(#142),#80,.T.);
#1023=ADVANCED_FACE('',(#143),#81,.T.);
#1024=ADVANCED_FACE('',(#144),#82,.T.);
#1025=ADVANCED_FACE('',(#145),#83,.T.);
#1026=ADVANCED_FACE('',(#146,#36,#37,#38,#39,#40,#41,#42),#84,.T.);
#1027=CLOSED_SHELL('',(#965,#966,#967,#968,#969,#970,#971,#972,#973,#974,
#975,#976,#977,#978,#979,#980,#981,#982,#983,#984,#985,#986,#987,#988,#989,
#990,#991,#992,#993,#994,#995,#996,#997,#998,#999,#1000,#1001,#1002,#1003,
#1004,#1005,#1006,#1007,#1008,#1009,#1010,#1011,#1012,#1013,#1014,#1015,
#1016,#1017,#1018,#1019,#1020,#1021,#1022,#1023,#1024,#1025,#1026));
#1028=DERIVED_UNIT_ELEMENT(#1030,1.);
#1029=DERIVED_UNIT_ELEMENT(#1729,-3.);
#1030=(
MASS_UNIT()
NAMED_UNIT(*)
SI_UNIT(.KILO.,.GRAM.)
);
#1031=DERIVED_UNIT((#1028,#1029));
#1032=MEASURE_REPRESENTATION_ITEM('density measure',
POSITIVE_RATIO_MEASURE(7850.),#1031);
#1033=PROPERTY_DEFINITION_REPRESENTATION(#1038,#1035);
#1034=PROPERTY_DEFINITION_REPRESENTATION(#1039,#1036);
#1035=REPRESENTATION('material name',(#1037),#1726);
#1036=REPRESENTATION('density',(#1032),#1726);
#1037=DESCRIPTIVE_REPRESENTATION_ITEM('A\X\E7o','A\X\E7o');
#1038=PROPERTY_DEFINITION('material property','material name',#1736);
#1039=PROPERTY_DEFINITION('material property','density of part',#1736);
#1040=AXIS2_PLACEMENT_3D('',#1441,#1143,#1144);
#1041=AXIS2_PLACEMENT_3D('',#1442,#1145,#1146);
#1042=AXIS2_PLACEMENT_3D('',#1444,#1147,#1148);
#1043=AXIS2_PLACEMENT_3D('',#1447,#1150,#1151);
#1044=AXIS2_PLACEMENT_3D('',#1448,#1152,#1153);
#1045=AXIS2_PLACEMENT_3D('',#1450,#1154,#1155);
#1046=AXIS2_PLACEMENT_3D('',#1453,#1157,#1158);
#1047=AXIS2_PLACEMENT_3D('',#1454,#1159,#1160);
#1048=AXIS2_PLACEMENT_3D('',#1456,#1161,#1162);
#1049=AXIS2_PLACEMENT_3D('',#1459,#1164,#1165);
#1050=AXIS2_PLACEMENT_3D('',#1460,#1166,#1167);
#1051=AXIS2_PLACEMENT_3D('',#1462,#1168,#1169);
#1052=AXIS2_PLACEMENT_3D('',#1465,#1171,#1172);
#1053=AXIS2_PLACEMENT_3D('',#1466,#1173,#1174);
#1054=AXIS2_PLACEMENT_3D('',#1475,#1179,#1180);
#1055=AXIS2_PLACEMENT_3D('',#1481,#1184,#1185);
#1056=AXIS2_PLACEMENT_3D('',#1502,#1196,#1197);
#1057=AXIS2_PLACEMENT_3D('',#1504,#1198,#1199);
#1058=AXIS2_PLACEMENT_3D('',#1506,#1200,#1201);
#1059=AXIS2_PLACEMENT_3D('',#1508,#1202,#1203);
#1060=AXIS2_PLACEMENT_3D('',#1509,#1204,#1205);
#1061=AXIS2_PLACEMENT_3D('',#1521,#1212,#1213);
#1062=AXIS2_PLACEMENT_3D('',#1527,#1217,#1218);
#1063=AXIS2_PLACEMENT_3D('',#1531,#1221,#1222);
#1064=AXIS2_PLACEMENT_3D('',#1543,#1229,#1230);
#1065=AXIS2_PLACEMENT_3D('',#1549,#1234,#1235);
#1066=AXIS2_PLACEMENT_3D('',#1555,#1239,#1240);
#1067=AXIS2_PLACEMENT_3D('',#1561,#1244,#1245);
#1068=AXIS2_PLACEMENT_3D('',#1582,#1257,#1258);
#1069=AXIS2_PLACEMENT_3D('',#1586,#1261,#1262);
#1070=AXIS2_PLACEMENT_3D('',#1588,#1264,#1265);
#1071=AXIS2_PLACEMENT_3D('',#1590,#1266,#1267);
#1072=AXIS2_PLACEMENT_3D('',#1593,#1269,#1270);
#1073=AXIS2_PLACEMENT_3D('',#1594,#1271,#1272);
#1074=AXIS2_PLACEMENT_3D('',#1595,#1273,#1274);
#1075=AXIS2_PLACEMENT_3D('',#1597,#1275,#1276);
#1076=AXIS2_PLACEMENT_3D('',#1600,#1278,#1279);
#1077=AXIS2_PLACEMENT_3D('',#1601,#1280,#1281);
#1078=AXIS2_PLACEMENT_3D('',#1602,#1282,#1283);
#1079=AXIS2_PLACEMENT_3D('',#1604,#1284,#1285);
#1080=AXIS2_PLACEMENT_3D('',#1607,#1287,#1288);
#1081=AXIS2_PLACEMENT_3D('',#1608,#1289,#1290);
#1082=AXIS2_PLACEMENT_3D('',#1609,#1291,#1292);
#1083=AXIS2_PLACEMENT_3D('',#1611,#1293,#1294);
#1084=AXIS2_PLACEMENT_3D('',#1614,#1296,#1297);
#1085=AXIS2_PLACEMENT_3D('',#1615,#1298,#1299);
#1086=AXIS2_PLACEMENT_3D('',#1616,#1300,#1301);
#1087=AXIS2_PLACEMENT_3D('',#1618,#1302,#1303);
#1088=AXIS2_PLACEMENT_3D('',#1621,#1305,#1306);
#1089=AXIS2_PLACEMENT_3D('',#1622,#1307,#1308);
#1090=AXIS2_PLACEMENT_3D('',#1623,#1309,#1310);
#1091=AXIS2_PLACEMENT_3D('',#1625,#1311,#1312);
#1092=AXIS2_PLACEMENT_3D('',#1628,#1314,#1315);
#1093=AXIS2_PLACEMENT_3D('',#1629,#1316,#1317);
#1094=AXIS2_PLACEMENT_3D('',#1630,#1318,#1319);
#1095=AXIS2_PLACEMENT_3D('',#1632,#1320,#1321);
#1096=AXIS2_PLACEMENT_3D('',#1635,#1323,#1324);
#1097=AXIS2_PLACEMENT_3D('',#1636,#1325,#1326);
#1098=AXIS2_PLACEMENT_3D('',#1637,#1327,#1328);
#1099=AXIS2_PLACEMENT_3D('',#1639,#1329,#1330);
#1100=AXIS2_PLACEMENT_3D('',#1642,#1332,#1333);
#1101=AXIS2_PLACEMENT_3D('',#1643,#1334,#1335);
#1102=AXIS2_PLACEMENT_3D('',#1644,#1336,#1337);
#1103=AXIS2_PLACEMENT_3D('',#1647,#1340,#1341);
#1104=AXIS2_PLACEMENT_3D('',#1649,#1343,#1344);
#1105=AXIS2_PLACEMENT_3D('',#1651,#1346,#1347);
#1106=AXIS2_PLACEMENT_3D('',#1652,#1348,#1349);
#1107=AXIS2_PLACEMENT_3D('',#1658,#1353,#1354);
#1108=AXIS2_PLACEMENT_3D('',#1662,#1357,#1358);
#1109=AXIS2_PLACEMENT_3D('',#1666,#1361,#1362);
#1110=AXIS2_PLACEMENT_3D('',#1668,#1364,#1365);
#1111=AXIS2_PLACEMENT_3D('',#1670,#1366,#1367);
#1112=AXIS2_PLACEMENT_3D('',#1672,#1369,#1370);
#1113=AXIS2_PLACEMENT_3D('',#1673,#1371,#1372);
#1114=AXIS2_PLACEMENT_3D('',#1675,#1373,#1374);
#1115=AXIS2_PLACEMENT_3D('',#1677,#1376,#1377);
#1116=AXIS2_PLACEMENT_3D('',#1678,#1378,#1379);
#1117=AXIS2_PLACEMENT_3D('',#1680,#1380,#1381);
#1118=AXIS2_PLACEMENT_3D('',#1682,#1383,#1384);
#1119=AXIS2_PLACEMENT_3D('',#1683,#1385,#1386);
#1120=AXIS2_PLACEMENT_3D('',#1685,#1387,#1388);
#1121=AXIS2_PLACEMENT_3D('',#1687,#1390,#1391);
#1122=AXIS2_PLACEMENT_3D('',#1688,#1392,#1393);
#1123=AXIS2_PLACEMENT_3D('',#1690,#1394,#1395);
#1124=AXIS2_PLACEMENT_3D('',#1693,#1397,#1398);
#1125=AXIS2_PLACEMENT_3D('',#1694,#1399,#1400);
#1126=AXIS2_PLACEMENT_3D('',#1695,#1401,#1402);
#1127=AXIS2_PLACEMENT_3D('',#1697,#1403,#1404);
#1128=AXIS2_PLACEMENT_3D('',#1700,#1406,#1407);
#1129=AXIS2_PLACEMENT_3D('',#1701,#1408,#1409);
#1130=AXIS2_PLACEMENT_3D('',#1702,#1410,#1411);
#1131=AXIS2_PLACEMENT_3D('',#1704,#1412,#1413);
#1132=AXIS2_PLACEMENT_3D('',#1707,#1415,#1416);
#1133=AXIS2_PLACEMENT_3D('',#1708,#1417,#1418);
#1134=AXIS2_PLACEMENT_3D('',#1709,#1419,#1420);
#1135=AXIS2_PLACEMENT_3D('',#1711,#1421,#1422);
#1136=AXIS2_PLACEMENT_3D('',#1714,#1424,#1425);
#1137=AXIS2_PLACEMENT_3D('',#1715,#1426,#1427);
#1138=AXIS2_PLACEMENT_3D('',#1716,#1428,#1429);
#1139=AXIS2_PLACEMENT_3D('',#1719,#1432,#1433);
#1140=AXIS2_PLACEMENT_3D('',#1721,#1435,#1436);
#1141=AXIS2_PLACEMENT_3D('',#1722,#1437,#1438);
#1142=AXIS2_PLACEMENT_3D('',#1723,#1439,#1440);
#1143=DIRECTION('axis',(0.,0.,1.));
#1144=DIRECTION('refdir',(1.,0.,0.));
#1145=DIRECTION('center_axis',(0.,0.,1.));
#1146=DIRECTION('ref_axis',(1.,0.,0.));
#1147=DIRECTION('center_axis',(0.,0.,1.));
#1148=DIRECTION('ref_axis',(1.,0.,0.));
#1149=DIRECTION('',(0.,0.,1.));
#1150=DIRECTION('center_axis',(0.,0.,-1.));
#1151=DIRECTION('ref_axis',(1.,0.,0.));
#1152=DIRECTION('center_axis',(0.,0.,1.));
#1153=DIRECTION('ref_axis',(1.,0.,0.));
#1154=DIRECTION('center_axis',(0.,0.,1.));
#1155=DIRECTION('ref_axis',(1.,0.,0.));
#1156=DIRECTION('',(0.,0.,1.));
#1157=DIRECTION('center_axis',(0.,0.,-1.));
#1158=DIRECTION('ref_axis',(1.,0.,0.));
#1159=DIRECTION('center_axis',(0.,0.,1.));
#1160=DIRECTION('ref_axis',(1.,0.,0.));
#1161=DIRECTION('center_axis',(0.,0.,1.));
#1162=DIRECTION('ref_axis',(1.,0.,0.));
#1163=DIRECTION('',(0.,0.,1.));
#1164=DIRECTION('center_axis',(0.,0.,-1.));
#1165=DIRECTION('ref_axis',(1.,0.,0.));
#1166=DIRECTION('center_axis',(0.,0.,1.));
#1167=DIRECTION('ref_axis',(1.,0.,0.));
#1168=DIRECTION('center_axis',(0.,0.,1.));
#1169=DIRECTION('ref_axis',(1.,0.,0.));
#1170=DIRECTION('',(0.,0.,1.));
#1171=DIRECTION('center_axis',(0.,0.,-1.));
#1172=DIRECTION('ref_axis',(1.,0.,0.));
#1173=DIRECTION('center_axis',(0.,-1.,0.));
#1174=DIRECTION('ref_axis',(1.,0.,0.));
#1175=DIRECTION('',(1.,0.,0.));
#1176=DIRECTION('',(0.,0.,1.));
#1177=DIRECTION('',(-1.,0.,0.));
#1178=DIRECTION('',(0.,0.,1.));
#1179=DIRECTION('center_axis',(-1.,0.,0.));
#1180=DIRECTION('ref_axis',(0.,-1.,0.));
#1181=DIRECTION('',(0.,-1.,0.));
#1182=DIRECTION('',(0.,0.,-1.));
#1183=DIRECTION('',(0.,1.,0.));
#1184=DIRECTION('center_axis',(0.,0.,1.));
#1185=DIRECTION('ref_axis',(1.,0.,0.));
#1186=DIRECTION('',(-1.,0.,0.));
#1187=DIRECTION('',(0.,-1.,0.));
#1188=DIRECTION('',(1.,0.,0.));
#1189=DIRECTION('',(0.,1.,0.));
#1190=DIRECTION('',(1.,0.,0.));
#1191=DIRECTION('',(0.,1.,0.));
#1192=DIRECTION('',(1.,0.,0.));
#1193=DIRECTION('',(0.,-1.,0.));
#1194=DIRECTION('',(-1.,0.,0.));
#1195=DIRECTION('',(0.,1.,0.));
#1196=DIRECTION('center_axis',(0.,0.,-1.));
#1197=DIRECTION('ref_axis',(1.,0.,0.));
#1198=DIRECTION('center_axis',(0.,0.,-1.));
#1199=DIRECTION('ref_axis',(1.,0.,0.));
#1200=DIRECTION('center_axis',(0.,0.,-1.));
#1201=DIRECTION('ref_axis',(1.,0.,0.));
#1202=DIRECTION('center_axis',(0.,0.,-1.));
#1203=DIRECTION('ref_axis',(1.,0.,0.));
#1204=DIRECTION('center_axis',(0.,1.,0.));
#1205=DIRECTION('ref_axis',(-1.,0.,0.));
#1206=DIRECTION('',(-1.,0.,0.));
#1207=DIRECTION('',(0.,0.,1.));
#1208=DIRECTION('',(-1.,0.,0.));
#1209=DIRECTION('',(0.,0.,1.));
#1210=DIRECTION('',(-1.,0.,0.));
#1211=DIRECTION('',(0.,0.,1.));
#1212=DIRECTION('center_axis',(0.,1.,0.));
#1213=DIRECTION('ref_axis',(-1.,0.,0.));
#1214=DIRECTION('',(-1.,0.,0.));
#1215=DIRECTION('',(0.,0.,-1.));
#1216=DIRECTION('',(0.,0.,1.));
#1217=DIRECTION('center_axis',(-1.,0.,0.));
#1218=DIRECTION('ref_axis',(0.,-1.,0.));
#1219=DIRECTION('',(0.,-1.,0.));
#1220=DIRECTION('',(0.,0.,1.));
#1221=DIRECTION('center_axis',(0.,-1.,0.));
#1222=DIRECTION('ref_axis',(1.,0.,0.));
#1223=DIRECTION('',(0.,0.,1.));
#1224=DIRECTION('',(1.,0.,0.));
#1225=DIRECTION('',(0.,0.,1.));
#1226=DIRECTION('',(1.,0.,0.));
#1227=DIRECTION('',(0.,0.,-1.));
#1228=DIRECTION('',(1.,0.,0.));
#1229=DIRECTION('center_axis',(1.,0.,0.));
#1230=DIRECTION('ref_axis',(0.,1.,0.));
#1231=DIRECTION('',(0.,1.,0.));
#1232=DIRECTION('',(0.,0.,1.));
#1233=DIRECTION('',(0.,-1.,0.));
#1234=DIRECTION('center_axis',(0.,-1.,0.));
#1235=DIRECTION('ref_axis',(1.,0.,0.));
#1236=DIRECTION('',(1.,0.,0.));
#1237=DIRECTION('',(0.,0.,-1.));
#1238=DIRECTION('',(-1.,0.,0.));
#1239=DIRECTION('center_axis',(-1.,0.,0.));
#1240=DIRECTION('ref_axis',(0.,-1.,0.));
#1241=DIRECTION('',(0.,-1.,0.));
#1242=DIRECTION('',(0.,0.,1.));
#1243=DIRECTION('',(0.,-1.,0.));
#1244=DIRECTION('center_axis',(0.,0.,1.));
#1245=DIRECTION('ref_axis',(1.,0.,0.));
#1246=DIRECTION('',(0.,1.,0.));
#1247=DIRECTION('',(0.,1.,0.));
#1248=DIRECTION('',(-1.,0.,0.));
#1249=DIRECTION('',(-1.,0.,0.));
#1250=DIRECTION('',(0.,-1.,0.));
#1251=DIRECTION('',(1.,0.,0.));
#1252=DIRECTION('',(0.,1.,0.));
#1253=DIRECTION('',(-1.,0.,0.));
#1254=DIRECTION('',(0.,-1.,0.));
#1255=DIRECTION('',(1.,0.,0.));
#1256=DIRECTION('',(0.,1.,0.));
#1257=DIRECTION('center_axis',(0.,1.,0.));
#1258=DIRECTION('ref_axis',(-1.,0.,0.));
#1259=DIRECTION('',(0.,0.,1.));
#1260=DIRECTION('',(1.,0.,0.));
#1261=DIRECTION('center_axis',(1.,0.,0.));
#1262=DIRECTION('ref_axis',(0.,1.,0.));
#1263=DIRECTION('',(0.,-1.,0.));
#1264=DIRECTION('center_axis',(0.,0.,1.));
#1265=DIRECTION('ref_axis',(1.,0.,0.));
#1266=DIRECTION('center_axis',(0.,0.,1.));
#1267=DIRECTION('ref_axis',(1.,0.,0.));
#1268=DIRECTION('',(0.,0.,1.));
#1269=DIRECTION('center_axis',(0.,0.,-1.));
#1270=DIRECTION('ref_axis',(1.,0.,0.));
#1271=DIRECTION('center_axis',(0.,0.,1.));
#1272=DIRECTION('ref_axis',(1.,0.,0.));
#1273=DIRECTION('center_axis',(0.,0.,1.));
#1274=DIRECTION('ref_axis',(1.,0.,0.));
#1275=DIRECTION('center_axis',(0.,0.,1.));
#1276=DIRECTION('ref_axis',(1.,0.,0.));
#1277=DIRECTION('',(0.,0.,1.));
#1278=DIRECTION('center_axis',(0.,0.,-1.));
#1279=DIRECTION('ref_axis',(1.,0.,0.));
#1280=DIRECTION('center_axis',(0.,0.,1.));
#1281=DIRECTION('ref_axis',(1.,0.,0.));
#1282=DIRECTION('center_axis',(0.,0.,1.));
#1283=DIRECTION('ref_axis',(1.,0.,0.));
#1284=DIRECTION('center_axis',(0.,0.,1.));
#1285=DIRECTION('ref_axis',(1.,0.,0.));
#1286=DIRECTION('',(0.,0.,1.));
#1287=DIRECTION('center_axis',(0.,0.,-1.));
#1288=DIRECTION('ref_axis',(1.,0.,0.));
#1289=DIRECTION('center_axis',(0.,0.,1.));
#1290=DIRECTION('ref_axis',(1.,0.,0.));
#1291=DIRECTION('center_axis',(0.,0.,1.));
#1292=DIRECTION('ref_axis',(1.,0.,0.));
#1293=DIRECTION('center_axis',(0.,0.,1.));
#1294=DIRECTION('ref_axis',(1.,0.,0.));
#1295=DIRECTION('',(0.,0.,1.));
#1296=DIRECTION('center_axis',(0.,0.,-1.));
#1297=DIRECTION('ref_axis',(1.,0.,0.));
#1298=DIRECTION('center_axis',(0.,0.,1.));
#1299=DIRECTION('ref_axis',(1.,0.,0.));
#1300=DIRECTION('center_axis',(0.,0.,1.));
#1301=DIRECTION('ref_axis',(1.,0.,0.));
#1302=DIRECTION('center_axis',(0.,0.,1.));
#1303=DIRECTION('ref_axis',(1.,0.,0.));
#1304=DIRECTION('',(0.,0.,1.));
#1305=DIRECTION('center_axis',(0.,0.,-1.));
#1306=DIRECTION('ref_axis',(1.,0.,0.));
#1307=DIRECTION('center_axis',(0.,0.,1.));
#1308=DIRECTION('ref_axis',(1.,0.,0.));
#1309=DIRECTION('center_axis',(0.,0.,1.));
#1310=DIRECTION('ref_axis',(1.,0.,0.));
#1311=DIRECTION('center_axis',(0.,0.,1.));
#1312=DIRECTION('ref_axis',(1.,0.,0.));
#1313=DIRECTION('',(0.,0.,1.));
#1314=DIRECTION('center_axis',(0.,0.,-1.));
#1315=DIRECTION('ref_axis',(1.,0.,0.));
#1316=DIRECTION('center_axis',(0.,0.,1.));
#1317=DIRECTION('ref_axis',(1.,0.,0.));
#1318=DIRECTION('center_axis',(0.,0.,1.));
#1319=DIRECTION('ref_axis',(1.,0.,0.));
#1320=DIRECTION('center_axis',(0.,0.,1.));
#1321=DIRECTION('ref_axis',(1.,0.,0.));
#1322=DIRECTION('',(0.,0.,1.));
#1323=DIRECTION('center_axis',(0.,0.,-1.));
#1324=DIRECTION('ref_axis',(1.,0.,0.));
#1325=DIRECTION('center_axis',(0.,0.,1.));
#1326=DIRECTION('ref_axis',(1.,0.,0.));
#1327=DIRECTION('center_axis',(0.,0.,1.));
#1328=DIRECTION('ref_axis',(1.,0.,0.));
#1329=DIRECTION('center_axis',(0.,0.,1.));
#1330=DIRECTION('ref_axis',(1.,0.,0.));
#1331=DIRECTION('',(0.,0.,1.));
#1332=DIRECTION('center_axis',(0.,0.,-1.));
#1333=DIRECTION('ref_axis',(1.,0.,0.));
#1334=DIRECTION('center_axis',(0.,0.,1.));
#1335=DIRECTION('ref_axis',(1.,0.,0.));
#1336=DIRECTION('center_axis',(0.,1.,0.));
#1337=DIRECTION('ref_axis',(-1.,0.,0.));
#1338=DIRECTION('',(0.,0.,1.));
#1339=DIRECTION('',(0.,0.,1.));
#1340=DIRECTION('center_axis',(1.,0.,0.));
#1341=DIRECTION('ref_axis',(0.,1.,0.));
#1342=DIRECTION('',(0.,0.,1.));
#1343=DIRECTION('center_axis',(0.,-1.,0.));
#1344=DIRECTION('ref_axis',(1.,0.,0.));
#1345=DIRECTION('',(0.,0.,1.));
#1346=DIRECTION('center_axis',(-1.,0.,0.));
#1347=DIRECTION('ref_axis',(0.,-1.,0.));
#1348=DIRECTION('center_axis',(0.,1.,0.));
#1349=DIRECTION('ref_axis',(-1.,0.,0.));
#1350=DIRECTION('',(0.,0.,1.));
#1351=DIRECTION('',(1.,0.,0.));
#1352=DIRECTION('',(0.,0.,1.));
#1353=DIRECTION('center_axis',(1.,0.,0.));
#1354=DIRECTION('ref_axis',(0.,1.,0.));
#1355=DIRECTION('',(0.,0.,1.));
#1356=DIRECTION('',(0.,-1.,0.));
#1357=DIRECTION('center_axis',(0.,-1.,0.));
#1358=DIRECTION('ref_axis',(1.,0.,0.));
#1359=DIRECTION('',(0.,0.,1.));
#1360=DIRECTION('',(-1.,0.,0.));
#1361=DIRECTION('center_axis',(-1.,0.,0.));
#1362=DIRECTION('ref_axis',(0.,-1.,0.));
#1363=DIRECTION('',(0.,1.,0.));
#1364=DIRECTION('center_axis',(0.,0.,1.));
#1365=DIRECTION('ref_axis',(1.,0.,0.));
#1366=DIRECTION('center_axis',(0.,0.,1.));
#1367=DIRECTION('ref_axis',(1.,0.,0.));
#1368=DIRECTION('',(0.,0.,-1.));
#1369=DIRECTION('center_axis',(0.,0.,1.));
#1370=DIRECTION('ref_axis',(1.,0.,0.));
#1371=DIRECTION('center_axis',(0.,0.,1.));
#1372=DIRECTION('ref_axis',(1.,0.,0.));
#1373=DIRECTION('center_axis',(0.,0.,1.));
#1374=DIRECTION('ref_axis',(1.,0.,0.));
#1375=DIRECTION('',(0.,0.,-1.));
#1376=DIRECTION('center_axis',(0.,0.,1.));
#1377=DIRECTION('ref_axis',(1.,0.,0.));
#1378=DIRECTION('center_axis',(0.,0.,1.));
#1379=DIRECTION('ref_axis',(1.,0.,0.));
#1380=DIRECTION('center_axis',(0.,0.,1.));
#1381=DIRECTION('ref_axis',(1.,0.,0.));
#1382=DIRECTION('',(0.,0.,-1.));
#1383=DIRECTION('center_axis',(0.,0.,1.));
#1384=DIRECTION('ref_axis',(1.,0.,0.));
#1385=DIRECTION('center_axis',(0.,0.,1.));
#1386=DIRECTION('ref_axis',(1.,0.,0.));
#1387=DIRECTION('center_axis',(0.,0.,1.));
#1388=DIRECTION('ref_axis',(1.,0.,0.));
#1389=DIRECTION('',(0.,0.,-1.));
#1390=DIRECTION('center_axis',(0.,0.,1.));
#1391=DIRECTION('ref_axis',(1.,0.,0.));
#1392=DIRECTION('center_axis',(0.,0.,1.));
#1393=DIRECTION('ref_axis',(1.,0.,0.));
#1394=DIRECTION('center_axis',(0.,0.,1.));
#1395=DIRECTION('ref_axis',(1.,0.,0.));
#1396=DIRECTION('',(0.,0.,-1.));
#1397=DIRECTION('center_axis',(0.,0.,-1.));
#1398=DIRECTION('ref_axis',(1.,0.,0.));
#1399=DIRECTION('center_axis',(0.,0.,1.));
#1400=DIRECTION('ref_axis',(1.,0.,0.));
#1401=DIRECTION('center_axis',(0.,0.,1.));
#1402=DIRECTION('ref_axis',(1.,0.,0.));
#1403=DIRECTION('center_axis',(0.,0.,1.));
#1404=DIRECTION('ref_axis',(1.,0.,0.));
#1405=DIRECTION('',(0.,0.,-1.));
#1406=DIRECTION('center_axis',(0.,0.,-1.));
#1407=DIRECTION('ref_axis',(1.,0.,0.));
#1408=DIRECTION('center_axis',(0.,0.,1.));
#1409=DIRECTION('ref_axis',(1.,0.,0.));
#1410=DIRECTION('center_axis',(0.,0.,1.));
#1411=DIRECTION('ref_axis',(1.,0.,0.));
#1412=DIRECTION('center_axis',(0.,0.,1.));
#1413=DIRECTION('ref_axis',(1.,0.,0.));
#1414=DIRECTION('',(0.,0.,-1.));
#1415=DIRECTION('center_axis',(0.,0.,-1.));
#1416=DIRECTION('ref_axis',(1.,0.,0.));
#1417=DIRECTION('center_axis',(0.,0.,1.));
#1418=DIRECTION('ref_axis',(1.,0.,0.));
#1419=DIRECTION('center_axis',(0.,0.,1.));
#1420=DIRECTION('ref_axis',(1.,0.,0.));
#1421=DIRECTION('center_axis',(0.,0.,1.));
#1422=DIRECTION('ref_axis',(1.,0.,0.));
#1423=DIRECTION('',(0.,0.,-1.));
#1424=DIRECTION('center_axis',(0.,0.,-1.));
#1425=DIRECTION('ref_axis',(1.,0.,0.));
#1426=DIRECTION('center_axis',(0.,0.,1.));
#1427=DIRECTION('ref_axis',(1.,0.,0.));
#1428=DIRECTION('center_axis',(-1.,0.,0.));
#1429=DIRECTION('ref_axis',(0.,-1.,0.));
#1430=DIRECTION('',(0.,1.,0.));
#1431=DIRECTION('',(0.,-1.,0.));
#1432=DIRECTION('center_axis',(1.,0.,0.));
#1433=DIRECTION('ref_axis',(0.,1.,0.));
#1434=DIRECTION('',(0.,1.,0.));
#1435=DIRECTION('center_axis',(0.,0.,1.));
#1436=DIRECTION('ref_axis',(1.,0.,0.));
#1437=DIRECTION('center_axis',(1.,0.,0.));
#1438=DIRECTION('ref_axis',(0.,1.,0.));
#1439=DIRECTION('center_axis',(0.,0.,1.));
#1440=DIRECTION('ref_axis',(1.,0.,0.));
#1441=CARTESIAN_POINT('',(0.,0.,0.));
#1442=CARTESIAN_POINT('Origin',(45.,58.,0.));
#1443=CARTESIAN_POINT('',(43.4,58.,0.));
#1444=CARTESIAN_POINT('Origin',(45.,58.,0.));
#1445=CARTESIAN_POINT('',(43.4,58.,3.));
#1446=CARTESIAN_POINT('',(43.4,58.,0.));
#1447=CARTESIAN_POINT('Origin',(45.,58.,3.));
#1448=CARTESIAN_POINT('Origin',(45.,-58.,0.));
#1449=CARTESIAN_POINT('',(43.4,-58.,0.));
#1450=CARTESIAN_POINT('Origin',(45.,-58.,0.));
#1451=CARTESIAN_POINT('',(43.4,-58.,3.));
#1452=CARTESIAN_POINT('',(43.4,-58.,0.));
#1453=CARTESIAN_POINT('Origin',(45.,-58.,3.));
#1454=CARTESIAN_POINT('Origin',(-56.,58.,0.));
#1455=CARTESIAN_POINT('',(-57.6,58.,0.));
#1456=CARTESIAN_POINT('Origin',(-56.,58.,0.));
#1457=CARTESIAN_POINT('',(-57.6,58.,3.));
#1458=CARTESIAN_POINT('',(-57.6,58.,0.));
#1459=CARTESIAN_POINT('Origin',(-56.,58.,3.));
#1460=CARTESIAN_POINT('Origin',(-56.,-58.,0.));
#1461=CARTESIAN_POINT('',(-57.6,-58.,0.));
#1462=CARTESIAN_POINT('Origin',(-56.,-58.,0.));
#1463=CARTESIAN_POINT('',(-57.6,-58.,3.));
#1464=CARTESIAN_POINT('',(-57.6,-58.,0.));
#1465=CARTESIAN_POINT('Origin',(-56.,-58.,3.));
#1466=CARTESIAN_POINT('Origin',(84.,51.5,0.));
#1467=CARTESIAN_POINT('',(84.,51.5,0.));
#1468=CARTESIAN_POINT('',(101.,51.5,0.));
#1469=CARTESIAN_POINT('',(42.,51.5,0.));
#1470=CARTESIAN_POINT('',(84.,51.5,3.));
#1471=CARTESIAN_POINT('',(84.,51.5,0.));
#1472=CARTESIAN_POINT('',(101.,51.5,3.));
#1473=CARTESIAN_POINT('',(42.,51.5,3.));
#1474=CARTESIAN_POINT('',(101.,51.5,0.));
#1475=CARTESIAN_POINT('Origin',(84.,63.5,0.));
#1476=CARTESIAN_POINT('',(84.,63.5,0.));
#1477=CARTESIAN_POINT('',(84.,31.75,0.));
#1478=CARTESIAN_POINT('',(84.,63.5,3.));
#1479=CARTESIAN_POINT('',(84.,63.5,0.));
#1480=CARTESIAN_POINT('',(84.,31.75,3.));
#1481=CARTESIAN_POINT('Origin',(0.,0.,3.));
#1482=CARTESIAN_POINT('',(-9.5,63.5,3.));
#1483=CARTESIAN_POINT('',(101.,63.5,3.));
#1484=CARTESIAN_POINT('',(-9.49999999999999,-63.5,3.));
#1485=CARTESIAN_POINT('',(-9.5,-31.75,3.));
#1486=CARTESIAN_POINT('',(84.,-63.5,3.));
#1487=CARTESIAN_POINT('',(-101.,-63.5,3.));
#1488=CARTESIAN_POINT('',(84.,-51.5,3.));
#1489=CARTESIAN_POINT('',(84.,-25.75,3.));
#1490=CARTESIAN_POINT('',(101.,-51.5,3.));
#1491=CARTESIAN_POINT('',(50.5,-51.5,3.));
#1492=CARTESIAN_POINT('',(101.,-63.5,3.));
#1493=CARTESIAN_POINT('',(-1.5,12.,3.));
#1494=CARTESIAN_POINT('',(6.5,12.,3.));
#1495=CARTESIAN_POINT('',(3.25,12.,3.));
#1496=CARTESIAN_POINT('',(6.5,-12.,3.));
#1497=CARTESIAN_POINT('',(6.5,-6.,3.));
#1498=CARTESIAN_POINT('',(-1.5,-12.,3.));
#1499=CARTESIAN_POINT('',(-0.75,-12.,3.));
#1500=CARTESIAN_POINT('',(-1.5,6.,3.));
#1501=CARTESIAN_POINT('',(75.,25.,3.));
#1502=CARTESIAN_POINT('Origin',(80.,25.,3.));
#1503=CARTESIAN_POINT('',(75.,-25.,3.));
#1504=CARTESIAN_POINT('Origin',(80.,-25.,3.));
#1505=CARTESIAN_POINT('',(5.,25.,3.));
#1506=CARTESIAN_POINT('Origin',(10.,25.,3.));
#1507=CARTESIAN_POINT('',(5.,-25.,3.));
#1508=CARTESIAN_POINT('Origin',(10.,-25.,3.));
#1509=CARTESIAN_POINT('Origin',(101.,63.5,0.));
#1510=CARTESIAN_POINT('',(-84.,63.5,0.));
#1511=CARTESIAN_POINT('',(101.,63.5,0.));
#1512=CARTESIAN_POINT('',(-84.,63.5,3.));
#1513=CARTESIAN_POINT('',(-84.,63.5,0.));
#1514=CARTESIAN_POINT('',(-12.5,63.5,3.));
#1515=CARTESIAN_POINT('',(101.,63.5,3.));
#1516=CARTESIAN_POINT('',(-12.5,63.5,28.));
#1517=CARTESIAN_POINT('',(-12.5,63.5,0.));
#1518=CARTESIAN_POINT('',(-9.5,63.5,28.));
#1519=CARTESIAN_POINT('',(-9.5,63.5,28.));
#1520=CARTESIAN_POINT('',(-9.5,63.5,0.));
#1521=CARTESIAN_POINT('Origin',(101.,-51.5,0.));
#1522=CARTESIAN_POINT('',(101.,-51.5,0.));
#1523=CARTESIAN_POINT('',(84.,-51.5,0.));
#1524=CARTESIAN_POINT('',(50.5,-51.5,0.));
#1525=CARTESIAN_POINT('',(101.,-51.5,0.));
#1526=CARTESIAN_POINT('',(84.,-51.5,0.));
#1527=CARTESIAN_POINT('Origin',(84.,-51.5,0.));
#1528=CARTESIAN_POINT('',(84.,-63.5,0.));
#1529=CARTESIAN_POINT('',(84.,-25.75,0.));
#1530=CARTESIAN_POINT('',(84.,-63.5,0.));
#1531=CARTESIAN_POINT('Origin',(-101.,-63.5,0.));
#1532=CARTESIAN_POINT('',(-9.5,-63.5,28.));
#1533=CARTESIAN_POINT('',(-9.5,-63.5,0.));
#1534=CARTESIAN_POINT('',(-12.5,-63.5,28.));
#1535=CARTESIAN_POINT('',(-12.5,-63.5,28.));
#1536=CARTESIAN_POINT('',(-12.5,-63.5,3.));
#1537=CARTESIAN_POINT('',(-12.5,-63.5,0.));
#1538=CARTESIAN_POINT('',(-84.,-63.5,3.));
#1539=CARTESIAN_POINT('',(-101.,-63.5,3.));
#1540=CARTESIAN_POINT('',(-84.,-63.5,0.));
#1541=CARTESIAN_POINT('',(-84.,-63.5,0.));
#1542=CARTESIAN_POINT('',(-101.,-63.5,0.));
#1543=CARTESIAN_POINT('Origin',(-84.,51.5,0.));
#1544=CARTESIAN_POINT('',(-84.,51.5,0.));
#1545=CARTESIAN_POINT('',(-84.,25.75,0.));
#1546=CARTESIAN_POINT('',(-84.,51.5,3.));
#1547=CARTESIAN_POINT('',(-84.,51.5,0.));
#1548=CARTESIAN_POINT('',(-84.,25.75,3.));
#1549=CARTESIAN_POINT('Origin',(-101.,51.5,0.));
#1550=CARTESIAN_POINT('',(-101.,51.5,0.));
#1551=CARTESIAN_POINT('',(-50.5,51.5,0.));
#1552=CARTESIAN_POINT('',(-101.,51.5,3.));
#1553=CARTESIAN_POINT('',(-101.,51.5,0.));
#1554=CARTESIAN_POINT('',(-50.5,51.5,3.));
#1555=CARTESIAN_POINT('Origin',(-101.,63.5,0.));
#1556=CARTESIAN_POINT('',(-101.,-51.5,0.));
#1557=CARTESIAN_POINT('',(-101.,63.5,0.));
#1558=CARTESIAN_POINT('',(-101.,-51.5,3.));
#1559=CARTESIAN_POINT('',(-101.,-51.5,0.));
#1560=CARTESIAN_POINT('',(-101.,63.5,3.));
#1561=CARTESIAN_POINT('Origin',(0.,0.,0.));
#1562=CARTESIAN_POINT('',(101.,-63.5,0.));
#1563=CARTESIAN_POINT('',(-84.,-51.5,0.));
#1564=CARTESIAN_POINT('',(-84.,-31.75,0.));
#1565=CARTESIAN_POINT('',(-42.,-51.5,0.));
#1566=CARTESIAN_POINT('',(6.5,12.,0.));
#1567=CARTESIAN_POINT('',(-1.5,12.,0.));
#1568=CARTESIAN_POINT('',(3.25,12.,0.));
#1569=CARTESIAN_POINT('',(-1.5,-12.,0.));
#1570=CARTESIAN_POINT('',(-1.5,6.,0.));
#1571=CARTESIAN_POINT('',(6.5,-12.,0.));
#1572=CARTESIAN_POINT('',(-0.75,-12.,0.));
#1573=CARTESIAN_POINT('',(6.5,-6.,0.));
#1574=CARTESIAN_POINT('',(-20.5,12.,0.));
#1575=CARTESIAN_POINT('',(-28.5,12.,0.));
#1576=CARTESIAN_POINT('',(-10.25,12.,0.));
#1577=CARTESIAN_POINT('',(-28.5,-12.,0.));
#1578=CARTESIAN_POINT('',(-28.5,6.,0.));
#1579=CARTESIAN_POINT('',(-20.5,-12.,0.));
#1580=CARTESIAN_POINT('',(-14.25,-12.,0.));
#1581=CARTESIAN_POINT('',(-20.5,-6.,0.));
#1582=CARTESIAN_POINT('Origin',(-84.,-51.5,0.));
#1583=CARTESIAN_POINT('',(-84.,-51.5,3.));
#1584=CARTESIAN_POINT('',(-84.,-51.5,0.));
#1585=CARTESIAN_POINT('',(-42.,-51.5,3.));
#1586=CARTESIAN_POINT('Origin',(-84.,-63.5,0.));
#1587=CARTESIAN_POINT('',(-84.,-31.75,3.));
#1588=CARTESIAN_POINT('Origin',(80.,25.,3.));
#1589=CARTESIAN_POINT('',(78.4,25.,3.));
#1590=CARTESIAN_POINT('Origin',(80.,25.,3.));
#1591=CARTESIAN_POINT('',(78.4,25.,11.));
#1592=CARTESIAN_POINT('',(78.4,25.,3.));
#1593=CARTESIAN_POINT('Origin',(80.,25.,11.));
#1594=CARTESIAN_POINT('Origin',(80.,25.,3.));
#1595=CARTESIAN_POINT('Origin',(80.,-25.,3.));
#1596=CARTESIAN_POINT('',(78.4,-25.,3.));
#1597=CARTESIAN_POINT('Origin',(80.,-25.,3.));
#1598=CARTESIAN_POINT('',(78.4,-25.,11.));
#1599=CARTESIAN_POINT('',(78.4,-25.,3.));
#1600=CARTESIAN_POINT('Origin',(80.,-25.,11.));
#1601=CARTESIAN_POINT('Origin',(80.,-25.,3.));
#1602=CARTESIAN_POINT('Origin',(10.,25.,3.));
#1603=CARTESIAN_POINT('',(8.4,25.,3.));
#1604=CARTESIAN_POINT('Origin',(10.,25.,3.));
#1605=CARTESIAN_POINT('',(8.4,25.,11.));
#1606=CARTESIAN_POINT('',(8.4,25.,3.));
#1607=CARTESIAN_POINT('Origin',(10.,25.,11.));
#1608=CARTESIAN_POINT('Origin',(10.,25.,3.));
#1609=CARTESIAN_POINT('Origin',(10.,-25.,3.));
#1610=CARTESIAN_POINT('',(8.4,-25.,3.));
#1611=CARTESIAN_POINT('Origin',(10.,-25.,3.));
#1612=CARTESIAN_POINT('',(8.4,-25.,11.));
#1613=CARTESIAN_POINT('',(8.4,-25.,3.));
#1614=CARTESIAN_POINT('Origin',(10.,-25.,11.));
#1615=CARTESIAN_POINT('Origin',(10.,-25.,3.));
#1616=CARTESIAN_POINT('Origin',(-26.,30.,3.));
#1617=CARTESIAN_POINT('',(-27.6,30.,3.));
#1618=CARTESIAN_POINT('Origin',(-26.,30.,3.));
#1619=CARTESIAN_POINT('',(-27.6,30.,11.));
#1620=CARTESIAN_POINT('',(-27.6,30.,3.));
#1621=CARTESIAN_POINT('Origin',(-26.,30.,11.));
#1622=CARTESIAN_POINT('Origin',(-26.,30.,3.));
#1623=CARTESIAN_POINT('Origin',(-26.,-30.,3.));
#1624=CARTESIAN_POINT('',(-27.6,-30.,3.));
#1625=CARTESIAN_POINT('Origin',(-26.,-30.,3.));
#1626=CARTESIAN_POINT('',(-27.6,-30.,11.));
#1627=CARTESIAN_POINT('',(-27.6,-30.,3.));
#1628=CARTESIAN_POINT('Origin',(-26.,-30.,11.));
#1629=CARTESIAN_POINT('Origin',(-26.,-30.,3.));
#1630=CARTESIAN_POINT('Origin',(-86.,30.,3.));
#1631=CARTESIAN_POINT('',(-87.6,30.,3.));
#1632=CARTESIAN_POINT('Origin',(-86.,30.,3.));
#1633=CARTESIAN_POINT('',(-87.6,30.,11.));
#1634=CARTESIAN_POINT('',(-87.6,30.,3.));
#1635=CARTESIAN_POINT('Origin',(-86.,30.,11.));
#1636=CARTESIAN_POINT('Origin',(-86.,30.,3.));
#1637=CARTESIAN_POINT('Origin',(-86.,-30.,3.));
#1638=CARTESIAN_POINT('',(-87.6,-30.,3.));
#1639=CARTESIAN_POINT('Origin',(-86.,-30.,3.));
#1640=CARTESIAN_POINT('',(-87.6,-30.,11.));
#1641=CARTESIAN_POINT('',(-87.6,-30.,3.));
#1642=CARTESIAN_POINT('Origin',(-86.,-30.,11.));
#1643=CARTESIAN_POINT('Origin',(-86.,-30.,3.));
#1644=CARTESIAN_POINT('Origin',(6.5,12.,0.));
#1645=CARTESIAN_POINT('',(6.5,12.,0.));
#1646=CARTESIAN_POINT('',(-1.5,12.,0.));
#1647=CARTESIAN_POINT('Origin',(6.5,-12.,0.));
#1648=CARTESIAN_POINT('',(6.5,-12.,0.));
#1649=CARTESIAN_POINT('Origin',(-1.5,-12.,0.));
#1650=CARTESIAN_POINT('',(-1.5,-12.,0.));
#1651=CARTESIAN_POINT('Origin',(-1.5,12.,0.));
#1652=CARTESIAN_POINT('Origin',(-20.5,12.,0.));
#1653=CARTESIAN_POINT('',(-20.5,12.,3.));
#1654=CARTESIAN_POINT('',(-20.5,12.,0.));
#1655=CARTESIAN_POINT('',(-28.5,12.,3.));
#1656=CARTESIAN_POINT('',(-10.25,12.,3.));
#1657=CARTESIAN_POINT('',(-28.5,12.,0.));
#1658=CARTESIAN_POINT('Origin',(-20.5,-12.,0.));
#1659=CARTESIAN_POINT('',(-20.5,-12.,3.));
#1660=CARTESIAN_POINT('',(-20.5,-12.,0.));
#1661=CARTESIAN_POINT('',(-20.5,-6.,3.));
#1662=CARTESIAN_POINT('Origin',(-28.5,-12.,0.));
#1663=CARTESIAN_POINT('',(-28.5,-12.,3.));
#1664=CARTESIAN_POINT('',(-28.5,-12.,0.));
#1665=CARTESIAN_POINT('',(-14.25,-12.,3.));
#1666=CARTESIAN_POINT('Origin',(-28.5,12.,0.));
#1667=CARTESIAN_POINT('',(-28.5,6.,3.));
#1668=CARTESIAN_POINT('Origin',(80.,25.,0.));
#1669=CARTESIAN_POINT('',(75.,25.,11.));
#1670=CARTESIAN_POINT('Origin',(80.,25.,11.));
#1671=CARTESIAN_POINT('',(75.,25.,0.));
#1672=CARTESIAN_POINT('Origin',(80.,25.,11.));
#1673=CARTESIAN_POINT('Origin',(80.,-25.,0.));
#1674=CARTESIAN_POINT('',(75.,-25.,11.));
#1675=CARTESIAN_POINT('Origin',(80.,-25.,11.));
#1676=CARTESIAN_POINT('',(75.,-25.,0.));
#1677=CARTESIAN_POINT('Origin',(80.,-25.,11.));
#1678=CARTESIAN_POINT('Origin',(10.,25.,0.));
#1679=CARTESIAN_POINT('',(5.,25.,11.));
#1680=CARTESIAN_POINT('Origin',(10.,25.,11.));
#1681=CARTESIAN_POINT('',(5.,25.,0.));
#1682=CARTESIAN_POINT('Origin',(10.,25.,11.));
#1683=CARTESIAN_POINT('Origin',(10.,-25.,0.));
#1684=CARTESIAN_POINT('',(5.,-25.,11.));
#1685=CARTESIAN_POINT('Origin',(10.,-25.,11.));
#1686=CARTESIAN_POINT('',(5.,-25.,0.));
#1687=CARTESIAN_POINT('Origin',(10.,-25.,11.));
#1688=CARTESIAN_POINT('Origin',(-26.,30.,0.));
#1689=CARTESIAN_POINT('',(-31.,30.,11.));
#1690=CARTESIAN_POINT('Origin',(-26.,30.,11.));
#1691=CARTESIAN_POINT('',(-31.,30.,3.));
#1692=CARTESIAN_POINT('',(-31.,30.,0.));
#1693=CARTESIAN_POINT('Origin',(-26.,30.,3.));
#1694=CARTESIAN_POINT('Origin',(-26.,30.,11.));
#1695=CARTESIAN_POINT('Origin',(-26.,-30.,0.));
#1696=CARTESIAN_POINT('',(-31.,-30.,11.));
#1697=CARTESIAN_POINT('Origin',(-26.,-30.,11.));
#1698=CARTESIAN_POINT('',(-31.,-30.,3.));
#1699=CARTESIAN_POINT('',(-31.,-30.,0.));
#1700=CARTESIAN_POINT('Origin',(-26.,-30.,3.));
#1701=CARTESIAN_POINT('Origin',(-26.,-30.,11.));
#1702=CARTESIAN_POINT('Origin',(-86.,30.,0.));
#1703=CARTESIAN_POINT('',(-91.,30.,11.));
#1704=CARTESIAN_POINT('Origin',(-86.,30.,11.));
#1705=CARTESIAN_POINT('',(-91.,30.,3.));
#1706=CARTESIAN_POINT('',(-91.,30.,0.));
#1707=CARTESIAN_POINT('Origin',(-86.,30.,3.));
#1708=CARTESIAN_POINT('Origin',(-86.,30.,11.));
#1709=CARTESIAN_POINT('Origin',(-86.,-30.,0.));
#1710=CARTESIAN_POINT('',(-91.,-30.,11.));
#1711=CARTESIAN_POINT('Origin',(-86.,-30.,11.));
#1712=CARTESIAN_POINT('',(-91.,-30.,3.));
#1713=CARTESIAN_POINT('',(-91.,-30.,0.));
#1714=CARTESIAN_POINT('Origin',(-86.,-30.,3.));
#1715=CARTESIAN_POINT('Origin',(-86.,-30.,11.));
#1716=CARTESIAN_POINT('Origin',(-12.5,63.5,0.));
#1717=CARTESIAN_POINT('',(-12.5,31.75,3.));
#1718=CARTESIAN_POINT('',(-12.5,63.5,28.));
#1719=CARTESIAN_POINT('Origin',(-9.5,-63.5,0.));
#1720=CARTESIAN_POINT('',(-9.5,-63.5,28.));
#1721=CARTESIAN_POINT('Origin',(-11.,0.,28.));
#1722=CARTESIAN_POINT('Origin',(101.,-63.5,0.));
#1723=CARTESIAN_POINT('Origin',(0.,0.,3.));
#1724=UNCERTAINTY_MEASURE_WITH_UNIT(LENGTH_MEASURE(0.01),#1728,
'DISTANCE_ACCURACY_VALUE',
'Maximum model space distance between geometric entities at asserted c
onnectivities');
#1725=UNCERTAINTY_MEASURE_WITH_UNIT(LENGTH_MEASURE(0.01),#1728,
'DISTANCE_ACCURACY_VALUE',
'Maximum model space distance between geometric entities at asserted c
onnectivities');
#1726=(
GEOMETRIC_REPRESENTATION_CONTEXT(3)
GLOBAL_UNCERTAINTY_ASSIGNED_CONTEXT((#1724))
GLOBAL_UNIT_ASSIGNED_CONTEXT((#1728,#1730,#1731))
REPRESENTATION_CONTEXT('','3D')
);
#1727=(
GEOMETRIC_REPRESENTATION_CONTEXT(3)
GLOBAL_UNCERTAINTY_ASSIGNED_CONTEXT((#1725))
GLOBAL_UNIT_ASSIGNED_CONTEXT((#1728,#1730,#1731))
REPRESENTATION_CONTEXT('','3D')
);
#1728=(
LENGTH_UNIT()
NAMED_UNIT(*)
SI_UNIT(.MILLI.,.METRE.)
);
#1729=(
LENGTH_UNIT()
NAMED_UNIT(*)
SI_UNIT($,.METRE.)
);
#1730=(
NAMED_UNIT(*)
PLANE_ANGLE_UNIT()
SI_UNIT($,.RADIAN.)
);
#1731=(
NAMED_UNIT(*)
SI_UNIT($,.STERADIAN.)
SOLID_ANGLE_UNIT()
);
#1732=SHAPE_DEFINITION_REPRESENTATION(#1733,#1734);
#1733=PRODUCT_DEFINITION_SHAPE('',$,#1736);
#1734=SHAPE_REPRESENTATION('',(#1040),#1726);
#1735=PRODUCT_DEFINITION_CONTEXT('part definition',#1740,'design');
#1736=PRODUCT_DEFINITION('SmartMeter_InternalTray',
'SmartMeter_InternalTray',#1737,#1735);
#1737=PRODUCT_DEFINITION_FORMATION('',$,#1742);
#1738=PRODUCT_RELATED_PRODUCT_CATEGORY('SmartMeter_InternalTray',
'SmartMeter_InternalTray',(#1742));
#1739=APPLICATION_PROTOCOL_DEFINITION('international standard',
'automotive_design',2009,#1740);
#1740=APPLICATION_CONTEXT(
'Core Data for Automotive Mechanical Design Process');
#1741=PRODUCT_CONTEXT('part definition',#1740,'mechanical');
#1742=PRODUCT('SmartMeter_InternalTray','SmartMeter_InternalTray',$,(#1741));
#1743=PRESENTATION_STYLE_ASSIGNMENT((#1744));
#1744=SURFACE_STYLE_USAGE(.BOTH.,#1745);
#1745=SURFACE_SIDE_STYLE('',(#1746));
#1746=SURFACE_STYLE_FILL_AREA(#1747);
#1747=FILL_AREA_STYLE('A\X\E7o - Acetinado',(#1748));
#1748=FILL_AREA_STYLE_COLOUR('A\X\E7o - Acetinado',#1749);
#1749=COLOUR_RGB('A\X\E7o - Acetinado',0.627450980392157,0.627450980392157,
0.627450980392157);
ENDSEC;
END-ISO-10303-21;
